<?xml version="1.0" encoding="UTF-8" standalone="no"?>
<!DOCTYPE svg PUBLIC "-//W3C//DTD SVG 1.1//EN"
 "http://www.w3.org/Graphics/SVG/1.1/DTD/svg11.dtd">
<!-- Generated by graphviz version 2.40.1 (20161225.0304)
 -->
<!-- Title: public.bean_tastings Pages: 1 -->
<svg width="1246pt" height="652pt"
 viewBox="0.00 0.00 1246.00 652.00" xmlns="http://www.w3.org/2000/svg" xmlns:xlink="http://www.w3.org/1999/xlink">
<g id="graph0" class="graph" transform="scale(1 1) rotate(0) translate(4 648)">
<title>public.bean_tastings</title>
<polygon fill="#ffffff" stroke="transparent" points="-4,4 -4,-648 1242,-648 1242,4 -4,4"/>
<!-- public.bean_tastings -->
<g id="node1" class="node">
<title>public.bean_tastings</title>
<polygon fill="#efefef" stroke="transparent" points="481,-562.5 481,-597.5 771,-597.5 771,-562.5 481,-562.5"/>
<polygon fill="none" stroke="#000000" points="481,-562.5 481,-597.5 771,-597.5 771,-562.5 481,-562.5"/>
<text text-anchor="start" x="495.3444" y="-575.3" font-family="Arial Bold" font-size="18.00" fill="#000000">public.bean_tastings</text>
<text text-anchor="start" x="659.4018" y="-575.3" font-family="Arial" font-size="14.00" fill="#000000"> </text>
<text text-anchor="start" x="663.2924" y="-575.3" font-family="Arial" font-size="14.00" fill="#666666">[BASE TABLE]</text>
<polygon fill="none" stroke="#000000" points="481,-532.5 481,-562.5 771,-562.5 771,-532.5 481,-532.5"/>
<text text-anchor="start" x="488" y="-543.9" font-family="Arial" font-size="14.00" fill="#000000">tasting_id </text>
<text text-anchor="start" x="551.798" y="-543.9" font-family="Arial" font-size="14.00" fill="#666666">[text]</text>
<polygon fill="none" stroke="#000000" points="481,-502.5 481,-532.5 771,-532.5 771,-502.5 481,-502.5"/>
<text text-anchor="start" x="488" y="-513.9" font-family="Arial" font-size="14.00" fill="#000000">bean_id </text>
<text text-anchor="start" x="541.6928" y="-513.9" font-family="Arial" font-size="14.00" fill="#666666">[text]</text>
<polygon fill="none" stroke="#000000" points="481,-472.5 481,-502.5 771,-502.5 771,-472.5 481,-472.5"/>
<text text-anchor="start" x="488" y="-483.9" font-family="Arial" font-size="14.00" fill="#000000">created_at </text>
<text text-anchor="start" x="558.028" y="-483.9" font-family="Arial" font-size="14.00" fill="#666666">[timestamp(3) without time zone]</text>
<polygon fill="none" stroke="#000000" points="481,-442.5 481,-472.5 771,-472.5 771,-442.5 481,-442.5"/>
<text text-anchor="start" x="487.9117" y="-453.9" font-family="Arial" font-size="14.00" fill="#000000">updated_at </text>
<text text-anchor="start" x="561.8443" y="-453.9" font-family="Arial" font-size="14.00" fill="#666666">[timestamp(3) without time zone]</text>
<polygon fill="none" stroke="#000000" stroke-width="3" points="479.5,-441.5 479.5,-599.5 772.5,-599.5 772.5,-441.5 479.5,-441.5"/>
</g>
<!-- public.tastings -->
<g id="node2" class="node">
<title>public.tastings</title>
<polygon fill="#efefef" stroke="transparent" points="274,-282.5 274,-317.5 578,-317.5 578,-282.5 274,-282.5"/>
<polygon fill="none" stroke="#000000" points="274,-282.5 274,-317.5 578,-317.5 578,-282.5 274,-282.5"/>
<text text-anchor="start" x="320.3599" y="-295.3" font-family="Arial Bold" font-size="18.00" fill="#000000">public.tastings</text>
<text text-anchor="start" x="434.3863" y="-295.3" font-family="Arial" font-size="14.00" fill="#000000"> </text>
<text text-anchor="start" x="438.2769" y="-295.3" font-family="Arial" font-size="14.00" fill="#666666">[BASE TABLE]</text>
<polygon fill="none" stroke="#000000" points="274,-252.5 274,-282.5 578,-282.5 578,-252.5 274,-252.5"/>
<text text-anchor="start" x="281" y="-263.9" font-family="Arial" font-size="14.00" fill="#000000">id </text>
<text text-anchor="start" x="295.7798" y="-263.9" font-family="Arial" font-size="14.00" fill="#666666">[text]</text>
<polygon fill="none" stroke="#000000" points="274,-222.5 274,-252.5 578,-252.5 578,-222.5 274,-222.5"/>
<text text-anchor="start" x="281" y="-233.9" font-family="Arial" font-size="14.00" fill="#000000">name </text>
<text text-anchor="start" x="319.899" y="-233.9" font-family="Arial" font-size="14.00" fill="#666666">[text]</text>
<polygon fill="none" stroke="#000000" points="274,-192.5 274,-222.5 578,-222.5 578,-192.5 274,-192.5"/>
<text text-anchor="start" x="281" y="-203.9" font-family="Arial" font-size="14.00" fill="#000000">description </text>
<text text-anchor="start" x="352.568" y="-203.9" font-family="Arial" font-size="14.00" fill="#666666">[text]</text>
<polygon fill="none" stroke="#000000" points="274,-162.5 274,-192.5 578,-192.5 578,-162.5 274,-162.5"/>
<text text-anchor="start" x="281" y="-173.9" font-family="Arial" font-size="14.00" fill="#000000">acidity </text>
<text text-anchor="start" x="324.5596" y="-173.9" font-family="Arial" font-size="14.00" fill="#666666">[integer]</text>
<polygon fill="none" stroke="#000000" points="274,-132.5 274,-162.5 578,-162.5 578,-132.5 274,-132.5"/>
<text text-anchor="start" x="281" y="-143.9" font-family="Arial" font-size="14.00" fill="#000000">richness </text>
<text text-anchor="start" x="337.0056" y="-143.9" font-family="Arial" font-size="14.00" fill="#666666">[integer]</text>
<polygon fill="none" stroke="#000000" points="274,-102.5 274,-132.5 578,-132.5 578,-102.5 274,-102.5"/>
<text text-anchor="start" x="280.9117" y="-113.9" font-family="Arial" font-size="14.00" fill="#000000">conducted_at </text>
<text text-anchor="start" x="368.8443" y="-113.9" font-family="Arial" font-size="14.00" fill="#666666">[timestamp(3) without time zone]</text>
<polygon fill="none" stroke="#000000" points="274,-72.5 274,-102.5 578,-102.5 578,-72.5 274,-72.5"/>
<text text-anchor="start" x="281" y="-83.9" font-family="Arial" font-size="14.00" fill="#000000">created_at </text>
<text text-anchor="start" x="351.028" y="-83.9" font-family="Arial" font-size="14.00" fill="#666666">[timestamp(3) without time zone]</text>
<polygon fill="none" stroke="#000000" points="274,-42.5 274,-72.5 578,-72.5 578,-42.5 274,-42.5"/>
<text text-anchor="start" x="281" y="-53.9" font-family="Arial" font-size="14.00" fill="#000000">updated_at </text>
<text text-anchor="start" x="354.9326" y="-53.9" font-family="Arial" font-size="14.00" fill="#666666">[timestamp(3) without time zone]</text>
</g>
<!-- public.bean_tastings&#45;&gt;public.tastings -->
<g id="edge1" class="edge">
<title>public.bean_tastings:tasting_id&#45;&gt;public.tastings:id</title>
<path fill="none" stroke="#000000" d="M470.8696,-546.6647C417.2781,-537.1668 444.8959,-448.9099 481,-397 507.2566,-359.2487 551.7434,-398.7513 578,-361 601.7278,-326.8846 619.5556,-267.5 578,-267.5"/>
<polygon fill="#000000" stroke="#000000" points="471.0338,-546.6781 480.6302,-551.9848 476.0169,-547.0891 481,-547.5 481,-547.5 481,-547.5 476.0169,-547.0891 481.3698,-543.0152 471.0338,-546.6781 471.0338,-546.6781"/>
<text text-anchor="start" x="7.106" y="-557.5" font-family="Arial" font-size="10.00" fill="#000000">FOREIGN KEY (tasting_id) REFERENCES tastings(id) ON UPDATE CASCADE ON DELETE RESTRICT</text>
</g>
<!-- public.beans -->
<g id="node3" class="node">
<title>public.beans</title>
<polygon fill="#efefef" stroke="transparent" points="682,-282.5 682,-317.5 972,-317.5 972,-282.5 682,-282.5"/>
<polygon fill="none" stroke="#000000" points="682,-282.5 682,-317.5 972,-317.5 972,-282.5 682,-282.5"/>
<text text-anchor="start" x="727.8561" y="-295.3" font-family="Arial Bold" font-size="18.00" fill="#000000">public.beans</text>
<text text-anchor="start" x="828.8901" y="-295.3" font-family="Arial" font-size="14.00" fill="#000000"> </text>
<text text-anchor="start" x="832.7807" y="-295.3" font-family="Arial" font-size="14.00" fill="#666666">[BASE TABLE]</text>
<polygon fill="none" stroke="#000000" points="682,-252.5 682,-282.5 972,-282.5 972,-252.5 682,-252.5"/>
<text text-anchor="start" x="689" y="-263.9" font-family="Arial" font-size="14.00" fill="#000000">id </text>
<text text-anchor="start" x="703.7798" y="-263.9" font-family="Arial" font-size="14.00" fill="#666666">[text]</text>
<polygon fill="none" stroke="#000000" points="682,-222.5 682,-252.5 972,-252.5 972,-222.5 682,-222.5"/>
<text text-anchor="start" x="689" y="-233.9" font-family="Arial" font-size="14.00" fill="#000000">name </text>
<text text-anchor="start" x="727.899" y="-233.9" font-family="Arial" font-size="14.00" fill="#666666">[text]</text>
<polygon fill="none" stroke="#000000" points="682,-192.5 682,-222.5 972,-222.5 972,-192.5 682,-192.5"/>
<text text-anchor="start" x="689" y="-203.9" font-family="Arial" font-size="14.00" fill="#000000">description </text>
<text text-anchor="start" x="760.568" y="-203.9" font-family="Arial" font-size="14.00" fill="#666666">[text]</text>
<polygon fill="none" stroke="#000000" points="682,-162.5 682,-192.5 972,-192.5 972,-162.5 682,-162.5"/>
<text text-anchor="start" x="689" y="-173.9" font-family="Arial" font-size="14.00" fill="#000000">origin_id </text>
<text text-anchor="start" x="745.784" y="-173.9" font-family="Arial" font-size="14.00" fill="#666666">[text]</text>
<polygon fill="none" stroke="#000000" points="682,-132.5 682,-162.5 972,-162.5 972,-132.5 682,-132.5"/>
<text text-anchor="start" x="689" y="-143.9" font-family="Arial" font-size="14.00" fill="#000000">roast_level_id </text>
<text text-anchor="start" x="779.2398" y="-143.9" font-family="Arial" font-size="14.00" fill="#666666">[text]</text>
<polygon fill="none" stroke="#000000" points="682,-102.5 682,-132.5 972,-132.5 972,-102.5 682,-102.5"/>
<text text-anchor="start" x="689" y="-113.9" font-family="Arial" font-size="14.00" fill="#000000">processing_method_id </text>
<text text-anchor="start" x="833.7068" y="-113.9" font-family="Arial" font-size="14.00" fill="#666666">[text]</text>
<polygon fill="none" stroke="#000000" points="682,-72.5 682,-102.5 972,-102.5 972,-72.5 682,-72.5"/>
<text text-anchor="start" x="689" y="-83.9" font-family="Arial" font-size="14.00" fill="#000000">created_at </text>
<text text-anchor="start" x="759.028" y="-83.9" font-family="Arial" font-size="14.00" fill="#666666">[timestamp(3) without time zone]</text>
<polygon fill="none" stroke="#000000" points="682,-42.5 682,-72.5 972,-72.5 972,-42.5 682,-42.5"/>
<text text-anchor="start" x="688.9117" y="-53.9" font-family="Arial" font-size="14.00" fill="#000000">updated_at </text>
<text text-anchor="start" x="762.8443" y="-53.9" font-family="Arial" font-size="14.00" fill="#666666">[timestamp(3) without time zone]</text>
</g>
<!-- public.bean_tastings&#45;&gt;public.beans -->
<g id="edge2" class="edge">
<title>public.bean_tastings:bean_id&#45;&gt;public.beans:id</title>
<path fill="none" stroke="#000000" d="M781.1769,-516.4089C821.2032,-506.9559 798.8339,-438.2833 771,-397 747.1469,-361.621 705.8531,-396.379 682,-361 658.7694,-326.5442 640.4444,-267.5 682,-267.5"/>
<polygon fill="#000000" stroke="#000000" points="780.943,-516.4339 770.5202,-513.0256 775.9715,-516.9669 771,-517.5 771,-517.5 771,-517.5 775.9715,-516.9669 771.4798,-521.9744 780.943,-516.4339 780.943,-516.4339"/>
<text text-anchor="start" x="778.324" y="-527.5" font-family="Arial" font-size="10.00" fill="#000000">FOREIGN KEY (bean_id) REFERENCES beans(id) ON UPDATE CASCADE ON DELETE RESTRICT</text>
</g>
</g>
</svg>
