<?xml version="1.0" encoding="UTF-8" standalone="no"?>
<!DOCTYPE svg PUBLIC "-//W3C//DTD SVG 1.1//EN"
 "http://www.w3.org/Graphics/SVG/1.1/DTD/svg11.dtd">
<!-- Generated by graphviz version 2.40.1 (20161225.0304)
 -->
<!-- Title: public.tastings Pages: 1 -->
<svg width="852pt" height="652pt"
 viewBox="0.00 0.00 852.00 652.00" xmlns="http://www.w3.org/2000/svg" xmlns:xlink="http://www.w3.org/1999/xlink">
<g id="graph0" class="graph" transform="scale(1 1) rotate(0) translate(4 648)">
<title>public.tastings</title>
<polygon fill="#ffffff" stroke="transparent" points="-4,4 -4,-648 848,-648 848,4 -4,4"/>
<!-- public.tastings -->
<g id="node1" class="node">
<title>public.tastings</title>
<polygon fill="#efefef" stroke="transparent" points="51,-285.5 51,-320.5 355,-320.5 355,-285.5 51,-285.5"/>
<polygon fill="none" stroke="#000000" points="51,-285.5 51,-320.5 355,-320.5 355,-285.5 51,-285.5"/>
<text text-anchor="start" x="82.2028" y="-298.3" font-family="Arial Bold" font-size="18.00" fill="#000000">public.tastings</text>
<text text-anchor="start" x="196.2292" y="-298.3" font-family="Arial" font-size="14.00" fill="#000000">    </text>
<text text-anchor="start" x="230.434" y="-298.3" font-family="Arial" font-size="14.00" fill="#666666">[BASE TABLE]</text>
<polygon fill="none" stroke="#000000" points="51,-255.5 51,-285.5 355,-285.5 355,-255.5 51,-255.5"/>
<text text-anchor="start" x="58" y="-266.9" font-family="Arial" font-size="14.00" fill="#000000">id </text>
<text text-anchor="start" x="72.7798" y="-266.9" font-family="Arial" font-size="14.00" fill="#666666">[text]</text>
<polygon fill="none" stroke="#000000" points="51,-225.5 51,-255.5 355,-255.5 355,-225.5 51,-225.5"/>
<text text-anchor="start" x="58" y="-236.9" font-family="Arial" font-size="14.00" fill="#000000">name </text>
<text text-anchor="start" x="96.899" y="-236.9" font-family="Arial" font-size="14.00" fill="#666666">[text]</text>
<polygon fill="none" stroke="#000000" points="51,-195.5 51,-225.5 355,-225.5 355,-195.5 51,-195.5"/>
<text text-anchor="start" x="58" y="-206.9" font-family="Arial" font-size="14.00" fill="#000000">description </text>
<text text-anchor="start" x="129.568" y="-206.9" font-family="Arial" font-size="14.00" fill="#666666">[text]</text>
<polygon fill="none" stroke="#000000" points="51,-165.5 51,-195.5 355,-195.5 355,-165.5 51,-165.5"/>
<text text-anchor="start" x="58" y="-176.9" font-family="Arial" font-size="14.00" fill="#000000">acidity </text>
<text text-anchor="start" x="101.5596" y="-176.9" font-family="Arial" font-size="14.00" fill="#666666">[integer]</text>
<polygon fill="none" stroke="#000000" points="51,-135.5 51,-165.5 355,-165.5 355,-135.5 51,-135.5"/>
<text text-anchor="start" x="58" y="-146.9" font-family="Arial" font-size="14.00" fill="#000000">richness </text>
<text text-anchor="start" x="114.0056" y="-146.9" font-family="Arial" font-size="14.00" fill="#666666">[integer]</text>
<polygon fill="none" stroke="#000000" points="51,-105.5 51,-135.5 355,-135.5 355,-105.5 51,-105.5"/>
<text text-anchor="start" x="57.9117" y="-116.9" font-family="Arial" font-size="14.00" fill="#000000">conducted_at </text>
<text text-anchor="start" x="145.8443" y="-116.9" font-family="Arial" font-size="14.00" fill="#666666">[timestamp(3) without time zone]</text>
<polygon fill="none" stroke="#000000" points="51,-75.5 51,-105.5 355,-105.5 355,-75.5 51,-75.5"/>
<text text-anchor="start" x="58" y="-86.9" font-family="Arial" font-size="14.00" fill="#000000">created_at </text>
<text text-anchor="start" x="128.028" y="-86.9" font-family="Arial" font-size="14.00" fill="#666666">[timestamp(3) without time zone]</text>
<polygon fill="none" stroke="#000000" points="51,-45.5 51,-75.5 355,-75.5 355,-45.5 51,-45.5"/>
<text text-anchor="start" x="58" y="-56.9" font-family="Arial" font-size="14.00" fill="#000000">updated_at </text>
<text text-anchor="start" x="131.9326" y="-56.9" font-family="Arial" font-size="14.00" fill="#666666">[timestamp(3) without time zone]</text>
<polygon fill="none" stroke="#000000" stroke-width="3" points="49.5,-44.5 49.5,-322.5 356.5,-322.5 356.5,-44.5 49.5,-44.5"/>
</g>
<!-- public.bean_tastings -->
<g id="node2" class="node">
<title>public.bean_tastings</title>
<polygon fill="#efefef" stroke="transparent" points="43,-565.5 43,-600.5 363,-600.5 363,-565.5 43,-565.5"/>
<polygon fill="none" stroke="#000000" points="43,-565.5 43,-600.5 363,-600.5 363,-565.5 43,-565.5"/>
<text text-anchor="start" x="57.1873" y="-578.3" font-family="Arial Bold" font-size="18.00" fill="#000000">public.bean_tastings</text>
<text text-anchor="start" x="221.2447" y="-578.3" font-family="Arial" font-size="14.00" fill="#000000">    </text>
<text text-anchor="start" x="255.4495" y="-578.3" font-family="Arial" font-size="14.00" fill="#666666">[BASE TABLE]</text>
<polygon fill="none" stroke="#000000" points="43,-535.5 43,-565.5 363,-565.5 363,-535.5 43,-535.5"/>
<text text-anchor="start" x="50" y="-546.9" font-family="Arial" font-size="14.00" fill="#000000">tasting_id    </text>
<text text-anchor="start" x="144.1122" y="-546.9" font-family="Arial" font-size="14.00" fill="#666666">[text]</text>
<polygon fill="none" stroke="#000000" points="43,-505.5 43,-535.5 363,-535.5 363,-505.5 43,-505.5"/>
<text text-anchor="start" x="50" y="-516.9" font-family="Arial" font-size="14.00" fill="#000000">bean_id    </text>
<text text-anchor="start" x="134.007" y="-516.9" font-family="Arial" font-size="14.00" fill="#666666">[text]</text>
<polygon fill="none" stroke="#000000" points="43,-475.5 43,-505.5 363,-505.5 363,-475.5 43,-475.5"/>
<text text-anchor="start" x="50" y="-486.9" font-family="Arial" font-size="14.00" fill="#000000">created_at    </text>
<text text-anchor="start" x="150.3422" y="-486.9" font-family="Arial" font-size="14.00" fill="#666666">[timestamp(3) without time zone]</text>
<polygon fill="none" stroke="#000000" points="43,-445.5 43,-475.5 363,-475.5 363,-445.5 43,-445.5"/>
<text text-anchor="start" x="49.7546" y="-456.9" font-family="Arial" font-size="14.00" fill="#000000">updated_at    </text>
<text text-anchor="start" x="154.0014" y="-456.9" font-family="Arial" font-size="14.00" fill="#666666">[timestamp(3) without time zone]</text>
</g>
<!-- public.bean_tastings&#45;&gt;public.tastings -->
<g id="edge1" class="edge">
<title>public.bean_tastings:tasting_id&#45;&gt;public.tastings:id</title>
<path fill="none" stroke="#000000" d="M372.904,-547.9069C424.1673,-519.6795 413.7219,-270.5 355,-270.5"/>
<polygon fill="#000000" stroke="#000000" points="372.6739,-547.9671 361.8602,-546.1467 367.837,-549.2335 363,-550.5 363,-550.5 363,-550.5 367.837,-549.2335 364.1398,-554.8533 372.6739,-547.9671 372.6739,-547.9671"/>
<text text-anchor="start" x="370.106" y="-560.5" font-family="Arial" font-size="10.00" fill="#000000">FOREIGN KEY (tasting_id) REFERENCES tastings(id) ON UPDATE CASCADE ON DELETE RESTRICT</text>
</g>
</g>
</svg>
