<?xml version="1.0" encoding="UTF-8" standalone="no"?>
<!DOCTYPE svg PUBLIC "-//W3C//DTD SVG 1.1//EN"
 "http://www.w3.org/Graphics/SVG/1.1/DTD/svg11.dtd">
<!-- Generated by graphviz version 2.40.1 (20161225.0304)
 -->
<!-- Title: public.shop_locations Pages: 1 -->
<svg width="810pt" height="712pt"
 viewBox="0.00 0.00 810.00 712.00" xmlns="http://www.w3.org/2000/svg" xmlns:xlink="http://www.w3.org/1999/xlink">
<g id="graph0" class="graph" transform="scale(1 1) rotate(0) translate(4 708)">
<title>public.shop_locations</title>
<polygon fill="#ffffff" stroke="transparent" points="-4,4 -4,-708 806,-708 806,4 -4,4"/>
<!-- public.shop_locations -->
<g id="node1" class="node">
<title>public.shop_locations</title>
<polygon fill="#efefef" stroke="transparent" points="46,-622.5 46,-657.5 336,-657.5 336,-622.5 46,-622.5"/>
<polygon fill="none" stroke="#000000" points="46,-622.5 46,-657.5 336,-657.5 336,-622.5 46,-622.5"/>
<text text-anchor="start" x="56.3484" y="-635.3" font-family="Arial Bold" font-size="18.00" fill="#000000">public.shop_locations</text>
<text text-anchor="start" x="228.3978" y="-635.3" font-family="Arial" font-size="14.00" fill="#000000"> </text>
<text text-anchor="start" x="232.2884" y="-635.3" font-family="Arial" font-size="14.00" fill="#666666">[BASE TABLE]</text>
<polygon fill="none" stroke="#000000" points="46,-592.5 46,-622.5 336,-622.5 336,-592.5 46,-592.5"/>
<text text-anchor="start" x="53" y="-603.9" font-family="Arial" font-size="14.00" fill="#000000">id </text>
<text text-anchor="start" x="67.7798" y="-603.9" font-family="Arial" font-size="14.00" fill="#666666">[text]</text>
<polygon fill="none" stroke="#000000" points="46,-562.5 46,-592.5 336,-592.5 336,-562.5 46,-562.5"/>
<text text-anchor="start" x="53" y="-573.9" font-family="Arial" font-size="14.00" fill="#000000">shop_id </text>
<text text-anchor="start" x="105.9102" y="-573.9" font-family="Arial" font-size="14.00" fill="#666666">[text]</text>
<polygon fill="none" stroke="#000000" points="46,-532.5 46,-562.5 336,-562.5 336,-532.5 46,-532.5"/>
<text text-anchor="start" x="53" y="-543.9" font-family="Arial" font-size="14.00" fill="#000000">longitude </text>
<text text-anchor="start" x="113.69" y="-543.9" font-family="Arial" font-size="14.00" fill="#666666">[double precision]</text>
<polygon fill="none" stroke="#000000" points="46,-502.5 46,-532.5 336,-532.5 336,-502.5 46,-502.5"/>
<text text-anchor="start" x="53" y="-513.9" font-family="Arial" font-size="14.00" fill="#000000">latitude </text>
<text text-anchor="start" x="102.0154" y="-513.9" font-family="Arial" font-size="14.00" fill="#666666">[double precision]</text>
<polygon fill="none" stroke="#000000" points="46,-472.5 46,-502.5 336,-502.5 336,-472.5 46,-472.5"/>
<text text-anchor="start" x="53" y="-483.9" font-family="Arial" font-size="14.00" fill="#000000">postal_code </text>
<text text-anchor="start" x="132.366" y="-483.9" font-family="Arial" font-size="14.00" fill="#666666">[text]</text>
<polygon fill="none" stroke="#000000" points="46,-442.5 46,-472.5 336,-472.5 336,-442.5 46,-442.5"/>
<text text-anchor="start" x="53" y="-453.9" font-family="Arial" font-size="14.00" fill="#000000">prefecture </text>
<text text-anchor="start" x="119.906" y="-453.9" font-family="Arial" font-size="14.00" fill="#666666">[text]</text>
<polygon fill="none" stroke="#000000" points="46,-412.5 46,-442.5 336,-442.5 336,-412.5 46,-412.5"/>
<text text-anchor="start" x="53" y="-423.9" font-family="Arial" font-size="14.00" fill="#000000">city </text>
<text text-anchor="start" x="77.8878" y="-423.9" font-family="Arial" font-size="14.00" fill="#666666">[text]</text>
<polygon fill="none" stroke="#000000" points="46,-382.5 46,-412.5 336,-412.5 336,-382.5 46,-382.5"/>
<text text-anchor="start" x="53" y="-393.9" font-family="Arial" font-size="14.00" fill="#000000">address </text>
<text text-anchor="start" x="106.6816" y="-393.9" font-family="Arial" font-size="14.00" fill="#666666">[text]</text>
<polygon fill="none" stroke="#000000" points="46,-352.5 46,-382.5 336,-382.5 336,-352.5 46,-352.5"/>
<text text-anchor="start" x="53" y="-363.9" font-family="Arial" font-size="14.00" fill="#000000">created_at </text>
<text text-anchor="start" x="123.028" y="-363.9" font-family="Arial" font-size="14.00" fill="#666666">[timestamp(3) without time zone]</text>
<polygon fill="none" stroke="#000000" points="46,-322.5 46,-352.5 336,-352.5 336,-322.5 46,-322.5"/>
<text text-anchor="start" x="52.9117" y="-333.9" font-family="Arial" font-size="14.00" fill="#000000">updated_at </text>
<text text-anchor="start" x="126.8443" y="-333.9" font-family="Arial" font-size="14.00" fill="#666666">[timestamp(3) without time zone]</text>
<polygon fill="none" stroke="#000000" stroke-width="3" points="44.5,-321.5 44.5,-659.5 337.5,-659.5 337.5,-321.5 44.5,-321.5"/>
</g>
<!-- public.shops -->
<g id="node2" class="node">
<title>public.shops</title>
<polygon fill="#efefef" stroke="transparent" points="46,-162.5 46,-197.5 336,-197.5 336,-162.5 46,-162.5"/>
<polygon fill="none" stroke="#000000" points="46,-162.5 46,-197.5 336,-197.5 336,-162.5 46,-162.5"/>
<text text-anchor="start" x="92.3592" y="-175.3" font-family="Arial Bold" font-size="18.00" fill="#000000">public.shops</text>
<text text-anchor="start" x="192.387" y="-175.3" font-family="Arial" font-size="14.00" fill="#000000"> </text>
<text text-anchor="start" x="196.2776" y="-175.3" font-family="Arial" font-size="14.00" fill="#666666">[BASE TABLE]</text>
<polygon fill="none" stroke="#000000" points="46,-132.5 46,-162.5 336,-162.5 336,-132.5 46,-132.5"/>
<text text-anchor="start" x="53" y="-143.9" font-family="Arial" font-size="14.00" fill="#000000">id </text>
<text text-anchor="start" x="67.7798" y="-143.9" font-family="Arial" font-size="14.00" fill="#666666">[text]</text>
<polygon fill="none" stroke="#000000" points="46,-102.5 46,-132.5 336,-132.5 336,-102.5 46,-102.5"/>
<text text-anchor="start" x="53" y="-113.9" font-family="Arial" font-size="14.00" fill="#000000">name </text>
<text text-anchor="start" x="91.899" y="-113.9" font-family="Arial" font-size="14.00" fill="#666666">[text]</text>
<polygon fill="none" stroke="#000000" points="46,-72.5 46,-102.5 336,-102.5 336,-72.5 46,-72.5"/>
<text text-anchor="start" x="53" y="-83.9" font-family="Arial" font-size="14.00" fill="#000000">created_at </text>
<text text-anchor="start" x="123.028" y="-83.9" font-family="Arial" font-size="14.00" fill="#666666">[timestamp(3) without time zone]</text>
<polygon fill="none" stroke="#000000" points="46,-42.5 46,-72.5 336,-72.5 336,-42.5 46,-42.5"/>
<text text-anchor="start" x="52.9117" y="-53.9" font-family="Arial" font-size="14.00" fill="#000000">updated_at </text>
<text text-anchor="start" x="126.8443" y="-53.9" font-family="Arial" font-size="14.00" fill="#666666">[timestamp(3) without time zone]</text>
</g>
<!-- public.shop_locations&#45;&gt;public.shops -->
<g id="edge1" class="edge">
<title>public.shop_locations:shop_id&#45;&gt;public.shops:id</title>
<path fill="none" stroke="#000000" d="M345.9838,-575.8564C431.4308,-546.9872 428.1029,-147.5 336,-147.5"/>
<polygon fill="#000000" stroke="#000000" points="345.8672,-575.8755 335.269,-573.0598 340.9336,-576.6877 336,-577.5 336,-577.5 336,-577.5 340.9336,-576.6877 336.731,-581.9402 345.8672,-575.8755 345.8672,-575.8755"/>
<text text-anchor="start" x="342.883" y="-587.5" font-family="Arial" font-size="10.00" fill="#000000">FOREIGN KEY (shop_id) REFERENCES shops(id) ON UPDATE CASCADE ON DELETE RESTRICT</text>
</g>
</g>
</svg>
