<?xml version="1.0" encoding="UTF-8" standalone="no"?>
<!DOCTYPE svg PUBLIC "-//W3C//DTD SVG 1.1//EN"
 "http://www.w3.org/Graphics/SVG/1.1/DTD/svg11.dtd">
<!-- Generated by graphviz version 2.40.1 (20161225.0304)
 -->
<!-- Title: public.bean_flavor_profiles Pages: 1 -->
<svg width="1367pt" height="682pt"
 viewBox="0.00 0.00 1367.00 682.00" xmlns="http://www.w3.org/2000/svg" xmlns:xlink="http://www.w3.org/1999/xlink">
<g id="graph0" class="graph" transform="scale(1 1) rotate(0) translate(4 678)">
<title>public.bean_flavor_profiles</title>
<polygon fill="#ffffff" stroke="transparent" points="-4,4 -4,-678 1363,-678 1363,4 -4,4"/>
<!-- public.bean_flavor_profiles -->
<g id="node1" class="node">
<title>public.bean_flavor_profiles</title>
<polygon fill="#efefef" stroke="transparent" points="467,-592.5 467,-627.5 822,-627.5 822,-592.5 467,-592.5"/>
<polygon fill="none" stroke="#000000" points="467,-592.5 467,-627.5 822,-627.5 822,-592.5 467,-592.5"/>
<text text-anchor="start" x="473.6916" y="-605.3" font-family="Arial Bold" font-size="18.00" fill="#000000">public.bean_flavor_profiles</text>
<text text-anchor="start" x="687.7404" y="-605.3" font-family="Arial" font-size="14.00" fill="#000000">    </text>
<text text-anchor="start" x="721.9452" y="-605.3" font-family="Arial" font-size="14.00" fill="#666666">[BASE TABLE]</text>
<polygon fill="none" stroke="#000000" points="467,-562.5 467,-592.5 822,-592.5 822,-562.5 467,-562.5"/>
<text text-anchor="start" x="474" y="-573.9" font-family="Arial" font-size="14.00" fill="#000000">id </text>
<text text-anchor="start" x="488.7798" y="-573.9" font-family="Arial" font-size="14.00" fill="#666666">[text]</text>
<polygon fill="none" stroke="#000000" points="467,-532.5 467,-562.5 822,-562.5 822,-532.5 467,-532.5"/>
<text text-anchor="start" x="474" y="-543.9" font-family="Arial" font-size="14.00" fill="#000000">bean_id </text>
<text text-anchor="start" x="527.6928" y="-543.9" font-family="Arial" font-size="14.00" fill="#666666">[text]</text>
<polygon fill="none" stroke="#000000" points="467,-502.5 467,-532.5 822,-532.5 822,-502.5 467,-502.5"/>
<text text-anchor="start" x="474" y="-513.9" font-family="Arial" font-size="14.00" fill="#000000">flavor_profile_id </text>
<text text-anchor="start" x="576.6802" y="-513.9" font-family="Arial" font-size="14.00" fill="#666666">[text]</text>
<polygon fill="none" stroke="#000000" points="467,-472.5 467,-502.5 822,-502.5 822,-472.5 467,-472.5"/>
<text text-anchor="start" x="474" y="-483.9" font-family="Arial" font-size="14.00" fill="#000000">created_at </text>
<text text-anchor="start" x="544.028" y="-483.9" font-family="Arial" font-size="14.00" fill="#666666">[timestamp(3) without time zone]</text>
<polygon fill="none" stroke="#000000" points="467,-442.5 467,-472.5 822,-472.5 822,-442.5 467,-442.5"/>
<text text-anchor="start" x="474" y="-453.9" font-family="Arial" font-size="14.00" fill="#000000">updated_at </text>
<text text-anchor="start" x="547.9326" y="-453.9" font-family="Arial" font-size="14.00" fill="#666666">[timestamp(3) without time zone]</text>
<polygon fill="none" stroke="#000000" stroke-width="3" points="465,-441.5 465,-629.5 823,-629.5 823,-441.5 465,-441.5"/>
</g>
<!-- public.beans -->
<g id="node2" class="node">
<title>public.beans</title>
<polygon fill="#efefef" stroke="transparent" points="273,-282.5 273,-317.5 593,-317.5 593,-282.5 273,-282.5"/>
<polygon fill="none" stroke="#000000" points="273,-282.5 273,-317.5 593,-317.5 593,-282.5 273,-282.5"/>
<text text-anchor="start" x="318.699" y="-295.3" font-family="Arial Bold" font-size="18.00" fill="#000000">public.beans</text>
<text text-anchor="start" x="419.733" y="-295.3" font-family="Arial" font-size="14.00" fill="#000000">    </text>
<text text-anchor="start" x="453.9378" y="-295.3" font-family="Arial" font-size="14.00" fill="#666666">[BASE TABLE]</text>
<polygon fill="none" stroke="#000000" points="273,-252.5 273,-282.5 593,-282.5 593,-252.5 273,-252.5"/>
<text text-anchor="start" x="280" y="-263.9" font-family="Arial" font-size="14.00" fill="#000000">id    </text>
<text text-anchor="start" x="325.094" y="-263.9" font-family="Arial" font-size="14.00" fill="#666666">[text]</text>
<polygon fill="none" stroke="#000000" points="273,-222.5 273,-252.5 593,-252.5 593,-222.5 273,-222.5"/>
<text text-anchor="start" x="280" y="-233.9" font-family="Arial" font-size="14.00" fill="#000000">name    </text>
<text text-anchor="start" x="349.2132" y="-233.9" font-family="Arial" font-size="14.00" fill="#666666">[text]</text>
<polygon fill="none" stroke="#000000" points="273,-192.5 273,-222.5 593,-222.5 593,-192.5 273,-192.5"/>
<text text-anchor="start" x="280" y="-203.9" font-family="Arial" font-size="14.00" fill="#000000">description    </text>
<text text-anchor="start" x="381.8822" y="-203.9" font-family="Arial" font-size="14.00" fill="#666666">[text]</text>
<polygon fill="none" stroke="#000000" points="273,-162.5 273,-192.5 593,-192.5 593,-162.5 273,-162.5"/>
<text text-anchor="start" x="280" y="-173.9" font-family="Arial" font-size="14.00" fill="#000000">origin_id    </text>
<text text-anchor="start" x="367.0982" y="-173.9" font-family="Arial" font-size="14.00" fill="#666666">[text]</text>
<polygon fill="none" stroke="#000000" points="273,-132.5 273,-162.5 593,-162.5 593,-132.5 273,-132.5"/>
<text text-anchor="start" x="280" y="-143.9" font-family="Arial" font-size="14.00" fill="#000000">roast_level_id    </text>
<text text-anchor="start" x="400.554" y="-143.9" font-family="Arial" font-size="14.00" fill="#666666">[text]</text>
<polygon fill="none" stroke="#000000" points="273,-102.5 273,-132.5 593,-132.5 593,-102.5 273,-102.5"/>
<text text-anchor="start" x="280" y="-113.9" font-family="Arial" font-size="14.00" fill="#000000">processing_method_id    </text>
<text text-anchor="start" x="455.021" y="-113.9" font-family="Arial" font-size="14.00" fill="#666666">[text]</text>
<polygon fill="none" stroke="#000000" points="273,-72.5 273,-102.5 593,-102.5 593,-72.5 273,-72.5"/>
<text text-anchor="start" x="280" y="-83.9" font-family="Arial" font-size="14.00" fill="#000000">created_at    </text>
<text text-anchor="start" x="380.3422" y="-83.9" font-family="Arial" font-size="14.00" fill="#666666">[timestamp(3) without time zone]</text>
<polygon fill="none" stroke="#000000" points="273,-42.5 273,-72.5 593,-72.5 593,-42.5 273,-42.5"/>
<text text-anchor="start" x="279.7546" y="-53.9" font-family="Arial" font-size="14.00" fill="#000000">updated_at    </text>
<text text-anchor="start" x="384.0014" y="-53.9" font-family="Arial" font-size="14.00" fill="#666666">[timestamp(3) without time zone]</text>
</g>
<!-- public.bean_flavor_profiles&#45;&gt;public.beans -->
<g id="edge1" class="edge">
<title>public.bean_flavor_profiles:bean_id&#45;&gt;public.beans:id</title>
<path fill="none" stroke="#000000" d="M456.8519,-546.6518C403.0623,-537.0104 428.9226,-447.4803 467,-397 502.0724,-350.5035 557.9276,-407.4965 593,-361 618.0246,-327.8242 634.5556,-267.5 593,-267.5"/>
<polygon fill="#000000" stroke="#000000" points="457.0347,-546.667 466.6252,-551.9844 462.0174,-547.0835 467,-547.5 467,-547.5 467,-547.5 462.0174,-547.0835 467.3748,-543.0156 457.0347,-546.667 457.0347,-546.667"/>
<text text-anchor="start" x="7.324" y="-557.5" font-family="Arial" font-size="10.00" fill="#000000">FOREIGN KEY (bean_id) REFERENCES beans(id) ON UPDATE CASCADE ON DELETE RESTRICT</text>
</g>
<!-- public.flavor_profiles -->
<g id="node3" class="node">
<title>public.flavor_profiles</title>
<polygon fill="#efefef" stroke="transparent" points="697,-252.5 697,-287.5 1017,-287.5 1017,-252.5 697,-252.5"/>
<polygon fill="none" stroke="#000000" points="697,-252.5 697,-287.5 1017,-287.5 1017,-252.5 697,-252.5"/>
<text text-anchor="start" x="711.2071" y="-265.3" font-family="Arial Bold" font-size="18.00" fill="#000000">public.flavor_profiles</text>
<text text-anchor="start" x="875.2249" y="-265.3" font-family="Arial" font-size="14.00" fill="#000000">    </text>
<text text-anchor="start" x="909.4297" y="-265.3" font-family="Arial" font-size="14.00" fill="#666666">[BASE TABLE]</text>
<polygon fill="none" stroke="#000000" points="697,-222.5 697,-252.5 1017,-252.5 1017,-222.5 697,-222.5"/>
<text text-anchor="start" x="704" y="-233.9" font-family="Arial" font-size="14.00" fill="#000000">id    </text>
<text text-anchor="start" x="749.094" y="-233.9" font-family="Arial" font-size="14.00" fill="#666666">[text]</text>
<polygon fill="none" stroke="#000000" points="697,-192.5 697,-222.5 1017,-222.5 1017,-192.5 697,-192.5"/>
<text text-anchor="start" x="704" y="-203.9" font-family="Arial" font-size="14.00" fill="#000000">value    </text>
<text text-anchor="start" x="771.6592" y="-203.9" font-family="Arial" font-size="14.00" fill="#666666">[text]</text>
<polygon fill="none" stroke="#000000" points="697,-162.5 697,-192.5 1017,-192.5 1017,-162.5 697,-162.5"/>
<text text-anchor="start" x="704" y="-173.9" font-family="Arial" font-size="14.00" fill="#000000">label    </text>
<text text-anchor="start" x="767.7658" y="-173.9" font-family="Arial" font-size="14.00" fill="#666666">[text]</text>
<polygon fill="none" stroke="#000000" points="697,-132.5 697,-162.5 1017,-162.5 1017,-132.5 697,-132.5"/>
<text text-anchor="start" x="704" y="-143.9" font-family="Arial" font-size="14.00" fill="#000000">description    </text>
<text text-anchor="start" x="805.8822" y="-143.9" font-family="Arial" font-size="14.00" fill="#666666">[text]</text>
<polygon fill="none" stroke="#000000" points="697,-102.5 697,-132.5 1017,-132.5 1017,-102.5 697,-102.5"/>
<text text-anchor="start" x="704" y="-113.9" font-family="Arial" font-size="14.00" fill="#000000">created_at    </text>
<text text-anchor="start" x="804.3422" y="-113.9" font-family="Arial" font-size="14.00" fill="#666666">[timestamp(3) without time zone]</text>
<polygon fill="none" stroke="#000000" points="697,-72.5 697,-102.5 1017,-102.5 1017,-72.5 697,-72.5"/>
<text text-anchor="start" x="703.7546" y="-83.9" font-family="Arial" font-size="14.00" fill="#000000">updated_at    </text>
<text text-anchor="start" x="808.0014" y="-83.9" font-family="Arial" font-size="14.00" fill="#666666">[timestamp(3) without time zone]</text>
</g>
<!-- public.bean_flavor_profiles&#45;&gt;public.flavor_profiles -->
<g id="edge2" class="edge">
<title>public.bean_flavor_profiles:flavor_profile_id&#45;&gt;public.flavor_profiles:id</title>
<path fill="none" stroke="#000000" d="M832.1454,-516.429C871.9039,-507.1468 847.7055,-439.6411 822,-397 789.5653,-343.1962 729.4347,-384.8038 697,-331 675.5457,-295.411 655.4444,-237.5 697,-237.5"/>
<polygon fill="#000000" stroke="#000000" points="831.9447,-516.4501 821.5275,-513.0249 826.9724,-516.975 822,-517.5 822,-517.5 822,-517.5 826.9724,-516.975 822.4725,-521.9751 831.9447,-516.4501 831.9447,-516.4501"/>
<text text-anchor="start" x="829.333" y="-527.5" font-family="Arial" font-size="10.00" fill="#000000">FOREIGN KEY (flavor_profile_id) REFERENCES flavor_profiles(id) ON UPDATE CASCADE ON DELETE RESTRICT</text>
</g>
</g>
</svg>
