<?xml version="1.0" encoding="UTF-8" standalone="no"?>
<!DOCTYPE svg PUBLIC "-//W3C//DTD SVG 1.1//EN"
 "http://www.w3.org/Graphics/SVG/1.1/DTD/svg11.dtd">
<!-- Generated by graphviz version 2.40.1 (20161225.0304)
 -->
<!-- Title: public.origins Pages: 1 -->
<svg width="813pt" height="772pt"
 viewBox="0.00 0.00 813.00 772.00" xmlns="http://www.w3.org/2000/svg" xmlns:xlink="http://www.w3.org/1999/xlink">
<g id="graph0" class="graph" transform="scale(1 1) rotate(0) translate(4 768)">
<title>public.origins</title>
<polygon fill="#ffffff" stroke="transparent" points="-4,4 -4,-768 809,-768 809,4 -4,4"/>
<!-- public.origins -->
<g id="node1" class="node">
<title>public.origins</title>
<polygon fill="#efefef" stroke="transparent" points="46,-255.5 46,-290.5 336,-290.5 336,-255.5 46,-255.5"/>
<polygon fill="none" stroke="#000000" points="46,-255.5 46,-290.5 336,-290.5 336,-255.5 46,-255.5"/>
<text text-anchor="start" x="89.8689" y="-268.3" font-family="Arial Bold" font-size="18.00" fill="#000000">public.origins</text>
<text text-anchor="start" x="194.8773" y="-268.3" font-family="Arial" font-size="14.00" fill="#000000"> </text>
<text text-anchor="start" x="198.7679" y="-268.3" font-family="Arial" font-size="14.00" fill="#666666">[BASE TABLE]</text>
<polygon fill="none" stroke="#000000" points="46,-225.5 46,-255.5 336,-255.5 336,-225.5 46,-225.5"/>
<text text-anchor="start" x="53" y="-236.9" font-family="Arial" font-size="14.00" fill="#000000">id </text>
<text text-anchor="start" x="67.7798" y="-236.9" font-family="Arial" font-size="14.00" fill="#666666">[text]</text>
<polygon fill="none" stroke="#000000" points="46,-195.5 46,-225.5 336,-225.5 336,-195.5 46,-195.5"/>
<text text-anchor="start" x="53" y="-206.9" font-family="Arial" font-size="14.00" fill="#000000">name </text>
<text text-anchor="start" x="91.899" y="-206.9" font-family="Arial" font-size="14.00" fill="#666666">[text]</text>
<polygon fill="none" stroke="#000000" points="46,-165.5 46,-195.5 336,-195.5 336,-165.5 46,-165.5"/>
<text text-anchor="start" x="53" y="-176.9" font-family="Arial" font-size="14.00" fill="#000000">description </text>
<text text-anchor="start" x="124.568" y="-176.9" font-family="Arial" font-size="14.00" fill="#666666">[text]</text>
<polygon fill="none" stroke="#000000" points="46,-135.5 46,-165.5 336,-165.5 336,-135.5 46,-135.5"/>
<text text-anchor="start" x="53" y="-146.9" font-family="Arial" font-size="14.00" fill="#000000">longitude </text>
<text text-anchor="start" x="113.69" y="-146.9" font-family="Arial" font-size="14.00" fill="#666666">[double precision]</text>
<polygon fill="none" stroke="#000000" points="46,-105.5 46,-135.5 336,-135.5 336,-105.5 46,-105.5"/>
<text text-anchor="start" x="53" y="-116.9" font-family="Arial" font-size="14.00" fill="#000000">latitude </text>
<text text-anchor="start" x="102.0154" y="-116.9" font-family="Arial" font-size="14.00" fill="#666666">[double precision]</text>
<polygon fill="none" stroke="#000000" points="46,-75.5 46,-105.5 336,-105.5 336,-75.5 46,-75.5"/>
<text text-anchor="start" x="53" y="-86.9" font-family="Arial" font-size="14.00" fill="#000000">created_at </text>
<text text-anchor="start" x="123.028" y="-86.9" font-family="Arial" font-size="14.00" fill="#666666">[timestamp(3) without time zone]</text>
<polygon fill="none" stroke="#000000" points="46,-45.5 46,-75.5 336,-75.5 336,-45.5 46,-45.5"/>
<text text-anchor="start" x="52.9117" y="-56.9" font-family="Arial" font-size="14.00" fill="#000000">updated_at </text>
<text text-anchor="start" x="126.8443" y="-56.9" font-family="Arial" font-size="14.00" fill="#666666">[timestamp(3) without time zone]</text>
<polygon fill="none" stroke="#000000" stroke-width="3" points="44.5,-44.5 44.5,-292.5 337.5,-292.5 337.5,-44.5 44.5,-44.5"/>
</g>
<!-- public.beans -->
<g id="node2" class="node">
<title>public.beans</title>
<polygon fill="#efefef" stroke="transparent" points="46,-685.5 46,-720.5 336,-720.5 336,-685.5 46,-685.5"/>
<polygon fill="none" stroke="#000000" points="46,-685.5 46,-720.5 336,-720.5 336,-685.5 46,-685.5"/>
<text text-anchor="start" x="91.8561" y="-698.3" font-family="Arial Bold" font-size="18.00" fill="#000000">public.beans</text>
<text text-anchor="start" x="192.8901" y="-698.3" font-family="Arial" font-size="14.00" fill="#000000"> </text>
<text text-anchor="start" x="196.7807" y="-698.3" font-family="Arial" font-size="14.00" fill="#666666">[BASE TABLE]</text>
<polygon fill="none" stroke="#000000" points="46,-655.5 46,-685.5 336,-685.5 336,-655.5 46,-655.5"/>
<text text-anchor="start" x="53" y="-666.9" font-family="Arial" font-size="14.00" fill="#000000">id </text>
<text text-anchor="start" x="67.7798" y="-666.9" font-family="Arial" font-size="14.00" fill="#666666">[text]</text>
<polygon fill="none" stroke="#000000" points="46,-625.5 46,-655.5 336,-655.5 336,-625.5 46,-625.5"/>
<text text-anchor="start" x="53" y="-636.9" font-family="Arial" font-size="14.00" fill="#000000">name </text>
<text text-anchor="start" x="91.899" y="-636.9" font-family="Arial" font-size="14.00" fill="#666666">[text]</text>
<polygon fill="none" stroke="#000000" points="46,-595.5 46,-625.5 336,-625.5 336,-595.5 46,-595.5"/>
<text text-anchor="start" x="53" y="-606.9" font-family="Arial" font-size="14.00" fill="#000000">description </text>
<text text-anchor="start" x="124.568" y="-606.9" font-family="Arial" font-size="14.00" fill="#666666">[text]</text>
<polygon fill="none" stroke="#000000" points="46,-565.5 46,-595.5 336,-595.5 336,-565.5 46,-565.5"/>
<text text-anchor="start" x="53" y="-576.9" font-family="Arial" font-size="14.00" fill="#000000">origin_id </text>
<text text-anchor="start" x="109.784" y="-576.9" font-family="Arial" font-size="14.00" fill="#666666">[text]</text>
<polygon fill="none" stroke="#000000" points="46,-535.5 46,-565.5 336,-565.5 336,-535.5 46,-535.5"/>
<text text-anchor="start" x="53" y="-546.9" font-family="Arial" font-size="14.00" fill="#000000">roast_level_id </text>
<text text-anchor="start" x="143.2398" y="-546.9" font-family="Arial" font-size="14.00" fill="#666666">[text]</text>
<polygon fill="none" stroke="#000000" points="46,-505.5 46,-535.5 336,-535.5 336,-505.5 46,-505.5"/>
<text text-anchor="start" x="53" y="-516.9" font-family="Arial" font-size="14.00" fill="#000000">processing_method_id </text>
<text text-anchor="start" x="197.7068" y="-516.9" font-family="Arial" font-size="14.00" fill="#666666">[text]</text>
<polygon fill="none" stroke="#000000" points="46,-475.5 46,-505.5 336,-505.5 336,-475.5 46,-475.5"/>
<text text-anchor="start" x="53" y="-486.9" font-family="Arial" font-size="14.00" fill="#000000">created_at </text>
<text text-anchor="start" x="123.028" y="-486.9" font-family="Arial" font-size="14.00" fill="#666666">[timestamp(3) without time zone]</text>
<polygon fill="none" stroke="#000000" points="46,-445.5 46,-475.5 336,-475.5 336,-445.5 46,-445.5"/>
<text text-anchor="start" x="52.9117" y="-456.9" font-family="Arial" font-size="14.00" fill="#000000">updated_at </text>
<text text-anchor="start" x="126.8443" y="-456.9" font-family="Arial" font-size="14.00" fill="#666666">[timestamp(3) without time zone]</text>
<polygon fill="none" stroke="#000000" points="46,-415.5 46,-445.5 336,-445.5 336,-415.5 46,-415.5"/>
<text text-anchor="start" x="53" y="-426.9" font-family="Arial" font-size="14.00" fill="#000000">package_purchase_id </text>
<text text-anchor="start" x="193.8316" y="-426.9" font-family="Arial" font-size="14.00" fill="#666666">[text]</text>
</g>
<!-- public.beans&#45;&gt;public.origins -->
<g id="edge1" class="edge">
<title>public.beans:origin_id&#45;&gt;public.origins:id</title>
<path fill="none" stroke="#000000" d="M346.127,-578.3288C411.3895,-549.3721 408.0139,-240.5 336,-240.5"/>
<polygon fill="#000000" stroke="#000000" points="345.7778,-578.4036 335.0566,-576.1 340.8889,-579.4518 336,-580.5 336,-580.5 336,-580.5 340.8889,-579.4518 336.9434,-584.9 345.7778,-578.4036 345.7778,-578.4036"/>
<text text-anchor="start" x="343.221" y="-590.5" font-family="Arial" font-size="10.00" fill="#000000">FOREIGN KEY (origin_id) REFERENCES origins(id) ON UPDATE CASCADE ON DELETE SET NULL</text>
</g>
</g>
</svg>
