<?xml version="1.0" encoding="UTF-8" standalone="no"?>
<!DOCTYPE svg PUBLIC "-//W3C//DTD SVG 1.1//EN"
 "http://www.w3.org/Graphics/SVG/1.1/DTD/svg11.dtd">
<!-- Generated by graphviz version 2.40.1 (20161225.0304)
 -->
<!-- Title: public.processing_methods Pages: 1 -->
<svg width="988pt" height="682pt"
 viewBox="0.00 0.00 987.50 682.00" xmlns="http://www.w3.org/2000/svg" xmlns:xlink="http://www.w3.org/1999/xlink">
<g id="graph0" class="graph" transform="scale(1 1) rotate(0) translate(4 678)">
<title>public.processing_methods</title>
<polygon fill="#ffffff" stroke="transparent" points="-4,4 -4,-678 983.5,-678 983.5,4 -4,4"/>
<!-- public.processing_methods -->
<g id="node1" class="node">
<title>public.processing_methods</title>
<polygon fill="#efefef" stroke="transparent" points="575,-195.5 575,-230.5 934,-230.5 934,-195.5 575,-195.5"/>
<polygon fill="none" stroke="#000000" points="575,-195.5 575,-230.5 934,-230.5 934,-195.5 575,-195.5"/>
<text text-anchor="start" x="581.69" y="-208.3" font-family="Arial Bold" font-size="18.00" fill="#000000">public.processing_methods</text>
<text text-anchor="start" x="799.742" y="-208.3" font-family="Arial" font-size="14.00" fill="#000000">    </text>
<text text-anchor="start" x="833.9468" y="-208.3" font-family="Arial" font-size="14.00" fill="#666666">[BASE TABLE]</text>
<polygon fill="none" stroke="#000000" points="575,-165.5 575,-195.5 934,-195.5 934,-165.5 575,-165.5"/>
<text text-anchor="start" x="582" y="-176.9" font-family="Arial" font-size="14.00" fill="#000000">id </text>
<text text-anchor="start" x="596.7798" y="-176.9" font-family="Arial" font-size="14.00" fill="#666666">[text]</text>
<polygon fill="none" stroke="#000000" points="575,-135.5 575,-165.5 934,-165.5 934,-135.5 575,-135.5"/>
<text text-anchor="start" x="582" y="-146.9" font-family="Arial" font-size="14.00" fill="#000000">name </text>
<text text-anchor="start" x="620.899" y="-146.9" font-family="Arial" font-size="14.00" fill="#666666">[text]</text>
<polygon fill="none" stroke="#000000" points="575,-105.5 575,-135.5 934,-135.5 934,-105.5 575,-105.5"/>
<text text-anchor="start" x="582" y="-116.9" font-family="Arial" font-size="14.00" fill="#000000">description </text>
<text text-anchor="start" x="653.568" y="-116.9" font-family="Arial" font-size="14.00" fill="#666666">[text]</text>
<polygon fill="none" stroke="#000000" points="575,-75.5 575,-105.5 934,-105.5 934,-75.5 575,-75.5"/>
<text text-anchor="start" x="582" y="-86.9" font-family="Arial" font-size="14.00" fill="#000000">created_at </text>
<text text-anchor="start" x="652.028" y="-86.9" font-family="Arial" font-size="14.00" fill="#666666">[timestamp(3) without time zone]</text>
<polygon fill="none" stroke="#000000" points="575,-45.5 575,-75.5 934,-75.5 934,-45.5 575,-45.5"/>
<text text-anchor="start" x="582" y="-56.9" font-family="Arial" font-size="14.00" fill="#000000">updated_at </text>
<text text-anchor="start" x="655.9326" y="-56.9" font-family="Arial" font-size="14.00" fill="#666666">[timestamp(3) without time zone]</text>
<polygon fill="none" stroke="#000000" stroke-width="3" points="573,-44.5 573,-232.5 935,-232.5 935,-44.5 573,-44.5"/>
</g>
<!-- public.beans -->
<g id="node2" class="node">
<title>public.beans</title>
<polygon fill="#efefef" stroke="transparent" points="595,-595.5 595,-630.5 915,-630.5 915,-595.5 595,-595.5"/>
<polygon fill="none" stroke="#000000" points="595,-595.5 595,-630.5 915,-630.5 915,-595.5 595,-595.5"/>
<text text-anchor="start" x="640.699" y="-608.3" font-family="Arial Bold" font-size="18.00" fill="#000000">public.beans</text>
<text text-anchor="start" x="741.733" y="-608.3" font-family="Arial" font-size="14.00" fill="#000000">    </text>
<text text-anchor="start" x="775.9378" y="-608.3" font-family="Arial" font-size="14.00" fill="#666666">[BASE TABLE]</text>
<polygon fill="none" stroke="#000000" points="595,-565.5 595,-595.5 915,-595.5 915,-565.5 595,-565.5"/>
<text text-anchor="start" x="602" y="-576.9" font-family="Arial" font-size="14.00" fill="#000000">id    </text>
<text text-anchor="start" x="647.094" y="-576.9" font-family="Arial" font-size="14.00" fill="#666666">[text]</text>
<polygon fill="none" stroke="#000000" points="595,-535.5 595,-565.5 915,-565.5 915,-535.5 595,-535.5"/>
<text text-anchor="start" x="602" y="-546.9" font-family="Arial" font-size="14.00" fill="#000000">name    </text>
<text text-anchor="start" x="671.2132" y="-546.9" font-family="Arial" font-size="14.00" fill="#666666">[text]</text>
<polygon fill="none" stroke="#000000" points="595,-505.5 595,-535.5 915,-535.5 915,-505.5 595,-505.5"/>
<text text-anchor="start" x="602" y="-516.9" font-family="Arial" font-size="14.00" fill="#000000">description    </text>
<text text-anchor="start" x="703.8822" y="-516.9" font-family="Arial" font-size="14.00" fill="#666666">[text]</text>
<polygon fill="none" stroke="#000000" points="595,-475.5 595,-505.5 915,-505.5 915,-475.5 595,-475.5"/>
<text text-anchor="start" x="602" y="-486.9" font-family="Arial" font-size="14.00" fill="#000000">origin_id    </text>
<text text-anchor="start" x="689.0982" y="-486.9" font-family="Arial" font-size="14.00" fill="#666666">[text]</text>
<polygon fill="none" stroke="#000000" points="595,-445.5 595,-475.5 915,-475.5 915,-445.5 595,-445.5"/>
<text text-anchor="start" x="602" y="-456.9" font-family="Arial" font-size="14.00" fill="#000000">roast_level_id    </text>
<text text-anchor="start" x="722.554" y="-456.9" font-family="Arial" font-size="14.00" fill="#666666">[text]</text>
<polygon fill="none" stroke="#000000" points="595,-415.5 595,-445.5 915,-445.5 915,-415.5 595,-415.5"/>
<text text-anchor="start" x="602" y="-426.9" font-family="Arial" font-size="14.00" fill="#000000">processing_method_id    </text>
<text text-anchor="start" x="777.021" y="-426.9" font-family="Arial" font-size="14.00" fill="#666666">[text]</text>
<polygon fill="none" stroke="#000000" points="595,-385.5 595,-415.5 915,-415.5 915,-385.5 595,-385.5"/>
<text text-anchor="start" x="602" y="-396.9" font-family="Arial" font-size="14.00" fill="#000000">created_at    </text>
<text text-anchor="start" x="702.3422" y="-396.9" font-family="Arial" font-size="14.00" fill="#666666">[timestamp(3) without time zone]</text>
<polygon fill="none" stroke="#000000" points="595,-355.5 595,-385.5 915,-385.5 915,-355.5 595,-355.5"/>
<text text-anchor="start" x="601.7546" y="-366.9" font-family="Arial" font-size="14.00" fill="#000000">updated_at    </text>
<text text-anchor="start" x="706.0014" y="-366.9" font-family="Arial" font-size="14.00" fill="#666666">[timestamp(3) without time zone]</text>
</g>
<!-- public.beans&#45;&gt;public.processing_methods -->
<g id="edge1" class="edge">
<title>public.beans:processing_method_id&#45;&gt;public.processing_methods:id</title>
<path fill="none" stroke="#000000" d="M584.9975,-429.3744C545.2977,-419.6337 562.5329,-349.0975 595,-313 645.6609,-256.6743 883.3391,-333.3257 934,-277 962.6811,-245.1119 976.8889,-180.5 934,-180.5"/>
<polygon fill="#000000" stroke="#000000" points="585.0627,-429.3816 594.4967,-434.9718 590.0314,-429.9408 595,-430.5 595,-430.5 595,-430.5 590.0314,-429.9408 595.5033,-426.0282 585.0627,-429.3816 585.0627,-429.3816"/>
<text text-anchor="start" x="7.419" y="-440.5" font-family="Arial" font-size="10.00" fill="#000000">FOREIGN KEY (processing_method_id) REFERENCES processing_methods(id) ON UPDATE CASCADE ON DELETE SET NULL</text>
</g>
</g>
</svg>
