<?xml version="1.0" encoding="UTF-8" standalone="no"?>
<!DOCTYPE svg PUBLIC "-//W3C//DTD SVG 1.1//EN"
 "http://www.w3.org/Graphics/SVG/1.1/DTD/svg11.dtd">
<!-- Generated by graphviz version 2.40.1 (20161225.0304)
 -->
<!-- Title: public.bean_flavor_profiles Pages: 1 -->
<svg width="1337pt" height="682pt"
 viewBox="0.00 0.00 1337.00 682.00" xmlns="http://www.w3.org/2000/svg" xmlns:xlink="http://www.w3.org/1999/xlink">
<g id="graph0" class="graph" transform="scale(1 1) rotate(0) translate(4 678)">
<title>public.bean_flavor_profiles</title>
<polygon fill="#ffffff" stroke="transparent" points="-4,4 -4,-678 1333,-678 1333,4 -4,4"/>
<!-- public.bean_flavor_profiles -->
<g id="node1" class="node">
<title>public.bean_flavor_profiles</title>
<polygon fill="#efefef" stroke="transparent" points="467,-592.5 467,-627.5 792,-627.5 792,-592.5 467,-592.5"/>
<polygon fill="none" stroke="#000000" points="467,-592.5 467,-627.5 792,-627.5 792,-592.5 467,-592.5"/>
<text text-anchor="start" x="473.8487" y="-605.3" font-family="Arial Bold" font-size="18.00" fill="#000000">public.bean_flavor_profiles</text>
<text text-anchor="start" x="687.8975" y="-605.3" font-family="Arial" font-size="14.00" fill="#000000"> </text>
<text text-anchor="start" x="691.7881" y="-605.3" font-family="Arial" font-size="14.00" fill="#666666">[BASE TABLE]</text>
<polygon fill="none" stroke="#000000" points="467,-562.5 467,-592.5 792,-592.5 792,-562.5 467,-562.5"/>
<text text-anchor="start" x="474" y="-573.9" font-family="Arial" font-size="14.00" fill="#000000">id </text>
<text text-anchor="start" x="488.7798" y="-573.9" font-family="Arial" font-size="14.00" fill="#666666">[text]</text>
<polygon fill="none" stroke="#000000" points="467,-532.5 467,-562.5 792,-562.5 792,-532.5 467,-532.5"/>
<text text-anchor="start" x="474" y="-543.9" font-family="Arial" font-size="14.00" fill="#000000">bean_id </text>
<text text-anchor="start" x="527.6928" y="-543.9" font-family="Arial" font-size="14.00" fill="#666666">[text]</text>
<polygon fill="none" stroke="#000000" points="467,-502.5 467,-532.5 792,-532.5 792,-502.5 467,-502.5"/>
<text text-anchor="start" x="474" y="-513.9" font-family="Arial" font-size="14.00" fill="#000000">flavor_profile_id </text>
<text text-anchor="start" x="576.6802" y="-513.9" font-family="Arial" font-size="14.00" fill="#666666">[text]</text>
<polygon fill="none" stroke="#000000" points="467,-472.5 467,-502.5 792,-502.5 792,-472.5 467,-472.5"/>
<text text-anchor="start" x="474" y="-483.9" font-family="Arial" font-size="14.00" fill="#000000">created_at </text>
<text text-anchor="start" x="544.028" y="-483.9" font-family="Arial" font-size="14.00" fill="#666666">[timestamp(3) without time zone]</text>
<polygon fill="none" stroke="#000000" points="467,-442.5 467,-472.5 792,-472.5 792,-442.5 467,-442.5"/>
<text text-anchor="start" x="474" y="-453.9" font-family="Arial" font-size="14.00" fill="#000000">updated_at </text>
<text text-anchor="start" x="547.9326" y="-453.9" font-family="Arial" font-size="14.00" fill="#666666">[timestamp(3) without time zone]</text>
<polygon fill="none" stroke="#000000" stroke-width="3" points="465,-441.5 465,-629.5 793,-629.5 793,-441.5 465,-441.5"/>
</g>
<!-- public.beans -->
<g id="node2" class="node">
<title>public.beans</title>
<polygon fill="#efefef" stroke="transparent" points="288,-282.5 288,-317.5 578,-317.5 578,-282.5 288,-282.5"/>
<polygon fill="none" stroke="#000000" points="288,-282.5 288,-317.5 578,-317.5 578,-282.5 288,-282.5"/>
<text text-anchor="start" x="333.8561" y="-295.3" font-family="Arial Bold" font-size="18.00" fill="#000000">public.beans</text>
<text text-anchor="start" x="434.8901" y="-295.3" font-family="Arial" font-size="14.00" fill="#000000"> </text>
<text text-anchor="start" x="438.7807" y="-295.3" font-family="Arial" font-size="14.00" fill="#666666">[BASE TABLE]</text>
<polygon fill="none" stroke="#000000" points="288,-252.5 288,-282.5 578,-282.5 578,-252.5 288,-252.5"/>
<text text-anchor="start" x="295" y="-263.9" font-family="Arial" font-size="14.00" fill="#000000">id </text>
<text text-anchor="start" x="309.7798" y="-263.9" font-family="Arial" font-size="14.00" fill="#666666">[text]</text>
<polygon fill="none" stroke="#000000" points="288,-222.5 288,-252.5 578,-252.5 578,-222.5 288,-222.5"/>
<text text-anchor="start" x="295" y="-233.9" font-family="Arial" font-size="14.00" fill="#000000">name </text>
<text text-anchor="start" x="333.899" y="-233.9" font-family="Arial" font-size="14.00" fill="#666666">[text]</text>
<polygon fill="none" stroke="#000000" points="288,-192.5 288,-222.5 578,-222.5 578,-192.5 288,-192.5"/>
<text text-anchor="start" x="295" y="-203.9" font-family="Arial" font-size="14.00" fill="#000000">description </text>
<text text-anchor="start" x="366.568" y="-203.9" font-family="Arial" font-size="14.00" fill="#666666">[text]</text>
<polygon fill="none" stroke="#000000" points="288,-162.5 288,-192.5 578,-192.5 578,-162.5 288,-162.5"/>
<text text-anchor="start" x="295" y="-173.9" font-family="Arial" font-size="14.00" fill="#000000">origin_id </text>
<text text-anchor="start" x="351.784" y="-173.9" font-family="Arial" font-size="14.00" fill="#666666">[text]</text>
<polygon fill="none" stroke="#000000" points="288,-132.5 288,-162.5 578,-162.5 578,-132.5 288,-132.5"/>
<text text-anchor="start" x="295" y="-143.9" font-family="Arial" font-size="14.00" fill="#000000">roast_level_id </text>
<text text-anchor="start" x="385.2398" y="-143.9" font-family="Arial" font-size="14.00" fill="#666666">[text]</text>
<polygon fill="none" stroke="#000000" points="288,-102.5 288,-132.5 578,-132.5 578,-102.5 288,-102.5"/>
<text text-anchor="start" x="295" y="-113.9" font-family="Arial" font-size="14.00" fill="#000000">processing_method_id </text>
<text text-anchor="start" x="439.7068" y="-113.9" font-family="Arial" font-size="14.00" fill="#666666">[text]</text>
<polygon fill="none" stroke="#000000" points="288,-72.5 288,-102.5 578,-102.5 578,-72.5 288,-72.5"/>
<text text-anchor="start" x="295" y="-83.9" font-family="Arial" font-size="14.00" fill="#000000">created_at </text>
<text text-anchor="start" x="365.028" y="-83.9" font-family="Arial" font-size="14.00" fill="#666666">[timestamp(3) without time zone]</text>
<polygon fill="none" stroke="#000000" points="288,-42.5 288,-72.5 578,-72.5 578,-42.5 288,-42.5"/>
<text text-anchor="start" x="294.9117" y="-53.9" font-family="Arial" font-size="14.00" fill="#000000">updated_at </text>
<text text-anchor="start" x="368.8443" y="-53.9" font-family="Arial" font-size="14.00" fill="#666666">[timestamp(3) without time zone]</text>
</g>
<!-- public.bean_flavor_profiles&#45;&gt;public.beans -->
<g id="edge1" class="edge">
<title>public.bean_flavor_profiles:bean_id&#45;&gt;public.beans:id</title>
<path fill="none" stroke="#000000" d="M456.8599,-546.6578C403.1605,-537.0831 429.82,-448.1449 467,-397 497.4956,-355.0501 547.5044,-402.9499 578,-361 602.4348,-327.3874 619.5556,-267.5 578,-267.5"/>
<polygon fill="#000000" stroke="#000000" points="457.0343,-546.6722 466.6275,-551.9846 462.0172,-547.0861 467,-547.5 467,-547.5 467,-547.5 462.0172,-547.0861 467.3725,-543.0154 457.0343,-546.6722 457.0343,-546.6722"/>
<text text-anchor="start" x="7.324" y="-557.5" font-family="Arial" font-size="10.00" fill="#000000">FOREIGN KEY (bean_id) REFERENCES beans(id) ON UPDATE CASCADE ON DELETE RESTRICT</text>
</g>
<!-- public.flavor_profiles -->
<g id="node3" class="node">
<title>public.flavor_profiles</title>
<polygon fill="#efefef" stroke="transparent" points="682,-252.5 682,-287.5 972,-287.5 972,-252.5 682,-252.5"/>
<polygon fill="none" stroke="#000000" points="682,-252.5 682,-287.5 972,-287.5 972,-252.5 682,-252.5"/>
<text text-anchor="start" x="696.3642" y="-265.3" font-family="Arial Bold" font-size="18.00" fill="#000000">public.flavor_profiles</text>
<text text-anchor="start" x="860.382" y="-265.3" font-family="Arial" font-size="14.00" fill="#000000"> </text>
<text text-anchor="start" x="864.2726" y="-265.3" font-family="Arial" font-size="14.00" fill="#666666">[BASE TABLE]</text>
<polygon fill="none" stroke="#000000" points="682,-222.5 682,-252.5 972,-252.5 972,-222.5 682,-222.5"/>
<text text-anchor="start" x="689" y="-233.9" font-family="Arial" font-size="14.00" fill="#000000">id </text>
<text text-anchor="start" x="703.7798" y="-233.9" font-family="Arial" font-size="14.00" fill="#666666">[text]</text>
<polygon fill="none" stroke="#000000" points="682,-192.5 682,-222.5 972,-222.5 972,-192.5 682,-192.5"/>
<text text-anchor="start" x="689" y="-203.9" font-family="Arial" font-size="14.00" fill="#000000">value </text>
<text text-anchor="start" x="726.345" y="-203.9" font-family="Arial" font-size="14.00" fill="#666666">[text]</text>
<polygon fill="none" stroke="#000000" points="682,-162.5 682,-192.5 972,-192.5 972,-162.5 682,-162.5"/>
<text text-anchor="start" x="689" y="-173.9" font-family="Arial" font-size="14.00" fill="#000000">label </text>
<text text-anchor="start" x="722.4516" y="-173.9" font-family="Arial" font-size="14.00" fill="#666666">[text]</text>
<polygon fill="none" stroke="#000000" points="682,-132.5 682,-162.5 972,-162.5 972,-132.5 682,-132.5"/>
<text text-anchor="start" x="689" y="-143.9" font-family="Arial" font-size="14.00" fill="#000000">description </text>
<text text-anchor="start" x="760.568" y="-143.9" font-family="Arial" font-size="14.00" fill="#666666">[text]</text>
<polygon fill="none" stroke="#000000" points="682,-102.5 682,-132.5 972,-132.5 972,-102.5 682,-102.5"/>
<text text-anchor="start" x="689" y="-113.9" font-family="Arial" font-size="14.00" fill="#000000">created_at </text>
<text text-anchor="start" x="759.028" y="-113.9" font-family="Arial" font-size="14.00" fill="#666666">[timestamp(3) without time zone]</text>
<polygon fill="none" stroke="#000000" points="682,-72.5 682,-102.5 972,-102.5 972,-72.5 682,-72.5"/>
<text text-anchor="start" x="688.9117" y="-83.9" font-family="Arial" font-size="14.00" fill="#000000">updated_at </text>
<text text-anchor="start" x="762.8443" y="-83.9" font-family="Arial" font-size="14.00" fill="#666666">[timestamp(3) without time zone]</text>
</g>
<!-- public.bean_flavor_profiles&#45;&gt;public.flavor_profiles -->
<g id="edge2" class="edge">
<title>public.bean_flavor_profiles:flavor_profile_id&#45;&gt;public.flavor_profiles:id</title>
<path fill="none" stroke="#000000" d="M802.1279,-516.4392C841.7388,-507.2433 816.5314,-440.3272 792,-397 763.9094,-347.3866 710.0906,-380.6134 682,-331 661.5256,-294.8384 640.4444,-237.5 682,-237.5"/>
<polygon fill="#000000" stroke="#000000" points="801.9456,-516.4582 791.5312,-513.0245 796.9728,-516.9791 792,-517.5 792,-517.5 792,-517.5 796.9728,-516.9791 792.4688,-521.9755 801.9456,-516.4582 801.9456,-516.4582"/>
<text text-anchor="start" x="799.333" y="-527.5" font-family="Arial" font-size="10.00" fill="#000000">FOREIGN KEY (flavor_profile_id) REFERENCES flavor_profiles(id) ON UPDATE CASCADE ON DELETE RESTRICT</text>
</g>
</g>
</svg>
