<?xml version="1.0" encoding="UTF-8" standalone="no"?>
<!DOCTYPE svg PUBLIC "-//W3C//DTD SVG 1.1//EN"
 "http://www.w3.org/Graphics/SVG/1.1/DTD/svg11.dtd">
<!-- Generated by graphviz version 2.40.1 (20161225.0304)
 -->
<!-- Title: public.roast_levels Pages: 1 -->
<svg width="888pt" height="682pt"
 viewBox="0.00 0.00 888.00 682.00" xmlns="http://www.w3.org/2000/svg" xmlns:xlink="http://www.w3.org/1999/xlink">
<g id="graph0" class="graph" transform="scale(1 1) rotate(0) translate(4 678)">
<title>public.roast_levels</title>
<polygon fill="#ffffff" stroke="transparent" points="-4,4 -4,-678 884,-678 884,4 -4,4"/>
<!-- public.roast_levels -->
<g id="node1" class="node">
<title>public.roast_levels</title>
<polygon fill="#efefef" stroke="transparent" points="58,-195.5 58,-230.5 348,-230.5 348,-195.5 58,-195.5"/>
<polygon fill="none" stroke="#000000" points="58,-195.5 58,-230.5 348,-230.5 348,-195.5 58,-195.5"/>
<text text-anchor="start" x="65.2045" y="-208.3" font-family="Arial Bold" font-size="18.00" fill="#000000">public.roast_levels</text>
<text text-anchor="start" x="213.2275" y="-208.3" font-family="Arial" font-size="14.00" fill="#000000">    </text>
<text text-anchor="start" x="247.4323" y="-208.3" font-family="Arial" font-size="14.00" fill="#666666">[BASE TABLE]</text>
<polygon fill="none" stroke="#000000" points="58,-165.5 58,-195.5 348,-195.5 348,-165.5 58,-165.5"/>
<text text-anchor="start" x="65" y="-176.9" font-family="Arial" font-size="14.00" fill="#000000">id </text>
<text text-anchor="start" x="79.7798" y="-176.9" font-family="Arial" font-size="14.00" fill="#666666">[text]</text>
<polygon fill="none" stroke="#000000" points="58,-135.5 58,-165.5 348,-165.5 348,-135.5 58,-135.5"/>
<text text-anchor="start" x="65" y="-146.9" font-family="Arial" font-size="14.00" fill="#000000">name </text>
<text text-anchor="start" x="103.899" y="-146.9" font-family="Arial" font-size="14.00" fill="#666666">[text]</text>
<polygon fill="none" stroke="#000000" points="58,-105.5 58,-135.5 348,-135.5 348,-105.5 58,-105.5"/>
<text text-anchor="start" x="65" y="-116.9" font-family="Arial" font-size="14.00" fill="#000000">description </text>
<text text-anchor="start" x="136.568" y="-116.9" font-family="Arial" font-size="14.00" fill="#666666">[text]</text>
<polygon fill="none" stroke="#000000" points="58,-75.5 58,-105.5 348,-105.5 348,-75.5 58,-75.5"/>
<text text-anchor="start" x="65" y="-86.9" font-family="Arial" font-size="14.00" fill="#000000">created_at </text>
<text text-anchor="start" x="135.028" y="-86.9" font-family="Arial" font-size="14.00" fill="#666666">[timestamp(3) without time zone]</text>
<polygon fill="none" stroke="#000000" points="58,-45.5 58,-75.5 348,-75.5 348,-45.5 58,-45.5"/>
<text text-anchor="start" x="64.9117" y="-56.9" font-family="Arial" font-size="14.00" fill="#000000">updated_at </text>
<text text-anchor="start" x="138.8443" y="-56.9" font-family="Arial" font-size="14.00" fill="#666666">[timestamp(3) without time zone]</text>
<polygon fill="none" stroke="#000000" stroke-width="3" points="56.5,-44.5 56.5,-232.5 349.5,-232.5 349.5,-44.5 56.5,-44.5"/>
</g>
<!-- public.beans -->
<g id="node2" class="node">
<title>public.beans</title>
<polygon fill="#efefef" stroke="transparent" points="43,-595.5 43,-630.5 363,-630.5 363,-595.5 43,-595.5"/>
<polygon fill="none" stroke="#000000" points="43,-595.5 43,-630.5 363,-630.5 363,-595.5 43,-595.5"/>
<text text-anchor="start" x="88.699" y="-608.3" font-family="Arial Bold" font-size="18.00" fill="#000000">public.beans</text>
<text text-anchor="start" x="189.733" y="-608.3" font-family="Arial" font-size="14.00" fill="#000000">    </text>
<text text-anchor="start" x="223.9378" y="-608.3" font-family="Arial" font-size="14.00" fill="#666666">[BASE TABLE]</text>
<polygon fill="none" stroke="#000000" points="43,-565.5 43,-595.5 363,-595.5 363,-565.5 43,-565.5"/>
<text text-anchor="start" x="50" y="-576.9" font-family="Arial" font-size="14.00" fill="#000000">id    </text>
<text text-anchor="start" x="95.094" y="-576.9" font-family="Arial" font-size="14.00" fill="#666666">[text]</text>
<polygon fill="none" stroke="#000000" points="43,-535.5 43,-565.5 363,-565.5 363,-535.5 43,-535.5"/>
<text text-anchor="start" x="50" y="-546.9" font-family="Arial" font-size="14.00" fill="#000000">name    </text>
<text text-anchor="start" x="119.2132" y="-546.9" font-family="Arial" font-size="14.00" fill="#666666">[text]</text>
<polygon fill="none" stroke="#000000" points="43,-505.5 43,-535.5 363,-535.5 363,-505.5 43,-505.5"/>
<text text-anchor="start" x="50" y="-516.9" font-family="Arial" font-size="14.00" fill="#000000">description    </text>
<text text-anchor="start" x="151.8822" y="-516.9" font-family="Arial" font-size="14.00" fill="#666666">[text]</text>
<polygon fill="none" stroke="#000000" points="43,-475.5 43,-505.5 363,-505.5 363,-475.5 43,-475.5"/>
<text text-anchor="start" x="50" y="-486.9" font-family="Arial" font-size="14.00" fill="#000000">origin_id    </text>
<text text-anchor="start" x="137.0982" y="-486.9" font-family="Arial" font-size="14.00" fill="#666666">[text]</text>
<polygon fill="none" stroke="#000000" points="43,-445.5 43,-475.5 363,-475.5 363,-445.5 43,-445.5"/>
<text text-anchor="start" x="50" y="-456.9" font-family="Arial" font-size="14.00" fill="#000000">roast_level_id    </text>
<text text-anchor="start" x="170.554" y="-456.9" font-family="Arial" font-size="14.00" fill="#666666">[text]</text>
<polygon fill="none" stroke="#000000" points="43,-415.5 43,-445.5 363,-445.5 363,-415.5 43,-415.5"/>
<text text-anchor="start" x="50" y="-426.9" font-family="Arial" font-size="14.00" fill="#000000">processing_method_id    </text>
<text text-anchor="start" x="225.021" y="-426.9" font-family="Arial" font-size="14.00" fill="#666666">[text]</text>
<polygon fill="none" stroke="#000000" points="43,-385.5 43,-415.5 363,-415.5 363,-385.5 43,-385.5"/>
<text text-anchor="start" x="50" y="-396.9" font-family="Arial" font-size="14.00" fill="#000000">created_at    </text>
<text text-anchor="start" x="150.3422" y="-396.9" font-family="Arial" font-size="14.00" fill="#666666">[timestamp(3) without time zone]</text>
<polygon fill="none" stroke="#000000" points="43,-355.5 43,-385.5 363,-385.5 363,-355.5 43,-355.5"/>
<text text-anchor="start" x="49.7546" y="-366.9" font-family="Arial" font-size="14.00" fill="#000000">updated_at    </text>
<text text-anchor="start" x="154.0014" y="-366.9" font-family="Arial" font-size="14.00" fill="#666666">[timestamp(3) without time zone]</text>
</g>
<!-- public.beans&#45;&gt;public.roast_levels -->
<g id="edge1" class="edge">
<title>public.beans:roast_level_id&#45;&gt;public.roast_levels:id</title>
<path fill="none" stroke="#000000" d="M372.8494,-457.9069C423.4604,-429.6795 406.7821,-180.5 348,-180.5"/>
<polygon fill="#000000" stroke="#000000" points="372.6705,-457.954 361.8543,-456.1483 367.8352,-459.227 363,-460.5 363,-460.5 363,-460.5 367.8352,-459.227 364.1457,-464.8517 372.6705,-457.954 372.6705,-457.954"/>
<text text-anchor="start" x="370.324" y="-470.5" font-family="Arial" font-size="10.00" fill="#000000">FOREIGN KEY (roast_level_id) REFERENCES roast_levels(id) ON UPDATE CASCADE ON DELETE SET NULL</text>
</g>
</g>
</svg>
