<?xml version="1.0" encoding="UTF-8" standalone="no"?>
<!DOCTYPE svg PUBLIC "-//W3C//DTD SVG 1.1//EN"
 "http://www.w3.org/Graphics/SVG/1.1/DTD/svg11.dtd">
<!-- Generated by graphviz version 2.40.1 (20161225.0304)
 -->
<!-- Title: public.bean_flavor_profiles Pages: 1 -->
<svg width="1337pt" height="712pt"
 viewBox="0.00 0.00 1337.00 712.00" xmlns="http://www.w3.org/2000/svg" xmlns:xlink="http://www.w3.org/1999/xlink">
<g id="graph0" class="graph" transform="scale(1 1) rotate(0) translate(4 708)">
<title>public.bean_flavor_profiles</title>
<polygon fill="#ffffff" stroke="transparent" points="-4,4 -4,-708 1333,-708 1333,4 -4,4"/>
<!-- public.bean_flavor_profiles -->
<g id="node1" class="node">
<title>public.bean_flavor_profiles</title>
<polygon fill="#efefef" stroke="transparent" points="467,-622.5 467,-657.5 792,-657.5 792,-622.5 467,-622.5"/>
<polygon fill="none" stroke="#000000" points="467,-622.5 467,-657.5 792,-657.5 792,-622.5 467,-622.5"/>
<text text-anchor="start" x="473.8487" y="-635.3" font-family="Arial Bold" font-size="18.00" fill="#000000">public.bean_flavor_profiles</text>
<text text-anchor="start" x="687.8975" y="-635.3" font-family="Arial" font-size="14.00" fill="#000000"> </text>
<text text-anchor="start" x="691.7881" y="-635.3" font-family="Arial" font-size="14.00" fill="#666666">[BASE TABLE]</text>
<polygon fill="none" stroke="#000000" points="467,-592.5 467,-622.5 792,-622.5 792,-592.5 467,-592.5"/>
<text text-anchor="start" x="474" y="-603.9" font-family="Arial" font-size="14.00" fill="#000000">id </text>
<text text-anchor="start" x="488.7798" y="-603.9" font-family="Arial" font-size="14.00" fill="#666666">[text]</text>
<polygon fill="none" stroke="#000000" points="467,-562.5 467,-592.5 792,-592.5 792,-562.5 467,-562.5"/>
<text text-anchor="start" x="474" y="-573.9" font-family="Arial" font-size="14.00" fill="#000000">bean_id </text>
<text text-anchor="start" x="527.6928" y="-573.9" font-family="Arial" font-size="14.00" fill="#666666">[text]</text>
<polygon fill="none" stroke="#000000" points="467,-532.5 467,-562.5 792,-562.5 792,-532.5 467,-532.5"/>
<text text-anchor="start" x="474" y="-543.9" font-family="Arial" font-size="14.00" fill="#000000">flavor_profile_id </text>
<text text-anchor="start" x="576.6802" y="-543.9" font-family="Arial" font-size="14.00" fill="#666666">[text]</text>
<polygon fill="none" stroke="#000000" points="467,-502.5 467,-532.5 792,-532.5 792,-502.5 467,-502.5"/>
<text text-anchor="start" x="474" y="-513.9" font-family="Arial" font-size="14.00" fill="#000000">created_at </text>
<text text-anchor="start" x="544.028" y="-513.9" font-family="Arial" font-size="14.00" fill="#666666">[timestamp(3) without time zone]</text>
<polygon fill="none" stroke="#000000" points="467,-472.5 467,-502.5 792,-502.5 792,-472.5 467,-472.5"/>
<text text-anchor="start" x="474" y="-483.9" font-family="Arial" font-size="14.00" fill="#000000">updated_at </text>
<text text-anchor="start" x="547.9326" y="-483.9" font-family="Arial" font-size="14.00" fill="#666666">[timestamp(3) without time zone]</text>
<polygon fill="none" stroke="#000000" stroke-width="3" points="465,-471.5 465,-659.5 793,-659.5 793,-471.5 465,-471.5"/>
</g>
<!-- public.beans -->
<g id="node2" class="node">
<title>public.beans</title>
<polygon fill="#efefef" stroke="transparent" points="288,-312.5 288,-347.5 578,-347.5 578,-312.5 288,-312.5"/>
<polygon fill="none" stroke="#000000" points="288,-312.5 288,-347.5 578,-347.5 578,-312.5 288,-312.5"/>
<text text-anchor="start" x="333.8561" y="-325.3" font-family="Arial Bold" font-size="18.00" fill="#000000">public.beans</text>
<text text-anchor="start" x="434.8901" y="-325.3" font-family="Arial" font-size="14.00" fill="#000000"> </text>
<text text-anchor="start" x="438.7807" y="-325.3" font-family="Arial" font-size="14.00" fill="#666666">[BASE TABLE]</text>
<polygon fill="none" stroke="#000000" points="288,-282.5 288,-312.5 578,-312.5 578,-282.5 288,-282.5"/>
<text text-anchor="start" x="295" y="-293.9" font-family="Arial" font-size="14.00" fill="#000000">id </text>
<text text-anchor="start" x="309.7798" y="-293.9" font-family="Arial" font-size="14.00" fill="#666666">[text]</text>
<polygon fill="none" stroke="#000000" points="288,-252.5 288,-282.5 578,-282.5 578,-252.5 288,-252.5"/>
<text text-anchor="start" x="295" y="-263.9" font-family="Arial" font-size="14.00" fill="#000000">name </text>
<text text-anchor="start" x="333.899" y="-263.9" font-family="Arial" font-size="14.00" fill="#666666">[text]</text>
<polygon fill="none" stroke="#000000" points="288,-222.5 288,-252.5 578,-252.5 578,-222.5 288,-222.5"/>
<text text-anchor="start" x="295" y="-233.9" font-family="Arial" font-size="14.00" fill="#000000">description </text>
<text text-anchor="start" x="366.568" y="-233.9" font-family="Arial" font-size="14.00" fill="#666666">[text]</text>
<polygon fill="none" stroke="#000000" points="288,-192.5 288,-222.5 578,-222.5 578,-192.5 288,-192.5"/>
<text text-anchor="start" x="295" y="-203.9" font-family="Arial" font-size="14.00" fill="#000000">origin_id </text>
<text text-anchor="start" x="351.784" y="-203.9" font-family="Arial" font-size="14.00" fill="#666666">[text]</text>
<polygon fill="none" stroke="#000000" points="288,-162.5 288,-192.5 578,-192.5 578,-162.5 288,-162.5"/>
<text text-anchor="start" x="295" y="-173.9" font-family="Arial" font-size="14.00" fill="#000000">roast_level_id </text>
<text text-anchor="start" x="385.2398" y="-173.9" font-family="Arial" font-size="14.00" fill="#666666">[text]</text>
<polygon fill="none" stroke="#000000" points="288,-132.5 288,-162.5 578,-162.5 578,-132.5 288,-132.5"/>
<text text-anchor="start" x="295" y="-143.9" font-family="Arial" font-size="14.00" fill="#000000">processing_method_id </text>
<text text-anchor="start" x="439.7068" y="-143.9" font-family="Arial" font-size="14.00" fill="#666666">[text]</text>
<polygon fill="none" stroke="#000000" points="288,-102.5 288,-132.5 578,-132.5 578,-102.5 288,-102.5"/>
<text text-anchor="start" x="295" y="-113.9" font-family="Arial" font-size="14.00" fill="#000000">created_at </text>
<text text-anchor="start" x="365.028" y="-113.9" font-family="Arial" font-size="14.00" fill="#666666">[timestamp(3) without time zone]</text>
<polygon fill="none" stroke="#000000" points="288,-72.5 288,-102.5 578,-102.5 578,-72.5 288,-72.5"/>
<text text-anchor="start" x="294.9117" y="-83.9" font-family="Arial" font-size="14.00" fill="#000000">updated_at </text>
<text text-anchor="start" x="368.8443" y="-83.9" font-family="Arial" font-size="14.00" fill="#666666">[timestamp(3) without time zone]</text>
<polygon fill="none" stroke="#000000" points="288,-42.5 288,-72.5 578,-72.5 578,-42.5 288,-42.5"/>
<text text-anchor="start" x="295" y="-53.9" font-family="Arial" font-size="14.00" fill="#000000">package_purchase_id </text>
<text text-anchor="start" x="435.8316" y="-53.9" font-family="Arial" font-size="14.00" fill="#666666">[text]</text>
</g>
<!-- public.bean_flavor_profiles&#45;&gt;public.beans -->
<g id="edge1" class="edge">
<title>public.bean_flavor_profiles:bean_id&#45;&gt;public.beans:id</title>
<path fill="none" stroke="#000000" d="M456.8599,-576.6578C403.1605,-567.0831 429.82,-478.1449 467,-427 497.4956,-385.0501 547.5044,-432.9499 578,-391 602.4348,-357.3874 619.5556,-297.5 578,-297.5"/>
<polygon fill="#000000" stroke="#000000" points="457.0343,-576.6722 466.6275,-581.9846 462.0172,-577.0861 467,-577.5 467,-577.5 467,-577.5 462.0172,-577.0861 467.3725,-573.0154 457.0343,-576.6722 457.0343,-576.6722"/>
<text text-anchor="start" x="7.324" y="-587.5" font-family="Arial" font-size="10.00" fill="#000000">FOREIGN KEY (bean_id) REFERENCES beans(id) ON UPDATE CASCADE ON DELETE RESTRICT</text>
</g>
<!-- public.flavor_profiles -->
<g id="node3" class="node">
<title>public.flavor_profiles</title>
<polygon fill="#efefef" stroke="transparent" points="682,-267.5 682,-302.5 972,-302.5 972,-267.5 682,-267.5"/>
<polygon fill="none" stroke="#000000" points="682,-267.5 682,-302.5 972,-302.5 972,-267.5 682,-267.5"/>
<text text-anchor="start" x="696.3642" y="-280.3" font-family="Arial Bold" font-size="18.00" fill="#000000">public.flavor_profiles</text>
<text text-anchor="start" x="860.382" y="-280.3" font-family="Arial" font-size="14.00" fill="#000000"> </text>
<text text-anchor="start" x="864.2726" y="-280.3" font-family="Arial" font-size="14.00" fill="#666666">[BASE TABLE]</text>
<polygon fill="none" stroke="#000000" points="682,-237.5 682,-267.5 972,-267.5 972,-237.5 682,-237.5"/>
<text text-anchor="start" x="689" y="-248.9" font-family="Arial" font-size="14.00" fill="#000000">id </text>
<text text-anchor="start" x="703.7798" y="-248.9" font-family="Arial" font-size="14.00" fill="#666666">[text]</text>
<polygon fill="none" stroke="#000000" points="682,-207.5 682,-237.5 972,-237.5 972,-207.5 682,-207.5"/>
<text text-anchor="start" x="689" y="-218.9" font-family="Arial" font-size="14.00" fill="#000000">value </text>
<text text-anchor="start" x="726.345" y="-218.9" font-family="Arial" font-size="14.00" fill="#666666">[text]</text>
<polygon fill="none" stroke="#000000" points="682,-177.5 682,-207.5 972,-207.5 972,-177.5 682,-177.5"/>
<text text-anchor="start" x="689" y="-188.9" font-family="Arial" font-size="14.00" fill="#000000">label </text>
<text text-anchor="start" x="722.4516" y="-188.9" font-family="Arial" font-size="14.00" fill="#666666">[text]</text>
<polygon fill="none" stroke="#000000" points="682,-147.5 682,-177.5 972,-177.5 972,-147.5 682,-147.5"/>
<text text-anchor="start" x="689" y="-158.9" font-family="Arial" font-size="14.00" fill="#000000">description </text>
<text text-anchor="start" x="760.568" y="-158.9" font-family="Arial" font-size="14.00" fill="#666666">[text]</text>
<polygon fill="none" stroke="#000000" points="682,-117.5 682,-147.5 972,-147.5 972,-117.5 682,-117.5"/>
<text text-anchor="start" x="689" y="-128.9" font-family="Arial" font-size="14.00" fill="#000000">created_at </text>
<text text-anchor="start" x="759.028" y="-128.9" font-family="Arial" font-size="14.00" fill="#666666">[timestamp(3) without time zone]</text>
<polygon fill="none" stroke="#000000" points="682,-87.5 682,-117.5 972,-117.5 972,-87.5 682,-87.5"/>
<text text-anchor="start" x="688.9117" y="-98.9" font-family="Arial" font-size="14.00" fill="#000000">updated_at </text>
<text text-anchor="start" x="762.8443" y="-98.9" font-family="Arial" font-size="14.00" fill="#666666">[timestamp(3) without time zone]</text>
</g>
<!-- public.bean_flavor_profiles&#45;&gt;public.flavor_profiles -->
<g id="edge2" class="edge">
<title>public.bean_flavor_profiles:flavor_profile_id&#45;&gt;public.flavor_profiles:id</title>
<path fill="none" stroke="#000000" d="M802.0972,-546.4556C841.4478,-537.3991 814.4621,-471.4352 792,-427 764.6099,-372.816 709.3901,-400.184 682,-346 663.2527,-308.9136 640.4444,-252.5 682,-252.5"/>
<polygon fill="#000000" stroke="#000000" points="801.9469,-546.4711 791.537,-543.0239 796.9735,-546.9855 792,-547.5 792,-547.5 792,-547.5 796.9735,-546.9855 792.463,-551.9761 801.9469,-546.4711 801.9469,-546.4711"/>
<text text-anchor="start" x="799.333" y="-557.5" font-family="Arial" font-size="10.00" fill="#000000">FOREIGN KEY (flavor_profile_id) REFERENCES flavor_profiles(id) ON UPDATE CASCADE ON DELETE RESTRICT</text>
</g>
</g>
</svg>
