<?xml version="1.0" encoding="UTF-8" standalone="no"?>
<!DOCTYPE svg PUBLIC "-//W3C//DTD SVG 1.1//EN"
 "http://www.w3.org/Graphics/SVG/1.1/DTD/svg11.dtd">
<!-- Generated by graphviz version 2.40.1 (20161225.0304)
 -->
<!-- Title: public.beans_packages Pages: 1 -->
<svg width="1272pt" height="712pt"
 viewBox="0.00 0.00 1272.00 712.00" xmlns="http://www.w3.org/2000/svg" xmlns:xlink="http://www.w3.org/1999/xlink">
<g id="graph0" class="graph" transform="scale(1 1) rotate(0) translate(4 708)">
<title>public.beans_packages</title>
<polygon fill="#ffffff" stroke="transparent" points="-4,4 -4,-708 1268,-708 1268,4 -4,4"/>
<!-- public.beans_packages -->
<g id="node1" class="node">
<title>public.beans_packages</title>
<polygon fill="#efefef" stroke="transparent" points="467,-622.5 467,-657.5 766,-657.5 766,-622.5 467,-622.5"/>
<polygon fill="none" stroke="#000000" points="467,-622.5 467,-657.5 766,-657.5 766,-622.5 467,-622.5"/>
<text text-anchor="start" x="473.8375" y="-635.3" font-family="Arial Bold" font-size="18.00" fill="#000000">public.beans_packages</text>
<text text-anchor="start" x="661.9087" y="-635.3" font-family="Arial" font-size="14.00" fill="#000000"> </text>
<text text-anchor="start" x="665.7993" y="-635.3" font-family="Arial" font-size="14.00" fill="#666666">[BASE TABLE]</text>
<polygon fill="none" stroke="#000000" points="467,-592.5 467,-622.5 766,-622.5 766,-592.5 467,-592.5"/>
<text text-anchor="start" x="474" y="-603.9" font-family="Arial" font-size="14.00" fill="#000000">id </text>
<text text-anchor="start" x="488.7798" y="-603.9" font-family="Arial" font-size="14.00" fill="#666666">[text]</text>
<polygon fill="none" stroke="#000000" points="467,-562.5 467,-592.5 766,-592.5 766,-562.5 467,-562.5"/>
<text text-anchor="start" x="474" y="-573.9" font-family="Arial" font-size="14.00" fill="#000000">bean_id </text>
<text text-anchor="start" x="527.6928" y="-573.9" font-family="Arial" font-size="14.00" fill="#666666">[text]</text>
<polygon fill="none" stroke="#000000" points="467,-532.5 467,-562.5 766,-562.5 766,-532.5 467,-532.5"/>
<text text-anchor="start" x="474" y="-543.9" font-family="Arial" font-size="14.00" fill="#000000">package_id </text>
<text text-anchor="start" x="549.4754" y="-543.9" font-family="Arial" font-size="14.00" fill="#666666">[text]</text>
<polygon fill="none" stroke="#000000" points="467,-502.5 467,-532.5 766,-532.5 766,-502.5 467,-502.5"/>
<text text-anchor="start" x="474" y="-513.9" font-family="Arial" font-size="14.00" fill="#000000">created_at </text>
<text text-anchor="start" x="544.028" y="-513.9" font-family="Arial" font-size="14.00" fill="#666666">[timestamp(3) without time zone]</text>
<polygon fill="none" stroke="#000000" points="467,-472.5 467,-502.5 766,-502.5 766,-472.5 467,-472.5"/>
<text text-anchor="start" x="474" y="-483.9" font-family="Arial" font-size="14.00" fill="#000000">updated_at </text>
<text text-anchor="start" x="547.9326" y="-483.9" font-family="Arial" font-size="14.00" fill="#666666">[timestamp(3) without time zone]</text>
<polygon fill="none" stroke="#000000" stroke-width="3" points="465,-471.5 465,-659.5 767,-659.5 767,-471.5 465,-471.5"/>
</g>
<!-- public.beans -->
<g id="node2" class="node">
<title>public.beans</title>
<polygon fill="#efefef" stroke="transparent" points="275,-312.5 275,-347.5 565,-347.5 565,-312.5 275,-312.5"/>
<polygon fill="none" stroke="#000000" points="275,-312.5 275,-347.5 565,-347.5 565,-312.5 275,-312.5"/>
<text text-anchor="start" x="320.8561" y="-325.3" font-family="Arial Bold" font-size="18.00" fill="#000000">public.beans</text>
<text text-anchor="start" x="421.8901" y="-325.3" font-family="Arial" font-size="14.00" fill="#000000"> </text>
<text text-anchor="start" x="425.7807" y="-325.3" font-family="Arial" font-size="14.00" fill="#666666">[BASE TABLE]</text>
<polygon fill="none" stroke="#000000" points="275,-282.5 275,-312.5 565,-312.5 565,-282.5 275,-282.5"/>
<text text-anchor="start" x="282" y="-293.9" font-family="Arial" font-size="14.00" fill="#000000">id </text>
<text text-anchor="start" x="296.7798" y="-293.9" font-family="Arial" font-size="14.00" fill="#666666">[text]</text>
<polygon fill="none" stroke="#000000" points="275,-252.5 275,-282.5 565,-282.5 565,-252.5 275,-252.5"/>
<text text-anchor="start" x="282" y="-263.9" font-family="Arial" font-size="14.00" fill="#000000">name </text>
<text text-anchor="start" x="320.899" y="-263.9" font-family="Arial" font-size="14.00" fill="#666666">[text]</text>
<polygon fill="none" stroke="#000000" points="275,-222.5 275,-252.5 565,-252.5 565,-222.5 275,-222.5"/>
<text text-anchor="start" x="282" y="-233.9" font-family="Arial" font-size="14.00" fill="#000000">description </text>
<text text-anchor="start" x="353.568" y="-233.9" font-family="Arial" font-size="14.00" fill="#666666">[text]</text>
<polygon fill="none" stroke="#000000" points="275,-192.5 275,-222.5 565,-222.5 565,-192.5 275,-192.5"/>
<text text-anchor="start" x="282" y="-203.9" font-family="Arial" font-size="14.00" fill="#000000">origin_id </text>
<text text-anchor="start" x="338.784" y="-203.9" font-family="Arial" font-size="14.00" fill="#666666">[text]</text>
<polygon fill="none" stroke="#000000" points="275,-162.5 275,-192.5 565,-192.5 565,-162.5 275,-162.5"/>
<text text-anchor="start" x="282" y="-173.9" font-family="Arial" font-size="14.00" fill="#000000">roast_level_id </text>
<text text-anchor="start" x="372.2398" y="-173.9" font-family="Arial" font-size="14.00" fill="#666666">[text]</text>
<polygon fill="none" stroke="#000000" points="275,-132.5 275,-162.5 565,-162.5 565,-132.5 275,-132.5"/>
<text text-anchor="start" x="282" y="-143.9" font-family="Arial" font-size="14.00" fill="#000000">processing_method_id </text>
<text text-anchor="start" x="426.7068" y="-143.9" font-family="Arial" font-size="14.00" fill="#666666">[text]</text>
<polygon fill="none" stroke="#000000" points="275,-102.5 275,-132.5 565,-132.5 565,-102.5 275,-102.5"/>
<text text-anchor="start" x="282" y="-113.9" font-family="Arial" font-size="14.00" fill="#000000">created_at </text>
<text text-anchor="start" x="352.028" y="-113.9" font-family="Arial" font-size="14.00" fill="#666666">[timestamp(3) without time zone]</text>
<polygon fill="none" stroke="#000000" points="275,-72.5 275,-102.5 565,-102.5 565,-72.5 275,-72.5"/>
<text text-anchor="start" x="281.9117" y="-83.9" font-family="Arial" font-size="14.00" fill="#000000">updated_at </text>
<text text-anchor="start" x="355.8443" y="-83.9" font-family="Arial" font-size="14.00" fill="#666666">[timestamp(3) without time zone]</text>
<polygon fill="none" stroke="#000000" points="275,-42.5 275,-72.5 565,-72.5 565,-42.5 275,-42.5"/>
<text text-anchor="start" x="282" y="-53.9" font-family="Arial" font-size="14.00" fill="#000000">package_purchase_id </text>
<text text-anchor="start" x="422.8316" y="-53.9" font-family="Arial" font-size="14.00" fill="#666666">[text]</text>
</g>
<!-- public.beans_packages&#45;&gt;public.beans -->
<g id="edge1" class="edge">
<title>public.beans_packages:bean_id&#45;&gt;public.beans:id</title>
<path fill="none" stroke="#000000" d="M456.8688,-576.6641C403.2687,-567.1602 430.8094,-478.8497 467,-427 493.5581,-388.9506 538.4419,-429.0494 565,-391 588.7846,-356.9242 606.5556,-297.5 565,-297.5"/>
<polygon fill="#000000" stroke="#000000" points="457.0339,-576.6777 466.6299,-581.9848 462.0169,-577.0888 467,-577.5 467,-577.5 467,-577.5 462.0169,-577.0888 467.3701,-573.0152 457.0339,-576.6777 457.0339,-576.6777"/>
<text text-anchor="start" x="7.324" y="-587.5" font-family="Arial" font-size="10.00" fill="#000000">FOREIGN KEY (bean_id) REFERENCES beans(id) ON UPDATE CASCADE ON DELETE RESTRICT</text>
</g>
<!-- public.packages -->
<g id="node3" class="node">
<title>public.packages</title>
<polygon fill="#efefef" stroke="transparent" points="669,-252.5 669,-287.5 959,-287.5 959,-252.5 669,-252.5"/>
<polygon fill="none" stroke="#000000" points="669,-252.5 669,-287.5 959,-287.5 959,-252.5 669,-252.5"/>
<text text-anchor="start" x="700.853" y="-265.3" font-family="Arial Bold" font-size="18.00" fill="#000000">public.packages</text>
<text text-anchor="start" x="829.8932" y="-265.3" font-family="Arial" font-size="14.00" fill="#000000"> </text>
<text text-anchor="start" x="833.7838" y="-265.3" font-family="Arial" font-size="14.00" fill="#666666">[BASE TABLE]</text>
<polygon fill="none" stroke="#000000" points="669,-222.5 669,-252.5 959,-252.5 959,-222.5 669,-222.5"/>
<text text-anchor="start" x="676" y="-233.9" font-family="Arial" font-size="14.00" fill="#000000">id </text>
<text text-anchor="start" x="690.7798" y="-233.9" font-family="Arial" font-size="14.00" fill="#666666">[text]</text>
<polygon fill="none" stroke="#000000" points="669,-192.5 669,-222.5 959,-222.5 959,-192.5 669,-192.5"/>
<text text-anchor="start" x="676" y="-203.9" font-family="Arial" font-size="14.00" fill="#000000">name </text>
<text text-anchor="start" x="714.899" y="-203.9" font-family="Arial" font-size="14.00" fill="#666666">[text]</text>
<polygon fill="none" stroke="#000000" points="669,-162.5 669,-192.5 959,-192.5 959,-162.5 669,-162.5"/>
<text text-anchor="start" x="676" y="-173.9" font-family="Arial" font-size="14.00" fill="#000000">description </text>
<text text-anchor="start" x="747.568" y="-173.9" font-family="Arial" font-size="14.00" fill="#666666">[text]</text>
<polygon fill="none" stroke="#000000" points="669,-132.5 669,-162.5 959,-162.5 959,-132.5 669,-132.5"/>
<text text-anchor="start" x="676" y="-143.9" font-family="Arial" font-size="14.00" fill="#000000">created_at </text>
<text text-anchor="start" x="746.028" y="-143.9" font-family="Arial" font-size="14.00" fill="#666666">[timestamp(3) without time zone]</text>
<polygon fill="none" stroke="#000000" points="669,-102.5 669,-132.5 959,-132.5 959,-102.5 669,-102.5"/>
<text text-anchor="start" x="675.9117" y="-113.9" font-family="Arial" font-size="14.00" fill="#000000">updated_at </text>
<text text-anchor="start" x="749.8443" y="-113.9" font-family="Arial" font-size="14.00" fill="#666666">[timestamp(3) without time zone]</text>
</g>
<!-- public.beans_packages&#45;&gt;public.packages -->
<g id="edge2" class="edge">
<title>public.beans_packages:package_id&#45;&gt;public.packages:id</title>
<path fill="none" stroke="#000000" d="M776.0485,-546.4781C814.9853,-537.6122 785.1729,-472.9504 766,-427 742.6433,-371.0225 692.3567,-386.9775 669,-331 652.998,-292.649 627.4444,-237.5 669,-237.5"/>
<polygon fill="#000000" stroke="#000000" points="775.9487,-546.4881 765.5447,-543.0231 770.9743,-546.9941 766,-547.5 766,-547.5 766,-547.5 770.9743,-546.9941 766.4553,-551.9769 775.9487,-546.4881 775.9487,-546.4881"/>
<text text-anchor="start" x="772.765" y="-557.5" font-family="Arial" font-size="10.00" fill="#000000">FOREIGN KEY (package_id) REFERENCES packages(id) ON UPDATE CASCADE ON DELETE RESTRICT</text>
</g>
</g>
</svg>
