<?xml version="1.0" encoding="UTF-8" standalone="no"?>
<!DOCTYPE svg PUBLIC "-//W3C//DTD SVG 1.1//EN"
 "http://www.w3.org/Graphics/SVG/1.1/DTD/svg11.dtd">
<!-- Generated by graphviz version 2.40.1 (20161225.0304)
 -->
<!-- Title: public.shops Pages: 1 -->
<svg width="1044pt" height="712pt"
 viewBox="0.00 0.00 1044.00 712.00" xmlns="http://www.w3.org/2000/svg" xmlns:xlink="http://www.w3.org/1999/xlink">
<g id="graph0" class="graph" transform="scale(1 1) rotate(0) translate(4 708)">
<title>public.shops</title>
<polygon fill="#ffffff" stroke="transparent" points="-4,4 -4,-708 1040,-708 1040,4 -4,4"/>
<!-- public.shops -->
<g id="node1" class="node">
<title>public.shops</title>
<polygon fill="#efefef" stroke="transparent" points="381,-165.5 381,-200.5 671,-200.5 671,-165.5 381,-165.5"/>
<polygon fill="none" stroke="#000000" points="381,-165.5 381,-200.5 671,-200.5 671,-165.5 381,-165.5"/>
<text text-anchor="start" x="427.3592" y="-178.3" font-family="Arial Bold" font-size="18.00" fill="#000000">public.shops</text>
<text text-anchor="start" x="527.387" y="-178.3" font-family="Arial" font-size="14.00" fill="#000000"> </text>
<text text-anchor="start" x="531.2776" y="-178.3" font-family="Arial" font-size="14.00" fill="#666666">[BASE TABLE]</text>
<polygon fill="none" stroke="#000000" points="381,-135.5 381,-165.5 671,-165.5 671,-135.5 381,-135.5"/>
<text text-anchor="start" x="388" y="-146.9" font-family="Arial" font-size="14.00" fill="#000000">id </text>
<text text-anchor="start" x="402.7798" y="-146.9" font-family="Arial" font-size="14.00" fill="#666666">[text]</text>
<polygon fill="none" stroke="#000000" points="381,-105.5 381,-135.5 671,-135.5 671,-105.5 381,-105.5"/>
<text text-anchor="start" x="388" y="-116.9" font-family="Arial" font-size="14.00" fill="#000000">name </text>
<text text-anchor="start" x="426.899" y="-116.9" font-family="Arial" font-size="14.00" fill="#666666">[text]</text>
<polygon fill="none" stroke="#000000" points="381,-75.5 381,-105.5 671,-105.5 671,-75.5 381,-75.5"/>
<text text-anchor="start" x="388" y="-86.9" font-family="Arial" font-size="14.00" fill="#000000">created_at </text>
<text text-anchor="start" x="458.028" y="-86.9" font-family="Arial" font-size="14.00" fill="#666666">[timestamp(3) without time zone]</text>
<polygon fill="none" stroke="#000000" points="381,-45.5 381,-75.5 671,-75.5 671,-45.5 381,-45.5"/>
<text text-anchor="start" x="387.9117" y="-56.9" font-family="Arial" font-size="14.00" fill="#000000">updated_at </text>
<text text-anchor="start" x="461.8443" y="-56.9" font-family="Arial" font-size="14.00" fill="#666666">[timestamp(3) without time zone]</text>
<polygon fill="none" stroke="#000000" stroke-width="3" points="379.5,-44.5 379.5,-202.5 672.5,-202.5 672.5,-44.5 379.5,-44.5"/>
</g>
<!-- public.shop_locations -->
<g id="node2" class="node">
<title>public.shop_locations</title>
<polygon fill="#efefef" stroke="transparent" points="176,-625.5 176,-660.5 466,-660.5 466,-625.5 176,-625.5"/>
<polygon fill="none" stroke="#000000" points="176,-625.5 176,-660.5 466,-660.5 466,-625.5 176,-625.5"/>
<text text-anchor="start" x="186.3484" y="-638.3" font-family="Arial Bold" font-size="18.00" fill="#000000">public.shop_locations</text>
<text text-anchor="start" x="358.3978" y="-638.3" font-family="Arial" font-size="14.00" fill="#000000"> </text>
<text text-anchor="start" x="362.2884" y="-638.3" font-family="Arial" font-size="14.00" fill="#666666">[BASE TABLE]</text>
<polygon fill="none" stroke="#000000" points="176,-595.5 176,-625.5 466,-625.5 466,-595.5 176,-595.5"/>
<text text-anchor="start" x="183" y="-606.9" font-family="Arial" font-size="14.00" fill="#000000">id </text>
<text text-anchor="start" x="197.7798" y="-606.9" font-family="Arial" font-size="14.00" fill="#666666">[text]</text>
<polygon fill="none" stroke="#000000" points="176,-565.5 176,-595.5 466,-595.5 466,-565.5 176,-565.5"/>
<text text-anchor="start" x="183" y="-576.9" font-family="Arial" font-size="14.00" fill="#000000">shop_id </text>
<text text-anchor="start" x="235.9102" y="-576.9" font-family="Arial" font-size="14.00" fill="#666666">[text]</text>
<polygon fill="none" stroke="#000000" points="176,-535.5 176,-565.5 466,-565.5 466,-535.5 176,-535.5"/>
<text text-anchor="start" x="183" y="-546.9" font-family="Arial" font-size="14.00" fill="#000000">longitude </text>
<text text-anchor="start" x="243.69" y="-546.9" font-family="Arial" font-size="14.00" fill="#666666">[double precision]</text>
<polygon fill="none" stroke="#000000" points="176,-505.5 176,-535.5 466,-535.5 466,-505.5 176,-505.5"/>
<text text-anchor="start" x="183" y="-516.9" font-family="Arial" font-size="14.00" fill="#000000">latitude </text>
<text text-anchor="start" x="232.0154" y="-516.9" font-family="Arial" font-size="14.00" fill="#666666">[double precision]</text>
<polygon fill="none" stroke="#000000" points="176,-475.5 176,-505.5 466,-505.5 466,-475.5 176,-475.5"/>
<text text-anchor="start" x="183" y="-486.9" font-family="Arial" font-size="14.00" fill="#000000">postal_code </text>
<text text-anchor="start" x="262.366" y="-486.9" font-family="Arial" font-size="14.00" fill="#666666">[text]</text>
<polygon fill="none" stroke="#000000" points="176,-445.5 176,-475.5 466,-475.5 466,-445.5 176,-445.5"/>
<text text-anchor="start" x="183" y="-456.9" font-family="Arial" font-size="14.00" fill="#000000">prefecture </text>
<text text-anchor="start" x="249.906" y="-456.9" font-family="Arial" font-size="14.00" fill="#666666">[text]</text>
<polygon fill="none" stroke="#000000" points="176,-415.5 176,-445.5 466,-445.5 466,-415.5 176,-415.5"/>
<text text-anchor="start" x="183" y="-426.9" font-family="Arial" font-size="14.00" fill="#000000">city </text>
<text text-anchor="start" x="207.8878" y="-426.9" font-family="Arial" font-size="14.00" fill="#666666">[text]</text>
<polygon fill="none" stroke="#000000" points="176,-385.5 176,-415.5 466,-415.5 466,-385.5 176,-385.5"/>
<text text-anchor="start" x="183" y="-396.9" font-family="Arial" font-size="14.00" fill="#000000">address </text>
<text text-anchor="start" x="236.6816" y="-396.9" font-family="Arial" font-size="14.00" fill="#666666">[text]</text>
<polygon fill="none" stroke="#000000" points="176,-355.5 176,-385.5 466,-385.5 466,-355.5 176,-355.5"/>
<text text-anchor="start" x="183" y="-366.9" font-family="Arial" font-size="14.00" fill="#000000">created_at </text>
<text text-anchor="start" x="253.028" y="-366.9" font-family="Arial" font-size="14.00" fill="#666666">[timestamp(3) without time zone]</text>
<polygon fill="none" stroke="#000000" points="176,-325.5 176,-355.5 466,-355.5 466,-325.5 176,-325.5"/>
<text text-anchor="start" x="182.9117" y="-336.9" font-family="Arial" font-size="14.00" fill="#000000">updated_at </text>
<text text-anchor="start" x="256.8443" y="-336.9" font-family="Arial" font-size="14.00" fill="#666666">[timestamp(3) without time zone]</text>
</g>
<!-- public.shop_locations&#45;&gt;public.shops -->
<g id="edge1" class="edge">
<title>public.shop_locations:shop_id&#45;&gt;public.shops:id</title>
<path fill="none" stroke="#000000" d="M476.0021,-578.3955C528.853,-554.5492 500.5145,-335.1004 466,-283 443.3423,-248.7978 403.6577,-281.2022 381,-247 357.3137,-211.2451 338.1111,-150.5 381,-150.5"/>
<polygon fill="#000000" stroke="#000000" points="475.7857,-578.441 465.0735,-576.0964 470.8929,-579.4705 466,-580.5 466,-580.5 466,-580.5 470.8929,-579.4705 466.9265,-584.9036 475.7857,-578.441 475.7857,-578.441"/>
<text text-anchor="start" x="6.883" y="-590.5" font-family="Arial" font-size="10.00" fill="#000000">FOREIGN KEY (shop_id) REFERENCES shops(id) ON UPDATE CASCADE ON DELETE RESTRICT</text>
</g>
<!-- public.package_purchases -->
<g id="node3" class="node">
<title>public.package_purchases</title>
<polygon fill="#efefef" stroke="transparent" points="570,-595.5 570,-630.5 894,-630.5 894,-595.5 570,-595.5"/>
<polygon fill="none" stroke="#000000" points="570,-595.5 570,-630.5 894,-630.5 894,-595.5 570,-595.5"/>
<text text-anchor="start" x="576.8383" y="-608.3" font-family="Arial Bold" font-size="18.00" fill="#000000">public.package_purchases</text>
<text text-anchor="start" x="789.9079" y="-608.3" font-family="Arial" font-size="14.00" fill="#000000"> </text>
<text text-anchor="start" x="793.7985" y="-608.3" font-family="Arial" font-size="14.00" fill="#666666">[BASE TABLE]</text>
<polygon fill="none" stroke="#000000" points="570,-565.5 570,-595.5 894,-595.5 894,-565.5 570,-565.5"/>
<text text-anchor="start" x="577" y="-576.9" font-family="Arial" font-size="14.00" fill="#000000">id </text>
<text text-anchor="start" x="591.7798" y="-576.9" font-family="Arial" font-size="14.00" fill="#666666">[text]</text>
<polygon fill="none" stroke="#000000" points="570,-535.5 570,-565.5 894,-565.5 894,-535.5 570,-535.5"/>
<text text-anchor="start" x="577" y="-546.9" font-family="Arial" font-size="14.00" fill="#000000">bean_id </text>
<text text-anchor="start" x="630.6928" y="-546.9" font-family="Arial" font-size="14.00" fill="#666666">[text]</text>
<polygon fill="none" stroke="#000000" points="570,-505.5 570,-535.5 894,-535.5 894,-505.5 570,-505.5"/>
<text text-anchor="start" x="577" y="-516.9" font-family="Arial" font-size="14.00" fill="#000000">shop_id </text>
<text text-anchor="start" x="629.9102" y="-516.9" font-family="Arial" font-size="14.00" fill="#666666">[text]</text>
<polygon fill="none" stroke="#000000" points="570,-475.5 570,-505.5 894,-505.5 894,-475.5 570,-475.5"/>
<text text-anchor="start" x="577" y="-486.9" font-family="Arial" font-size="14.00" fill="#000000">price </text>
<text text-anchor="start" x="611.223" y="-486.9" font-family="Arial" font-size="14.00" fill="#666666">[integer]</text>
<polygon fill="none" stroke="#000000" points="570,-445.5 570,-475.5 894,-475.5 894,-445.5 570,-445.5"/>
<text text-anchor="start" x="577" y="-456.9" font-family="Arial" font-size="14.00" fill="#000000">capacity </text>
<text text-anchor="start" x="632.2356" y="-456.9" font-family="Arial" font-size="14.00" fill="#666666">[integer]</text>
<polygon fill="none" stroke="#000000" points="570,-415.5 570,-445.5 894,-445.5 894,-415.5 570,-415.5"/>
<text text-anchor="start" x="577" y="-426.9" font-family="Arial" font-size="14.00" fill="#000000">purchased_at </text>
<text text-anchor="start" x="665.7026" y="-426.9" font-family="Arial" font-size="14.00" fill="#666666">[timestamp(3) without time zone]</text>
<polygon fill="none" stroke="#000000" points="570,-385.5 570,-415.5 894,-415.5 894,-385.5 570,-385.5"/>
<text text-anchor="start" x="577" y="-396.9" font-family="Arial" font-size="14.00" fill="#000000">created_at </text>
<text text-anchor="start" x="647.028" y="-396.9" font-family="Arial" font-size="14.00" fill="#666666">[timestamp(3) without time zone]</text>
<polygon fill="none" stroke="#000000" points="570,-355.5 570,-385.5 894,-385.5 894,-355.5 570,-355.5"/>
<text text-anchor="start" x="577" y="-366.9" font-family="Arial" font-size="14.00" fill="#000000">updated_at </text>
<text text-anchor="start" x="650.9326" y="-366.9" font-family="Arial" font-size="14.00" fill="#666666">[timestamp(3) without time zone]</text>
</g>
<!-- public.package_purchases&#45;&gt;public.shops -->
<g id="edge2" class="edge">
<title>public.package_purchases:shop_id&#45;&gt;public.shops:id</title>
<path fill="none" stroke="#000000" d="M560.031,-517.2917C527.8388,-493.961 549.8556,-350.2278 570,-313 595.5197,-265.8385 645.4803,-294.1615 671,-247 691.4111,-209.2794 713.8889,-150.5 671,-150.5"/>
<polygon fill="#000000" stroke="#000000" points="560.4808,-517.4364 568.6214,-524.7836 565.2404,-518.9682 570,-520.5 570,-520.5 570,-520.5 565.2404,-518.9682 571.3786,-516.2164 560.4808,-517.4364 560.4808,-517.4364"/>
<text text-anchor="start" x="576.883" y="-530.5" font-family="Arial" font-size="10.00" fill="#000000">FOREIGN KEY (shop_id) REFERENCES shops(id) ON UPDATE CASCADE ON DELETE RESTRICT</text>
</g>
</g>
</svg>
