<?xml version="1.0" encoding="UTF-8" standalone="no"?>
<!DOCTYPE svg PUBLIC "-//W3C//DTD SVG 1.1//EN"
 "http://www.w3.org/Graphics/SVG/1.1/DTD/svg11.dtd">
<!-- Generated by graphviz version 2.40.1 (20161225.0304)
 -->
<!-- Title: public.pack_purchases Pages: 1 -->
<svg width="1263pt" height="682pt"
 viewBox="0.00 0.00 1263.00 682.00" xmlns="http://www.w3.org/2000/svg" xmlns:xlink="http://www.w3.org/1999/xlink">
<g id="graph0" class="graph" transform="scale(1 1) rotate(0) translate(4 678)">
<title>public.pack_purchases</title>
<polygon fill="#ffffff" stroke="transparent" points="-4,4 -4,-678 1259,-678 1259,4 -4,4"/>
<!-- public.pack_purchases -->
<g id="node1" class="node">
<title>public.pack_purchases</title>
<polygon fill="#efefef" stroke="transparent" points="465,-592.5 465,-627.5 789,-627.5 789,-592.5 465,-592.5"/>
<polygon fill="none" stroke="#000000" points="465,-592.5 465,-627.5 789,-627.5 789,-592.5 465,-592.5"/>
<text text-anchor="start" x="471.6905" y="-605.3" font-family="Arial Bold" font-size="18.00" fill="#000000">public.pack_purchases</text>
<text text-anchor="start" x="654.7415" y="-605.3" font-family="Arial" font-size="14.00" fill="#000000">    </text>
<text text-anchor="start" x="688.9463" y="-605.3" font-family="Arial" font-size="14.00" fill="#666666">[BASE TABLE]</text>
<polygon fill="none" stroke="#000000" points="465,-562.5 465,-592.5 789,-592.5 789,-562.5 465,-562.5"/>
<text text-anchor="start" x="472" y="-573.9" font-family="Arial" font-size="14.00" fill="#000000">id </text>
<text text-anchor="start" x="486.7798" y="-573.9" font-family="Arial" font-size="14.00" fill="#666666">[text]</text>
<polygon fill="none" stroke="#000000" points="465,-532.5 465,-562.5 789,-562.5 789,-532.5 465,-532.5"/>
<text text-anchor="start" x="472" y="-543.9" font-family="Arial" font-size="14.00" fill="#000000">pack_id </text>
<text text-anchor="start" x="524.1276" y="-543.9" font-family="Arial" font-size="14.00" fill="#666666">[text]</text>
<polygon fill="none" stroke="#000000" points="465,-502.5 465,-532.5 789,-532.5 789,-502.5 465,-502.5"/>
<text text-anchor="start" x="472" y="-513.9" font-family="Arial" font-size="14.00" fill="#000000">shop_id </text>
<text text-anchor="start" x="524.9102" y="-513.9" font-family="Arial" font-size="14.00" fill="#666666">[text]</text>
<polygon fill="none" stroke="#000000" points="465,-472.5 465,-502.5 789,-502.5 789,-472.5 465,-472.5"/>
<text text-anchor="start" x="472" y="-483.9" font-family="Arial" font-size="14.00" fill="#000000">price </text>
<text text-anchor="start" x="506.223" y="-483.9" font-family="Arial" font-size="14.00" fill="#666666">[integer]</text>
<polygon fill="none" stroke="#000000" points="465,-442.5 465,-472.5 789,-472.5 789,-442.5 465,-442.5"/>
<text text-anchor="start" x="472" y="-453.9" font-family="Arial" font-size="14.00" fill="#000000">capacity </text>
<text text-anchor="start" x="527.2356" y="-453.9" font-family="Arial" font-size="14.00" fill="#666666">[integer]</text>
<polygon fill="none" stroke="#000000" points="465,-412.5 465,-442.5 789,-442.5 789,-412.5 465,-412.5"/>
<text text-anchor="start" x="472" y="-423.9" font-family="Arial" font-size="14.00" fill="#000000">purchased_at </text>
<text text-anchor="start" x="560.7026" y="-423.9" font-family="Arial" font-size="14.00" fill="#666666">[timestamp(3) without time zone]</text>
<polygon fill="none" stroke="#000000" points="465,-382.5 465,-412.5 789,-412.5 789,-382.5 465,-382.5"/>
<text text-anchor="start" x="472" y="-393.9" font-family="Arial" font-size="14.00" fill="#000000">created_at </text>
<text text-anchor="start" x="542.028" y="-393.9" font-family="Arial" font-size="14.00" fill="#666666">[timestamp(3) without time zone]</text>
<polygon fill="none" stroke="#000000" points="465,-352.5 465,-382.5 789,-382.5 789,-352.5 465,-352.5"/>
<text text-anchor="start" x="472" y="-363.9" font-family="Arial" font-size="14.00" fill="#000000">updated_at </text>
<text text-anchor="start" x="545.9326" y="-363.9" font-family="Arial" font-size="14.00" fill="#666666">[timestamp(3) without time zone]</text>
<polygon fill="none" stroke="#000000" stroke-width="3" points="463.5,-351.5 463.5,-629.5 790.5,-629.5 790.5,-351.5 463.5,-351.5"/>
</g>
<!-- public.packs -->
<g id="node2" class="node">
<title>public.packs</title>
<polygon fill="#efefef" stroke="transparent" points="255,-192.5 255,-227.5 575,-227.5 575,-192.5 255,-192.5"/>
<polygon fill="none" stroke="#000000" points="255,-192.5 255,-227.5 575,-227.5 575,-192.5 255,-192.5"/>
<text text-anchor="start" x="301.7052" y="-205.3" font-family="Arial Bold" font-size="18.00" fill="#000000">public.packs</text>
<text text-anchor="start" x="400.7268" y="-205.3" font-family="Arial" font-size="14.00" fill="#000000">    </text>
<text text-anchor="start" x="434.9316" y="-205.3" font-family="Arial" font-size="14.00" fill="#666666">[BASE TABLE]</text>
<polygon fill="none" stroke="#000000" points="255,-162.5 255,-192.5 575,-192.5 575,-162.5 255,-162.5"/>
<text text-anchor="start" x="262" y="-173.9" font-family="Arial" font-size="14.00" fill="#000000">id    </text>
<text text-anchor="start" x="307.094" y="-173.9" font-family="Arial" font-size="14.00" fill="#666666">[text]</text>
<polygon fill="none" stroke="#000000" points="255,-132.5 255,-162.5 575,-162.5 575,-132.5 255,-132.5"/>
<text text-anchor="start" x="262" y="-143.9" font-family="Arial" font-size="14.00" fill="#000000">name    </text>
<text text-anchor="start" x="331.2132" y="-143.9" font-family="Arial" font-size="14.00" fill="#666666">[text]</text>
<polygon fill="none" stroke="#000000" points="255,-102.5 255,-132.5 575,-132.5 575,-102.5 255,-102.5"/>
<text text-anchor="start" x="262" y="-113.9" font-family="Arial" font-size="14.00" fill="#000000">description    </text>
<text text-anchor="start" x="363.8822" y="-113.9" font-family="Arial" font-size="14.00" fill="#666666">[text]</text>
<polygon fill="none" stroke="#000000" points="255,-72.5 255,-102.5 575,-102.5 575,-72.5 255,-72.5"/>
<text text-anchor="start" x="262" y="-83.9" font-family="Arial" font-size="14.00" fill="#000000">created_at    </text>
<text text-anchor="start" x="362.3422" y="-83.9" font-family="Arial" font-size="14.00" fill="#666666">[timestamp(3) without time zone]</text>
<polygon fill="none" stroke="#000000" points="255,-42.5 255,-72.5 575,-72.5 575,-42.5 255,-42.5"/>
<text text-anchor="start" x="261.7546" y="-53.9" font-family="Arial" font-size="14.00" fill="#000000">updated_at    </text>
<text text-anchor="start" x="366.0014" y="-53.9" font-family="Arial" font-size="14.00" fill="#666666">[timestamp(3) without time zone]</text>
</g>
<!-- public.pack_purchases&#45;&gt;public.packs -->
<g id="edge1" class="edge">
<title>public.pack_purchases:pack_id&#45;&gt;public.packs:id</title>
<path fill="none" stroke="#000000" d="M454.8476,-546.9989C361.0636,-537.3505 404.3473,-390.6682 465,-307 495.1917,-265.3516 544.8083,-312.6484 575,-271 599.39,-237.3549 616.5556,-177.5 575,-177.5"/>
<polygon fill="#000000" stroke="#000000" points="455.0122,-547.0069 464.7781,-551.9945 460.0061,-547.2535 465,-547.5 465,-547.5 465,-547.5 460.0061,-547.2535 465.2219,-543.0055 455.0122,-547.0069 455.0122,-547.0069"/>
<text text-anchor="start" x="7.442" y="-557.5" font-family="Arial" font-size="10.00" fill="#000000">FOREIGN KEY (pack_id) REFERENCES packs(id) ON UPDATE CASCADE ON DELETE RESTRICT</text>
</g>
<!-- public.shops -->
<g id="node3" class="node">
<title>public.shops</title>
<polygon fill="#efefef" stroke="transparent" points="679,-177.5 679,-212.5 999,-212.5 999,-177.5 679,-177.5"/>
<polygon fill="none" stroke="#000000" points="679,-177.5 679,-212.5 999,-212.5 999,-177.5 679,-177.5"/>
<text text-anchor="start" x="725.2021" y="-190.3" font-family="Arial Bold" font-size="18.00" fill="#000000">public.shops</text>
<text text-anchor="start" x="825.2299" y="-190.3" font-family="Arial" font-size="14.00" fill="#000000">    </text>
<text text-anchor="start" x="859.4347" y="-190.3" font-family="Arial" font-size="14.00" fill="#666666">[BASE TABLE]</text>
<polygon fill="none" stroke="#000000" points="679,-147.5 679,-177.5 999,-177.5 999,-147.5 679,-147.5"/>
<text text-anchor="start" x="686" y="-158.9" font-family="Arial" font-size="14.00" fill="#000000">id    </text>
<text text-anchor="start" x="731.094" y="-158.9" font-family="Arial" font-size="14.00" fill="#666666">[text]</text>
<polygon fill="none" stroke="#000000" points="679,-117.5 679,-147.5 999,-147.5 999,-117.5 679,-117.5"/>
<text text-anchor="start" x="686" y="-128.9" font-family="Arial" font-size="14.00" fill="#000000">name    </text>
<text text-anchor="start" x="755.2132" y="-128.9" font-family="Arial" font-size="14.00" fill="#666666">[text]</text>
<polygon fill="none" stroke="#000000" points="679,-87.5 679,-117.5 999,-117.5 999,-87.5 679,-87.5"/>
<text text-anchor="start" x="686" y="-98.9" font-family="Arial" font-size="14.00" fill="#000000">created_at    </text>
<text text-anchor="start" x="786.3422" y="-98.9" font-family="Arial" font-size="14.00" fill="#666666">[timestamp(3) without time zone]</text>
<polygon fill="none" stroke="#000000" points="679,-57.5 679,-87.5 999,-87.5 999,-57.5 679,-57.5"/>
<text text-anchor="start" x="685.7546" y="-68.9" font-family="Arial" font-size="14.00" fill="#000000">updated_at    </text>
<text text-anchor="start" x="790.0014" y="-68.9" font-family="Arial" font-size="14.00" fill="#666666">[timestamp(3) without time zone]</text>
</g>
<!-- public.pack_purchases&#45;&gt;public.shops -->
<g id="edge2" class="edge">
<title>public.pack_purchases:shop_id&#45;&gt;public.shops:id</title>
<path fill="none" stroke="#000000" d="M799.3452,-516.9083C879.1695,-507.2953 837.387,-382.7687 789,-307 759.9962,-261.5833 708.0038,-301.4167 679,-256 656.6337,-220.9769 637.4444,-162.5 679,-162.5"/>
<polygon fill="#000000" stroke="#000000" points="798.9837,-516.9289 788.743,-513.0073 793.9918,-517.2145 789,-517.5 789,-517.5 789,-517.5 793.9918,-517.2145 789.257,-521.9927 798.9837,-516.9289 798.9837,-516.9289"/>
<text text-anchor="start" x="795.883" y="-527.5" font-family="Arial" font-size="10.00" fill="#000000">FOREIGN KEY (shop_id) REFERENCES shops(id) ON UPDATE CASCADE ON DELETE RESTRICT</text>
</g>
</g>
</svg>
