<?xml version="1.0" encoding="UTF-8" standalone="no"?>
<!DOCTYPE svg PUBLIC "-//W3C//DTD SVG 1.1//EN"
 "http://www.w3.org/Graphics/SVG/1.1/DTD/svg11.dtd">
<!-- Generated by graphviz version 2.40.1 (20161225.0304)
 -->
<!-- Title: public.package_purchases Pages: 1 -->
<svg width="1225pt" height="1079pt"
 viewBox="0.00 0.00 1225.00 1079.00" xmlns="http://www.w3.org/2000/svg" xmlns:xlink="http://www.w3.org/1999/xlink">
<g id="graph0" class="graph" transform="scale(1 1) rotate(0) translate(4 1075)">
<title>public.package_purchases</title>
<polygon fill="#ffffff" stroke="transparent" points="-4,4 -4,-1075 1221,-1075 1221,4 -4,4"/>
<!-- public.package_purchases -->
<g id="node1" class="node">
<title>public.package_purchases</title>
<polygon fill="#efefef" stroke="transparent" points="427,-562.5 427,-597.5 751,-597.5 751,-562.5 427,-562.5"/>
<polygon fill="none" stroke="#000000" points="427,-562.5 427,-597.5 751,-597.5 751,-562.5 427,-562.5"/>
<text text-anchor="start" x="433.8383" y="-575.3" font-family="Arial Bold" font-size="18.00" fill="#000000">public.package_purchases</text>
<text text-anchor="start" x="646.9079" y="-575.3" font-family="Arial" font-size="14.00" fill="#000000"> </text>
<text text-anchor="start" x="650.7985" y="-575.3" font-family="Arial" font-size="14.00" fill="#666666">[BASE TABLE]</text>
<polygon fill="none" stroke="#000000" points="427,-532.5 427,-562.5 751,-562.5 751,-532.5 427,-532.5"/>
<text text-anchor="start" x="434" y="-543.9" font-family="Arial" font-size="14.00" fill="#000000">id </text>
<text text-anchor="start" x="448.7798" y="-543.9" font-family="Arial" font-size="14.00" fill="#666666">[text]</text>
<polygon fill="none" stroke="#000000" points="427,-502.5 427,-532.5 751,-532.5 751,-502.5 427,-502.5"/>
<text text-anchor="start" x="434" y="-513.9" font-family="Arial" font-size="14.00" fill="#000000">bean_id </text>
<text text-anchor="start" x="487.6928" y="-513.9" font-family="Arial" font-size="14.00" fill="#666666">[text]</text>
<polygon fill="none" stroke="#000000" points="427,-472.5 427,-502.5 751,-502.5 751,-472.5 427,-472.5"/>
<text text-anchor="start" x="434" y="-483.9" font-family="Arial" font-size="14.00" fill="#000000">shop_id </text>
<text text-anchor="start" x="486.9102" y="-483.9" font-family="Arial" font-size="14.00" fill="#666666">[text]</text>
<polygon fill="none" stroke="#000000" points="427,-442.5 427,-472.5 751,-472.5 751,-442.5 427,-442.5"/>
<text text-anchor="start" x="434" y="-453.9" font-family="Arial" font-size="14.00" fill="#000000">price </text>
<text text-anchor="start" x="468.223" y="-453.9" font-family="Arial" font-size="14.00" fill="#666666">[integer]</text>
<polygon fill="none" stroke="#000000" points="427,-412.5 427,-442.5 751,-442.5 751,-412.5 427,-412.5"/>
<text text-anchor="start" x="434" y="-423.9" font-family="Arial" font-size="14.00" fill="#000000">capacity </text>
<text text-anchor="start" x="489.2356" y="-423.9" font-family="Arial" font-size="14.00" fill="#666666">[integer]</text>
<polygon fill="none" stroke="#000000" points="427,-382.5 427,-412.5 751,-412.5 751,-382.5 427,-382.5"/>
<text text-anchor="start" x="434" y="-393.9" font-family="Arial" font-size="14.00" fill="#000000">purchased_at </text>
<text text-anchor="start" x="522.7026" y="-393.9" font-family="Arial" font-size="14.00" fill="#666666">[timestamp(3) without time zone]</text>
<polygon fill="none" stroke="#000000" points="427,-352.5 427,-382.5 751,-382.5 751,-352.5 427,-352.5"/>
<text text-anchor="start" x="434" y="-363.9" font-family="Arial" font-size="14.00" fill="#000000">created_at </text>
<text text-anchor="start" x="504.028" y="-363.9" font-family="Arial" font-size="14.00" fill="#666666">[timestamp(3) without time zone]</text>
<polygon fill="none" stroke="#000000" points="427,-322.5 427,-352.5 751,-352.5 751,-322.5 427,-322.5"/>
<text text-anchor="start" x="434" y="-333.9" font-family="Arial" font-size="14.00" fill="#000000">updated_at </text>
<text text-anchor="start" x="507.9326" y="-333.9" font-family="Arial" font-size="14.00" fill="#666666">[timestamp(3) without time zone]</text>
<polygon fill="none" stroke="#000000" stroke-width="3" points="425.5,-321.5 425.5,-599.5 752.5,-599.5 752.5,-321.5 425.5,-321.5"/>
</g>
<!-- public.shops -->
<g id="node3" class="node">
<title>public.shops</title>
<polygon fill="#efefef" stroke="transparent" points="444,-162.5 444,-197.5 734,-197.5 734,-162.5 444,-162.5"/>
<polygon fill="none" stroke="#000000" points="444,-162.5 444,-197.5 734,-197.5 734,-162.5 444,-162.5"/>
<text text-anchor="start" x="490.3592" y="-175.3" font-family="Arial Bold" font-size="18.00" fill="#000000">public.shops</text>
<text text-anchor="start" x="590.387" y="-175.3" font-family="Arial" font-size="14.00" fill="#000000"> </text>
<text text-anchor="start" x="594.2776" y="-175.3" font-family="Arial" font-size="14.00" fill="#666666">[BASE TABLE]</text>
<polygon fill="none" stroke="#000000" points="444,-132.5 444,-162.5 734,-162.5 734,-132.5 444,-132.5"/>
<text text-anchor="start" x="451" y="-143.9" font-family="Arial" font-size="14.00" fill="#000000">id </text>
<text text-anchor="start" x="465.7798" y="-143.9" font-family="Arial" font-size="14.00" fill="#666666">[text]</text>
<polygon fill="none" stroke="#000000" points="444,-102.5 444,-132.5 734,-132.5 734,-102.5 444,-102.5"/>
<text text-anchor="start" x="451" y="-113.9" font-family="Arial" font-size="14.00" fill="#000000">name </text>
<text text-anchor="start" x="489.899" y="-113.9" font-family="Arial" font-size="14.00" fill="#666666">[text]</text>
<polygon fill="none" stroke="#000000" points="444,-72.5 444,-102.5 734,-102.5 734,-72.5 444,-72.5"/>
<text text-anchor="start" x="451" y="-83.9" font-family="Arial" font-size="14.00" fill="#000000">created_at </text>
<text text-anchor="start" x="521.028" y="-83.9" font-family="Arial" font-size="14.00" fill="#666666">[timestamp(3) without time zone]</text>
<polygon fill="none" stroke="#000000" points="444,-42.5 444,-72.5 734,-72.5 734,-42.5 444,-42.5"/>
<text text-anchor="start" x="450.9117" y="-53.9" font-family="Arial" font-size="14.00" fill="#000000">updated_at </text>
<text text-anchor="start" x="524.8443" y="-53.9" font-family="Arial" font-size="14.00" fill="#666666">[timestamp(3) without time zone]</text>
</g>
<!-- public.package_purchases&#45;&gt;public.shops -->
<g id="edge2" class="edge">
<title>public.package_purchases:shop_id&#45;&gt;public.shops:id</title>
<path fill="none" stroke="#000000" d="M761.031,-485.3288C824.9273,-456.3721 806.1039,-147.5 734,-147.5"/>
<polygon fill="#000000" stroke="#000000" points="760.7737,-485.3845 750.048,-483.1018 755.8868,-486.4422 751,-487.5 751,-487.5 751,-487.5 755.8868,-486.4422 751.952,-491.8982 760.7737,-485.3845 760.7737,-485.3845"/>
<text text-anchor="start" x="757.883" y="-497.5" font-family="Arial" font-size="10.00" fill="#000000">FOREIGN KEY (shop_id) REFERENCES shops(id) ON UPDATE CASCADE ON DELETE RESTRICT</text>
</g>
<!-- public.beans -->
<g id="node2" class="node">
<title>public.beans</title>
<polygon fill="#efefef" stroke="transparent" points="444,-992.5 444,-1027.5 734,-1027.5 734,-992.5 444,-992.5"/>
<polygon fill="none" stroke="#000000" points="444,-992.5 444,-1027.5 734,-1027.5 734,-992.5 444,-992.5"/>
<text text-anchor="start" x="489.8561" y="-1005.3" font-family="Arial Bold" font-size="18.00" fill="#000000">public.beans</text>
<text text-anchor="start" x="590.8901" y="-1005.3" font-family="Arial" font-size="14.00" fill="#000000"> </text>
<text text-anchor="start" x="594.7807" y="-1005.3" font-family="Arial" font-size="14.00" fill="#666666">[BASE TABLE]</text>
<polygon fill="none" stroke="#000000" points="444,-962.5 444,-992.5 734,-992.5 734,-962.5 444,-962.5"/>
<text text-anchor="start" x="451" y="-973.9" font-family="Arial" font-size="14.00" fill="#000000">id </text>
<text text-anchor="start" x="465.7798" y="-973.9" font-family="Arial" font-size="14.00" fill="#666666">[text]</text>
<polygon fill="none" stroke="#000000" points="444,-932.5 444,-962.5 734,-962.5 734,-932.5 444,-932.5"/>
<text text-anchor="start" x="451" y="-943.9" font-family="Arial" font-size="14.00" fill="#000000">name </text>
<text text-anchor="start" x="489.899" y="-943.9" font-family="Arial" font-size="14.00" fill="#666666">[text]</text>
<polygon fill="none" stroke="#000000" points="444,-902.5 444,-932.5 734,-932.5 734,-902.5 444,-902.5"/>
<text text-anchor="start" x="451" y="-913.9" font-family="Arial" font-size="14.00" fill="#000000">description </text>
<text text-anchor="start" x="522.568" y="-913.9" font-family="Arial" font-size="14.00" fill="#666666">[text]</text>
<polygon fill="none" stroke="#000000" points="444,-872.5 444,-902.5 734,-902.5 734,-872.5 444,-872.5"/>
<text text-anchor="start" x="451" y="-883.9" font-family="Arial" font-size="14.00" fill="#000000">origin_id </text>
<text text-anchor="start" x="507.784" y="-883.9" font-family="Arial" font-size="14.00" fill="#666666">[text]</text>
<polygon fill="none" stroke="#000000" points="444,-842.5 444,-872.5 734,-872.5 734,-842.5 444,-842.5"/>
<text text-anchor="start" x="451" y="-853.9" font-family="Arial" font-size="14.00" fill="#000000">roast_level_id </text>
<text text-anchor="start" x="541.2398" y="-853.9" font-family="Arial" font-size="14.00" fill="#666666">[text]</text>
<polygon fill="none" stroke="#000000" points="444,-812.5 444,-842.5 734,-842.5 734,-812.5 444,-812.5"/>
<text text-anchor="start" x="451" y="-823.9" font-family="Arial" font-size="14.00" fill="#000000">processing_method_id </text>
<text text-anchor="start" x="595.7068" y="-823.9" font-family="Arial" font-size="14.00" fill="#666666">[text]</text>
<polygon fill="none" stroke="#000000" points="444,-782.5 444,-812.5 734,-812.5 734,-782.5 444,-782.5"/>
<text text-anchor="start" x="451" y="-793.9" font-family="Arial" font-size="14.00" fill="#000000">created_at </text>
<text text-anchor="start" x="521.028" y="-793.9" font-family="Arial" font-size="14.00" fill="#666666">[timestamp(3) without time zone]</text>
<polygon fill="none" stroke="#000000" points="444,-752.5 444,-782.5 734,-782.5 734,-752.5 444,-752.5"/>
<text text-anchor="start" x="450.9117" y="-763.9" font-family="Arial" font-size="14.00" fill="#000000">updated_at </text>
<text text-anchor="start" x="524.8443" y="-763.9" font-family="Arial" font-size="14.00" fill="#666666">[timestamp(3) without time zone]</text>
<polygon fill="none" stroke="#000000" points="444,-722.5 444,-752.5 734,-752.5 734,-722.5 444,-722.5"/>
<text text-anchor="start" x="451" y="-733.9" font-family="Arial" font-size="14.00" fill="#000000">package_purchase_id </text>
<text text-anchor="start" x="591.8316" y="-733.9" font-family="Arial" font-size="14.00" fill="#666666">[text]</text>
</g>
<!-- public.beans&#45;&gt;public.package_purchases -->
<g id="edge1" class="edge">
<title>public.beans:package_purchase_id&#45;&gt;public.package_purchases:id</title>
<path fill="none" stroke="#000000" d="M589.7676,-712.2036C600.0353,-648.6883 710.507,-708.6181 751,-644 773.7742,-607.6573 793.8889,-547.5 751,-547.5"/>
<polygon fill="#000000" stroke="#000000" points="589.7435,-712.5277 584.5125,-722.1654 589.3718,-717.5138 589,-722.5 589,-722.5 589,-722.5 589.3718,-717.5138 593.4875,-722.8346 589.7435,-712.5277 589.7435,-712.5277"/>
<text text-anchor="start" x="7.187" y="-732.5" font-family="Arial" font-size="10.00" fill="#000000">FOREIGN KEY (package_purchase_id) REFERENCES package_purchases(id) ON UPDATE CASCADE ON DELETE SET NULL</text>
</g>
</g>
</svg>
