<?xml version="1.0" encoding="UTF-8" standalone="no"?>
<!DOCTYPE svg PUBLIC "-//W3C//DTD SVG 1.1//EN"
 "http://www.w3.org/Graphics/SVG/1.1/DTD/svg11.dtd">
<!-- Generated by graphviz version 2.40.1 (20161225.0304)
 -->
<!-- Title: public.flavor_profiles Pages: 1 -->
<svg width="914pt" height="622pt"
 viewBox="0.00 0.00 913.50 622.00" xmlns="http://www.w3.org/2000/svg" xmlns:xlink="http://www.w3.org/1999/xlink">
<g id="graph0" class="graph" transform="scale(1 1) rotate(0) translate(4 618)">
<title>public.flavor_profiles</title>
<polygon fill="#ffffff" stroke="transparent" points="-4,4 -4,-618 909.5,-618 909.5,4 -4,4"/>
<!-- public.flavor_profiles -->
<g id="node1" class="node">
<title>public.flavor_profiles</title>
<polygon fill="#efefef" stroke="transparent" points="61.5,-225.5 61.5,-260.5 351.5,-260.5 351.5,-225.5 61.5,-225.5"/>
<polygon fill="none" stroke="#000000" points="61.5,-225.5 61.5,-260.5 351.5,-260.5 351.5,-225.5 61.5,-225.5"/>
<text text-anchor="start" x="75.8642" y="-238.3" font-family="Arial Bold" font-size="18.00" fill="#000000">public.flavor_profiles</text>
<text text-anchor="start" x="239.882" y="-238.3" font-family="Arial" font-size="14.00" fill="#000000"> </text>
<text text-anchor="start" x="243.7726" y="-238.3" font-family="Arial" font-size="14.00" fill="#666666">[BASE TABLE]</text>
<polygon fill="none" stroke="#000000" points="61.5,-195.5 61.5,-225.5 351.5,-225.5 351.5,-195.5 61.5,-195.5"/>
<text text-anchor="start" x="68.5" y="-206.9" font-family="Arial" font-size="14.00" fill="#000000">id </text>
<text text-anchor="start" x="83.2798" y="-206.9" font-family="Arial" font-size="14.00" fill="#666666">[text]</text>
<polygon fill="none" stroke="#000000" points="61.5,-165.5 61.5,-195.5 351.5,-195.5 351.5,-165.5 61.5,-165.5"/>
<text text-anchor="start" x="68.5" y="-176.9" font-family="Arial" font-size="14.00" fill="#000000">value </text>
<text text-anchor="start" x="105.845" y="-176.9" font-family="Arial" font-size="14.00" fill="#666666">[text]</text>
<polygon fill="none" stroke="#000000" points="61.5,-135.5 61.5,-165.5 351.5,-165.5 351.5,-135.5 61.5,-135.5"/>
<text text-anchor="start" x="68.5" y="-146.9" font-family="Arial" font-size="14.00" fill="#000000">label </text>
<text text-anchor="start" x="101.9516" y="-146.9" font-family="Arial" font-size="14.00" fill="#666666">[text]</text>
<polygon fill="none" stroke="#000000" points="61.5,-105.5 61.5,-135.5 351.5,-135.5 351.5,-105.5 61.5,-105.5"/>
<text text-anchor="start" x="68.5" y="-116.9" font-family="Arial" font-size="14.00" fill="#000000">description </text>
<text text-anchor="start" x="140.068" y="-116.9" font-family="Arial" font-size="14.00" fill="#666666">[text]</text>
<polygon fill="none" stroke="#000000" points="61.5,-75.5 61.5,-105.5 351.5,-105.5 351.5,-75.5 61.5,-75.5"/>
<text text-anchor="start" x="68.5" y="-86.9" font-family="Arial" font-size="14.00" fill="#000000">created_at </text>
<text text-anchor="start" x="138.528" y="-86.9" font-family="Arial" font-size="14.00" fill="#666666">[timestamp(3) without time zone]</text>
<polygon fill="none" stroke="#000000" points="61.5,-45.5 61.5,-75.5 351.5,-75.5 351.5,-45.5 61.5,-45.5"/>
<text text-anchor="start" x="68.4117" y="-56.9" font-family="Arial" font-size="14.00" fill="#000000">updated_at </text>
<text text-anchor="start" x="142.3443" y="-56.9" font-family="Arial" font-size="14.00" fill="#666666">[timestamp(3) without time zone]</text>
<polygon fill="none" stroke="#000000" stroke-width="3" points="60,-44.5 60,-262.5 353,-262.5 353,-44.5 60,-44.5"/>
</g>
<!-- public.bean_flavor_profiles -->
<g id="node2" class="node">
<title>public.bean_flavor_profiles</title>
<polygon fill="#efefef" stroke="transparent" points="43.5,-535.5 43.5,-570.5 368.5,-570.5 368.5,-535.5 43.5,-535.5"/>
<polygon fill="none" stroke="#000000" points="43.5,-535.5 43.5,-570.5 368.5,-570.5 368.5,-535.5 43.5,-535.5"/>
<text text-anchor="start" x="50.3487" y="-548.3" font-family="Arial Bold" font-size="18.00" fill="#000000">public.bean_flavor_profiles</text>
<text text-anchor="start" x="264.3975" y="-548.3" font-family="Arial" font-size="14.00" fill="#000000"> </text>
<text text-anchor="start" x="268.2881" y="-548.3" font-family="Arial" font-size="14.00" fill="#666666">[BASE TABLE]</text>
<polygon fill="none" stroke="#000000" points="43.5,-505.5 43.5,-535.5 368.5,-535.5 368.5,-505.5 43.5,-505.5"/>
<text text-anchor="start" x="50.5" y="-516.9" font-family="Arial" font-size="14.00" fill="#000000">id </text>
<text text-anchor="start" x="65.2798" y="-516.9" font-family="Arial" font-size="14.00" fill="#666666">[text]</text>
<polygon fill="none" stroke="#000000" points="43.5,-475.5 43.5,-505.5 368.5,-505.5 368.5,-475.5 43.5,-475.5"/>
<text text-anchor="start" x="50.5" y="-486.9" font-family="Arial" font-size="14.00" fill="#000000">bean_id </text>
<text text-anchor="start" x="104.1928" y="-486.9" font-family="Arial" font-size="14.00" fill="#666666">[text]</text>
<polygon fill="none" stroke="#000000" points="43.5,-445.5 43.5,-475.5 368.5,-475.5 368.5,-445.5 43.5,-445.5"/>
<text text-anchor="start" x="50.5" y="-456.9" font-family="Arial" font-size="14.00" fill="#000000">flavor_profile_id </text>
<text text-anchor="start" x="153.1802" y="-456.9" font-family="Arial" font-size="14.00" fill="#666666">[text]</text>
<polygon fill="none" stroke="#000000" points="43.5,-415.5 43.5,-445.5 368.5,-445.5 368.5,-415.5 43.5,-415.5"/>
<text text-anchor="start" x="50.5" y="-426.9" font-family="Arial" font-size="14.00" fill="#000000">created_at </text>
<text text-anchor="start" x="120.528" y="-426.9" font-family="Arial" font-size="14.00" fill="#666666">[timestamp(3) without time zone]</text>
<polygon fill="none" stroke="#000000" points="43.5,-385.5 43.5,-415.5 368.5,-415.5 368.5,-385.5 43.5,-385.5"/>
<text text-anchor="start" x="50.5" y="-396.9" font-family="Arial" font-size="14.00" fill="#000000">updated_at </text>
<text text-anchor="start" x="124.4326" y="-396.9" font-family="Arial" font-size="14.00" fill="#666666">[timestamp(3) without time zone]</text>
</g>
<!-- public.bean_flavor_profiles&#45;&gt;public.flavor_profiles -->
<g id="edge1" class="edge">
<title>public.bean_flavor_profiles:flavor_profile_id&#45;&gt;public.flavor_profiles:id</title>
<path fill="none" stroke="#000000" d="M378.4996,-459.377C418.1745,-449.6586 400.7693,-379.2744 368.5,-343 277.19,-240.357 152.81,-409.643 61.5,-307 32.9937,-274.9556 18.6111,-210.5 61.5,-210.5"/>
<polygon fill="#000000" stroke="#000000" points="378.4375,-459.3839 367.9977,-456.0281 373.4688,-459.9419 368.5,-460.5 368.5,-460.5 368.5,-460.5 373.4688,-459.9419 369.0023,-464.9719 378.4375,-459.3839 378.4375,-459.3839"/>
<text text-anchor="start" x="375.833" y="-470.5" font-family="Arial" font-size="10.00" fill="#000000">FOREIGN KEY (flavor_profile_id) REFERENCES flavor_profiles(id) ON UPDATE CASCADE ON DELETE RESTRICT</text>
</g>
</g>
</svg>
