<?xml version="1.0" encoding="UTF-8" standalone="no"?>
<!DOCTYPE svg PUBLIC "-//W3C//DTD SVG 1.1//EN"
 "http://www.w3.org/Graphics/SVG/1.1/DTD/svg11.dtd">
<!-- Generated by graphviz version 2.40.1 (20161225.0304)
 -->
<!-- Title: public.packages Pages: 1 -->
<svg width="849pt" height="592pt"
 viewBox="0.00 0.00 848.50 592.00" xmlns="http://www.w3.org/2000/svg" xmlns:xlink="http://www.w3.org/1999/xlink">
<g id="graph0" class="graph" transform="scale(1 1) rotate(0) translate(4 588)">
<title>public.packages</title>
<polygon fill="#ffffff" stroke="transparent" points="-4,4 -4,-588 844.5,-588 844.5,4 -4,4"/>
<!-- public.packages -->
<g id="node1" class="node">
<title>public.packages</title>
<polygon fill="#efefef" stroke="transparent" points="48.5,-195.5 48.5,-230.5 338.5,-230.5 338.5,-195.5 48.5,-195.5"/>
<polygon fill="none" stroke="#000000" points="48.5,-195.5 48.5,-230.5 338.5,-230.5 338.5,-195.5 48.5,-195.5"/>
<text text-anchor="start" x="80.353" y="-208.3" font-family="Arial Bold" font-size="18.00" fill="#000000">public.packages</text>
<text text-anchor="start" x="209.3932" y="-208.3" font-family="Arial" font-size="14.00" fill="#000000"> </text>
<text text-anchor="start" x="213.2838" y="-208.3" font-family="Arial" font-size="14.00" fill="#666666">[BASE TABLE]</text>
<polygon fill="none" stroke="#000000" points="48.5,-165.5 48.5,-195.5 338.5,-195.5 338.5,-165.5 48.5,-165.5"/>
<text text-anchor="start" x="55.5" y="-176.9" font-family="Arial" font-size="14.00" fill="#000000">id </text>
<text text-anchor="start" x="70.2798" y="-176.9" font-family="Arial" font-size="14.00" fill="#666666">[text]</text>
<polygon fill="none" stroke="#000000" points="48.5,-135.5 48.5,-165.5 338.5,-165.5 338.5,-135.5 48.5,-135.5"/>
<text text-anchor="start" x="55.5" y="-146.9" font-family="Arial" font-size="14.00" fill="#000000">name </text>
<text text-anchor="start" x="94.399" y="-146.9" font-family="Arial" font-size="14.00" fill="#666666">[text]</text>
<polygon fill="none" stroke="#000000" points="48.5,-105.5 48.5,-135.5 338.5,-135.5 338.5,-105.5 48.5,-105.5"/>
<text text-anchor="start" x="55.5" y="-116.9" font-family="Arial" font-size="14.00" fill="#000000">description </text>
<text text-anchor="start" x="127.068" y="-116.9" font-family="Arial" font-size="14.00" fill="#666666">[text]</text>
<polygon fill="none" stroke="#000000" points="48.5,-75.5 48.5,-105.5 338.5,-105.5 338.5,-75.5 48.5,-75.5"/>
<text text-anchor="start" x="55.5" y="-86.9" font-family="Arial" font-size="14.00" fill="#000000">created_at </text>
<text text-anchor="start" x="125.528" y="-86.9" font-family="Arial" font-size="14.00" fill="#666666">[timestamp(3) without time zone]</text>
<polygon fill="none" stroke="#000000" points="48.5,-45.5 48.5,-75.5 338.5,-75.5 338.5,-45.5 48.5,-45.5"/>
<text text-anchor="start" x="55.4117" y="-56.9" font-family="Arial" font-size="14.00" fill="#000000">updated_at </text>
<text text-anchor="start" x="129.3443" y="-56.9" font-family="Arial" font-size="14.00" fill="#666666">[timestamp(3) without time zone]</text>
<polygon fill="none" stroke="#000000" stroke-width="3" points="47,-44.5 47,-232.5 340,-232.5 340,-44.5 47,-44.5"/>
</g>
<!-- public.beans_packages -->
<g id="node2" class="node">
<title>public.beans_packages</title>
<polygon fill="#efefef" stroke="transparent" points="43.5,-505.5 43.5,-540.5 342.5,-540.5 342.5,-505.5 43.5,-505.5"/>
<polygon fill="none" stroke="#000000" points="43.5,-505.5 43.5,-540.5 342.5,-540.5 342.5,-505.5 43.5,-505.5"/>
<text text-anchor="start" x="50.3375" y="-518.3" font-family="Arial Bold" font-size="18.00" fill="#000000">public.beans_packages</text>
<text text-anchor="start" x="238.4087" y="-518.3" font-family="Arial" font-size="14.00" fill="#000000"> </text>
<text text-anchor="start" x="242.2993" y="-518.3" font-family="Arial" font-size="14.00" fill="#666666">[BASE TABLE]</text>
<polygon fill="none" stroke="#000000" points="43.5,-475.5 43.5,-505.5 342.5,-505.5 342.5,-475.5 43.5,-475.5"/>
<text text-anchor="start" x="50.5" y="-486.9" font-family="Arial" font-size="14.00" fill="#000000">id </text>
<text text-anchor="start" x="65.2798" y="-486.9" font-family="Arial" font-size="14.00" fill="#666666">[text]</text>
<polygon fill="none" stroke="#000000" points="43.5,-445.5 43.5,-475.5 342.5,-475.5 342.5,-445.5 43.5,-445.5"/>
<text text-anchor="start" x="50.5" y="-456.9" font-family="Arial" font-size="14.00" fill="#000000">bean_id </text>
<text text-anchor="start" x="104.1928" y="-456.9" font-family="Arial" font-size="14.00" fill="#666666">[text]</text>
<polygon fill="none" stroke="#000000" points="43.5,-415.5 43.5,-445.5 342.5,-445.5 342.5,-415.5 43.5,-415.5"/>
<text text-anchor="start" x="50.5" y="-426.9" font-family="Arial" font-size="14.00" fill="#000000">package_id </text>
<text text-anchor="start" x="125.9754" y="-426.9" font-family="Arial" font-size="14.00" fill="#666666">[text]</text>
<polygon fill="none" stroke="#000000" points="43.5,-385.5 43.5,-415.5 342.5,-415.5 342.5,-385.5 43.5,-385.5"/>
<text text-anchor="start" x="50.5" y="-396.9" font-family="Arial" font-size="14.00" fill="#000000">created_at </text>
<text text-anchor="start" x="120.528" y="-396.9" font-family="Arial" font-size="14.00" fill="#666666">[timestamp(3) without time zone]</text>
<polygon fill="none" stroke="#000000" points="43.5,-355.5 43.5,-385.5 342.5,-385.5 342.5,-355.5 43.5,-355.5"/>
<text text-anchor="start" x="50.5" y="-366.9" font-family="Arial" font-size="14.00" fill="#000000">updated_at </text>
<text text-anchor="start" x="124.4326" y="-366.9" font-family="Arial" font-size="14.00" fill="#666666">[timestamp(3) without time zone]</text>
</g>
<!-- public.beans_packages&#45;&gt;public.packages -->
<g id="edge1" class="edge">
<title>public.beans_packages:package_id&#45;&gt;public.packages:id</title>
<path fill="none" stroke="#000000" d="M352.4982,-429.3782C392.1615,-419.6701 374.6764,-349.3567 342.5,-313 255.2547,-214.4199 135.7453,-375.5801 48.5,-277 20.0757,-244.8828 5.6111,-180.5 48.5,-180.5"/>
<polygon fill="#000000" stroke="#000000" points="352.4376,-429.3849 341.9982,-426.0281 347.4688,-429.9425 342.5,-430.5 342.5,-430.5 342.5,-430.5 347.4688,-429.9425 343.0018,-434.9719 352.4376,-429.3849 352.4376,-429.3849"/>
<text text-anchor="start" x="349.265" y="-440.5" font-family="Arial" font-size="10.00" fill="#000000">FOREIGN KEY (package_id) REFERENCES packages(id) ON UPDATE CASCADE ON DELETE RESTRICT</text>
</g>
</g>
</svg>
