<?xml version="1.0" encoding="UTF-8" standalone="no"?>
<!DOCTYPE svg PUBLIC "-//W3C//DTD SVG 1.1//EN"
 "http://www.w3.org/Graphics/SVG/1.1/DTD/svg11.dtd">
<!-- Generated by graphviz version 2.40.1 (20161225.0304)
 -->
<!-- Title: public.beans Pages: 1 -->
<svg width="1640pt" height="1109pt"
 viewBox="0.00 0.00 1640.00 1109.00" xmlns="http://www.w3.org/2000/svg" xmlns:xlink="http://www.w3.org/1999/xlink">
<g id="graph0" class="graph" transform="scale(1 1) rotate(0) translate(4 1105)">
<title>public.beans</title>
<polygon fill="#ffffff" stroke="transparent" points="-4,4 -4,-1105 1636,-1105 1636,4 -4,4"/>
<!-- public.beans -->
<g id="node1" class="node">
<title>public.beans</title>
<polygon fill="#efefef" stroke="transparent" points="644,-712.5 644,-747.5 934,-747.5 934,-712.5 644,-712.5"/>
<polygon fill="none" stroke="#000000" points="644,-712.5 644,-747.5 934,-747.5 934,-712.5 644,-712.5"/>
<text text-anchor="start" x="689.8561" y="-725.3" font-family="Arial Bold" font-size="18.00" fill="#000000">public.beans</text>
<text text-anchor="start" x="790.8901" y="-725.3" font-family="Arial" font-size="14.00" fill="#000000"> </text>
<text text-anchor="start" x="794.7807" y="-725.3" font-family="Arial" font-size="14.00" fill="#666666">[BASE TABLE]</text>
<polygon fill="none" stroke="#000000" points="644,-682.5 644,-712.5 934,-712.5 934,-682.5 644,-682.5"/>
<text text-anchor="start" x="651" y="-693.9" font-family="Arial" font-size="14.00" fill="#000000">id </text>
<text text-anchor="start" x="665.7798" y="-693.9" font-family="Arial" font-size="14.00" fill="#666666">[text]</text>
<polygon fill="none" stroke="#000000" points="644,-652.5 644,-682.5 934,-682.5 934,-652.5 644,-652.5"/>
<text text-anchor="start" x="651" y="-663.9" font-family="Arial" font-size="14.00" fill="#000000">name </text>
<text text-anchor="start" x="689.899" y="-663.9" font-family="Arial" font-size="14.00" fill="#666666">[text]</text>
<polygon fill="none" stroke="#000000" points="644,-622.5 644,-652.5 934,-652.5 934,-622.5 644,-622.5"/>
<text text-anchor="start" x="651" y="-633.9" font-family="Arial" font-size="14.00" fill="#000000">description </text>
<text text-anchor="start" x="722.568" y="-633.9" font-family="Arial" font-size="14.00" fill="#666666">[text]</text>
<polygon fill="none" stroke="#000000" points="644,-592.5 644,-622.5 934,-622.5 934,-592.5 644,-592.5"/>
<text text-anchor="start" x="651" y="-603.9" font-family="Arial" font-size="14.00" fill="#000000">origin_id </text>
<text text-anchor="start" x="707.784" y="-603.9" font-family="Arial" font-size="14.00" fill="#666666">[text]</text>
<polygon fill="none" stroke="#000000" points="644,-562.5 644,-592.5 934,-592.5 934,-562.5 644,-562.5"/>
<text text-anchor="start" x="651" y="-573.9" font-family="Arial" font-size="14.00" fill="#000000">roast_level_id </text>
<text text-anchor="start" x="741.2398" y="-573.9" font-family="Arial" font-size="14.00" fill="#666666">[text]</text>
<polygon fill="none" stroke="#000000" points="644,-532.5 644,-562.5 934,-562.5 934,-532.5 644,-532.5"/>
<text text-anchor="start" x="651" y="-543.9" font-family="Arial" font-size="14.00" fill="#000000">processing_method_id </text>
<text text-anchor="start" x="795.7068" y="-543.9" font-family="Arial" font-size="14.00" fill="#666666">[text]</text>
<polygon fill="none" stroke="#000000" points="644,-502.5 644,-532.5 934,-532.5 934,-502.5 644,-502.5"/>
<text text-anchor="start" x="651" y="-513.9" font-family="Arial" font-size="14.00" fill="#000000">created_at </text>
<text text-anchor="start" x="721.028" y="-513.9" font-family="Arial" font-size="14.00" fill="#666666">[timestamp(3) without time zone]</text>
<polygon fill="none" stroke="#000000" points="644,-472.5 644,-502.5 934,-502.5 934,-472.5 644,-472.5"/>
<text text-anchor="start" x="650.9117" y="-483.9" font-family="Arial" font-size="14.00" fill="#000000">updated_at </text>
<text text-anchor="start" x="724.8443" y="-483.9" font-family="Arial" font-size="14.00" fill="#666666">[timestamp(3) without time zone]</text>
<polygon fill="none" stroke="#000000" points="644,-442.5 644,-472.5 934,-472.5 934,-442.5 644,-442.5"/>
<text text-anchor="start" x="651" y="-453.9" font-family="Arial" font-size="14.00" fill="#000000">package_purchase_id </text>
<text text-anchor="start" x="791.8316" y="-453.9" font-family="Arial" font-size="14.00" fill="#666666">[text]</text>
<polygon fill="none" stroke="#000000" stroke-width="3" points="642.5,-441.5 642.5,-749.5 935.5,-749.5 935.5,-441.5 642.5,-441.5"/>
</g>
<!-- public.origins -->
<g id="node5" class="node">
<title>public.origins</title>
<polygon fill="#efefef" stroke="transparent" points="43,-267.5 43,-302.5 333,-302.5 333,-267.5 43,-267.5"/>
<polygon fill="none" stroke="#000000" points="43,-267.5 43,-302.5 333,-302.5 333,-267.5 43,-267.5"/>
<text text-anchor="start" x="86.8689" y="-280.3" font-family="Arial Bold" font-size="18.00" fill="#000000">public.origins</text>
<text text-anchor="start" x="191.8773" y="-280.3" font-family="Arial" font-size="14.00" fill="#000000"> </text>
<text text-anchor="start" x="195.7679" y="-280.3" font-family="Arial" font-size="14.00" fill="#666666">[BASE TABLE]</text>
<polygon fill="none" stroke="#000000" points="43,-237.5 43,-267.5 333,-267.5 333,-237.5 43,-237.5"/>
<text text-anchor="start" x="50" y="-248.9" font-family="Arial" font-size="14.00" fill="#000000">id </text>
<text text-anchor="start" x="64.7798" y="-248.9" font-family="Arial" font-size="14.00" fill="#666666">[text]</text>
<polygon fill="none" stroke="#000000" points="43,-207.5 43,-237.5 333,-237.5 333,-207.5 43,-207.5"/>
<text text-anchor="start" x="50" y="-218.9" font-family="Arial" font-size="14.00" fill="#000000">name </text>
<text text-anchor="start" x="88.899" y="-218.9" font-family="Arial" font-size="14.00" fill="#666666">[text]</text>
<polygon fill="none" stroke="#000000" points="43,-177.5 43,-207.5 333,-207.5 333,-177.5 43,-177.5"/>
<text text-anchor="start" x="50" y="-188.9" font-family="Arial" font-size="14.00" fill="#000000">description </text>
<text text-anchor="start" x="121.568" y="-188.9" font-family="Arial" font-size="14.00" fill="#666666">[text]</text>
<polygon fill="none" stroke="#000000" points="43,-147.5 43,-177.5 333,-177.5 333,-147.5 43,-147.5"/>
<text text-anchor="start" x="50" y="-158.9" font-family="Arial" font-size="14.00" fill="#000000">longitude </text>
<text text-anchor="start" x="110.69" y="-158.9" font-family="Arial" font-size="14.00" fill="#666666">[double precision]</text>
<polygon fill="none" stroke="#000000" points="43,-117.5 43,-147.5 333,-147.5 333,-117.5 43,-117.5"/>
<text text-anchor="start" x="50" y="-128.9" font-family="Arial" font-size="14.00" fill="#000000">latitude </text>
<text text-anchor="start" x="99.0154" y="-128.9" font-family="Arial" font-size="14.00" fill="#666666">[double precision]</text>
<polygon fill="none" stroke="#000000" points="43,-87.5 43,-117.5 333,-117.5 333,-87.5 43,-87.5"/>
<text text-anchor="start" x="50" y="-98.9" font-family="Arial" font-size="14.00" fill="#000000">created_at </text>
<text text-anchor="start" x="120.028" y="-98.9" font-family="Arial" font-size="14.00" fill="#666666">[timestamp(3) without time zone]</text>
<polygon fill="none" stroke="#000000" points="43,-57.5 43,-87.5 333,-87.5 333,-57.5 43,-57.5"/>
<text text-anchor="start" x="49.9117" y="-68.9" font-family="Arial" font-size="14.00" fill="#000000">updated_at </text>
<text text-anchor="start" x="123.8443" y="-68.9" font-family="Arial" font-size="14.00" fill="#666666">[timestamp(3) without time zone]</text>
</g>
<!-- public.beans&#45;&gt;public.origins -->
<g id="edge4" class="edge">
<title>public.beans:origin_id&#45;&gt;public.origins:id</title>
<path fill="none" stroke="#000000" d="M633.9661,-607.3377C484.7621,-602.4267 476.4247,-486.7818 385,-361 353.5598,-317.7447 386.4744,-252.5 333,-252.5"/>
<polygon fill="#000000" stroke="#000000" points="634.0013,-607.3382 643.9272,-611.9994 639.0007,-607.4191 644,-607.5 644,-607.5 644,-607.5 639.0007,-607.4191 644.0728,-603.0006 634.0013,-607.3382 634.0013,-607.3382"/>
<text text-anchor="start" x="182.221" y="-617.5" font-family="Arial" font-size="10.00" fill="#000000">FOREIGN KEY (origin_id) REFERENCES origins(id) ON UPDATE CASCADE ON DELETE SET NULL</text>
</g>
<!-- public.roast_levels -->
<g id="node6" class="node">
<title>public.roast_levels</title>
<polygon fill="#efefef" stroke="transparent" points="437,-237.5 437,-272.5 727,-272.5 727,-237.5 437,-237.5"/>
<polygon fill="none" stroke="#000000" points="437,-237.5 437,-272.5 727,-272.5 727,-237.5 437,-237.5"/>
<text text-anchor="start" x="459.3616" y="-250.3" font-family="Arial Bold" font-size="18.00" fill="#000000">public.roast_levels</text>
<text text-anchor="start" x="607.3846" y="-250.3" font-family="Arial" font-size="14.00" fill="#000000"> </text>
<text text-anchor="start" x="611.2752" y="-250.3" font-family="Arial" font-size="14.00" fill="#666666">[BASE TABLE]</text>
<polygon fill="none" stroke="#000000" points="437,-207.5 437,-237.5 727,-237.5 727,-207.5 437,-207.5"/>
<text text-anchor="start" x="444" y="-218.9" font-family="Arial" font-size="14.00" fill="#000000">id </text>
<text text-anchor="start" x="458.7798" y="-218.9" font-family="Arial" font-size="14.00" fill="#666666">[text]</text>
<polygon fill="none" stroke="#000000" points="437,-177.5 437,-207.5 727,-207.5 727,-177.5 437,-177.5"/>
<text text-anchor="start" x="444" y="-188.9" font-family="Arial" font-size="14.00" fill="#000000">name </text>
<text text-anchor="start" x="482.899" y="-188.9" font-family="Arial" font-size="14.00" fill="#666666">[text]</text>
<polygon fill="none" stroke="#000000" points="437,-147.5 437,-177.5 727,-177.5 727,-147.5 437,-147.5"/>
<text text-anchor="start" x="444" y="-158.9" font-family="Arial" font-size="14.00" fill="#000000">description </text>
<text text-anchor="start" x="515.568" y="-158.9" font-family="Arial" font-size="14.00" fill="#666666">[text]</text>
<polygon fill="none" stroke="#000000" points="437,-117.5 437,-147.5 727,-147.5 727,-117.5 437,-117.5"/>
<text text-anchor="start" x="444" y="-128.9" font-family="Arial" font-size="14.00" fill="#000000">created_at </text>
<text text-anchor="start" x="514.028" y="-128.9" font-family="Arial" font-size="14.00" fill="#666666">[timestamp(3) without time zone]</text>
<polygon fill="none" stroke="#000000" points="437,-87.5 437,-117.5 727,-117.5 727,-87.5 437,-87.5"/>
<text text-anchor="start" x="443.9117" y="-98.9" font-family="Arial" font-size="14.00" fill="#000000">updated_at </text>
<text text-anchor="start" x="517.8443" y="-98.9" font-family="Arial" font-size="14.00" fill="#666666">[timestamp(3) without time zone]</text>
</g>
<!-- public.beans&#45;&gt;public.roast_levels -->
<g id="edge5" class="edge">
<title>public.beans:roast_level_id&#45;&gt;public.roast_levels:id</title>
<path fill="none" stroke="#000000" d="M633.7457,-577.386C375.6832,-571.4971 717.1317,-339.4192 727,-316 743.1364,-277.7053 768.5556,-222.5 727,-222.5"/>
<polygon fill="#000000" stroke="#000000" points="634.0006,-577.3887 643.9499,-581.9997 639.0003,-577.4443 644,-577.5 644,-577.5 644,-577.5 639.0003,-577.4443 644.0501,-573.0003 634.0006,-577.3887 634.0006,-577.3887"/>
<text text-anchor="start" x="134.324" y="-587.5" font-family="Arial" font-size="10.00" fill="#000000">FOREIGN KEY (roast_level_id) REFERENCES roast_levels(id) ON UPDATE CASCADE ON DELETE SET NULL</text>
</g>
<!-- public.processing_methods -->
<g id="node7" class="node">
<title>public.processing_methods</title>
<polygon fill="#efefef" stroke="transparent" points="832,-237.5 832,-272.5 1161,-272.5 1161,-237.5 832,-237.5"/>
<polygon fill="none" stroke="#000000" points="832,-237.5 832,-272.5 1161,-272.5 1161,-237.5 832,-237.5"/>
<text text-anchor="start" x="838.8471" y="-250.3" font-family="Arial Bold" font-size="18.00" fill="#000000">public.processing_methods</text>
<text text-anchor="start" x="1056.8991" y="-250.3" font-family="Arial" font-size="14.00" fill="#000000"> </text>
<text text-anchor="start" x="1060.7897" y="-250.3" font-family="Arial" font-size="14.00" fill="#666666">[BASE TABLE]</text>
<polygon fill="none" stroke="#000000" points="832,-207.5 832,-237.5 1161,-237.5 1161,-207.5 832,-207.5"/>
<text text-anchor="start" x="839" y="-218.9" font-family="Arial" font-size="14.00" fill="#000000">id </text>
<text text-anchor="start" x="853.7798" y="-218.9" font-family="Arial" font-size="14.00" fill="#666666">[text]</text>
<polygon fill="none" stroke="#000000" points="832,-177.5 832,-207.5 1161,-207.5 1161,-177.5 832,-177.5"/>
<text text-anchor="start" x="839" y="-188.9" font-family="Arial" font-size="14.00" fill="#000000">name </text>
<text text-anchor="start" x="877.899" y="-188.9" font-family="Arial" font-size="14.00" fill="#666666">[text]</text>
<polygon fill="none" stroke="#000000" points="832,-147.5 832,-177.5 1161,-177.5 1161,-147.5 832,-147.5"/>
<text text-anchor="start" x="839" y="-158.9" font-family="Arial" font-size="14.00" fill="#000000">description </text>
<text text-anchor="start" x="910.568" y="-158.9" font-family="Arial" font-size="14.00" fill="#666666">[text]</text>
<polygon fill="none" stroke="#000000" points="832,-117.5 832,-147.5 1161,-147.5 1161,-117.5 832,-117.5"/>
<text text-anchor="start" x="839" y="-128.9" font-family="Arial" font-size="14.00" fill="#000000">created_at </text>
<text text-anchor="start" x="909.028" y="-128.9" font-family="Arial" font-size="14.00" fill="#666666">[timestamp(3) without time zone]</text>
<polygon fill="none" stroke="#000000" points="832,-87.5 832,-117.5 1161,-117.5 1161,-87.5 832,-87.5"/>
<text text-anchor="start" x="839" y="-98.9" font-family="Arial" font-size="14.00" fill="#000000">updated_at </text>
<text text-anchor="start" x="912.9326" y="-98.9" font-family="Arial" font-size="14.00" fill="#666666">[timestamp(3) without time zone]</text>
</g>
<!-- public.beans&#45;&gt;public.processing_methods -->
<g id="edge6" class="edge">
<title>public.beans:processing_method_id&#45;&gt;public.processing_methods:id</title>
<path fill="none" stroke="#000000" d="M944.0532,-546.7098C996.7801,-537.7171 961.4934,-453.9409 934,-397 908.8294,-344.8698 857.1706,-368.1302 832,-316 813.9313,-278.5783 790.4444,-222.5 832,-222.5"/>
<polygon fill="#000000" stroke="#000000" points="943.9693,-546.7163 933.6473,-543.0138 938.9846,-547.1082 934,-547.5 934,-547.5 934,-547.5 938.9846,-547.1082 934.3527,-551.9862 943.9693,-546.7163 943.9693,-546.7163"/>
<text text-anchor="start" x="941.419" y="-557.5" font-family="Arial" font-size="10.00" fill="#000000">FOREIGN KEY (processing_method_id) REFERENCES processing_methods(id) ON UPDATE CASCADE ON DELETE SET NULL</text>
</g>
<!-- public.package_purchases -->
<g id="node8" class="node">
<title>public.package_purchases</title>
<polygon fill="#efefef" stroke="transparent" points="1265,-282.5 1265,-317.5 1589,-317.5 1589,-282.5 1265,-282.5"/>
<polygon fill="none" stroke="#000000" points="1265,-282.5 1265,-317.5 1589,-317.5 1589,-282.5 1265,-282.5"/>
<text text-anchor="start" x="1271.8383" y="-295.3" font-family="Arial Bold" font-size="18.00" fill="#000000">public.package_purchases</text>
<text text-anchor="start" x="1484.9079" y="-295.3" font-family="Arial" font-size="14.00" fill="#000000"> </text>
<text text-anchor="start" x="1488.7985" y="-295.3" font-family="Arial" font-size="14.00" fill="#666666">[BASE TABLE]</text>
<polygon fill="none" stroke="#000000" points="1265,-252.5 1265,-282.5 1589,-282.5 1589,-252.5 1265,-252.5"/>
<text text-anchor="start" x="1272" y="-263.9" font-family="Arial" font-size="14.00" fill="#000000">id </text>
<text text-anchor="start" x="1286.7798" y="-263.9" font-family="Arial" font-size="14.00" fill="#666666">[text]</text>
<polygon fill="none" stroke="#000000" points="1265,-222.5 1265,-252.5 1589,-252.5 1589,-222.5 1265,-222.5"/>
<text text-anchor="start" x="1272" y="-233.9" font-family="Arial" font-size="14.00" fill="#000000">bean_id </text>
<text text-anchor="start" x="1325.6928" y="-233.9" font-family="Arial" font-size="14.00" fill="#666666">[text]</text>
<polygon fill="none" stroke="#000000" points="1265,-192.5 1265,-222.5 1589,-222.5 1589,-192.5 1265,-192.5"/>
<text text-anchor="start" x="1272" y="-203.9" font-family="Arial" font-size="14.00" fill="#000000">shop_id </text>
<text text-anchor="start" x="1324.9102" y="-203.9" font-family="Arial" font-size="14.00" fill="#666666">[text]</text>
<polygon fill="none" stroke="#000000" points="1265,-162.5 1265,-192.5 1589,-192.5 1589,-162.5 1265,-162.5"/>
<text text-anchor="start" x="1272" y="-173.9" font-family="Arial" font-size="14.00" fill="#000000">price </text>
<text text-anchor="start" x="1306.223" y="-173.9" font-family="Arial" font-size="14.00" fill="#666666">[integer]</text>
<polygon fill="none" stroke="#000000" points="1265,-132.5 1265,-162.5 1589,-162.5 1589,-132.5 1265,-132.5"/>
<text text-anchor="start" x="1272" y="-143.9" font-family="Arial" font-size="14.00" fill="#000000">capacity </text>
<text text-anchor="start" x="1327.2356" y="-143.9" font-family="Arial" font-size="14.00" fill="#666666">[integer]</text>
<polygon fill="none" stroke="#000000" points="1265,-102.5 1265,-132.5 1589,-132.5 1589,-102.5 1265,-102.5"/>
<text text-anchor="start" x="1272" y="-113.9" font-family="Arial" font-size="14.00" fill="#000000">purchased_at </text>
<text text-anchor="start" x="1360.7026" y="-113.9" font-family="Arial" font-size="14.00" fill="#666666">[timestamp(3) without time zone]</text>
<polygon fill="none" stroke="#000000" points="1265,-72.5 1265,-102.5 1589,-102.5 1589,-72.5 1265,-72.5"/>
<text text-anchor="start" x="1272" y="-83.9" font-family="Arial" font-size="14.00" fill="#000000">created_at </text>
<text text-anchor="start" x="1342.028" y="-83.9" font-family="Arial" font-size="14.00" fill="#666666">[timestamp(3) without time zone]</text>
<polygon fill="none" stroke="#000000" points="1265,-42.5 1265,-72.5 1589,-72.5 1589,-42.5 1265,-42.5"/>
<text text-anchor="start" x="1272" y="-53.9" font-family="Arial" font-size="14.00" fill="#000000">updated_at </text>
<text text-anchor="start" x="1345.9326" y="-53.9" font-family="Arial" font-size="14.00" fill="#666666">[timestamp(3) without time zone]</text>
</g>
<!-- public.beans&#45;&gt;public.package_purchases -->
<g id="edge7" class="edge">
<title>public.beans:package_purchase_id&#45;&gt;public.package_purchases:id</title>
<path fill="none" stroke="#000000" d="M944.2062,-457.4735C1067.738,-456.8084 1115.1384,-443.1139 1213,-361 1249.4256,-330.4359 1217.4502,-267.5 1265,-267.5"/>
<polygon fill="#000000" stroke="#000000" points="944,-457.474 933.9883,-453 939,-457.487 934,-457.5 934,-457.5 934,-457.5 939,-457.487 934.0117,-462 944,-457.474 944,-457.474"/>
<text text-anchor="start" x="941.187" y="-467.5" font-family="Arial" font-size="10.00" fill="#000000">FOREIGN KEY (package_purchase_id) REFERENCES package_purchases(id) ON UPDATE CASCADE ON DELETE SET NULL</text>
</g>
<!-- public.beans_packages -->
<g id="node2" class="node">
<title>public.beans_packages</title>
<polygon fill="#efefef" stroke="transparent" points="223,-1022.5 223,-1057.5 522,-1057.5 522,-1022.5 223,-1022.5"/>
<polygon fill="none" stroke="#000000" points="223,-1022.5 223,-1057.5 522,-1057.5 522,-1022.5 223,-1022.5"/>
<text text-anchor="start" x="229.8375" y="-1035.3" font-family="Arial Bold" font-size="18.00" fill="#000000">public.beans_packages</text>
<text text-anchor="start" x="417.9087" y="-1035.3" font-family="Arial" font-size="14.00" fill="#000000"> </text>
<text text-anchor="start" x="421.7993" y="-1035.3" font-family="Arial" font-size="14.00" fill="#666666">[BASE TABLE]</text>
<polygon fill="none" stroke="#000000" points="223,-992.5 223,-1022.5 522,-1022.5 522,-992.5 223,-992.5"/>
<text text-anchor="start" x="230" y="-1003.9" font-family="Arial" font-size="14.00" fill="#000000">id </text>
<text text-anchor="start" x="244.7798" y="-1003.9" font-family="Arial" font-size="14.00" fill="#666666">[text]</text>
<polygon fill="none" stroke="#000000" points="223,-962.5 223,-992.5 522,-992.5 522,-962.5 223,-962.5"/>
<text text-anchor="start" x="230" y="-973.9" font-family="Arial" font-size="14.00" fill="#000000">bean_id </text>
<text text-anchor="start" x="283.6928" y="-973.9" font-family="Arial" font-size="14.00" fill="#666666">[text]</text>
<polygon fill="none" stroke="#000000" points="223,-932.5 223,-962.5 522,-962.5 522,-932.5 223,-932.5"/>
<text text-anchor="start" x="230" y="-943.9" font-family="Arial" font-size="14.00" fill="#000000">package_id </text>
<text text-anchor="start" x="305.4754" y="-943.9" font-family="Arial" font-size="14.00" fill="#666666">[text]</text>
<polygon fill="none" stroke="#000000" points="223,-902.5 223,-932.5 522,-932.5 522,-902.5 223,-902.5"/>
<text text-anchor="start" x="230" y="-913.9" font-family="Arial" font-size="14.00" fill="#000000">created_at </text>
<text text-anchor="start" x="300.028" y="-913.9" font-family="Arial" font-size="14.00" fill="#666666">[timestamp(3) without time zone]</text>
<polygon fill="none" stroke="#000000" points="223,-872.5 223,-902.5 522,-902.5 522,-872.5 223,-872.5"/>
<text text-anchor="start" x="230" y="-883.9" font-family="Arial" font-size="14.00" fill="#000000">updated_at </text>
<text text-anchor="start" x="303.9326" y="-883.9" font-family="Arial" font-size="14.00" fill="#666666">[timestamp(3) without time zone]</text>
</g>
<!-- public.beans_packages&#45;&gt;public.beans -->
<g id="edge1" class="edge">
<title>public.beans_packages:bean_id&#45;&gt;public.beans:id</title>
<path fill="none" stroke="#000000" d="M532.0375,-976.8149C586.7003,-968.7024 546.6643,-890.197 573,-830 599.7786,-768.7908 577.1894,-697.5 644,-697.5"/>
<polygon fill="#000000" stroke="#000000" points="531.9768,-976.819 521.6935,-973.0104 526.9884,-977.1595 522,-977.5 522,-977.5 522,-977.5 526.9884,-977.1595 522.3065,-981.9896 531.9768,-976.819 531.9768,-976.819"/>
<text text-anchor="start" x="62.324" y="-987.5" font-family="Arial" font-size="10.00" fill="#000000">FOREIGN KEY (bean_id) REFERENCES beans(id) ON UPDATE CASCADE ON DELETE RESTRICT</text>
</g>
<!-- public.bean_flavor_profiles -->
<g id="node3" class="node">
<title>public.bean_flavor_profiles</title>
<polygon fill="#efefef" stroke="transparent" points="626,-1022.5 626,-1057.5 951,-1057.5 951,-1022.5 626,-1022.5"/>
<polygon fill="none" stroke="#000000" points="626,-1022.5 626,-1057.5 951,-1057.5 951,-1022.5 626,-1022.5"/>
<text text-anchor="start" x="632.8487" y="-1035.3" font-family="Arial Bold" font-size="18.00" fill="#000000">public.bean_flavor_profiles</text>
<text text-anchor="start" x="846.8975" y="-1035.3" font-family="Arial" font-size="14.00" fill="#000000"> </text>
<text text-anchor="start" x="850.7881" y="-1035.3" font-family="Arial" font-size="14.00" fill="#666666">[BASE TABLE]</text>
<polygon fill="none" stroke="#000000" points="626,-992.5 626,-1022.5 951,-1022.5 951,-992.5 626,-992.5"/>
<text text-anchor="start" x="633" y="-1003.9" font-family="Arial" font-size="14.00" fill="#000000">id </text>
<text text-anchor="start" x="647.7798" y="-1003.9" font-family="Arial" font-size="14.00" fill="#666666">[text]</text>
<polygon fill="none" stroke="#000000" points="626,-962.5 626,-992.5 951,-992.5 951,-962.5 626,-962.5"/>
<text text-anchor="start" x="633" y="-973.9" font-family="Arial" font-size="14.00" fill="#000000">bean_id </text>
<text text-anchor="start" x="686.6928" y="-973.9" font-family="Arial" font-size="14.00" fill="#666666">[text]</text>
<polygon fill="none" stroke="#000000" points="626,-932.5 626,-962.5 951,-962.5 951,-932.5 626,-932.5"/>
<text text-anchor="start" x="633" y="-943.9" font-family="Arial" font-size="14.00" fill="#000000">flavor_profile_id </text>
<text text-anchor="start" x="735.6802" y="-943.9" font-family="Arial" font-size="14.00" fill="#666666">[text]</text>
<polygon fill="none" stroke="#000000" points="626,-902.5 626,-932.5 951,-932.5 951,-902.5 626,-902.5"/>
<text text-anchor="start" x="633" y="-913.9" font-family="Arial" font-size="14.00" fill="#000000">created_at </text>
<text text-anchor="start" x="703.028" y="-913.9" font-family="Arial" font-size="14.00" fill="#666666">[timestamp(3) without time zone]</text>
<polygon fill="none" stroke="#000000" points="626,-872.5 626,-902.5 951,-902.5 951,-872.5 626,-872.5"/>
<text text-anchor="start" x="633" y="-883.9" font-family="Arial" font-size="14.00" fill="#000000">updated_at </text>
<text text-anchor="start" x="706.9326" y="-883.9" font-family="Arial" font-size="14.00" fill="#666666">[timestamp(3) without time zone]</text>
</g>
<!-- public.bean_flavor_profiles&#45;&gt;public.beans -->
<g id="edge2" class="edge">
<title>public.bean_flavor_profiles:bean_id&#45;&gt;public.beans:id</title>
<path fill="none" stroke="#000000" d="M960.9806,-976.6403C1014.0865,-966.8725 992.189,-876.3012 951,-830 859.69,-727.357 735.31,-896.643 644,-794 615.4937,-761.9556 601.1111,-697.5 644,-697.5"/>
<polygon fill="#000000" stroke="#000000" points="960.9631,-976.6417 950.6138,-973.0166 955.9816,-977.0708 951,-977.5 951,-977.5 951,-977.5 955.9816,-977.0708 951.3862,-981.9834 960.9631,-976.6417 960.9631,-976.6417"/>
<text text-anchor="start" x="958.324" y="-987.5" font-family="Arial" font-size="10.00" fill="#000000">FOREIGN KEY (bean_id) REFERENCES beans(id) ON UPDATE CASCADE ON DELETE RESTRICT</text>
</g>
<!-- public.bean_tastings -->
<g id="node4" class="node">
<title>public.bean_tastings</title>
<polygon fill="#efefef" stroke="transparent" points="1055,-1007.5 1055,-1042.5 1345,-1042.5 1345,-1007.5 1055,-1007.5"/>
<polygon fill="none" stroke="#000000" points="1055,-1007.5 1055,-1042.5 1345,-1042.5 1345,-1007.5 1055,-1007.5"/>
<text text-anchor="start" x="1069.3444" y="-1020.3" font-family="Arial Bold" font-size="18.00" fill="#000000">public.bean_tastings</text>
<text text-anchor="start" x="1233.4018" y="-1020.3" font-family="Arial" font-size="14.00" fill="#000000"> </text>
<text text-anchor="start" x="1237.2924" y="-1020.3" font-family="Arial" font-size="14.00" fill="#666666">[BASE TABLE]</text>
<polygon fill="none" stroke="#000000" points="1055,-977.5 1055,-1007.5 1345,-1007.5 1345,-977.5 1055,-977.5"/>
<text text-anchor="start" x="1062" y="-988.9" font-family="Arial" font-size="14.00" fill="#000000">tasting_id </text>
<text text-anchor="start" x="1125.798" y="-988.9" font-family="Arial" font-size="14.00" fill="#666666">[text]</text>
<polygon fill="none" stroke="#000000" points="1055,-947.5 1055,-977.5 1345,-977.5 1345,-947.5 1055,-947.5"/>
<text text-anchor="start" x="1062" y="-958.9" font-family="Arial" font-size="14.00" fill="#000000">bean_id </text>
<text text-anchor="start" x="1115.6928" y="-958.9" font-family="Arial" font-size="14.00" fill="#666666">[text]</text>
<polygon fill="none" stroke="#000000" points="1055,-917.5 1055,-947.5 1345,-947.5 1345,-917.5 1055,-917.5"/>
<text text-anchor="start" x="1062" y="-928.9" font-family="Arial" font-size="14.00" fill="#000000">created_at </text>
<text text-anchor="start" x="1132.028" y="-928.9" font-family="Arial" font-size="14.00" fill="#666666">[timestamp(3) without time zone]</text>
<polygon fill="none" stroke="#000000" points="1055,-887.5 1055,-917.5 1345,-917.5 1345,-887.5 1055,-887.5"/>
<text text-anchor="start" x="1061.9117" y="-898.9" font-family="Arial" font-size="14.00" fill="#000000">updated_at </text>
<text text-anchor="start" x="1135.8443" y="-898.9" font-family="Arial" font-size="14.00" fill="#666666">[timestamp(3) without time zone]</text>
</g>
<!-- public.bean_tastings&#45;&gt;public.beans -->
<g id="edge3" class="edge">
<title>public.bean_tastings:bean_id&#45;&gt;public.beans:id</title>
<path fill="none" stroke="#000000" d="M1044.8842,-961.7469C995.9101,-953.7799 1027.6668,-884.2063 1003,-830 975.5,-769.5674 1000.3954,-697.5 934,-697.5"/>
<polygon fill="#000000" stroke="#000000" points="1045.0276,-961.7575 1054.6659,-966.9876 1050.0138,-962.1287 1055,-962.5 1055,-962.5 1055,-962.5 1050.0138,-962.1287 1055.3341,-958.0124 1045.0276,-961.7575 1045.0276,-961.7575"/>
<text text-anchor="start" x="1062.324" y="-946.5" font-family="Arial" font-size="10.00" fill="#000000">FOREIGN KEY (bean_id) REFERENCES beans(id) ON UPDATE CASCADE ON DELETE RESTRICT</text>
</g>
</g>
</svg>
