<?xml version="1.0" encoding="UTF-8" standalone="no"?>
<!DOCTYPE svg PUBLIC "-//W3C//DTD SVG 1.1//EN"
 "http://www.w3.org/Graphics/SVG/1.1/DTD/svg11.dtd">
<!-- Generated by graphviz version 2.40.1 (20161225.0304)
 -->
<!-- Title: public.flavor_profile_trees Pages: 1 -->
<svg width="1174pt" height="562pt"
 viewBox="0.00 0.00 1174.00 562.00" xmlns="http://www.w3.org/2000/svg" xmlns:xlink="http://www.w3.org/1999/xlink">
<g id="graph0" class="graph" transform="scale(1 1) rotate(0) translate(4 558)">
<title>public.flavor_profile_trees</title>
<polygon fill="#ffffff" stroke="transparent" points="-4,4 -4,-558 1170,-558 1170,4 -4,4"/>
<!-- public.flavor_profile_trees -->
<g id="node1" class="node">
<title>public.flavor_profile_trees</title>
<polygon fill="#efefef" stroke="transparent" points="342,-472.5 342,-507.5 658,-507.5 658,-472.5 342,-472.5"/>
<polygon fill="none" stroke="#000000" points="342,-472.5 342,-507.5 658,-507.5 658,-472.5 342,-472.5"/>
<text text-anchor="start" x="348.8577" y="-485.3" font-family="Arial Bold" font-size="18.00" fill="#000000">public.flavor_profile_trees</text>
<text text-anchor="start" x="553.8885" y="-485.3" font-family="Arial" font-size="14.00" fill="#000000"> </text>
<text text-anchor="start" x="557.7791" y="-485.3" font-family="Arial" font-size="14.00" fill="#666666">[BASE TABLE]</text>
<polygon fill="none" stroke="#000000" points="342,-442.5 342,-472.5 658,-472.5 658,-442.5 342,-442.5"/>
<text text-anchor="start" x="349" y="-453.9" font-family="Arial" font-size="14.00" fill="#000000">id </text>
<text text-anchor="start" x="363.7798" y="-453.9" font-family="Arial" font-size="14.00" fill="#666666">[text]</text>
<polygon fill="none" stroke="#000000" points="342,-412.5 342,-442.5 658,-442.5 658,-412.5 342,-412.5"/>
<text text-anchor="start" x="349" y="-423.9" font-family="Arial" font-size="14.00" fill="#000000">parent_id </text>
<text text-anchor="start" x="411.244" y="-423.9" font-family="Arial" font-size="14.00" fill="#666666">[text]</text>
<polygon fill="none" stroke="#000000" points="342,-382.5 342,-412.5 658,-412.5 658,-382.5 342,-382.5"/>
<text text-anchor="start" x="349" y="-393.9" font-family="Arial" font-size="14.00" fill="#000000">child_id </text>
<text text-anchor="start" x="400.3408" y="-393.9" font-family="Arial" font-size="14.00" fill="#666666">[text]</text>
<polygon fill="none" stroke="#000000" stroke-width="3" points="340.5,-381.5 340.5,-509.5 659.5,-509.5 659.5,-381.5 340.5,-381.5"/>
</g>
<!-- public.flavor_profiles -->
<g id="node2" class="node">
<title>public.flavor_profiles</title>
<polygon fill="#efefef" stroke="transparent" points="355,-222.5 355,-257.5 645,-257.5 645,-222.5 355,-222.5"/>
<polygon fill="none" stroke="#000000" points="355,-222.5 355,-257.5 645,-257.5 645,-222.5 355,-222.5"/>
<text text-anchor="start" x="369.3642" y="-235.3" font-family="Arial Bold" font-size="18.00" fill="#000000">public.flavor_profiles</text>
<text text-anchor="start" x="533.382" y="-235.3" font-family="Arial" font-size="14.00" fill="#000000"> </text>
<text text-anchor="start" x="537.2726" y="-235.3" font-family="Arial" font-size="14.00" fill="#666666">[BASE TABLE]</text>
<polygon fill="none" stroke="#000000" points="355,-192.5 355,-222.5 645,-222.5 645,-192.5 355,-192.5"/>
<text text-anchor="start" x="362" y="-203.9" font-family="Arial" font-size="14.00" fill="#000000">id </text>
<text text-anchor="start" x="376.7798" y="-203.9" font-family="Arial" font-size="14.00" fill="#666666">[text]</text>
<polygon fill="none" stroke="#000000" points="355,-162.5 355,-192.5 645,-192.5 645,-162.5 355,-162.5"/>
<text text-anchor="start" x="362" y="-173.9" font-family="Arial" font-size="14.00" fill="#000000">value </text>
<text text-anchor="start" x="399.345" y="-173.9" font-family="Arial" font-size="14.00" fill="#666666">[text]</text>
<polygon fill="none" stroke="#000000" points="355,-132.5 355,-162.5 645,-162.5 645,-132.5 355,-132.5"/>
<text text-anchor="start" x="362" y="-143.9" font-family="Arial" font-size="14.00" fill="#000000">label </text>
<text text-anchor="start" x="395.4516" y="-143.9" font-family="Arial" font-size="14.00" fill="#666666">[text]</text>
<polygon fill="none" stroke="#000000" points="355,-102.5 355,-132.5 645,-132.5 645,-102.5 355,-102.5"/>
<text text-anchor="start" x="362" y="-113.9" font-family="Arial" font-size="14.00" fill="#000000">description </text>
<text text-anchor="start" x="433.568" y="-113.9" font-family="Arial" font-size="14.00" fill="#666666">[text]</text>
<polygon fill="none" stroke="#000000" points="355,-72.5 355,-102.5 645,-102.5 645,-72.5 355,-72.5"/>
<text text-anchor="start" x="362" y="-83.9" font-family="Arial" font-size="14.00" fill="#000000">created_at </text>
<text text-anchor="start" x="432.028" y="-83.9" font-family="Arial" font-size="14.00" fill="#666666">[timestamp(3) without time zone]</text>
<polygon fill="none" stroke="#000000" points="355,-42.5 355,-72.5 645,-72.5 645,-42.5 355,-42.5"/>
<text text-anchor="start" x="361.9117" y="-53.9" font-family="Arial" font-size="14.00" fill="#000000">updated_at </text>
<text text-anchor="start" x="435.8443" y="-53.9" font-family="Arial" font-size="14.00" fill="#666666">[timestamp(3) without time zone]</text>
</g>
<!-- public.flavor_profile_trees&#45;&gt;public.flavor_profiles -->
<g id="edge1" class="edge">
<title>public.flavor_profile_trees:parent_id&#45;&gt;public.flavor_profiles:id</title>
<path fill="none" stroke="#000000" d="M668.1841,-426.6591C754.898,-411.8888 739.4092,-207.5 645,-207.5"/>
<polygon fill="#000000" stroke="#000000" points="667.9661,-426.677 657.6296,-423.0153 662.983,-427.0885 658,-427.5 658,-427.5 658,-427.5 662.983,-427.0885 658.3704,-431.9847 667.9661,-426.677 667.9661,-426.677"/>
<text text-anchor="start" x="664.7745" y="-437.5" font-family="Arial" font-size="10.00" fill="#000000">FOREIGN KEY (parent_id) REFERENCES flavor_profiles(id) ON UPDATE CASCADE ON DELETE RESTRICT</text>
</g>
<!-- public.flavor_profile_trees&#45;&gt;public.flavor_profiles -->
<g id="edge2" class="edge">
<title>public.flavor_profile_trees:child_id&#45;&gt;public.flavor_profiles:id</title>
<path fill="none" stroke="#000000" d="M500.8096,-372.2119C510.7537,-313.9752 609.5638,-361.5677 645,-301 665.985,-265.1323 686.5556,-207.5 645,-207.5"/>
<polygon fill="#000000" stroke="#000000" points="500.7846,-372.5308 495.5139,-382.1469 500.3923,-377.5154 500,-382.5 500,-382.5 500,-382.5 500.3923,-377.5154 504.4861,-382.8531 500.7846,-372.5308 500.7846,-372.5308"/>
<text text-anchor="start" x="6.6685" y="-392.5" font-family="Arial" font-size="10.00" fill="#000000">FOREIGN KEY (child_id) REFERENCES flavor_profiles(id) ON UPDATE CASCADE ON DELETE RESTRICT</text>
</g>
</g>
</svg>
