<?xml version="1.0" encoding="UTF-8" standalone="no"?>
<!DOCTYPE svg PUBLIC "-//W3C//DTD SVG 1.1//EN"
 "http://www.w3.org/Graphics/SVG/1.1/DTD/svg11.dtd">
<!-- Generated by graphviz version 2.40.1 (20161225.0304)
 -->
<!-- Title: public.tastings Pages: 1 -->
<svg width="832pt" height="652pt"
 viewBox="0.00 0.00 832.00 652.00" xmlns="http://www.w3.org/2000/svg" xmlns:xlink="http://www.w3.org/1999/xlink">
<g id="graph0" class="graph" transform="scale(1 1) rotate(0) translate(4 648)">
<title>public.tastings</title>
<polygon fill="#ffffff" stroke="transparent" points="-4,4 -4,-648 828,-648 828,4 -4,4"/>
<!-- public.tastings -->
<g id="node1" class="node">
<title>public.tastings</title>
<polygon fill="#efefef" stroke="transparent" points="46,-285.5 46,-320.5 350,-320.5 350,-285.5 46,-285.5"/>
<polygon fill="none" stroke="#000000" points="46,-285.5 46,-320.5 350,-320.5 350,-285.5 46,-285.5"/>
<text text-anchor="start" x="92.3599" y="-298.3" font-family="Arial Bold" font-size="18.00" fill="#000000">public.tastings</text>
<text text-anchor="start" x="206.3863" y="-298.3" font-family="Arial" font-size="14.00" fill="#000000"> </text>
<text text-anchor="start" x="210.2769" y="-298.3" font-family="Arial" font-size="14.00" fill="#666666">[BASE TABLE]</text>
<polygon fill="none" stroke="#000000" points="46,-255.5 46,-285.5 350,-285.5 350,-255.5 46,-255.5"/>
<text text-anchor="start" x="53" y="-266.9" font-family="Arial" font-size="14.00" fill="#000000">id </text>
<text text-anchor="start" x="67.7798" y="-266.9" font-family="Arial" font-size="14.00" fill="#666666">[text]</text>
<polygon fill="none" stroke="#000000" points="46,-225.5 46,-255.5 350,-255.5 350,-225.5 46,-225.5"/>
<text text-anchor="start" x="53" y="-236.9" font-family="Arial" font-size="14.00" fill="#000000">name </text>
<text text-anchor="start" x="91.899" y="-236.9" font-family="Arial" font-size="14.00" fill="#666666">[text]</text>
<polygon fill="none" stroke="#000000" points="46,-195.5 46,-225.5 350,-225.5 350,-195.5 46,-195.5"/>
<text text-anchor="start" x="53" y="-206.9" font-family="Arial" font-size="14.00" fill="#000000">description </text>
<text text-anchor="start" x="124.568" y="-206.9" font-family="Arial" font-size="14.00" fill="#666666">[text]</text>
<polygon fill="none" stroke="#000000" points="46,-165.5 46,-195.5 350,-195.5 350,-165.5 46,-165.5"/>
<text text-anchor="start" x="53" y="-176.9" font-family="Arial" font-size="14.00" fill="#000000">acidity </text>
<text text-anchor="start" x="96.5596" y="-176.9" font-family="Arial" font-size="14.00" fill="#666666">[integer]</text>
<polygon fill="none" stroke="#000000" points="46,-135.5 46,-165.5 350,-165.5 350,-135.5 46,-135.5"/>
<text text-anchor="start" x="53" y="-146.9" font-family="Arial" font-size="14.00" fill="#000000">richness </text>
<text text-anchor="start" x="109.0056" y="-146.9" font-family="Arial" font-size="14.00" fill="#666666">[integer]</text>
<polygon fill="none" stroke="#000000" points="46,-105.5 46,-135.5 350,-135.5 350,-105.5 46,-105.5"/>
<text text-anchor="start" x="52.9117" y="-116.9" font-family="Arial" font-size="14.00" fill="#000000">conducted_at </text>
<text text-anchor="start" x="140.8443" y="-116.9" font-family="Arial" font-size="14.00" fill="#666666">[timestamp(3) without time zone]</text>
<polygon fill="none" stroke="#000000" points="46,-75.5 46,-105.5 350,-105.5 350,-75.5 46,-75.5"/>
<text text-anchor="start" x="53" y="-86.9" font-family="Arial" font-size="14.00" fill="#000000">created_at </text>
<text text-anchor="start" x="123.028" y="-86.9" font-family="Arial" font-size="14.00" fill="#666666">[timestamp(3) without time zone]</text>
<polygon fill="none" stroke="#000000" points="46,-45.5 46,-75.5 350,-75.5 350,-45.5 46,-45.5"/>
<text text-anchor="start" x="53" y="-56.9" font-family="Arial" font-size="14.00" fill="#000000">updated_at </text>
<text text-anchor="start" x="126.9326" y="-56.9" font-family="Arial" font-size="14.00" fill="#666666">[timestamp(3) without time zone]</text>
<polygon fill="none" stroke="#000000" stroke-width="3" points="44.5,-44.5 44.5,-322.5 351.5,-322.5 351.5,-44.5 44.5,-44.5"/>
</g>
<!-- public.bean_tastings -->
<g id="node2" class="node">
<title>public.bean_tastings</title>
<polygon fill="#efefef" stroke="transparent" points="53,-565.5 53,-600.5 343,-600.5 343,-565.5 53,-565.5"/>
<polygon fill="none" stroke="#000000" points="53,-565.5 53,-600.5 343,-600.5 343,-565.5 53,-565.5"/>
<text text-anchor="start" x="67.3444" y="-578.3" font-family="Arial Bold" font-size="18.00" fill="#000000">public.bean_tastings</text>
<text text-anchor="start" x="231.4018" y="-578.3" font-family="Arial" font-size="14.00" fill="#000000"> </text>
<text text-anchor="start" x="235.2924" y="-578.3" font-family="Arial" font-size="14.00" fill="#666666">[BASE TABLE]</text>
<polygon fill="none" stroke="#000000" points="53,-535.5 53,-565.5 343,-565.5 343,-535.5 53,-535.5"/>
<text text-anchor="start" x="60" y="-546.9" font-family="Arial" font-size="14.00" fill="#000000">tasting_id </text>
<text text-anchor="start" x="123.798" y="-546.9" font-family="Arial" font-size="14.00" fill="#666666">[text]</text>
<polygon fill="none" stroke="#000000" points="53,-505.5 53,-535.5 343,-535.5 343,-505.5 53,-505.5"/>
<text text-anchor="start" x="60" y="-516.9" font-family="Arial" font-size="14.00" fill="#000000">bean_id </text>
<text text-anchor="start" x="113.6928" y="-516.9" font-family="Arial" font-size="14.00" fill="#666666">[text]</text>
<polygon fill="none" stroke="#000000" points="53,-475.5 53,-505.5 343,-505.5 343,-475.5 53,-475.5"/>
<text text-anchor="start" x="60" y="-486.9" font-family="Arial" font-size="14.00" fill="#000000">created_at </text>
<text text-anchor="start" x="130.028" y="-486.9" font-family="Arial" font-size="14.00" fill="#666666">[timestamp(3) without time zone]</text>
<polygon fill="none" stroke="#000000" points="53,-445.5 53,-475.5 343,-475.5 343,-445.5 53,-445.5"/>
<text text-anchor="start" x="59.9117" y="-456.9" font-family="Arial" font-size="14.00" fill="#000000">updated_at </text>
<text text-anchor="start" x="133.8443" y="-456.9" font-family="Arial" font-size="14.00" fill="#666666">[timestamp(3) without time zone]</text>
</g>
<!-- public.bean_tastings&#45;&gt;public.tastings -->
<g id="edge1" class="edge">
<title>public.bean_tastings:tasting_id&#45;&gt;public.tastings:id</title>
<path fill="none" stroke="#000000" d="M352.7136,-548.0794C405.8002,-520.7124 408.8378,-270.5 350,-270.5"/>
<polygon fill="#000000" stroke="#000000" points="352.7033,-548.0819 341.9118,-546.1335 347.8516,-549.2909 343,-550.5 343,-550.5 343,-550.5 347.8516,-549.2909 344.0882,-554.8665 352.7033,-548.0819 352.7033,-548.0819"/>
<text text-anchor="start" x="350.106" y="-560.5" font-family="Arial" font-size="10.00" fill="#000000">FOREIGN KEY (tasting_id) REFERENCES tastings(id) ON UPDATE CASCADE ON DELETE RESTRICT</text>
</g>
</g>
</svg>
