<?xml version="1.0" encoding="UTF-8" standalone="no"?>
<!DOCTYPE svg PUBLIC "-//W3C//DTD SVG 1.1//EN"
 "http://www.w3.org/Graphics/SVG/1.1/DTD/svg11.dtd">
<!-- Generated by graphviz version 2.40.1 (20161225.0304)
 -->
<!-- Title: public.beans Pages: 1 -->
<svg width="1506pt" height="1049pt"
 viewBox="0.00 0.00 1506.00 1049.00" xmlns="http://www.w3.org/2000/svg" xmlns:xlink="http://www.w3.org/1999/xlink">
<g id="graph0" class="graph" transform="scale(1 1) rotate(0) translate(4 1045)">
<title>public.beans</title>
<polygon fill="#ffffff" stroke="transparent" points="-4,4 -4,-1045 1502,-1045 1502,4 -4,4"/>
<!-- public.beans -->
<g id="node1" class="node">
<title>public.beans</title>
<polygon fill="#efefef" stroke="transparent" points="605,-652.5 605,-687.5 895,-687.5 895,-652.5 605,-652.5"/>
<polygon fill="none" stroke="#000000" points="605,-652.5 605,-687.5 895,-687.5 895,-652.5 605,-652.5"/>
<text text-anchor="start" x="635.699" y="-665.3" font-family="Arial Bold" font-size="18.00" fill="#000000">public.beans</text>
<text text-anchor="start" x="736.733" y="-665.3" font-family="Arial" font-size="14.00" fill="#000000">    </text>
<text text-anchor="start" x="770.9378" y="-665.3" font-family="Arial" font-size="14.00" fill="#666666">[BASE TABLE]</text>
<polygon fill="none" stroke="#000000" points="605,-622.5 605,-652.5 895,-652.5 895,-622.5 605,-622.5"/>
<text text-anchor="start" x="612" y="-633.9" font-family="Arial" font-size="14.00" fill="#000000">id </text>
<text text-anchor="start" x="626.7798" y="-633.9" font-family="Arial" font-size="14.00" fill="#666666">[text]</text>
<polygon fill="none" stroke="#000000" points="605,-592.5 605,-622.5 895,-622.5 895,-592.5 605,-592.5"/>
<text text-anchor="start" x="612" y="-603.9" font-family="Arial" font-size="14.00" fill="#000000">name </text>
<text text-anchor="start" x="650.899" y="-603.9" font-family="Arial" font-size="14.00" fill="#666666">[text]</text>
<polygon fill="none" stroke="#000000" points="605,-562.5 605,-592.5 895,-592.5 895,-562.5 605,-562.5"/>
<text text-anchor="start" x="612" y="-573.9" font-family="Arial" font-size="14.00" fill="#000000">description </text>
<text text-anchor="start" x="683.568" y="-573.9" font-family="Arial" font-size="14.00" fill="#666666">[text]</text>
<polygon fill="none" stroke="#000000" points="605,-532.5 605,-562.5 895,-562.5 895,-532.5 605,-532.5"/>
<text text-anchor="start" x="612" y="-543.9" font-family="Arial" font-size="14.00" fill="#000000">origin_id </text>
<text text-anchor="start" x="668.784" y="-543.9" font-family="Arial" font-size="14.00" fill="#666666">[text]</text>
<polygon fill="none" stroke="#000000" points="605,-502.5 605,-532.5 895,-532.5 895,-502.5 605,-502.5"/>
<text text-anchor="start" x="612" y="-513.9" font-family="Arial" font-size="14.00" fill="#000000">roast_level_id </text>
<text text-anchor="start" x="702.2398" y="-513.9" font-family="Arial" font-size="14.00" fill="#666666">[text]</text>
<polygon fill="none" stroke="#000000" points="605,-472.5 605,-502.5 895,-502.5 895,-472.5 605,-472.5"/>
<text text-anchor="start" x="612" y="-483.9" font-family="Arial" font-size="14.00" fill="#000000">processing_method_id </text>
<text text-anchor="start" x="756.7068" y="-483.9" font-family="Arial" font-size="14.00" fill="#666666">[text]</text>
<polygon fill="none" stroke="#000000" points="605,-442.5 605,-472.5 895,-472.5 895,-442.5 605,-442.5"/>
<text text-anchor="start" x="612" y="-453.9" font-family="Arial" font-size="14.00" fill="#000000">created_at </text>
<text text-anchor="start" x="682.028" y="-453.9" font-family="Arial" font-size="14.00" fill="#666666">[timestamp(3) without time zone]</text>
<polygon fill="none" stroke="#000000" points="605,-412.5 605,-442.5 895,-442.5 895,-412.5 605,-412.5"/>
<text text-anchor="start" x="611.9117" y="-423.9" font-family="Arial" font-size="14.00" fill="#000000">updated_at </text>
<text text-anchor="start" x="685.8443" y="-423.9" font-family="Arial" font-size="14.00" fill="#666666">[timestamp(3) without time zone]</text>
<polygon fill="none" stroke="#000000" stroke-width="3" points="603.5,-411.5 603.5,-689.5 896.5,-689.5 896.5,-411.5 603.5,-411.5"/>
</g>
<!-- public.origins -->
<g id="node5" class="node">
<title>public.origins</title>
<polygon fill="#efefef" stroke="transparent" points="166,-252.5 166,-287.5 486,-287.5 486,-252.5 166,-252.5"/>
<polygon fill="none" stroke="#000000" points="166,-252.5 166,-287.5 486,-287.5 486,-252.5 166,-252.5"/>
<text text-anchor="start" x="209.7118" y="-265.3" font-family="Arial Bold" font-size="18.00" fill="#000000">public.origins</text>
<text text-anchor="start" x="314.7202" y="-265.3" font-family="Arial" font-size="14.00" fill="#000000">    </text>
<text text-anchor="start" x="348.925" y="-265.3" font-family="Arial" font-size="14.00" fill="#666666">[BASE TABLE]</text>
<polygon fill="none" stroke="#000000" points="166,-222.5 166,-252.5 486,-252.5 486,-222.5 166,-222.5"/>
<text text-anchor="start" x="173" y="-233.9" font-family="Arial" font-size="14.00" fill="#000000">id    </text>
<text text-anchor="start" x="218.094" y="-233.9" font-family="Arial" font-size="14.00" fill="#666666">[text]</text>
<polygon fill="none" stroke="#000000" points="166,-192.5 166,-222.5 486,-222.5 486,-192.5 166,-192.5"/>
<text text-anchor="start" x="173" y="-203.9" font-family="Arial" font-size="14.00" fill="#000000">name    </text>
<text text-anchor="start" x="242.2132" y="-203.9" font-family="Arial" font-size="14.00" fill="#666666">[text]</text>
<polygon fill="none" stroke="#000000" points="166,-162.5 166,-192.5 486,-192.5 486,-162.5 166,-162.5"/>
<text text-anchor="start" x="173" y="-173.9" font-family="Arial" font-size="14.00" fill="#000000">description    </text>
<text text-anchor="start" x="274.8822" y="-173.9" font-family="Arial" font-size="14.00" fill="#666666">[text]</text>
<polygon fill="none" stroke="#000000" points="166,-132.5 166,-162.5 486,-162.5 486,-132.5 166,-132.5"/>
<text text-anchor="start" x="173" y="-143.9" font-family="Arial" font-size="14.00" fill="#000000">longitude    </text>
<text text-anchor="start" x="264.0042" y="-143.9" font-family="Arial" font-size="14.00" fill="#666666">[double precision]</text>
<polygon fill="none" stroke="#000000" points="166,-102.5 166,-132.5 486,-132.5 486,-102.5 166,-102.5"/>
<text text-anchor="start" x="173" y="-113.9" font-family="Arial" font-size="14.00" fill="#000000">latitude    </text>
<text text-anchor="start" x="252.3296" y="-113.9" font-family="Arial" font-size="14.00" fill="#666666">[double precision]</text>
<polygon fill="none" stroke="#000000" points="166,-72.5 166,-102.5 486,-102.5 486,-72.5 166,-72.5"/>
<text text-anchor="start" x="173" y="-83.9" font-family="Arial" font-size="14.00" fill="#000000">created_at    </text>
<text text-anchor="start" x="273.3422" y="-83.9" font-family="Arial" font-size="14.00" fill="#666666">[timestamp(3) without time zone]</text>
<polygon fill="none" stroke="#000000" points="166,-42.5 166,-72.5 486,-72.5 486,-42.5 166,-42.5"/>
<text text-anchor="start" x="172.7546" y="-53.9" font-family="Arial" font-size="14.00" fill="#000000">updated_at    </text>
<text text-anchor="start" x="277.0014" y="-53.9" font-family="Arial" font-size="14.00" fill="#666666">[timestamp(3) without time zone]</text>
</g>
<!-- public.beans&#45;&gt;public.origins -->
<g id="edge4" class="edge">
<title>public.beans:origin_id&#45;&gt;public.origins:id</title>
<path fill="none" stroke="#000000" d="M594.8993,-545.3549C533.7568,-517.9657 556.1871,-237.5 486,-237.5"/>
<polygon fill="#000000" stroke="#000000" points="595.2182,-545.4225 604.0651,-551.9018 600.1091,-546.4613 605,-547.5 605,-547.5 605,-547.5 600.1091,-546.4613 605.9349,-543.0982 595.2182,-545.4225 595.2182,-545.4225"/>
<text text-anchor="start" x="143.221" y="-557.5" font-family="Arial" font-size="10.00" fill="#000000">FOREIGN KEY (origin_id) REFERENCES origins(id) ON UPDATE CASCADE ON DELETE SET NULL</text>
</g>
<!-- public.roast_levels -->
<g id="node6" class="node">
<title>public.roast_levels</title>
<polygon fill="#efefef" stroke="transparent" points="590,-222.5 590,-257.5 910,-257.5 910,-222.5 590,-222.5"/>
<polygon fill="none" stroke="#000000" points="590,-222.5 590,-257.5 910,-257.5 910,-222.5 590,-222.5"/>
<text text-anchor="start" x="612.2045" y="-235.3" font-family="Arial Bold" font-size="18.00" fill="#000000">public.roast_levels</text>
<text text-anchor="start" x="760.2275" y="-235.3" font-family="Arial" font-size="14.00" fill="#000000">    </text>
<text text-anchor="start" x="794.4323" y="-235.3" font-family="Arial" font-size="14.00" fill="#666666">[BASE TABLE]</text>
<polygon fill="none" stroke="#000000" points="590,-192.5 590,-222.5 910,-222.5 910,-192.5 590,-192.5"/>
<text text-anchor="start" x="597" y="-203.9" font-family="Arial" font-size="14.00" fill="#000000">id    </text>
<text text-anchor="start" x="642.094" y="-203.9" font-family="Arial" font-size="14.00" fill="#666666">[text]</text>
<polygon fill="none" stroke="#000000" points="590,-162.5 590,-192.5 910,-192.5 910,-162.5 590,-162.5"/>
<text text-anchor="start" x="597" y="-173.9" font-family="Arial" font-size="14.00" fill="#000000">name    </text>
<text text-anchor="start" x="666.2132" y="-173.9" font-family="Arial" font-size="14.00" fill="#666666">[text]</text>
<polygon fill="none" stroke="#000000" points="590,-132.5 590,-162.5 910,-162.5 910,-132.5 590,-132.5"/>
<text text-anchor="start" x="597" y="-143.9" font-family="Arial" font-size="14.00" fill="#000000">description    </text>
<text text-anchor="start" x="698.8822" y="-143.9" font-family="Arial" font-size="14.00" fill="#666666">[text]</text>
<polygon fill="none" stroke="#000000" points="590,-102.5 590,-132.5 910,-132.5 910,-102.5 590,-102.5"/>
<text text-anchor="start" x="597" y="-113.9" font-family="Arial" font-size="14.00" fill="#000000">created_at    </text>
<text text-anchor="start" x="697.3422" y="-113.9" font-family="Arial" font-size="14.00" fill="#666666">[timestamp(3) without time zone]</text>
<polygon fill="none" stroke="#000000" points="590,-72.5 590,-102.5 910,-102.5 910,-72.5 590,-72.5"/>
<text text-anchor="start" x="596.7546" y="-83.9" font-family="Arial" font-size="14.00" fill="#000000">updated_at    </text>
<text text-anchor="start" x="701.0014" y="-83.9" font-family="Arial" font-size="14.00" fill="#666666">[timestamp(3) without time zone]</text>
</g>
<!-- public.beans&#45;&gt;public.roast_levels -->
<g id="edge5" class="edge">
<title>public.beans:roast_level_id&#45;&gt;public.roast_levels:id</title>
<path fill="none" stroke="#000000" d="M905.0856,-515.183C965.2764,-486.815 975.4671,-207.5 910,-207.5"/>
<polygon fill="#000000" stroke="#000000" points="904.7461,-515.2609 893.9924,-513.1142 899.8731,-516.3804 895,-517.5 895,-517.5 895,-517.5 899.8731,-516.3804 896.0076,-521.8858 904.7461,-515.2609 904.7461,-515.2609"/>
<text text-anchor="start" x="902.324" y="-527.5" font-family="Arial" font-size="10.00" fill="#000000">FOREIGN KEY (roast_level_id) REFERENCES roast_levels(id) ON UPDATE CASCADE ON DELETE SET NULL</text>
</g>
<!-- public.processing_methods -->
<g id="node7" class="node">
<title>public.processing_methods</title>
<polygon fill="#efefef" stroke="transparent" points="1015,-222.5 1015,-257.5 1374,-257.5 1374,-222.5 1015,-222.5"/>
<polygon fill="none" stroke="#000000" points="1015,-222.5 1015,-257.5 1374,-257.5 1374,-222.5 1015,-222.5"/>
<text text-anchor="start" x="1021.69" y="-235.3" font-family="Arial Bold" font-size="18.00" fill="#000000">public.processing_methods</text>
<text text-anchor="start" x="1239.742" y="-235.3" font-family="Arial" font-size="14.00" fill="#000000">    </text>
<text text-anchor="start" x="1273.9468" y="-235.3" font-family="Arial" font-size="14.00" fill="#666666">[BASE TABLE]</text>
<polygon fill="none" stroke="#000000" points="1015,-192.5 1015,-222.5 1374,-222.5 1374,-192.5 1015,-192.5"/>
<text text-anchor="start" x="1022" y="-203.9" font-family="Arial" font-size="14.00" fill="#000000">id    </text>
<text text-anchor="start" x="1067.094" y="-203.9" font-family="Arial" font-size="14.00" fill="#666666">[text]</text>
<polygon fill="none" stroke="#000000" points="1015,-162.5 1015,-192.5 1374,-192.5 1374,-162.5 1015,-162.5"/>
<text text-anchor="start" x="1022" y="-173.9" font-family="Arial" font-size="14.00" fill="#000000">name    </text>
<text text-anchor="start" x="1091.2132" y="-173.9" font-family="Arial" font-size="14.00" fill="#666666">[text]</text>
<polygon fill="none" stroke="#000000" points="1015,-132.5 1015,-162.5 1374,-162.5 1374,-132.5 1015,-132.5"/>
<text text-anchor="start" x="1022" y="-143.9" font-family="Arial" font-size="14.00" fill="#000000">description    </text>
<text text-anchor="start" x="1123.8822" y="-143.9" font-family="Arial" font-size="14.00" fill="#666666">[text]</text>
<polygon fill="none" stroke="#000000" points="1015,-102.5 1015,-132.5 1374,-132.5 1374,-102.5 1015,-102.5"/>
<text text-anchor="start" x="1022" y="-113.9" font-family="Arial" font-size="14.00" fill="#000000">created_at    </text>
<text text-anchor="start" x="1122.3422" y="-113.9" font-family="Arial" font-size="14.00" fill="#666666">[timestamp(3) without time zone]</text>
<polygon fill="none" stroke="#000000" points="1015,-72.5 1015,-102.5 1374,-102.5 1374,-72.5 1015,-72.5"/>
<text text-anchor="start" x="1022" y="-83.9" font-family="Arial" font-size="14.00" fill="#000000">updated_at    </text>
<text text-anchor="start" x="1126.2468" y="-83.9" font-family="Arial" font-size="14.00" fill="#666666">[timestamp(3) without time zone]</text>
</g>
<!-- public.beans&#45;&gt;public.processing_methods -->
<g id="edge6" class="edge">
<title>public.beans:processing_method_id&#45;&gt;public.processing_methods:id</title>
<path fill="none" stroke="#000000" d="M899.2341,-478.1839C920.4474,-429.5996 1014.0579,-207.5 1015,-207.5"/>
<polygon fill="#000000" stroke="#000000" points="899.1377,-478.3961 890.9033,-485.638 897.0688,-482.9481 895,-487.5 895,-487.5 895,-487.5 897.0688,-482.9481 899.0967,-489.362 899.1377,-478.3961 899.1377,-478.3961"/>
<text text-anchor="start" x="902.419" y="-497.5" font-family="Arial" font-size="10.00" fill="#000000">FOREIGN KEY (processing_method_id) REFERENCES processing_methods(id) ON UPDATE CASCADE ON DELETE SET NULL</text>
</g>
<!-- public.beans_packs -->
<g id="node2" class="node">
<title>public.beans_packs</title>
<polygon fill="#efefef" stroke="transparent" points="147,-962.5 147,-997.5 467,-997.5 467,-962.5 147,-962.5"/>
<polygon fill="none" stroke="#000000" points="147,-962.5 147,-997.5 467,-997.5 467,-962.5 147,-962.5"/>
<text text-anchor="start" x="164.1897" y="-975.3" font-family="Arial Bold" font-size="18.00" fill="#000000">public.beans_packs</text>
<text text-anchor="start" x="322.2423" y="-975.3" font-family="Arial" font-size="14.00" fill="#000000">    </text>
<text text-anchor="start" x="356.4471" y="-975.3" font-family="Arial" font-size="14.00" fill="#666666">[BASE TABLE]</text>
<polygon fill="none" stroke="#000000" points="147,-932.5 147,-962.5 467,-962.5 467,-932.5 147,-932.5"/>
<text text-anchor="start" x="154" y="-943.9" font-family="Arial" font-size="14.00" fill="#000000">id    </text>
<text text-anchor="start" x="199.094" y="-943.9" font-family="Arial" font-size="14.00" fill="#666666">[text]</text>
<polygon fill="none" stroke="#000000" points="147,-902.5 147,-932.5 467,-932.5 467,-902.5 147,-902.5"/>
<text text-anchor="start" x="154" y="-913.9" font-family="Arial" font-size="14.00" fill="#000000">bean_id    </text>
<text text-anchor="start" x="238.007" y="-913.9" font-family="Arial" font-size="14.00" fill="#666666">[text]</text>
<polygon fill="none" stroke="#000000" points="147,-872.5 147,-902.5 467,-902.5 467,-872.5 147,-872.5"/>
<text text-anchor="start" x="154" y="-883.9" font-family="Arial" font-size="14.00" fill="#000000">pack_id    </text>
<text text-anchor="start" x="236.4418" y="-883.9" font-family="Arial" font-size="14.00" fill="#666666">[text]</text>
<polygon fill="none" stroke="#000000" points="147,-842.5 147,-872.5 467,-872.5 467,-842.5 147,-842.5"/>
<text text-anchor="start" x="154" y="-853.9" font-family="Arial" font-size="14.00" fill="#000000">created_at    </text>
<text text-anchor="start" x="254.3422" y="-853.9" font-family="Arial" font-size="14.00" fill="#666666">[timestamp(3) without time zone]</text>
<polygon fill="none" stroke="#000000" points="147,-812.5 147,-842.5 467,-842.5 467,-812.5 147,-812.5"/>
<text text-anchor="start" x="153.7546" y="-823.9" font-family="Arial" font-size="14.00" fill="#000000">updated_at    </text>
<text text-anchor="start" x="258.0014" y="-823.9" font-family="Arial" font-size="14.00" fill="#666666">[timestamp(3) without time zone]</text>
</g>
<!-- public.beans_packs&#45;&gt;public.beans -->
<g id="edge1" class="edge">
<title>public.beans_packs:bean_id&#45;&gt;public.beans:id</title>
<path fill="none" stroke="#000000" d="M477.0435,-916.8056C531.6457,-908.5844 489.9264,-829.0781 519,-770 549.9993,-707.0089 534.7943,-637.5 605,-637.5"/>
<polygon fill="#000000" stroke="#000000" points="476.9762,-916.8101 466.6896,-913.0107 471.9881,-917.1551 467,-917.5 467,-917.5 467,-917.5 471.9881,-917.1551 467.3104,-921.9893 476.9762,-916.8101 476.9762,-916.8101"/>
<text text-anchor="start" x="7.324" y="-927.5" font-family="Arial" font-size="10.00" fill="#000000">FOREIGN KEY (bean_id) REFERENCES beans(id) ON UPDATE CASCADE ON DELETE RESTRICT</text>
</g>
<!-- public.bean_flavor_profiles -->
<g id="node3" class="node">
<title>public.bean_flavor_profiles</title>
<polygon fill="#efefef" stroke="transparent" points="572,-962.5 572,-997.5 927,-997.5 927,-962.5 572,-962.5"/>
<polygon fill="none" stroke="#000000" points="572,-962.5 572,-997.5 927,-997.5 927,-962.5 572,-962.5"/>
<text text-anchor="start" x="578.6916" y="-975.3" font-family="Arial Bold" font-size="18.00" fill="#000000">public.bean_flavor_profiles</text>
<text text-anchor="start" x="792.7404" y="-975.3" font-family="Arial" font-size="14.00" fill="#000000">    </text>
<text text-anchor="start" x="826.9452" y="-975.3" font-family="Arial" font-size="14.00" fill="#666666">[BASE TABLE]</text>
<polygon fill="none" stroke="#000000" points="572,-932.5 572,-962.5 927,-962.5 927,-932.5 572,-932.5"/>
<text text-anchor="start" x="579" y="-943.9" font-family="Arial" font-size="14.00" fill="#000000">id    </text>
<text text-anchor="start" x="624.094" y="-943.9" font-family="Arial" font-size="14.00" fill="#666666">[text]</text>
<polygon fill="none" stroke="#000000" points="572,-902.5 572,-932.5 927,-932.5 927,-902.5 572,-902.5"/>
<text text-anchor="start" x="579" y="-913.9" font-family="Arial" font-size="14.00" fill="#000000">bean_id    </text>
<text text-anchor="start" x="663.007" y="-913.9" font-family="Arial" font-size="14.00" fill="#666666">[text]</text>
<polygon fill="none" stroke="#000000" points="572,-872.5 572,-902.5 927,-902.5 927,-872.5 572,-872.5"/>
<text text-anchor="start" x="579" y="-883.9" font-family="Arial" font-size="14.00" fill="#000000">flavor_profile_id    </text>
<text text-anchor="start" x="711.9944" y="-883.9" font-family="Arial" font-size="14.00" fill="#666666">[text]</text>
<polygon fill="none" stroke="#000000" points="572,-842.5 572,-872.5 927,-872.5 927,-842.5 572,-842.5"/>
<text text-anchor="start" x="579" y="-853.9" font-family="Arial" font-size="14.00" fill="#000000">created_at    </text>
<text text-anchor="start" x="679.3422" y="-853.9" font-family="Arial" font-size="14.00" fill="#666666">[timestamp(3) without time zone]</text>
<polygon fill="none" stroke="#000000" points="572,-812.5 572,-842.5 927,-842.5 927,-812.5 572,-812.5"/>
<text text-anchor="start" x="579" y="-823.9" font-family="Arial" font-size="14.00" fill="#000000">updated_at    </text>
<text text-anchor="start" x="683.2468" y="-823.9" font-family="Arial" font-size="14.00" fill="#666666">[timestamp(3) without time zone]</text>
</g>
<!-- public.bean_flavor_profiles&#45;&gt;public.beans -->
<g id="edge2" class="edge">
<title>public.bean_flavor_profiles:bean_id&#45;&gt;public.beans:id</title>
<path fill="none" stroke="#000000" d="M936.9817,-916.6393C990.1002,-906.8604 968.3137,-816.19 927,-770 830.9981,-662.6668 701.0019,-841.3332 605,-734 576.4074,-702.0325 562.1111,-637.5 605,-637.5"/>
<polygon fill="#000000" stroke="#000000" points="936.963,-916.6408 926.6134,-913.0166 931.9815,-917.0704 927,-917.5 927,-917.5 927,-917.5 931.9815,-917.0704 927.3866,-921.9834 936.963,-916.6408 936.963,-916.6408"/>
<text text-anchor="start" x="934.324" y="-927.5" font-family="Arial" font-size="10.00" fill="#000000">FOREIGN KEY (bean_id) REFERENCES beans(id) ON UPDATE CASCADE ON DELETE RESTRICT</text>
</g>
<!-- public.bean_tastings -->
<g id="node4" class="node">
<title>public.bean_tastings</title>
<polygon fill="#efefef" stroke="transparent" points="1031,-947.5 1031,-982.5 1351,-982.5 1351,-947.5 1031,-947.5"/>
<polygon fill="none" stroke="#000000" points="1031,-947.5 1031,-982.5 1351,-982.5 1351,-947.5 1031,-947.5"/>
<text text-anchor="start" x="1045.1873" y="-960.3" font-family="Arial Bold" font-size="18.00" fill="#000000">public.bean_tastings</text>
<text text-anchor="start" x="1209.2447" y="-960.3" font-family="Arial" font-size="14.00" fill="#000000">    </text>
<text text-anchor="start" x="1243.4495" y="-960.3" font-family="Arial" font-size="14.00" fill="#666666">[BASE TABLE]</text>
<polygon fill="none" stroke="#000000" points="1031,-917.5 1031,-947.5 1351,-947.5 1351,-917.5 1031,-917.5"/>
<text text-anchor="start" x="1038" y="-928.9" font-family="Arial" font-size="14.00" fill="#000000">tasting_id    </text>
<text text-anchor="start" x="1132.1122" y="-928.9" font-family="Arial" font-size="14.00" fill="#666666">[text]</text>
<polygon fill="none" stroke="#000000" points="1031,-887.5 1031,-917.5 1351,-917.5 1351,-887.5 1031,-887.5"/>
<text text-anchor="start" x="1038" y="-898.9" font-family="Arial" font-size="14.00" fill="#000000">bean_id    </text>
<text text-anchor="start" x="1122.007" y="-898.9" font-family="Arial" font-size="14.00" fill="#666666">[text]</text>
<polygon fill="none" stroke="#000000" points="1031,-857.5 1031,-887.5 1351,-887.5 1351,-857.5 1031,-857.5"/>
<text text-anchor="start" x="1038" y="-868.9" font-family="Arial" font-size="14.00" fill="#000000">created_at    </text>
<text text-anchor="start" x="1138.3422" y="-868.9" font-family="Arial" font-size="14.00" fill="#666666">[timestamp(3) without time zone]</text>
<polygon fill="none" stroke="#000000" points="1031,-827.5 1031,-857.5 1351,-857.5 1351,-827.5 1031,-827.5"/>
<text text-anchor="start" x="1037.7546" y="-838.9" font-family="Arial" font-size="14.00" fill="#000000">updated_at    </text>
<text text-anchor="start" x="1142.0014" y="-838.9" font-family="Arial" font-size="14.00" fill="#666666">[timestamp(3) without time zone]</text>
</g>
<!-- public.bean_tastings&#45;&gt;public.beans -->
<g id="edge3" class="edge">
<title>public.bean_tastings:bean_id&#45;&gt;public.beans:id</title>
<path fill="none" stroke="#000000" d="M1020.9076,-901.7356C972.1771,-893.6515 1005.9451,-823.1107 979,-770 947.4532,-707.819 964.7257,-637.5 895,-637.5"/>
<polygon fill="#000000" stroke="#000000" points="1021.0286,-901.7447 1030.6601,-906.9871 1026.0143,-902.1223 1031,-902.5 1031,-902.5 1031,-902.5 1026.0143,-902.1223 1031.3399,-898.0129 1021.0286,-901.7447 1021.0286,-901.7447"/>
<text text-anchor="start" x="1038.324" y="-886.5" font-family="Arial" font-size="10.00" fill="#000000">FOREIGN KEY (bean_id) REFERENCES beans(id) ON UPDATE CASCADE ON DELETE RESTRICT</text>
</g>
</g>
</svg>
