<?xml version="1.0" encoding="UTF-8" standalone="no"?>
<!DOCTYPE svg PUBLIC "-//W3C//DTD SVG 1.1//EN"
 "http://www.w3.org/Graphics/SVG/1.1/DTD/svg11.dtd">
<!-- Generated by graphviz version 2.40.1 (20161225.0304)
 -->
<!-- Title: public.shop_locations Pages: 1 -->
<svg width="834pt" height="712pt"
 viewBox="0.00 0.00 833.50 712.00" xmlns="http://www.w3.org/2000/svg" xmlns:xlink="http://www.w3.org/1999/xlink">
<g id="graph0" class="graph" transform="scale(1 1) rotate(0) translate(4 708)">
<title>public.shop_locations</title>
<polygon fill="#ffffff" stroke="transparent" points="-4,4 -4,-708 829.5,-708 829.5,4 -4,4"/>
<!-- public.shop_locations -->
<g id="node1" class="node">
<title>public.shop_locations</title>
<polygon fill="#efefef" stroke="transparent" points="46.5,-622.5 46.5,-657.5 359.5,-657.5 359.5,-622.5 46.5,-622.5"/>
<polygon fill="none" stroke="#000000" points="46.5,-622.5 46.5,-657.5 359.5,-657.5 359.5,-622.5 46.5,-622.5"/>
<text text-anchor="start" x="53.1913" y="-635.3" font-family="Arial Bold" font-size="18.00" fill="#000000">public.shop_locations</text>
<text text-anchor="start" x="225.2407" y="-635.3" font-family="Arial" font-size="14.00" fill="#000000">    </text>
<text text-anchor="start" x="259.4455" y="-635.3" font-family="Arial" font-size="14.00" fill="#666666">[BASE TABLE]</text>
<polygon fill="none" stroke="#000000" points="46.5,-592.5 46.5,-622.5 359.5,-622.5 359.5,-592.5 46.5,-592.5"/>
<text text-anchor="start" x="53.5" y="-603.9" font-family="Arial" font-size="14.00" fill="#000000">id </text>
<text text-anchor="start" x="68.2798" y="-603.9" font-family="Arial" font-size="14.00" fill="#666666">[text]</text>
<polygon fill="none" stroke="#000000" points="46.5,-562.5 46.5,-592.5 359.5,-592.5 359.5,-562.5 46.5,-562.5"/>
<text text-anchor="start" x="53.5" y="-573.9" font-family="Arial" font-size="14.00" fill="#000000">shop_id </text>
<text text-anchor="start" x="106.4102" y="-573.9" font-family="Arial" font-size="14.00" fill="#666666">[text]</text>
<polygon fill="none" stroke="#000000" points="46.5,-532.5 46.5,-562.5 359.5,-562.5 359.5,-532.5 46.5,-532.5"/>
<text text-anchor="start" x="53.5" y="-543.9" font-family="Arial" font-size="14.00" fill="#000000">longitude </text>
<text text-anchor="start" x="114.19" y="-543.9" font-family="Arial" font-size="14.00" fill="#666666">[double precision]</text>
<polygon fill="none" stroke="#000000" points="46.5,-502.5 46.5,-532.5 359.5,-532.5 359.5,-502.5 46.5,-502.5"/>
<text text-anchor="start" x="53.5" y="-513.9" font-family="Arial" font-size="14.00" fill="#000000">latitude </text>
<text text-anchor="start" x="102.5154" y="-513.9" font-family="Arial" font-size="14.00" fill="#666666">[double precision]</text>
<polygon fill="none" stroke="#000000" points="46.5,-472.5 46.5,-502.5 359.5,-502.5 359.5,-472.5 46.5,-472.5"/>
<text text-anchor="start" x="53.5" y="-483.9" font-family="Arial" font-size="14.00" fill="#000000">postal_code </text>
<text text-anchor="start" x="132.866" y="-483.9" font-family="Arial" font-size="14.00" fill="#666666">[text]</text>
<polygon fill="none" stroke="#000000" points="46.5,-442.5 46.5,-472.5 359.5,-472.5 359.5,-442.5 46.5,-442.5"/>
<text text-anchor="start" x="53.5" y="-453.9" font-family="Arial" font-size="14.00" fill="#000000">prefecture </text>
<text text-anchor="start" x="120.406" y="-453.9" font-family="Arial" font-size="14.00" fill="#666666">[text]</text>
<polygon fill="none" stroke="#000000" points="46.5,-412.5 46.5,-442.5 359.5,-442.5 359.5,-412.5 46.5,-412.5"/>
<text text-anchor="start" x="53.5" y="-423.9" font-family="Arial" font-size="14.00" fill="#000000">city </text>
<text text-anchor="start" x="78.3878" y="-423.9" font-family="Arial" font-size="14.00" fill="#666666">[text]</text>
<polygon fill="none" stroke="#000000" points="46.5,-382.5 46.5,-412.5 359.5,-412.5 359.5,-382.5 46.5,-382.5"/>
<text text-anchor="start" x="53.5" y="-393.9" font-family="Arial" font-size="14.00" fill="#000000">address </text>
<text text-anchor="start" x="107.1816" y="-393.9" font-family="Arial" font-size="14.00" fill="#666666">[text]</text>
<polygon fill="none" stroke="#000000" points="46.5,-352.5 46.5,-382.5 359.5,-382.5 359.5,-352.5 46.5,-352.5"/>
<text text-anchor="start" x="53.5" y="-363.9" font-family="Arial" font-size="14.00" fill="#000000">created_at </text>
<text text-anchor="start" x="123.528" y="-363.9" font-family="Arial" font-size="14.00" fill="#666666">[timestamp(3) without time zone]</text>
<polygon fill="none" stroke="#000000" points="46.5,-322.5 46.5,-352.5 359.5,-352.5 359.5,-322.5 46.5,-322.5"/>
<text text-anchor="start" x="53.5" y="-333.9" font-family="Arial" font-size="14.00" fill="#000000">updated_at </text>
<text text-anchor="start" x="127.4326" y="-333.9" font-family="Arial" font-size="14.00" fill="#666666">[timestamp(3) without time zone]</text>
<polygon fill="none" stroke="#000000" stroke-width="3" points="44.5,-321.5 44.5,-659.5 360.5,-659.5 360.5,-321.5 44.5,-321.5"/>
</g>
<!-- public.shops -->
<g id="node2" class="node">
<title>public.shops</title>
<polygon fill="#efefef" stroke="transparent" points="43.5,-162.5 43.5,-197.5 363.5,-197.5 363.5,-162.5 43.5,-162.5"/>
<polygon fill="none" stroke="#000000" points="43.5,-162.5 43.5,-197.5 363.5,-197.5 363.5,-162.5 43.5,-162.5"/>
<text text-anchor="start" x="89.7021" y="-175.3" font-family="Arial Bold" font-size="18.00" fill="#000000">public.shops</text>
<text text-anchor="start" x="189.7299" y="-175.3" font-family="Arial" font-size="14.00" fill="#000000">    </text>
<text text-anchor="start" x="223.9347" y="-175.3" font-family="Arial" font-size="14.00" fill="#666666">[BASE TABLE]</text>
<polygon fill="none" stroke="#000000" points="43.5,-132.5 43.5,-162.5 363.5,-162.5 363.5,-132.5 43.5,-132.5"/>
<text text-anchor="start" x="50.5" y="-143.9" font-family="Arial" font-size="14.00" fill="#000000">id    </text>
<text text-anchor="start" x="95.594" y="-143.9" font-family="Arial" font-size="14.00" fill="#666666">[text]</text>
<polygon fill="none" stroke="#000000" points="43.5,-102.5 43.5,-132.5 363.5,-132.5 363.5,-102.5 43.5,-102.5"/>
<text text-anchor="start" x="50.5" y="-113.9" font-family="Arial" font-size="14.00" fill="#000000">name    </text>
<text text-anchor="start" x="119.7132" y="-113.9" font-family="Arial" font-size="14.00" fill="#666666">[text]</text>
<polygon fill="none" stroke="#000000" points="43.5,-72.5 43.5,-102.5 363.5,-102.5 363.5,-72.5 43.5,-72.5"/>
<text text-anchor="start" x="50.5" y="-83.9" font-family="Arial" font-size="14.00" fill="#000000">created_at    </text>
<text text-anchor="start" x="150.8422" y="-83.9" font-family="Arial" font-size="14.00" fill="#666666">[timestamp(3) without time zone]</text>
<polygon fill="none" stroke="#000000" points="43.5,-42.5 43.5,-72.5 363.5,-72.5 363.5,-42.5 43.5,-42.5"/>
<text text-anchor="start" x="50.2546" y="-53.9" font-family="Arial" font-size="14.00" fill="#000000">updated_at    </text>
<text text-anchor="start" x="154.5014" y="-53.9" font-family="Arial" font-size="14.00" fill="#666666">[timestamp(3) without time zone]</text>
</g>
<!-- public.shop_locations&#45;&gt;public.shops -->
<g id="edge1" class="edge">
<title>public.shop_locations:shop_id&#45;&gt;public.shops:id</title>
<path fill="none" stroke="#000000" d="M369.331,-575.4749C423.863,-551.6196 401.6215,-324.1926 359.5,-277 265.3751,-171.5432 137.6249,-346.4568 43.5,-241 15.8287,-209.9973 1.9444,-147.5 43.5,-147.5"/>
<polygon fill="#000000" stroke="#000000" points="369.2944,-575.4823 358.592,-573.0925 364.3972,-576.4912 359.5,-577.5 359.5,-577.5 359.5,-577.5 364.3972,-576.4912 360.408,-581.9075 369.2944,-575.4823 369.2944,-575.4823"/>
<text text-anchor="start" x="366.383" y="-587.5" font-family="Arial" font-size="10.00" fill="#000000">FOREIGN KEY (shop_id) REFERENCES shops(id) ON UPDATE CASCADE ON DELETE RESTRICT</text>
</g>
</g>
</svg>
