<?xml version="1.0" encoding="UTF-8" standalone="no"?>
<!DOCTYPE svg PUBLIC "-//W3C//DTD SVG 1.1//EN"
 "http://www.w3.org/Graphics/SVG/1.1/DTD/svg11.dtd">
<!-- Generated by graphviz version 2.40.1 (20161225.0304)
 -->
<!-- Title: public.packs Pages: 1 -->
<svg width="1043pt" height="682pt"
 viewBox="0.00 0.00 1043.00 682.00" xmlns="http://www.w3.org/2000/svg" xmlns:xlink="http://www.w3.org/1999/xlink">
<g id="graph0" class="graph" transform="scale(1 1) rotate(0) translate(4 678)">
<title>public.packs</title>
<polygon fill="#ffffff" stroke="transparent" points="-4,4 -4,-678 1039,-678 1039,4 -4,4"/>
<!-- public.packs -->
<g id="node1" class="node">
<title>public.packs</title>
<polygon fill="#efefef" stroke="transparent" points="376,-195.5 376,-230.5 666,-230.5 666,-195.5 376,-195.5"/>
<polygon fill="none" stroke="#000000" points="376,-195.5 376,-230.5 666,-230.5 666,-195.5 376,-195.5"/>
<text text-anchor="start" x="407.7052" y="-208.3" font-family="Arial Bold" font-size="18.00" fill="#000000">public.packs</text>
<text text-anchor="start" x="506.7268" y="-208.3" font-family="Arial" font-size="14.00" fill="#000000">    </text>
<text text-anchor="start" x="540.9316" y="-208.3" font-family="Arial" font-size="14.00" fill="#666666">[BASE TABLE]</text>
<polygon fill="none" stroke="#000000" points="376,-165.5 376,-195.5 666,-195.5 666,-165.5 376,-165.5"/>
<text text-anchor="start" x="383" y="-176.9" font-family="Arial" font-size="14.00" fill="#000000">id </text>
<text text-anchor="start" x="397.7798" y="-176.9" font-family="Arial" font-size="14.00" fill="#666666">[text]</text>
<polygon fill="none" stroke="#000000" points="376,-135.5 376,-165.5 666,-165.5 666,-135.5 376,-135.5"/>
<text text-anchor="start" x="383" y="-146.9" font-family="Arial" font-size="14.00" fill="#000000">name </text>
<text text-anchor="start" x="421.899" y="-146.9" font-family="Arial" font-size="14.00" fill="#666666">[text]</text>
<polygon fill="none" stroke="#000000" points="376,-105.5 376,-135.5 666,-135.5 666,-105.5 376,-105.5"/>
<text text-anchor="start" x="383" y="-116.9" font-family="Arial" font-size="14.00" fill="#000000">description </text>
<text text-anchor="start" x="454.568" y="-116.9" font-family="Arial" font-size="14.00" fill="#666666">[text]</text>
<polygon fill="none" stroke="#000000" points="376,-75.5 376,-105.5 666,-105.5 666,-75.5 376,-75.5"/>
<text text-anchor="start" x="383" y="-86.9" font-family="Arial" font-size="14.00" fill="#000000">created_at </text>
<text text-anchor="start" x="453.028" y="-86.9" font-family="Arial" font-size="14.00" fill="#666666">[timestamp(3) without time zone]</text>
<polygon fill="none" stroke="#000000" points="376,-45.5 376,-75.5 666,-75.5 666,-45.5 376,-45.5"/>
<text text-anchor="start" x="382.9117" y="-56.9" font-family="Arial" font-size="14.00" fill="#000000">updated_at </text>
<text text-anchor="start" x="456.8443" y="-56.9" font-family="Arial" font-size="14.00" fill="#666666">[timestamp(3) without time zone]</text>
<polygon fill="none" stroke="#000000" stroke-width="3" points="374.5,-44.5 374.5,-232.5 667.5,-232.5 667.5,-44.5 374.5,-44.5"/>
</g>
<!-- public.beans_packs -->
<g id="node2" class="node">
<title>public.beans_packs</title>
<polygon fill="#efefef" stroke="transparent" points="145,-550.5 145,-585.5 465,-585.5 465,-550.5 145,-550.5"/>
<polygon fill="none" stroke="#000000" points="145,-550.5 145,-585.5 465,-585.5 465,-550.5 145,-550.5"/>
<text text-anchor="start" x="162.1897" y="-563.3" font-family="Arial Bold" font-size="18.00" fill="#000000">public.beans_packs</text>
<text text-anchor="start" x="320.2423" y="-563.3" font-family="Arial" font-size="14.00" fill="#000000">    </text>
<text text-anchor="start" x="354.4471" y="-563.3" font-family="Arial" font-size="14.00" fill="#666666">[BASE TABLE]</text>
<polygon fill="none" stroke="#000000" points="145,-520.5 145,-550.5 465,-550.5 465,-520.5 145,-520.5"/>
<text text-anchor="start" x="152" y="-531.9" font-family="Arial" font-size="14.00" fill="#000000">id    </text>
<text text-anchor="start" x="197.094" y="-531.9" font-family="Arial" font-size="14.00" fill="#666666">[text]</text>
<polygon fill="none" stroke="#000000" points="145,-490.5 145,-520.5 465,-520.5 465,-490.5 145,-490.5"/>
<text text-anchor="start" x="152" y="-501.9" font-family="Arial" font-size="14.00" fill="#000000">bean_id    </text>
<text text-anchor="start" x="236.007" y="-501.9" font-family="Arial" font-size="14.00" fill="#666666">[text]</text>
<polygon fill="none" stroke="#000000" points="145,-460.5 145,-490.5 465,-490.5 465,-460.5 145,-460.5"/>
<text text-anchor="start" x="152" y="-471.9" font-family="Arial" font-size="14.00" fill="#000000">pack_id    </text>
<text text-anchor="start" x="234.4418" y="-471.9" font-family="Arial" font-size="14.00" fill="#666666">[text]</text>
<polygon fill="none" stroke="#000000" points="145,-430.5 145,-460.5 465,-460.5 465,-430.5 145,-430.5"/>
<text text-anchor="start" x="152" y="-441.9" font-family="Arial" font-size="14.00" fill="#000000">created_at    </text>
<text text-anchor="start" x="252.3422" y="-441.9" font-family="Arial" font-size="14.00" fill="#666666">[timestamp(3) without time zone]</text>
<polygon fill="none" stroke="#000000" points="145,-400.5 145,-430.5 465,-430.5 465,-400.5 145,-400.5"/>
<text text-anchor="start" x="151.7546" y="-411.9" font-family="Arial" font-size="14.00" fill="#000000">updated_at    </text>
<text text-anchor="start" x="256.0014" y="-411.9" font-family="Arial" font-size="14.00" fill="#666666">[timestamp(3) without time zone]</text>
</g>
<!-- public.beans_packs&#45;&gt;public.packs -->
<g id="edge1" class="edge">
<title>public.beans_packs:pack_id&#45;&gt;public.packs:id</title>
<path fill="none" stroke="#000000" d="M475.2887,-474.3851C512.6596,-465.2696 484.5463,-402.2189 465,-358 443.3761,-309.0812 397.6239,-325.9188 376,-277 358.6601,-237.7727 333.1111,-180.5 376,-180.5"/>
<polygon fill="#000000" stroke="#000000" points="474.9418,-474.4226 464.5152,-471.0262 469.9709,-474.9613 465,-475.5 465,-475.5 465,-475.5 469.9709,-474.9613 465.4848,-479.9738 474.9418,-474.4226 474.9418,-474.4226"/>
<text text-anchor="start" x="7.442" y="-485.5" font-family="Arial" font-size="10.00" fill="#000000">FOREIGN KEY (pack_id) REFERENCES packs(id) ON UPDATE CASCADE ON DELETE RESTRICT</text>
</g>
<!-- public.pack_purchases -->
<g id="node3" class="node">
<title>public.pack_purchases</title>
<polygon fill="#efefef" stroke="transparent" points="570,-595.5 570,-630.5 905,-630.5 905,-595.5 570,-595.5"/>
<polygon fill="none" stroke="#000000" points="570,-595.5 570,-630.5 905,-630.5 905,-595.5 570,-595.5"/>
<text text-anchor="start" x="582.1905" y="-608.3" font-family="Arial Bold" font-size="18.00" fill="#000000">public.pack_purchases</text>
<text text-anchor="start" x="765.2415" y="-608.3" font-family="Arial" font-size="14.00" fill="#000000">    </text>
<text text-anchor="start" x="799.4463" y="-608.3" font-family="Arial" font-size="14.00" fill="#666666">[BASE TABLE]</text>
<polygon fill="none" stroke="#000000" points="570,-565.5 570,-595.5 905,-595.5 905,-565.5 570,-565.5"/>
<text text-anchor="start" x="577" y="-576.9" font-family="Arial" font-size="14.00" fill="#000000">id    </text>
<text text-anchor="start" x="622.094" y="-576.9" font-family="Arial" font-size="14.00" fill="#666666">[text]</text>
<polygon fill="none" stroke="#000000" points="570,-535.5 570,-565.5 905,-565.5 905,-535.5 570,-535.5"/>
<text text-anchor="start" x="577" y="-546.9" font-family="Arial" font-size="14.00" fill="#000000">pack_id    </text>
<text text-anchor="start" x="659.4418" y="-546.9" font-family="Arial" font-size="14.00" fill="#666666">[text]</text>
<polygon fill="none" stroke="#000000" points="570,-505.5 570,-535.5 905,-535.5 905,-505.5 570,-505.5"/>
<text text-anchor="start" x="577" y="-516.9" font-family="Arial" font-size="14.00" fill="#000000">shop_id    </text>
<text text-anchor="start" x="660.2244" y="-516.9" font-family="Arial" font-size="14.00" fill="#666666">[text]</text>
<polygon fill="none" stroke="#000000" points="570,-475.5 570,-505.5 905,-505.5 905,-475.5 570,-475.5"/>
<text text-anchor="start" x="577" y="-486.9" font-family="Arial" font-size="14.00" fill="#000000">price    </text>
<text text-anchor="start" x="641.5372" y="-486.9" font-family="Arial" font-size="14.00" fill="#666666">[integer]</text>
<polygon fill="none" stroke="#000000" points="570,-445.5 570,-475.5 905,-475.5 905,-445.5 570,-445.5"/>
<text text-anchor="start" x="577" y="-456.9" font-family="Arial" font-size="14.00" fill="#000000">capacity    </text>
<text text-anchor="start" x="662.5498" y="-456.9" font-family="Arial" font-size="14.00" fill="#666666">[integer]</text>
<polygon fill="none" stroke="#000000" points="570,-415.5 570,-445.5 905,-445.5 905,-415.5 570,-415.5"/>
<text text-anchor="start" x="576.8696" y="-426.9" font-family="Arial" font-size="14.00" fill="#000000">purchased_at    </text>
<text text-anchor="start" x="695.8864" y="-426.9" font-family="Arial" font-size="14.00" fill="#666666">[timestamp(3) without time zone]</text>
<polygon fill="none" stroke="#000000" points="570,-385.5 570,-415.5 905,-415.5 905,-385.5 570,-385.5"/>
<text text-anchor="start" x="577" y="-396.9" font-family="Arial" font-size="14.00" fill="#000000">created_at    </text>
<text text-anchor="start" x="677.3422" y="-396.9" font-family="Arial" font-size="14.00" fill="#666666">[timestamp(3) without time zone]</text>
<polygon fill="none" stroke="#000000" points="570,-355.5 570,-385.5 905,-385.5 905,-355.5 570,-355.5"/>
<text text-anchor="start" x="577" y="-366.9" font-family="Arial" font-size="14.00" fill="#000000">updated_at    </text>
<text text-anchor="start" x="681.2468" y="-366.9" font-family="Arial" font-size="14.00" fill="#666666">[timestamp(3) without time zone]</text>
</g>
<!-- public.pack_purchases&#45;&gt;public.packs -->
<g id="edge2" class="edge">
<title>public.pack_purchases:pack_id&#45;&gt;public.packs:id</title>
<path fill="none" stroke="#000000" d="M560.213,-547.8888C520.3622,-524.6645 541.9931,-353.414 570,-313 595.9553,-275.5465 640.0447,-314.4535 666,-277 690.4293,-241.7485 708.8889,-180.5 666,-180.5"/>
<polygon fill="#000000" stroke="#000000" points="560.338,-547.9221 568.8399,-554.8479 565.169,-549.211 570,-550.5 570,-550.5 570,-550.5 565.169,-549.211 571.1601,-546.1521 560.338,-547.9221 560.338,-547.9221"/>
<text text-anchor="start" x="577.442" y="-560.5" font-family="Arial" font-size="10.00" fill="#000000">FOREIGN KEY (pack_id) REFERENCES packs(id) ON UPDATE CASCADE ON DELETE RESTRICT</text>
</g>
</g>
</svg>
