<?xml version="1.0" encoding="UTF-8" standalone="no"?>
<!DOCTYPE svg PUBLIC "-//W3C//DTD SVG 1.1//EN"
 "http://www.w3.org/Graphics/SVG/1.1/DTD/svg11.dtd">
<!-- Generated by graphviz version 2.40.1 (20161225.0304)
 -->
<!-- Title: public.bean_tastings Pages: 1 -->
<svg width="1246pt" height="682pt"
 viewBox="0.00 0.00 1246.00 682.00" xmlns="http://www.w3.org/2000/svg" xmlns:xlink="http://www.w3.org/1999/xlink">
<g id="graph0" class="graph" transform="scale(1 1) rotate(0) translate(4 678)">
<title>public.bean_tastings</title>
<polygon fill="#ffffff" stroke="transparent" points="-4,4 -4,-678 1242,-678 1242,4 -4,4"/>
<!-- public.bean_tastings -->
<g id="node1" class="node">
<title>public.bean_tastings</title>
<polygon fill="#efefef" stroke="transparent" points="481,-592.5 481,-627.5 771,-627.5 771,-592.5 481,-592.5"/>
<polygon fill="none" stroke="#000000" points="481,-592.5 481,-627.5 771,-627.5 771,-592.5 481,-592.5"/>
<text text-anchor="start" x="495.3444" y="-605.3" font-family="Arial Bold" font-size="18.00" fill="#000000">public.bean_tastings</text>
<text text-anchor="start" x="659.4018" y="-605.3" font-family="Arial" font-size="14.00" fill="#000000"> </text>
<text text-anchor="start" x="663.2924" y="-605.3" font-family="Arial" font-size="14.00" fill="#666666">[BASE TABLE]</text>
<polygon fill="none" stroke="#000000" points="481,-562.5 481,-592.5 771,-592.5 771,-562.5 481,-562.5"/>
<text text-anchor="start" x="488" y="-573.9" font-family="Arial" font-size="14.00" fill="#000000">tasting_id </text>
<text text-anchor="start" x="551.798" y="-573.9" font-family="Arial" font-size="14.00" fill="#666666">[text]</text>
<polygon fill="none" stroke="#000000" points="481,-532.5 481,-562.5 771,-562.5 771,-532.5 481,-532.5"/>
<text text-anchor="start" x="488" y="-543.9" font-family="Arial" font-size="14.00" fill="#000000">bean_id </text>
<text text-anchor="start" x="541.6928" y="-543.9" font-family="Arial" font-size="14.00" fill="#666666">[text]</text>
<polygon fill="none" stroke="#000000" points="481,-502.5 481,-532.5 771,-532.5 771,-502.5 481,-502.5"/>
<text text-anchor="start" x="488" y="-513.9" font-family="Arial" font-size="14.00" fill="#000000">created_at </text>
<text text-anchor="start" x="558.028" y="-513.9" font-family="Arial" font-size="14.00" fill="#666666">[timestamp(3) without time zone]</text>
<polygon fill="none" stroke="#000000" points="481,-472.5 481,-502.5 771,-502.5 771,-472.5 481,-472.5"/>
<text text-anchor="start" x="487.9117" y="-483.9" font-family="Arial" font-size="14.00" fill="#000000">updated_at </text>
<text text-anchor="start" x="561.8443" y="-483.9" font-family="Arial" font-size="14.00" fill="#666666">[timestamp(3) without time zone]</text>
<polygon fill="none" stroke="#000000" stroke-width="3" points="479.5,-471.5 479.5,-629.5 772.5,-629.5 772.5,-471.5 479.5,-471.5"/>
</g>
<!-- public.tastings -->
<g id="node2" class="node">
<title>public.tastings</title>
<polygon fill="#efefef" stroke="transparent" points="274,-297.5 274,-332.5 578,-332.5 578,-297.5 274,-297.5"/>
<polygon fill="none" stroke="#000000" points="274,-297.5 274,-332.5 578,-332.5 578,-297.5 274,-297.5"/>
<text text-anchor="start" x="320.3599" y="-310.3" font-family="Arial Bold" font-size="18.00" fill="#000000">public.tastings</text>
<text text-anchor="start" x="434.3863" y="-310.3" font-family="Arial" font-size="14.00" fill="#000000"> </text>
<text text-anchor="start" x="438.2769" y="-310.3" font-family="Arial" font-size="14.00" fill="#666666">[BASE TABLE]</text>
<polygon fill="none" stroke="#000000" points="274,-267.5 274,-297.5 578,-297.5 578,-267.5 274,-267.5"/>
<text text-anchor="start" x="281" y="-278.9" font-family="Arial" font-size="14.00" fill="#000000">id </text>
<text text-anchor="start" x="295.7798" y="-278.9" font-family="Arial" font-size="14.00" fill="#666666">[text]</text>
<polygon fill="none" stroke="#000000" points="274,-237.5 274,-267.5 578,-267.5 578,-237.5 274,-237.5"/>
<text text-anchor="start" x="281" y="-248.9" font-family="Arial" font-size="14.00" fill="#000000">name </text>
<text text-anchor="start" x="319.899" y="-248.9" font-family="Arial" font-size="14.00" fill="#666666">[text]</text>
<polygon fill="none" stroke="#000000" points="274,-207.5 274,-237.5 578,-237.5 578,-207.5 274,-207.5"/>
<text text-anchor="start" x="281" y="-218.9" font-family="Arial" font-size="14.00" fill="#000000">description </text>
<text text-anchor="start" x="352.568" y="-218.9" font-family="Arial" font-size="14.00" fill="#666666">[text]</text>
<polygon fill="none" stroke="#000000" points="274,-177.5 274,-207.5 578,-207.5 578,-177.5 274,-177.5"/>
<text text-anchor="start" x="281" y="-188.9" font-family="Arial" font-size="14.00" fill="#000000">acidity </text>
<text text-anchor="start" x="324.5596" y="-188.9" font-family="Arial" font-size="14.00" fill="#666666">[integer]</text>
<polygon fill="none" stroke="#000000" points="274,-147.5 274,-177.5 578,-177.5 578,-147.5 274,-147.5"/>
<text text-anchor="start" x="281" y="-158.9" font-family="Arial" font-size="14.00" fill="#000000">richness </text>
<text text-anchor="start" x="337.0056" y="-158.9" font-family="Arial" font-size="14.00" fill="#666666">[integer]</text>
<polygon fill="none" stroke="#000000" points="274,-117.5 274,-147.5 578,-147.5 578,-117.5 274,-117.5"/>
<text text-anchor="start" x="280.9117" y="-128.9" font-family="Arial" font-size="14.00" fill="#000000">conducted_at </text>
<text text-anchor="start" x="368.8443" y="-128.9" font-family="Arial" font-size="14.00" fill="#666666">[timestamp(3) without time zone]</text>
<polygon fill="none" stroke="#000000" points="274,-87.5 274,-117.5 578,-117.5 578,-87.5 274,-87.5"/>
<text text-anchor="start" x="281" y="-98.9" font-family="Arial" font-size="14.00" fill="#000000">created_at </text>
<text text-anchor="start" x="351.028" y="-98.9" font-family="Arial" font-size="14.00" fill="#666666">[timestamp(3) without time zone]</text>
<polygon fill="none" stroke="#000000" points="274,-57.5 274,-87.5 578,-87.5 578,-57.5 274,-57.5"/>
<text text-anchor="start" x="281" y="-68.9" font-family="Arial" font-size="14.00" fill="#000000">updated_at </text>
<text text-anchor="start" x="354.9326" y="-68.9" font-family="Arial" font-size="14.00" fill="#666666">[timestamp(3) without time zone]</text>
</g>
<!-- public.bean_tastings&#45;&gt;public.tastings -->
<g id="edge1" class="edge">
<title>public.bean_tastings:tasting_id&#45;&gt;public.tastings:id</title>
<path fill="none" stroke="#000000" d="M470.9002,-576.6845C417.6514,-567.409 448.308,-481.1238 481,-427 506.1826,-385.3085 552.8174,-417.6915 578,-376 599.4853,-340.4297 619.5556,-282.5 578,-282.5"/>
<polygon fill="#000000" stroke="#000000" points="471.0324,-576.6951 480.6378,-581.9854 476.0162,-577.0976 481,-577.5 481,-577.5 481,-577.5 476.0162,-577.0976 481.3622,-573.0146 471.0324,-576.6951 471.0324,-576.6951"/>
<text text-anchor="start" x="7.106" y="-587.5" font-family="Arial" font-size="10.00" fill="#000000">FOREIGN KEY (tasting_id) REFERENCES tastings(id) ON UPDATE CASCADE ON DELETE RESTRICT</text>
</g>
<!-- public.beans -->
<g id="node3" class="node">
<title>public.beans</title>
<polygon fill="#efefef" stroke="transparent" points="682,-312.5 682,-347.5 972,-347.5 972,-312.5 682,-312.5"/>
<polygon fill="none" stroke="#000000" points="682,-312.5 682,-347.5 972,-347.5 972,-312.5 682,-312.5"/>
<text text-anchor="start" x="727.8561" y="-325.3" font-family="Arial Bold" font-size="18.00" fill="#000000">public.beans</text>
<text text-anchor="start" x="828.8901" y="-325.3" font-family="Arial" font-size="14.00" fill="#000000"> </text>
<text text-anchor="start" x="832.7807" y="-325.3" font-family="Arial" font-size="14.00" fill="#666666">[BASE TABLE]</text>
<polygon fill="none" stroke="#000000" points="682,-282.5 682,-312.5 972,-312.5 972,-282.5 682,-282.5"/>
<text text-anchor="start" x="689" y="-293.9" font-family="Arial" font-size="14.00" fill="#000000">id </text>
<text text-anchor="start" x="703.7798" y="-293.9" font-family="Arial" font-size="14.00" fill="#666666">[text]</text>
<polygon fill="none" stroke="#000000" points="682,-252.5 682,-282.5 972,-282.5 972,-252.5 682,-252.5"/>
<text text-anchor="start" x="689" y="-263.9" font-family="Arial" font-size="14.00" fill="#000000">name </text>
<text text-anchor="start" x="727.899" y="-263.9" font-family="Arial" font-size="14.00" fill="#666666">[text]</text>
<polygon fill="none" stroke="#000000" points="682,-222.5 682,-252.5 972,-252.5 972,-222.5 682,-222.5"/>
<text text-anchor="start" x="689" y="-233.9" font-family="Arial" font-size="14.00" fill="#000000">description </text>
<text text-anchor="start" x="760.568" y="-233.9" font-family="Arial" font-size="14.00" fill="#666666">[text]</text>
<polygon fill="none" stroke="#000000" points="682,-192.5 682,-222.5 972,-222.5 972,-192.5 682,-192.5"/>
<text text-anchor="start" x="689" y="-203.9" font-family="Arial" font-size="14.00" fill="#000000">origin_id </text>
<text text-anchor="start" x="745.784" y="-203.9" font-family="Arial" font-size="14.00" fill="#666666">[text]</text>
<polygon fill="none" stroke="#000000" points="682,-162.5 682,-192.5 972,-192.5 972,-162.5 682,-162.5"/>
<text text-anchor="start" x="689" y="-173.9" font-family="Arial" font-size="14.00" fill="#000000">roast_level_id </text>
<text text-anchor="start" x="779.2398" y="-173.9" font-family="Arial" font-size="14.00" fill="#666666">[text]</text>
<polygon fill="none" stroke="#000000" points="682,-132.5 682,-162.5 972,-162.5 972,-132.5 682,-132.5"/>
<text text-anchor="start" x="689" y="-143.9" font-family="Arial" font-size="14.00" fill="#000000">processing_method_id </text>
<text text-anchor="start" x="833.7068" y="-143.9" font-family="Arial" font-size="14.00" fill="#666666">[text]</text>
<polygon fill="none" stroke="#000000" points="682,-102.5 682,-132.5 972,-132.5 972,-102.5 682,-102.5"/>
<text text-anchor="start" x="689" y="-113.9" font-family="Arial" font-size="14.00" fill="#000000">created_at </text>
<text text-anchor="start" x="759.028" y="-113.9" font-family="Arial" font-size="14.00" fill="#666666">[timestamp(3) without time zone]</text>
<polygon fill="none" stroke="#000000" points="682,-72.5 682,-102.5 972,-102.5 972,-72.5 682,-72.5"/>
<text text-anchor="start" x="688.9117" y="-83.9" font-family="Arial" font-size="14.00" fill="#000000">updated_at </text>
<text text-anchor="start" x="762.8443" y="-83.9" font-family="Arial" font-size="14.00" fill="#666666">[timestamp(3) without time zone]</text>
<polygon fill="none" stroke="#000000" points="682,-42.5 682,-72.5 972,-72.5 972,-42.5 682,-42.5"/>
<text text-anchor="start" x="689" y="-53.9" font-family="Arial" font-size="14.00" fill="#000000">package_purchase_id </text>
<text text-anchor="start" x="829.8316" y="-53.9" font-family="Arial" font-size="14.00" fill="#666666">[text]</text>
</g>
<!-- public.bean_tastings&#45;&gt;public.beans -->
<g id="edge2" class="edge">
<title>public.bean_tastings:bean_id&#45;&gt;public.beans:id</title>
<path fill="none" stroke="#000000" d="M781.1769,-546.4089C821.2032,-536.9559 798.8339,-468.2833 771,-427 747.1469,-391.621 705.8531,-426.379 682,-391 658.7694,-356.5442 640.4444,-297.5 682,-297.5"/>
<polygon fill="#000000" stroke="#000000" points="780.943,-546.4339 770.5202,-543.0256 775.9715,-546.9669 771,-547.5 771,-547.5 771,-547.5 775.9715,-546.9669 771.4798,-551.9744 780.943,-546.4339 780.943,-546.4339"/>
<text text-anchor="start" x="778.324" y="-557.5" font-family="Arial" font-size="10.00" fill="#000000">FOREIGN KEY (bean_id) REFERENCES beans(id) ON UPDATE CASCADE ON DELETE RESTRICT</text>
</g>
</g>
</svg>
