<?xml version="1.0" encoding="UTF-8" standalone="no"?>
<!DOCTYPE svg PUBLIC "-//W3C//DTD SVG 1.1//EN"
 "http://www.w3.org/Graphics/SVG/1.1/DTD/svg11.dtd">
<!-- Generated by graphviz version 2.40.1 (20161225.0304)
 -->
<!-- Title: public.shops Pages: 1 -->
<svg width="1045pt" height="712pt"
 viewBox="0.00 0.00 1045.00 712.00" xmlns="http://www.w3.org/2000/svg" xmlns:xlink="http://www.w3.org/1999/xlink">
<g id="graph0" class="graph" transform="scale(1 1) rotate(0) translate(4 708)">
<title>public.shops</title>
<polygon fill="#ffffff" stroke="transparent" points="-4,4 -4,-708 1041,-708 1041,4 -4,4"/>
<!-- public.shops -->
<g id="node1" class="node">
<title>public.shops</title>
<polygon fill="#efefef" stroke="transparent" points="377,-165.5 377,-200.5 667,-200.5 667,-165.5 377,-165.5"/>
<polygon fill="none" stroke="#000000" points="377,-165.5 377,-200.5 667,-200.5 667,-165.5 377,-165.5"/>
<text text-anchor="start" x="408.2021" y="-178.3" font-family="Arial Bold" font-size="18.00" fill="#000000">public.shops</text>
<text text-anchor="start" x="508.2299" y="-178.3" font-family="Arial" font-size="14.00" fill="#000000">    </text>
<text text-anchor="start" x="542.4347" y="-178.3" font-family="Arial" font-size="14.00" fill="#666666">[BASE TABLE]</text>
<polygon fill="none" stroke="#000000" points="377,-135.5 377,-165.5 667,-165.5 667,-135.5 377,-135.5"/>
<text text-anchor="start" x="384" y="-146.9" font-family="Arial" font-size="14.00" fill="#000000">id </text>
<text text-anchor="start" x="398.7798" y="-146.9" font-family="Arial" font-size="14.00" fill="#666666">[text]</text>
<polygon fill="none" stroke="#000000" points="377,-105.5 377,-135.5 667,-135.5 667,-105.5 377,-105.5"/>
<text text-anchor="start" x="384" y="-116.9" font-family="Arial" font-size="14.00" fill="#000000">name </text>
<text text-anchor="start" x="422.899" y="-116.9" font-family="Arial" font-size="14.00" fill="#666666">[text]</text>
<polygon fill="none" stroke="#000000" points="377,-75.5 377,-105.5 667,-105.5 667,-75.5 377,-75.5"/>
<text text-anchor="start" x="384" y="-86.9" font-family="Arial" font-size="14.00" fill="#000000">created_at </text>
<text text-anchor="start" x="454.028" y="-86.9" font-family="Arial" font-size="14.00" fill="#666666">[timestamp(3) without time zone]</text>
<polygon fill="none" stroke="#000000" points="377,-45.5 377,-75.5 667,-75.5 667,-45.5 377,-45.5"/>
<text text-anchor="start" x="383.9117" y="-56.9" font-family="Arial" font-size="14.00" fill="#000000">updated_at </text>
<text text-anchor="start" x="457.8443" y="-56.9" font-family="Arial" font-size="14.00" fill="#666666">[timestamp(3) without time zone]</text>
<polygon fill="none" stroke="#000000" stroke-width="3" points="375.5,-44.5 375.5,-202.5 668.5,-202.5 668.5,-44.5 375.5,-44.5"/>
</g>
<!-- public.shop_locations -->
<g id="node2" class="node">
<title>public.shop_locations</title>
<polygon fill="#efefef" stroke="transparent" points="146,-625.5 146,-660.5 466,-660.5 466,-625.5 146,-625.5"/>
<polygon fill="none" stroke="#000000" points="146,-625.5 146,-660.5 466,-660.5 466,-625.5 146,-625.5"/>
<text text-anchor="start" x="156.1913" y="-638.3" font-family="Arial Bold" font-size="18.00" fill="#000000">public.shop_locations</text>
<text text-anchor="start" x="328.2407" y="-638.3" font-family="Arial" font-size="14.00" fill="#000000">    </text>
<text text-anchor="start" x="362.4455" y="-638.3" font-family="Arial" font-size="14.00" fill="#666666">[BASE TABLE]</text>
<polygon fill="none" stroke="#000000" points="146,-595.5 146,-625.5 466,-625.5 466,-595.5 146,-595.5"/>
<text text-anchor="start" x="153" y="-606.9" font-family="Arial" font-size="14.00" fill="#000000">id    </text>
<text text-anchor="start" x="198.094" y="-606.9" font-family="Arial" font-size="14.00" fill="#666666">[text]</text>
<polygon fill="none" stroke="#000000" points="146,-565.5 146,-595.5 466,-595.5 466,-565.5 146,-565.5"/>
<text text-anchor="start" x="153" y="-576.9" font-family="Arial" font-size="14.00" fill="#000000">shop_id    </text>
<text text-anchor="start" x="236.2244" y="-576.9" font-family="Arial" font-size="14.00" fill="#666666">[text]</text>
<polygon fill="none" stroke="#000000" points="146,-535.5 146,-565.5 466,-565.5 466,-535.5 146,-535.5"/>
<text text-anchor="start" x="153" y="-546.9" font-family="Arial" font-size="14.00" fill="#000000">longitude    </text>
<text text-anchor="start" x="244.0042" y="-546.9" font-family="Arial" font-size="14.00" fill="#666666">[double precision]</text>
<polygon fill="none" stroke="#000000" points="146,-505.5 146,-535.5 466,-535.5 466,-505.5 146,-505.5"/>
<text text-anchor="start" x="153" y="-516.9" font-family="Arial" font-size="14.00" fill="#000000">latitude    </text>
<text text-anchor="start" x="232.3296" y="-516.9" font-family="Arial" font-size="14.00" fill="#666666">[double precision]</text>
<polygon fill="none" stroke="#000000" points="146,-475.5 146,-505.5 466,-505.5 466,-475.5 146,-475.5"/>
<text text-anchor="start" x="153" y="-486.9" font-family="Arial" font-size="14.00" fill="#000000">postal_code    </text>
<text text-anchor="start" x="262.6802" y="-486.9" font-family="Arial" font-size="14.00" fill="#666666">[text]</text>
<polygon fill="none" stroke="#000000" points="146,-445.5 146,-475.5 466,-475.5 466,-445.5 146,-445.5"/>
<text text-anchor="start" x="153" y="-456.9" font-family="Arial" font-size="14.00" fill="#000000">prefecture    </text>
<text text-anchor="start" x="250.2202" y="-456.9" font-family="Arial" font-size="14.00" fill="#666666">[text]</text>
<polygon fill="none" stroke="#000000" points="146,-415.5 146,-445.5 466,-445.5 466,-415.5 146,-415.5"/>
<text text-anchor="start" x="153" y="-426.9" font-family="Arial" font-size="14.00" fill="#000000">city    </text>
<text text-anchor="start" x="208.202" y="-426.9" font-family="Arial" font-size="14.00" fill="#666666">[text]</text>
<polygon fill="none" stroke="#000000" points="146,-385.5 146,-415.5 466,-415.5 466,-385.5 146,-385.5"/>
<text text-anchor="start" x="153" y="-396.9" font-family="Arial" font-size="14.00" fill="#000000">address    </text>
<text text-anchor="start" x="236.9958" y="-396.9" font-family="Arial" font-size="14.00" fill="#666666">[text]</text>
<polygon fill="none" stroke="#000000" points="146,-355.5 146,-385.5 466,-385.5 466,-355.5 146,-355.5"/>
<text text-anchor="start" x="153" y="-366.9" font-family="Arial" font-size="14.00" fill="#000000">created_at    </text>
<text text-anchor="start" x="253.3422" y="-366.9" font-family="Arial" font-size="14.00" fill="#666666">[timestamp(3) without time zone]</text>
<polygon fill="none" stroke="#000000" points="146,-325.5 146,-355.5 466,-355.5 466,-325.5 146,-325.5"/>
<text text-anchor="start" x="152.7546" y="-336.9" font-family="Arial" font-size="14.00" fill="#000000">updated_at    </text>
<text text-anchor="start" x="257.0014" y="-336.9" font-family="Arial" font-size="14.00" fill="#666666">[timestamp(3) without time zone]</text>
</g>
<!-- public.shop_locations&#45;&gt;public.shops -->
<g id="edge1" class="edge">
<title>public.shop_locations:shop_id&#45;&gt;public.shops:id</title>
<path fill="none" stroke="#000000" d="M476.0059,-578.393C528.8991,-554.5183 500.9367,-334.8183 466,-283 442.1469,-247.621 400.8531,-282.379 377,-247 353.024,-211.4387 334.1111,-150.5 377,-150.5"/>
<polygon fill="#000000" stroke="#000000" points="475.7854,-578.4394 465.0727,-576.0966 470.8927,-579.4697 466,-580.5 466,-580.5 466,-580.5 470.8927,-579.4697 466.9273,-584.9034 475.7854,-578.4394 475.7854,-578.4394"/>
<text text-anchor="start" x="6.883" y="-590.5" font-family="Arial" font-size="10.00" fill="#000000">FOREIGN KEY (shop_id) REFERENCES shops(id) ON UPDATE CASCADE ON DELETE RESTRICT</text>
</g>
<!-- public.pack_purchases -->
<g id="node3" class="node">
<title>public.pack_purchases</title>
<polygon fill="#efefef" stroke="transparent" points="571,-595.5 571,-630.5 906,-630.5 906,-595.5 571,-595.5"/>
<polygon fill="none" stroke="#000000" points="571,-595.5 571,-630.5 906,-630.5 906,-595.5 571,-595.5"/>
<text text-anchor="start" x="583.1905" y="-608.3" font-family="Arial Bold" font-size="18.00" fill="#000000">public.pack_purchases</text>
<text text-anchor="start" x="766.2415" y="-608.3" font-family="Arial" font-size="14.00" fill="#000000">    </text>
<text text-anchor="start" x="800.4463" y="-608.3" font-family="Arial" font-size="14.00" fill="#666666">[BASE TABLE]</text>
<polygon fill="none" stroke="#000000" points="571,-565.5 571,-595.5 906,-595.5 906,-565.5 571,-565.5"/>
<text text-anchor="start" x="578" y="-576.9" font-family="Arial" font-size="14.00" fill="#000000">id    </text>
<text text-anchor="start" x="623.094" y="-576.9" font-family="Arial" font-size="14.00" fill="#666666">[text]</text>
<polygon fill="none" stroke="#000000" points="571,-535.5 571,-565.5 906,-565.5 906,-535.5 571,-535.5"/>
<text text-anchor="start" x="578" y="-546.9" font-family="Arial" font-size="14.00" fill="#000000">pack_id    </text>
<text text-anchor="start" x="660.4418" y="-546.9" font-family="Arial" font-size="14.00" fill="#666666">[text]</text>
<polygon fill="none" stroke="#000000" points="571,-505.5 571,-535.5 906,-535.5 906,-505.5 571,-505.5"/>
<text text-anchor="start" x="578" y="-516.9" font-family="Arial" font-size="14.00" fill="#000000">shop_id    </text>
<text text-anchor="start" x="661.2244" y="-516.9" font-family="Arial" font-size="14.00" fill="#666666">[text]</text>
<polygon fill="none" stroke="#000000" points="571,-475.5 571,-505.5 906,-505.5 906,-475.5 571,-475.5"/>
<text text-anchor="start" x="578" y="-486.9" font-family="Arial" font-size="14.00" fill="#000000">price    </text>
<text text-anchor="start" x="642.5372" y="-486.9" font-family="Arial" font-size="14.00" fill="#666666">[integer]</text>
<polygon fill="none" stroke="#000000" points="571,-445.5 571,-475.5 906,-475.5 906,-445.5 571,-445.5"/>
<text text-anchor="start" x="578" y="-456.9" font-family="Arial" font-size="14.00" fill="#000000">capacity    </text>
<text text-anchor="start" x="663.5498" y="-456.9" font-family="Arial" font-size="14.00" fill="#666666">[integer]</text>
<polygon fill="none" stroke="#000000" points="571,-415.5 571,-445.5 906,-445.5 906,-415.5 571,-415.5"/>
<text text-anchor="start" x="577.8696" y="-426.9" font-family="Arial" font-size="14.00" fill="#000000">purchased_at    </text>
<text text-anchor="start" x="696.8864" y="-426.9" font-family="Arial" font-size="14.00" fill="#666666">[timestamp(3) without time zone]</text>
<polygon fill="none" stroke="#000000" points="571,-385.5 571,-415.5 906,-415.5 906,-385.5 571,-385.5"/>
<text text-anchor="start" x="578" y="-396.9" font-family="Arial" font-size="14.00" fill="#000000">created_at    </text>
<text text-anchor="start" x="678.3422" y="-396.9" font-family="Arial" font-size="14.00" fill="#666666">[timestamp(3) without time zone]</text>
<polygon fill="none" stroke="#000000" points="571,-355.5 571,-385.5 906,-385.5 906,-355.5 571,-355.5"/>
<text text-anchor="start" x="578" y="-366.9" font-family="Arial" font-size="14.00" fill="#000000">updated_at    </text>
<text text-anchor="start" x="682.2468" y="-366.9" font-family="Arial" font-size="14.00" fill="#666666">[timestamp(3) without time zone]</text>
</g>
<!-- public.pack_purchases&#45;&gt;public.shops -->
<g id="edge2" class="edge">
<title>public.pack_purchases:shop_id&#45;&gt;public.shops:id</title>
<path fill="none" stroke="#000000" d="M560.8317,-519.9339C482.6187,-510.7331 529.7432,-391.4305 571,-313 595.1049,-267.1759 642.8951,-292.8241 667,-247 686.9669,-209.0424 709.8889,-150.5 667,-150.5"/>
<polygon fill="#000000" stroke="#000000" points="561.0155,-519.944 570.7498,-524.993 566.0077,-520.222 571,-520.5 571,-520.5 571,-520.5 566.0077,-520.222 571.2502,-516.007 561.0155,-519.944 561.0155,-519.944"/>
<text text-anchor="start" x="577.883" y="-530.5" font-family="Arial" font-size="10.00" fill="#000000">FOREIGN KEY (shop_id) REFERENCES shops(id) ON UPDATE CASCADE ON DELETE RESTRICT</text>
</g>
</g>
</svg>
