<?xml version="1.0" encoding="UTF-8" standalone="no"?>
<!DOCTYPE svg PUBLIC "-//W3C//DTD SVG 1.1//EN"
 "http://www.w3.org/Graphics/SVG/1.1/DTD/svg11.dtd">
<!-- Generated by graphviz version 2.40.1 (20161225.0304)
 -->
<!-- Title: public.beans Pages: 1 -->
<svg width="1366pt" height="1049pt"
 viewBox="0.00 0.00 1366.00 1049.00" xmlns="http://www.w3.org/2000/svg" xmlns:xlink="http://www.w3.org/1999/xlink">
<g id="graph0" class="graph" transform="scale(1 1) rotate(0) translate(4 1045)">
<title>public.beans</title>
<polygon fill="#ffffff" stroke="transparent" points="-4,4 -4,-1045 1362,-1045 1362,4 -4,4"/>
<!-- public.beans -->
<g id="node1" class="node">
<title>public.beans</title>
<polygon fill="#efefef" stroke="transparent" points="471,-652.5 471,-687.5 761,-687.5 761,-652.5 471,-652.5"/>
<polygon fill="none" stroke="#000000" points="471,-652.5 471,-687.5 761,-687.5 761,-652.5 471,-652.5"/>
<text text-anchor="start" x="516.8561" y="-665.3" font-family="Arial Bold" font-size="18.00" fill="#000000">public.beans</text>
<text text-anchor="start" x="617.8901" y="-665.3" font-family="Arial" font-size="14.00" fill="#000000"> </text>
<text text-anchor="start" x="621.7807" y="-665.3" font-family="Arial" font-size="14.00" fill="#666666">[BASE TABLE]</text>
<polygon fill="none" stroke="#000000" points="471,-622.5 471,-652.5 761,-652.5 761,-622.5 471,-622.5"/>
<text text-anchor="start" x="478" y="-633.9" font-family="Arial" font-size="14.00" fill="#000000">id </text>
<text text-anchor="start" x="492.7798" y="-633.9" font-family="Arial" font-size="14.00" fill="#666666">[text]</text>
<polygon fill="none" stroke="#000000" points="471,-592.5 471,-622.5 761,-622.5 761,-592.5 471,-592.5"/>
<text text-anchor="start" x="478" y="-603.9" font-family="Arial" font-size="14.00" fill="#000000">name </text>
<text text-anchor="start" x="516.899" y="-603.9" font-family="Arial" font-size="14.00" fill="#666666">[text]</text>
<polygon fill="none" stroke="#000000" points="471,-562.5 471,-592.5 761,-592.5 761,-562.5 471,-562.5"/>
<text text-anchor="start" x="478" y="-573.9" font-family="Arial" font-size="14.00" fill="#000000">description </text>
<text text-anchor="start" x="549.568" y="-573.9" font-family="Arial" font-size="14.00" fill="#666666">[text]</text>
<polygon fill="none" stroke="#000000" points="471,-532.5 471,-562.5 761,-562.5 761,-532.5 471,-532.5"/>
<text text-anchor="start" x="478" y="-543.9" font-family="Arial" font-size="14.00" fill="#000000">origin_id </text>
<text text-anchor="start" x="534.784" y="-543.9" font-family="Arial" font-size="14.00" fill="#666666">[text]</text>
<polygon fill="none" stroke="#000000" points="471,-502.5 471,-532.5 761,-532.5 761,-502.5 471,-502.5"/>
<text text-anchor="start" x="478" y="-513.9" font-family="Arial" font-size="14.00" fill="#000000">roast_level_id </text>
<text text-anchor="start" x="568.2398" y="-513.9" font-family="Arial" font-size="14.00" fill="#666666">[text]</text>
<polygon fill="none" stroke="#000000" points="471,-472.5 471,-502.5 761,-502.5 761,-472.5 471,-472.5"/>
<text text-anchor="start" x="478" y="-483.9" font-family="Arial" font-size="14.00" fill="#000000">processing_method_id </text>
<text text-anchor="start" x="622.7068" y="-483.9" font-family="Arial" font-size="14.00" fill="#666666">[text]</text>
<polygon fill="none" stroke="#000000" points="471,-442.5 471,-472.5 761,-472.5 761,-442.5 471,-442.5"/>
<text text-anchor="start" x="478" y="-453.9" font-family="Arial" font-size="14.00" fill="#000000">created_at </text>
<text text-anchor="start" x="548.028" y="-453.9" font-family="Arial" font-size="14.00" fill="#666666">[timestamp(3) without time zone]</text>
<polygon fill="none" stroke="#000000" points="471,-412.5 471,-442.5 761,-442.5 761,-412.5 471,-412.5"/>
<text text-anchor="start" x="477.9117" y="-423.9" font-family="Arial" font-size="14.00" fill="#000000">updated_at </text>
<text text-anchor="start" x="551.8443" y="-423.9" font-family="Arial" font-size="14.00" fill="#666666">[timestamp(3) without time zone]</text>
<polygon fill="none" stroke="#000000" stroke-width="3" points="469.5,-411.5 469.5,-689.5 762.5,-689.5 762.5,-411.5 469.5,-411.5"/>
</g>
<!-- public.origins -->
<g id="node4" class="node">
<title>public.origins</title>
<polygon fill="#efefef" stroke="transparent" points="77,-252.5 77,-287.5 367,-287.5 367,-252.5 77,-252.5"/>
<polygon fill="none" stroke="#000000" points="77,-252.5 77,-287.5 367,-287.5 367,-252.5 77,-252.5"/>
<text text-anchor="start" x="120.8689" y="-265.3" font-family="Arial Bold" font-size="18.00" fill="#000000">public.origins</text>
<text text-anchor="start" x="225.8773" y="-265.3" font-family="Arial" font-size="14.00" fill="#000000"> </text>
<text text-anchor="start" x="229.7679" y="-265.3" font-family="Arial" font-size="14.00" fill="#666666">[BASE TABLE]</text>
<polygon fill="none" stroke="#000000" points="77,-222.5 77,-252.5 367,-252.5 367,-222.5 77,-222.5"/>
<text text-anchor="start" x="84" y="-233.9" font-family="Arial" font-size="14.00" fill="#000000">id </text>
<text text-anchor="start" x="98.7798" y="-233.9" font-family="Arial" font-size="14.00" fill="#666666">[text]</text>
<polygon fill="none" stroke="#000000" points="77,-192.5 77,-222.5 367,-222.5 367,-192.5 77,-192.5"/>
<text text-anchor="start" x="84" y="-203.9" font-family="Arial" font-size="14.00" fill="#000000">name </text>
<text text-anchor="start" x="122.899" y="-203.9" font-family="Arial" font-size="14.00" fill="#666666">[text]</text>
<polygon fill="none" stroke="#000000" points="77,-162.5 77,-192.5 367,-192.5 367,-162.5 77,-162.5"/>
<text text-anchor="start" x="84" y="-173.9" font-family="Arial" font-size="14.00" fill="#000000">description </text>
<text text-anchor="start" x="155.568" y="-173.9" font-family="Arial" font-size="14.00" fill="#666666">[text]</text>
<polygon fill="none" stroke="#000000" points="77,-132.5 77,-162.5 367,-162.5 367,-132.5 77,-132.5"/>
<text text-anchor="start" x="84" y="-143.9" font-family="Arial" font-size="14.00" fill="#000000">longitude </text>
<text text-anchor="start" x="144.69" y="-143.9" font-family="Arial" font-size="14.00" fill="#666666">[double precision]</text>
<polygon fill="none" stroke="#000000" points="77,-102.5 77,-132.5 367,-132.5 367,-102.5 77,-102.5"/>
<text text-anchor="start" x="84" y="-113.9" font-family="Arial" font-size="14.00" fill="#000000">latitude </text>
<text text-anchor="start" x="133.0154" y="-113.9" font-family="Arial" font-size="14.00" fill="#666666">[double precision]</text>
<polygon fill="none" stroke="#000000" points="77,-72.5 77,-102.5 367,-102.5 367,-72.5 77,-72.5"/>
<text text-anchor="start" x="84" y="-83.9" font-family="Arial" font-size="14.00" fill="#000000">created_at </text>
<text text-anchor="start" x="154.028" y="-83.9" font-family="Arial" font-size="14.00" fill="#666666">[timestamp(3) without time zone]</text>
<polygon fill="none" stroke="#000000" points="77,-42.5 77,-72.5 367,-72.5 367,-42.5 77,-42.5"/>
<text text-anchor="start" x="83.9117" y="-53.9" font-family="Arial" font-size="14.00" fill="#000000">updated_at </text>
<text text-anchor="start" x="157.8443" y="-53.9" font-family="Arial" font-size="14.00" fill="#666666">[timestamp(3) without time zone]</text>
</g>
<!-- public.beans&#45;&gt;public.origins -->
<g id="edge3" class="edge">
<title>public.beans:origin_id&#45;&gt;public.origins:id</title>
<path fill="none" stroke="#000000" d="M461.1449,-545.3549C402.1016,-517.9657 436.1143,-237.5 367,-237.5"/>
<polygon fill="#000000" stroke="#000000" points="461.2288,-545.3731 470.0429,-551.897 466.1144,-546.4365 471,-547.5 471,-547.5 471,-547.5 466.1144,-546.4365 471.9571,-543.103 461.2288,-545.3731 461.2288,-545.3731"/>
<text text-anchor="start" x="7.116" y="-557.5" font-family="Arial" font-size="10.00" fill="#000000">FOREIGN KEY (origin_id) REFERENCES origins(id) ON UPDATE CASCADE ON DELETE RESTRICT</text>
</g>
<!-- public.roast_levels -->
<g id="node5" class="node">
<title>public.roast_levels</title>
<polygon fill="#efefef" stroke="transparent" points="471,-222.5 471,-257.5 761,-257.5 761,-222.5 471,-222.5"/>
<polygon fill="none" stroke="#000000" points="471,-222.5 471,-257.5 761,-257.5 761,-222.5 471,-222.5"/>
<text text-anchor="start" x="493.3616" y="-235.3" font-family="Arial Bold" font-size="18.00" fill="#000000">public.roast_levels</text>
<text text-anchor="start" x="641.3846" y="-235.3" font-family="Arial" font-size="14.00" fill="#000000"> </text>
<text text-anchor="start" x="645.2752" y="-235.3" font-family="Arial" font-size="14.00" fill="#666666">[BASE TABLE]</text>
<polygon fill="none" stroke="#000000" points="471,-192.5 471,-222.5 761,-222.5 761,-192.5 471,-192.5"/>
<text text-anchor="start" x="478" y="-203.9" font-family="Arial" font-size="14.00" fill="#000000">id </text>
<text text-anchor="start" x="492.7798" y="-203.9" font-family="Arial" font-size="14.00" fill="#666666">[text]</text>
<polygon fill="none" stroke="#000000" points="471,-162.5 471,-192.5 761,-192.5 761,-162.5 471,-162.5"/>
<text text-anchor="start" x="478" y="-173.9" font-family="Arial" font-size="14.00" fill="#000000">name </text>
<text text-anchor="start" x="516.899" y="-173.9" font-family="Arial" font-size="14.00" fill="#666666">[text]</text>
<polygon fill="none" stroke="#000000" points="471,-132.5 471,-162.5 761,-162.5 761,-132.5 471,-132.5"/>
<text text-anchor="start" x="478" y="-143.9" font-family="Arial" font-size="14.00" fill="#000000">description </text>
<text text-anchor="start" x="549.568" y="-143.9" font-family="Arial" font-size="14.00" fill="#666666">[text]</text>
<polygon fill="none" stroke="#000000" points="471,-102.5 471,-132.5 761,-132.5 761,-102.5 471,-102.5"/>
<text text-anchor="start" x="478" y="-113.9" font-family="Arial" font-size="14.00" fill="#000000">created_at </text>
<text text-anchor="start" x="548.028" y="-113.9" font-family="Arial" font-size="14.00" fill="#666666">[timestamp(3) without time zone]</text>
<polygon fill="none" stroke="#000000" points="471,-72.5 471,-102.5 761,-102.5 761,-72.5 471,-72.5"/>
<text text-anchor="start" x="477.9117" y="-83.9" font-family="Arial" font-size="14.00" fill="#000000">updated_at </text>
<text text-anchor="start" x="551.8443" y="-83.9" font-family="Arial" font-size="14.00" fill="#666666">[timestamp(3) without time zone]</text>
</g>
<!-- public.beans&#45;&gt;public.roast_levels -->
<g id="edge4" class="edge">
<title>public.beans:roast_level_id&#45;&gt;public.roast_levels:id</title>
<path fill="none" stroke="#000000" d="M770.9619,-515.183C829.7112,-486.815 826.3906,-207.5 761,-207.5"/>
<polygon fill="#000000" stroke="#000000" points="770.74,-515.2345 759.9805,-513.117 765.87,-516.3672 761,-517.5 761,-517.5 761,-517.5 765.87,-516.3672 762.0195,-521.883 770.74,-515.2345 770.74,-515.2345"/>
<text text-anchor="start" x="768.219" y="-527.5" font-family="Arial" font-size="10.00" fill="#000000">FOREIGN KEY (roast_level_id) REFERENCES roast_levels(id) ON UPDATE CASCADE ON DELETE RESTRICT</text>
</g>
<!-- public.processing_methods -->
<g id="node6" class="node">
<title>public.processing_methods</title>
<polygon fill="#efefef" stroke="transparent" points="866,-222.5 866,-257.5 1195,-257.5 1195,-222.5 866,-222.5"/>
<polygon fill="none" stroke="#000000" points="866,-222.5 866,-257.5 1195,-257.5 1195,-222.5 866,-222.5"/>
<text text-anchor="start" x="872.8471" y="-235.3" font-family="Arial Bold" font-size="18.00" fill="#000000">public.processing_methods</text>
<text text-anchor="start" x="1090.8991" y="-235.3" font-family="Arial" font-size="14.00" fill="#000000"> </text>
<text text-anchor="start" x="1094.7897" y="-235.3" font-family="Arial" font-size="14.00" fill="#666666">[BASE TABLE]</text>
<polygon fill="none" stroke="#000000" points="866,-192.5 866,-222.5 1195,-222.5 1195,-192.5 866,-192.5"/>
<text text-anchor="start" x="873" y="-203.9" font-family="Arial" font-size="14.00" fill="#000000">id </text>
<text text-anchor="start" x="887.7798" y="-203.9" font-family="Arial" font-size="14.00" fill="#666666">[text]</text>
<polygon fill="none" stroke="#000000" points="866,-162.5 866,-192.5 1195,-192.5 1195,-162.5 866,-162.5"/>
<text text-anchor="start" x="873" y="-173.9" font-family="Arial" font-size="14.00" fill="#000000">name </text>
<text text-anchor="start" x="911.899" y="-173.9" font-family="Arial" font-size="14.00" fill="#666666">[text]</text>
<polygon fill="none" stroke="#000000" points="866,-132.5 866,-162.5 1195,-162.5 1195,-132.5 866,-132.5"/>
<text text-anchor="start" x="873" y="-143.9" font-family="Arial" font-size="14.00" fill="#000000">description </text>
<text text-anchor="start" x="944.568" y="-143.9" font-family="Arial" font-size="14.00" fill="#666666">[text]</text>
<polygon fill="none" stroke="#000000" points="866,-102.5 866,-132.5 1195,-132.5 1195,-102.5 866,-102.5"/>
<text text-anchor="start" x="873" y="-113.9" font-family="Arial" font-size="14.00" fill="#000000">created_at </text>
<text text-anchor="start" x="943.028" y="-113.9" font-family="Arial" font-size="14.00" fill="#666666">[timestamp(3) without time zone]</text>
<polygon fill="none" stroke="#000000" points="866,-72.5 866,-102.5 1195,-102.5 1195,-72.5 866,-72.5"/>
<text text-anchor="start" x="873" y="-83.9" font-family="Arial" font-size="14.00" fill="#000000">updated_at </text>
<text text-anchor="start" x="946.9326" y="-83.9" font-family="Arial" font-size="14.00" fill="#666666">[timestamp(3) without time zone]</text>
</g>
<!-- public.beans&#45;&gt;public.processing_methods -->
<g id="edge5" class="edge">
<title>public.beans:processing_method_id&#45;&gt;public.processing_methods:id</title>
<path fill="none" stroke="#000000" d="M770.7536,-485.2462C824.7725,-458.7474 803.051,-207.5 866,-207.5"/>
<polygon fill="#000000" stroke="#000000" points="770.7433,-485.2485 759.9868,-483.1155 765.8716,-486.3742 761,-487.5 761,-487.5 761,-487.5 765.8716,-486.3742 762.0132,-491.8845 770.7433,-485.2485 770.7433,-485.2485"/>
<text text-anchor="start" x="768.314" y="-497.5" font-family="Arial" font-size="10.00" fill="#000000">FOREIGN KEY (processing_method_id) REFERENCES processing_methods(id) ON UPDATE CASCADE ON DELETE RESTRICT</text>
</g>
<!-- public.bean_flavor_profiles -->
<g id="node2" class="node">
<title>public.bean_flavor_profiles</title>
<polygon fill="#efefef" stroke="transparent" points="248,-962.5 248,-997.5 573,-997.5 573,-962.5 248,-962.5"/>
<polygon fill="none" stroke="#000000" points="248,-962.5 248,-997.5 573,-997.5 573,-962.5 248,-962.5"/>
<text text-anchor="start" x="254.8487" y="-975.3" font-family="Arial Bold" font-size="18.00" fill="#000000">public.bean_flavor_profiles</text>
<text text-anchor="start" x="468.8975" y="-975.3" font-family="Arial" font-size="14.00" fill="#000000"> </text>
<text text-anchor="start" x="472.7881" y="-975.3" font-family="Arial" font-size="14.00" fill="#666666">[BASE TABLE]</text>
<polygon fill="none" stroke="#000000" points="248,-932.5 248,-962.5 573,-962.5 573,-932.5 248,-932.5"/>
<text text-anchor="start" x="255" y="-943.9" font-family="Arial" font-size="14.00" fill="#000000">id </text>
<text text-anchor="start" x="269.7798" y="-943.9" font-family="Arial" font-size="14.00" fill="#666666">[text]</text>
<polygon fill="none" stroke="#000000" points="248,-902.5 248,-932.5 573,-932.5 573,-902.5 248,-902.5"/>
<text text-anchor="start" x="255" y="-913.9" font-family="Arial" font-size="14.00" fill="#000000">bean_id </text>
<text text-anchor="start" x="308.6928" y="-913.9" font-family="Arial" font-size="14.00" fill="#666666">[text]</text>
<polygon fill="none" stroke="#000000" points="248,-872.5 248,-902.5 573,-902.5 573,-872.5 248,-872.5"/>
<text text-anchor="start" x="255" y="-883.9" font-family="Arial" font-size="14.00" fill="#000000">flavor_profile_id </text>
<text text-anchor="start" x="357.6802" y="-883.9" font-family="Arial" font-size="14.00" fill="#666666">[text]</text>
<polygon fill="none" stroke="#000000" points="248,-842.5 248,-872.5 573,-872.5 573,-842.5 248,-842.5"/>
<text text-anchor="start" x="255" y="-853.9" font-family="Arial" font-size="14.00" fill="#000000">created_at </text>
<text text-anchor="start" x="325.028" y="-853.9" font-family="Arial" font-size="14.00" fill="#666666">[timestamp(3) without time zone]</text>
<polygon fill="none" stroke="#000000" points="248,-812.5 248,-842.5 573,-842.5 573,-812.5 248,-812.5"/>
<text text-anchor="start" x="255" y="-823.9" font-family="Arial" font-size="14.00" fill="#000000">updated_at </text>
<text text-anchor="start" x="328.9326" y="-823.9" font-family="Arial" font-size="14.00" fill="#666666">[timestamp(3) without time zone]</text>
</g>
<!-- public.bean_flavor_profiles&#45;&gt;public.beans -->
<g id="edge1" class="edge">
<title>public.bean_flavor_profiles:bean_id&#45;&gt;public.beans:id</title>
<path fill="none" stroke="#000000" d="M583.257,-916.6199C635.3859,-906.9832 608.7185,-820.4844 573,-770 545.2338,-730.7553 498.7662,-773.2447 471,-734 446.2286,-698.9881 428.1111,-637.5 471,-637.5"/>
<polygon fill="#000000" stroke="#000000" points="582.9634,-916.645 572.6152,-913.0165 577.9817,-917.0725 573,-917.5 573,-917.5 573,-917.5 577.9817,-917.0725 573.3848,-921.9835 582.9634,-916.645 582.9634,-916.645"/>
<text text-anchor="start" x="113.324" y="-927.5" font-family="Arial" font-size="10.00" fill="#000000">FOREIGN KEY (bean_id) REFERENCES beans(id) ON UPDATE CASCADE ON DELETE RESTRICT</text>
</g>
<!-- public.bean_tastings -->
<g id="node3" class="node">
<title>public.bean_tastings</title>
<polygon fill="#efefef" stroke="transparent" points="677,-947.5 677,-982.5 967,-982.5 967,-947.5 677,-947.5"/>
<polygon fill="none" stroke="#000000" points="677,-947.5 677,-982.5 967,-982.5 967,-947.5 677,-947.5"/>
<text text-anchor="start" x="691.3444" y="-960.3" font-family="Arial Bold" font-size="18.00" fill="#000000">public.bean_tastings</text>
<text text-anchor="start" x="855.4018" y="-960.3" font-family="Arial" font-size="14.00" fill="#000000"> </text>
<text text-anchor="start" x="859.2924" y="-960.3" font-family="Arial" font-size="14.00" fill="#666666">[BASE TABLE]</text>
<polygon fill="none" stroke="#000000" points="677,-917.5 677,-947.5 967,-947.5 967,-917.5 677,-917.5"/>
<text text-anchor="start" x="684" y="-928.9" font-family="Arial" font-size="14.00" fill="#000000">tasting_id </text>
<text text-anchor="start" x="747.798" y="-928.9" font-family="Arial" font-size="14.00" fill="#666666">[text]</text>
<polygon fill="none" stroke="#000000" points="677,-887.5 677,-917.5 967,-917.5 967,-887.5 677,-887.5"/>
<text text-anchor="start" x="684" y="-898.9" font-family="Arial" font-size="14.00" fill="#000000">bean_id </text>
<text text-anchor="start" x="737.6928" y="-898.9" font-family="Arial" font-size="14.00" fill="#666666">[text]</text>
<polygon fill="none" stroke="#000000" points="677,-857.5 677,-887.5 967,-887.5 967,-857.5 677,-857.5"/>
<text text-anchor="start" x="684" y="-868.9" font-family="Arial" font-size="14.00" fill="#000000">created_at </text>
<text text-anchor="start" x="754.028" y="-868.9" font-family="Arial" font-size="14.00" fill="#666666">[timestamp(3) without time zone]</text>
<polygon fill="none" stroke="#000000" points="677,-827.5 677,-857.5 967,-857.5 967,-827.5 677,-827.5"/>
<text text-anchor="start" x="683.9117" y="-838.9" font-family="Arial" font-size="14.00" fill="#000000">updated_at </text>
<text text-anchor="start" x="757.8443" y="-838.9" font-family="Arial" font-size="14.00" fill="#666666">[timestamp(3) without time zone]</text>
</g>
<!-- public.bean_tastings&#45;&gt;public.beans -->
<g id="edge2" class="edge">
<title>public.bean_tastings:bean_id&#45;&gt;public.beans:id</title>
<path fill="none" stroke="#000000" d="M666.6425,-901.3506C628.7224,-891.96 653.29,-827.1332 677,-785 698.4193,-746.9373 739.5807,-772.0627 761,-734 782.0335,-696.6229 803.8889,-637.5 761,-637.5"/>
<polygon fill="#000000" stroke="#000000" points="667.061,-901.397 676.5036,-906.9725 672.0305,-901.9485 677,-902.5 677,-902.5 677,-902.5 672.0305,-901.9485 677.4964,-898.0275 667.061,-901.397 667.061,-901.397"/>
<text text-anchor="start" x="684.324" y="-912.5" font-family="Arial" font-size="10.00" fill="#000000">FOREIGN KEY (bean_id) REFERENCES beans(id) ON UPDATE CASCADE ON DELETE RESTRICT</text>
</g>
</g>
</svg>
