<?xml version="1.0" encoding="UTF-8" standalone="no"?>
<!DOCTYPE svg PUBLIC "-//W3C//DTD SVG 1.1//EN"
 "http://www.w3.org/Graphics/SVG/1.1/DTD/svg11.dtd">
<!-- Generated by graphviz version 2.40.1 (20161225.0304)
 -->
<!-- Title: public.flavor_profiles Pages: 1 -->
<svg width="1308pt" height="622pt"
 viewBox="0.00 0.00 1308.00 622.00" xmlns="http://www.w3.org/2000/svg" xmlns:xlink="http://www.w3.org/1999/xlink">
<g id="graph0" class="graph" transform="scale(1 1) rotate(0) translate(4 618)">
<title>public.flavor_profiles</title>
<polygon fill="#ffffff" stroke="transparent" points="-4,4 -4,-618 1304,-618 1304,4 -4,4"/>
<!-- public.flavor_profiles -->
<g id="node1" class="node">
<title>public.flavor_profiles</title>
<polygon fill="#efefef" stroke="transparent" points="355,-225.5 355,-260.5 645,-260.5 645,-225.5 355,-225.5"/>
<polygon fill="none" stroke="#000000" points="355,-225.5 355,-260.5 645,-260.5 645,-225.5 355,-225.5"/>
<text text-anchor="start" x="369.3642" y="-238.3" font-family="Arial Bold" font-size="18.00" fill="#000000">public.flavor_profiles</text>
<text text-anchor="start" x="533.382" y="-238.3" font-family="Arial" font-size="14.00" fill="#000000"> </text>
<text text-anchor="start" x="537.2726" y="-238.3" font-family="Arial" font-size="14.00" fill="#666666">[BASE TABLE]</text>
<polygon fill="none" stroke="#000000" points="355,-195.5 355,-225.5 645,-225.5 645,-195.5 355,-195.5"/>
<text text-anchor="start" x="362" y="-206.9" font-family="Arial" font-size="14.00" fill="#000000">id </text>
<text text-anchor="start" x="376.7798" y="-206.9" font-family="Arial" font-size="14.00" fill="#666666">[text]</text>
<polygon fill="none" stroke="#000000" points="355,-165.5 355,-195.5 645,-195.5 645,-165.5 355,-165.5"/>
<text text-anchor="start" x="362" y="-176.9" font-family="Arial" font-size="14.00" fill="#000000">value </text>
<text text-anchor="start" x="399.345" y="-176.9" font-family="Arial" font-size="14.00" fill="#666666">[text]</text>
<polygon fill="none" stroke="#000000" points="355,-135.5 355,-165.5 645,-165.5 645,-135.5 355,-135.5"/>
<text text-anchor="start" x="362" y="-146.9" font-family="Arial" font-size="14.00" fill="#000000">label </text>
<text text-anchor="start" x="395.4516" y="-146.9" font-family="Arial" font-size="14.00" fill="#666666">[text]</text>
<polygon fill="none" stroke="#000000" points="355,-105.5 355,-135.5 645,-135.5 645,-105.5 355,-105.5"/>
<text text-anchor="start" x="362" y="-116.9" font-family="Arial" font-size="14.00" fill="#000000">description </text>
<text text-anchor="start" x="433.568" y="-116.9" font-family="Arial" font-size="14.00" fill="#666666">[text]</text>
<polygon fill="none" stroke="#000000" points="355,-75.5 355,-105.5 645,-105.5 645,-75.5 355,-75.5"/>
<text text-anchor="start" x="362" y="-86.9" font-family="Arial" font-size="14.00" fill="#000000">created_at </text>
<text text-anchor="start" x="432.028" y="-86.9" font-family="Arial" font-size="14.00" fill="#666666">[timestamp(3) without time zone]</text>
<polygon fill="none" stroke="#000000" points="355,-45.5 355,-75.5 645,-75.5 645,-45.5 355,-45.5"/>
<text text-anchor="start" x="361.9117" y="-56.9" font-family="Arial" font-size="14.00" fill="#000000">updated_at </text>
<text text-anchor="start" x="435.8443" y="-56.9" font-family="Arial" font-size="14.00" fill="#666666">[timestamp(3) without time zone]</text>
<polygon fill="none" stroke="#000000" stroke-width="3" points="353.5,-44.5 353.5,-262.5 646.5,-262.5 646.5,-44.5 353.5,-44.5"/>
</g>
<!-- public.flavor_profile_trees -->
<g id="node2" class="node">
<title>public.flavor_profile_trees</title>
<polygon fill="#efefef" stroke="transparent" points="342,-505.5 342,-540.5 658,-540.5 658,-505.5 342,-505.5"/>
<polygon fill="none" stroke="#000000" points="342,-505.5 342,-540.5 658,-540.5 658,-505.5 342,-505.5"/>
<text text-anchor="start" x="348.8577" y="-518.3" font-family="Arial Bold" font-size="18.00" fill="#000000">public.flavor_profile_trees</text>
<text text-anchor="start" x="553.8885" y="-518.3" font-family="Arial" font-size="14.00" fill="#000000"> </text>
<text text-anchor="start" x="557.7791" y="-518.3" font-family="Arial" font-size="14.00" fill="#666666">[BASE TABLE]</text>
<polygon fill="none" stroke="#000000" points="342,-475.5 342,-505.5 658,-505.5 658,-475.5 342,-475.5"/>
<text text-anchor="start" x="349" y="-486.9" font-family="Arial" font-size="14.00" fill="#000000">id </text>
<text text-anchor="start" x="363.7798" y="-486.9" font-family="Arial" font-size="14.00" fill="#666666">[text]</text>
<polygon fill="none" stroke="#000000" points="342,-445.5 342,-475.5 658,-475.5 658,-445.5 342,-445.5"/>
<text text-anchor="start" x="349" y="-456.9" font-family="Arial" font-size="14.00" fill="#000000">parent_id </text>
<text text-anchor="start" x="411.244" y="-456.9" font-family="Arial" font-size="14.00" fill="#666666">[text]</text>
<polygon fill="none" stroke="#000000" points="342,-415.5 342,-445.5 658,-445.5 658,-415.5 342,-415.5"/>
<text text-anchor="start" x="349" y="-426.9" font-family="Arial" font-size="14.00" fill="#000000">child_id </text>
<text text-anchor="start" x="400.3408" y="-426.9" font-family="Arial" font-size="14.00" fill="#666666">[text]</text>
</g>
<!-- public.flavor_profile_trees&#45;&gt;public.flavor_profiles -->
<g id="edge1" class="edge">
<title>public.flavor_profile_trees:child_id&#45;&gt;public.flavor_profiles:id</title>
<path fill="none" stroke="#000000" d="M500.6432,-405.3845C509.6426,-338.7267 610.5833,-375.7385 645,-307 664.2017,-268.6496 687.8889,-210.5 645,-210.5"/>
<polygon fill="#000000" stroke="#000000" points="500.6346,-405.5202 495.5091,-415.2144 500.3173,-410.5101 500,-415.5 500,-415.5 500,-415.5 500.3173,-410.5101 504.4909,-415.7856 500.6346,-405.5202 500.6346,-405.5202"/>
<text text-anchor="start" x="6.6685" y="-425.5" font-family="Arial" font-size="10.00" fill="#000000">FOREIGN KEY (child_id) REFERENCES flavor_profiles(id) ON UPDATE CASCADE ON DELETE RESTRICT</text>
</g>
<!-- public.flavor_profile_trees&#45;&gt;public.flavor_profiles -->
<g id="edge2" class="edge">
<title>public.flavor_profile_trees:parent_id&#45;&gt;public.flavor_profiles:id</title>
<path fill="none" stroke="#000000" d="M667.6328,-457.6924C711.8391,-430.2266 697.1537,-210.5 645,-210.5"/>
<polygon fill="#000000" stroke="#000000" points="667.6005,-457.7017 656.7408,-456.1798 662.8003,-459.1009 658,-460.5 658,-460.5 658,-460.5 662.8003,-459.1009 659.2592,-464.8202 667.6005,-457.7017 667.6005,-457.7017"/>
<text text-anchor="start" x="156.7745" y="-470.5" font-family="Arial" font-size="10.00" fill="#000000">FOREIGN KEY (parent_id) REFERENCES flavor_profiles(id) ON UPDATE CASCADE ON DELETE RESTRICT</text>
</g>
<!-- public.bean_flavor_profiles -->
<g id="node3" class="node">
<title>public.bean_flavor_profiles</title>
<polygon fill="#efefef" stroke="transparent" points="763,-535.5 763,-570.5 1088,-570.5 1088,-535.5 763,-535.5"/>
<polygon fill="none" stroke="#000000" points="763,-535.5 763,-570.5 1088,-570.5 1088,-535.5 763,-535.5"/>
<text text-anchor="start" x="769.8487" y="-548.3" font-family="Arial Bold" font-size="18.00" fill="#000000">public.bean_flavor_profiles</text>
<text text-anchor="start" x="983.8975" y="-548.3" font-family="Arial" font-size="14.00" fill="#000000"> </text>
<text text-anchor="start" x="987.7881" y="-548.3" font-family="Arial" font-size="14.00" fill="#666666">[BASE TABLE]</text>
<polygon fill="none" stroke="#000000" points="763,-505.5 763,-535.5 1088,-535.5 1088,-505.5 763,-505.5"/>
<text text-anchor="start" x="770" y="-516.9" font-family="Arial" font-size="14.00" fill="#000000">id </text>
<text text-anchor="start" x="784.7798" y="-516.9" font-family="Arial" font-size="14.00" fill="#666666">[text]</text>
<polygon fill="none" stroke="#000000" points="763,-475.5 763,-505.5 1088,-505.5 1088,-475.5 763,-475.5"/>
<text text-anchor="start" x="770" y="-486.9" font-family="Arial" font-size="14.00" fill="#000000">bean_id </text>
<text text-anchor="start" x="823.6928" y="-486.9" font-family="Arial" font-size="14.00" fill="#666666">[text]</text>
<polygon fill="none" stroke="#000000" points="763,-445.5 763,-475.5 1088,-475.5 1088,-445.5 763,-445.5"/>
<text text-anchor="start" x="770" y="-456.9" font-family="Arial" font-size="14.00" fill="#000000">flavor_profile_id </text>
<text text-anchor="start" x="872.6802" y="-456.9" font-family="Arial" font-size="14.00" fill="#666666">[text]</text>
<polygon fill="none" stroke="#000000" points="763,-415.5 763,-445.5 1088,-445.5 1088,-415.5 763,-415.5"/>
<text text-anchor="start" x="770" y="-426.9" font-family="Arial" font-size="14.00" fill="#000000">created_at </text>
<text text-anchor="start" x="840.028" y="-426.9" font-family="Arial" font-size="14.00" fill="#666666">[timestamp(3) without time zone]</text>
<polygon fill="none" stroke="#000000" points="763,-385.5 763,-415.5 1088,-415.5 1088,-385.5 763,-385.5"/>
<text text-anchor="start" x="770" y="-396.9" font-family="Arial" font-size="14.00" fill="#000000">updated_at </text>
<text text-anchor="start" x="843.9326" y="-396.9" font-family="Arial" font-size="14.00" fill="#666666">[timestamp(3) without time zone]</text>
</g>
<!-- public.bean_flavor_profiles&#45;&gt;public.flavor_profiles -->
<g id="edge3" class="edge">
<title>public.bean_flavor_profiles:flavor_profile_id&#45;&gt;public.flavor_profiles:id</title>
<path fill="none" stroke="#000000" d="M752.9569,-459.7029C709.1883,-452.0928 732.8243,-391.4937 710,-343 682.0669,-283.6518 710.5932,-210.5 645,-210.5"/>
<polygon fill="#000000" stroke="#000000" points="753.0313,-459.7087 762.6439,-464.9859 758.0157,-460.1044 763,-460.5 763,-460.5 763,-460.5 758.0157,-460.1044 763.3561,-456.0141 753.0313,-459.7087 753.0313,-459.7087"/>
<text text-anchor="start" x="770.333" y="-470.5" font-family="Arial" font-size="10.00" fill="#000000">FOREIGN KEY (flavor_profile_id) REFERENCES flavor_profiles(id) ON UPDATE CASCADE ON DELETE RESTRICT</text>
</g>
</g>
</svg>
