<?xml version="1.0" encoding="UTF-8" standalone="no"?>
<!DOCTYPE svg PUBLIC "-//W3C//DTD SVG 1.1//EN"
 "http://www.w3.org/Graphics/SVG/1.1/DTD/svg11.dtd">
<!-- Generated by graphviz version 2.40.1 (20161225.0304)
 -->
<!-- Title: public.bean_tastings Pages: 1 -->
<svg width="1261pt" height="652pt"
 viewBox="0.00 0.00 1261.00 652.00" xmlns="http://www.w3.org/2000/svg" xmlns:xlink="http://www.w3.org/1999/xlink">
<g id="graph0" class="graph" transform="scale(1 1) rotate(0) translate(4 648)">
<title>public.bean_tastings</title>
<polygon fill="#ffffff" stroke="transparent" points="-4,4 -4,-648 1257,-648 1257,4 -4,4"/>
<!-- public.bean_tastings -->
<g id="node1" class="node">
<title>public.bean_tastings</title>
<polygon fill="#efefef" stroke="transparent" points="481,-562.5 481,-597.5 786,-597.5 786,-562.5 481,-562.5"/>
<polygon fill="none" stroke="#000000" points="481,-562.5 481,-597.5 786,-597.5 786,-562.5 481,-562.5"/>
<text text-anchor="start" x="487.6873" y="-575.3" font-family="Arial Bold" font-size="18.00" fill="#000000">public.bean_tastings</text>
<text text-anchor="start" x="651.7447" y="-575.3" font-family="Arial" font-size="14.00" fill="#000000">    </text>
<text text-anchor="start" x="685.9495" y="-575.3" font-family="Arial" font-size="14.00" fill="#666666">[BASE TABLE]</text>
<polygon fill="none" stroke="#000000" points="481,-532.5 481,-562.5 786,-562.5 786,-532.5 481,-532.5"/>
<text text-anchor="start" x="488" y="-543.9" font-family="Arial" font-size="14.00" fill="#000000">tasting_id </text>
<text text-anchor="start" x="551.798" y="-543.9" font-family="Arial" font-size="14.00" fill="#666666">[text]</text>
<polygon fill="none" stroke="#000000" points="481,-502.5 481,-532.5 786,-532.5 786,-502.5 481,-502.5"/>
<text text-anchor="start" x="488" y="-513.9" font-family="Arial" font-size="14.00" fill="#000000">bean_id </text>
<text text-anchor="start" x="541.6928" y="-513.9" font-family="Arial" font-size="14.00" fill="#666666">[text]</text>
<polygon fill="none" stroke="#000000" points="481,-472.5 481,-502.5 786,-502.5 786,-472.5 481,-472.5"/>
<text text-anchor="start" x="488" y="-483.9" font-family="Arial" font-size="14.00" fill="#000000">created_at </text>
<text text-anchor="start" x="558.028" y="-483.9" font-family="Arial" font-size="14.00" fill="#666666">[timestamp(3) without time zone]</text>
<polygon fill="none" stroke="#000000" points="481,-442.5 481,-472.5 786,-472.5 786,-442.5 481,-442.5"/>
<text text-anchor="start" x="488" y="-453.9" font-family="Arial" font-size="14.00" fill="#000000">updated_at </text>
<text text-anchor="start" x="561.9326" y="-453.9" font-family="Arial" font-size="14.00" fill="#666666">[timestamp(3) without time zone]</text>
<polygon fill="none" stroke="#000000" stroke-width="3" points="479,-441.5 479,-599.5 787,-599.5 787,-441.5 479,-441.5"/>
</g>
<!-- public.tastings -->
<g id="node2" class="node">
<title>public.tastings</title>
<polygon fill="#efefef" stroke="transparent" points="252,-282.5 252,-317.5 586,-317.5 586,-282.5 252,-282.5"/>
<polygon fill="none" stroke="#000000" points="252,-282.5 252,-317.5 586,-317.5 586,-282.5 252,-282.5"/>
<text text-anchor="start" x="298.2028" y="-295.3" font-family="Arial Bold" font-size="18.00" fill="#000000">public.tastings</text>
<text text-anchor="start" x="412.2292" y="-295.3" font-family="Arial" font-size="14.00" fill="#000000">    </text>
<text text-anchor="start" x="446.434" y="-295.3" font-family="Arial" font-size="14.00" fill="#666666">[BASE TABLE]</text>
<polygon fill="none" stroke="#000000" points="252,-252.5 252,-282.5 586,-282.5 586,-252.5 252,-252.5"/>
<text text-anchor="start" x="259" y="-263.9" font-family="Arial" font-size="14.00" fill="#000000">id    </text>
<text text-anchor="start" x="304.094" y="-263.9" font-family="Arial" font-size="14.00" fill="#666666">[text]</text>
<polygon fill="none" stroke="#000000" points="252,-222.5 252,-252.5 586,-252.5 586,-222.5 252,-222.5"/>
<text text-anchor="start" x="259" y="-233.9" font-family="Arial" font-size="14.00" fill="#000000">name    </text>
<text text-anchor="start" x="328.2132" y="-233.9" font-family="Arial" font-size="14.00" fill="#666666">[text]</text>
<polygon fill="none" stroke="#000000" points="252,-192.5 252,-222.5 586,-222.5 586,-192.5 252,-192.5"/>
<text text-anchor="start" x="259" y="-203.9" font-family="Arial" font-size="14.00" fill="#000000">description    </text>
<text text-anchor="start" x="360.8822" y="-203.9" font-family="Arial" font-size="14.00" fill="#666666">[text]</text>
<polygon fill="none" stroke="#000000" points="252,-162.5 252,-192.5 586,-192.5 586,-162.5 252,-162.5"/>
<text text-anchor="start" x="259" y="-173.9" font-family="Arial" font-size="14.00" fill="#000000">acidity    </text>
<text text-anchor="start" x="332.8738" y="-173.9" font-family="Arial" font-size="14.00" fill="#666666">[integer]</text>
<polygon fill="none" stroke="#000000" points="252,-132.5 252,-162.5 586,-162.5 586,-132.5 252,-132.5"/>
<text text-anchor="start" x="259" y="-143.9" font-family="Arial" font-size="14.00" fill="#000000">richness    </text>
<text text-anchor="start" x="345.3198" y="-143.9" font-family="Arial" font-size="14.00" fill="#666666">[integer]</text>
<polygon fill="none" stroke="#000000" points="252,-102.5 252,-132.5 586,-132.5 586,-102.5 252,-102.5"/>
<text text-anchor="start" x="258.7546" y="-113.9" font-family="Arial" font-size="14.00" fill="#000000">conducted_at    </text>
<text text-anchor="start" x="377.0014" y="-113.9" font-family="Arial" font-size="14.00" fill="#666666">[timestamp(3) without time zone]</text>
<polygon fill="none" stroke="#000000" points="252,-72.5 252,-102.5 586,-102.5 586,-72.5 252,-72.5"/>
<text text-anchor="start" x="259" y="-83.9" font-family="Arial" font-size="14.00" fill="#000000">created_at    </text>
<text text-anchor="start" x="359.3422" y="-83.9" font-family="Arial" font-size="14.00" fill="#666666">[timestamp(3) without time zone]</text>
<polygon fill="none" stroke="#000000" points="252,-42.5 252,-72.5 586,-72.5 586,-42.5 252,-42.5"/>
<text text-anchor="start" x="259" y="-53.9" font-family="Arial" font-size="14.00" fill="#000000">updated_at    </text>
<text text-anchor="start" x="363.2468" y="-53.9" font-family="Arial" font-size="14.00" fill="#666666">[timestamp(3) without time zone]</text>
</g>
<!-- public.bean_tastings&#45;&gt;public.tastings -->
<g id="edge1" class="edge">
<title>public.bean_tastings:tasting_id&#45;&gt;public.tastings:id</title>
<path fill="none" stroke="#000000" d="M470.8638,-546.6606C417.2073,-537.1168 444.2478,-448.4531 481,-397 509.6744,-356.8558 557.3256,-401.1442 586,-361 610.1537,-327.1849 627.5556,-267.5 586,-267.5"/>
<polygon fill="#000000" stroke="#000000" points="471.0341,-546.6746 480.6286,-551.9846 476.0171,-547.0873 481,-547.5 481,-547.5 481,-547.5 476.0171,-547.0873 481.3714,-543.0154 471.0341,-546.6746 471.0341,-546.6746"/>
<text text-anchor="start" x="7.106" y="-557.5" font-family="Arial" font-size="10.00" fill="#000000">FOREIGN KEY (tasting_id) REFERENCES tastings(id) ON UPDATE CASCADE ON DELETE RESTRICT</text>
</g>
<!-- public.beans -->
<g id="node3" class="node">
<title>public.beans</title>
<polygon fill="#efefef" stroke="transparent" points="690,-282.5 690,-317.5 1010,-317.5 1010,-282.5 690,-282.5"/>
<polygon fill="none" stroke="#000000" points="690,-282.5 690,-317.5 1010,-317.5 1010,-282.5 690,-282.5"/>
<text text-anchor="start" x="735.699" y="-295.3" font-family="Arial Bold" font-size="18.00" fill="#000000">public.beans</text>
<text text-anchor="start" x="836.733" y="-295.3" font-family="Arial" font-size="14.00" fill="#000000">    </text>
<text text-anchor="start" x="870.9378" y="-295.3" font-family="Arial" font-size="14.00" fill="#666666">[BASE TABLE]</text>
<polygon fill="none" stroke="#000000" points="690,-252.5 690,-282.5 1010,-282.5 1010,-252.5 690,-252.5"/>
<text text-anchor="start" x="697" y="-263.9" font-family="Arial" font-size="14.00" fill="#000000">id    </text>
<text text-anchor="start" x="742.094" y="-263.9" font-family="Arial" font-size="14.00" fill="#666666">[text]</text>
<polygon fill="none" stroke="#000000" points="690,-222.5 690,-252.5 1010,-252.5 1010,-222.5 690,-222.5"/>
<text text-anchor="start" x="697" y="-233.9" font-family="Arial" font-size="14.00" fill="#000000">name    </text>
<text text-anchor="start" x="766.2132" y="-233.9" font-family="Arial" font-size="14.00" fill="#666666">[text]</text>
<polygon fill="none" stroke="#000000" points="690,-192.5 690,-222.5 1010,-222.5 1010,-192.5 690,-192.5"/>
<text text-anchor="start" x="697" y="-203.9" font-family="Arial" font-size="14.00" fill="#000000">description    </text>
<text text-anchor="start" x="798.8822" y="-203.9" font-family="Arial" font-size="14.00" fill="#666666">[text]</text>
<polygon fill="none" stroke="#000000" points="690,-162.5 690,-192.5 1010,-192.5 1010,-162.5 690,-162.5"/>
<text text-anchor="start" x="697" y="-173.9" font-family="Arial" font-size="14.00" fill="#000000">origin_id    </text>
<text text-anchor="start" x="784.0982" y="-173.9" font-family="Arial" font-size="14.00" fill="#666666">[text]</text>
<polygon fill="none" stroke="#000000" points="690,-132.5 690,-162.5 1010,-162.5 1010,-132.5 690,-132.5"/>
<text text-anchor="start" x="697" y="-143.9" font-family="Arial" font-size="14.00" fill="#000000">roast_level_id    </text>
<text text-anchor="start" x="817.554" y="-143.9" font-family="Arial" font-size="14.00" fill="#666666">[text]</text>
<polygon fill="none" stroke="#000000" points="690,-102.5 690,-132.5 1010,-132.5 1010,-102.5 690,-102.5"/>
<text text-anchor="start" x="697" y="-113.9" font-family="Arial" font-size="14.00" fill="#000000">processing_method_id    </text>
<text text-anchor="start" x="872.021" y="-113.9" font-family="Arial" font-size="14.00" fill="#666666">[text]</text>
<polygon fill="none" stroke="#000000" points="690,-72.5 690,-102.5 1010,-102.5 1010,-72.5 690,-72.5"/>
<text text-anchor="start" x="697" y="-83.9" font-family="Arial" font-size="14.00" fill="#000000">created_at    </text>
<text text-anchor="start" x="797.3422" y="-83.9" font-family="Arial" font-size="14.00" fill="#666666">[timestamp(3) without time zone]</text>
<polygon fill="none" stroke="#000000" points="690,-42.5 690,-72.5 1010,-72.5 1010,-42.5 690,-42.5"/>
<text text-anchor="start" x="696.7546" y="-53.9" font-family="Arial" font-size="14.00" fill="#000000">updated_at    </text>
<text text-anchor="start" x="801.0014" y="-53.9" font-family="Arial" font-size="14.00" fill="#666666">[timestamp(3) without time zone]</text>
</g>
<!-- public.bean_tastings&#45;&gt;public.beans -->
<g id="edge2" class="edge">
<title>public.bean_tastings:bean_id&#45;&gt;public.beans:id</title>
<path fill="none" stroke="#000000" d="M796.1847,-516.4035C836.2772,-506.9053 814.3601,-437.9236 786,-397 760.0447,-359.5465 715.9553,-398.4535 690,-361 666.3302,-326.8444 648.4444,-267.5 690,-267.5"/>
<polygon fill="#000000" stroke="#000000" points="795.9425,-516.4295 785.5183,-513.0259 790.9713,-516.9648 786,-517.5 786,-517.5 786,-517.5 790.9713,-516.9648 786.4817,-521.9741 795.9425,-516.4295 795.9425,-516.4295"/>
<text text-anchor="start" x="793.324" y="-527.5" font-family="Arial" font-size="10.00" fill="#000000">FOREIGN KEY (bean_id) REFERENCES beans(id) ON UPDATE CASCADE ON DELETE RESTRICT</text>
</g>
</g>
</svg>
