<?xml version="1.0" encoding="UTF-8" standalone="no"?>
<!DOCTYPE svg PUBLIC "-//W3C//DTD SVG 1.1//EN"
 "http://www.w3.org/Graphics/SVG/1.1/DTD/svg11.dtd">
<!-- Generated by graphviz version 2.40.1 (20161225.0304)
 -->
<!-- Title: public.processing_methods Pages: 1 -->
<svg width="958pt" height="712pt"
 viewBox="0.00 0.00 957.50 712.00" xmlns="http://www.w3.org/2000/svg" xmlns:xlink="http://www.w3.org/1999/xlink">
<g id="graph0" class="graph" transform="scale(1 1) rotate(0) translate(4 708)">
<title>public.processing_methods</title>
<polygon fill="#ffffff" stroke="transparent" points="-4,4 -4,-708 953.5,-708 953.5,4 -4,4"/>
<!-- public.processing_methods -->
<g id="node1" class="node">
<title>public.processing_methods</title>
<polygon fill="#efefef" stroke="transparent" points="575,-195.5 575,-230.5 904,-230.5 904,-195.5 575,-195.5"/>
<polygon fill="none" stroke="#000000" points="575,-195.5 575,-230.5 904,-230.5 904,-195.5 575,-195.5"/>
<text text-anchor="start" x="581.8471" y="-208.3" font-family="Arial Bold" font-size="18.00" fill="#000000">public.processing_methods</text>
<text text-anchor="start" x="799.8991" y="-208.3" font-family="Arial" font-size="14.00" fill="#000000"> </text>
<text text-anchor="start" x="803.7897" y="-208.3" font-family="Arial" font-size="14.00" fill="#666666">[BASE TABLE]</text>
<polygon fill="none" stroke="#000000" points="575,-165.5 575,-195.5 904,-195.5 904,-165.5 575,-165.5"/>
<text text-anchor="start" x="582" y="-176.9" font-family="Arial" font-size="14.00" fill="#000000">id </text>
<text text-anchor="start" x="596.7798" y="-176.9" font-family="Arial" font-size="14.00" fill="#666666">[text]</text>
<polygon fill="none" stroke="#000000" points="575,-135.5 575,-165.5 904,-165.5 904,-135.5 575,-135.5"/>
<text text-anchor="start" x="582" y="-146.9" font-family="Arial" font-size="14.00" fill="#000000">name </text>
<text text-anchor="start" x="620.899" y="-146.9" font-family="Arial" font-size="14.00" fill="#666666">[text]</text>
<polygon fill="none" stroke="#000000" points="575,-105.5 575,-135.5 904,-135.5 904,-105.5 575,-105.5"/>
<text text-anchor="start" x="582" y="-116.9" font-family="Arial" font-size="14.00" fill="#000000">description </text>
<text text-anchor="start" x="653.568" y="-116.9" font-family="Arial" font-size="14.00" fill="#666666">[text]</text>
<polygon fill="none" stroke="#000000" points="575,-75.5 575,-105.5 904,-105.5 904,-75.5 575,-75.5"/>
<text text-anchor="start" x="582" y="-86.9" font-family="Arial" font-size="14.00" fill="#000000">created_at </text>
<text text-anchor="start" x="652.028" y="-86.9" font-family="Arial" font-size="14.00" fill="#666666">[timestamp(3) without time zone]</text>
<polygon fill="none" stroke="#000000" points="575,-45.5 575,-75.5 904,-75.5 904,-45.5 575,-45.5"/>
<text text-anchor="start" x="582" y="-56.9" font-family="Arial" font-size="14.00" fill="#000000">updated_at </text>
<text text-anchor="start" x="655.9326" y="-56.9" font-family="Arial" font-size="14.00" fill="#666666">[timestamp(3) without time zone]</text>
<polygon fill="none" stroke="#000000" stroke-width="3" points="573,-44.5 573,-232.5 905,-232.5 905,-44.5 573,-44.5"/>
</g>
<!-- public.beans -->
<g id="node2" class="node">
<title>public.beans</title>
<polygon fill="#efefef" stroke="transparent" points="595,-625.5 595,-660.5 885,-660.5 885,-625.5 595,-625.5"/>
<polygon fill="none" stroke="#000000" points="595,-625.5 595,-660.5 885,-660.5 885,-625.5 595,-625.5"/>
<text text-anchor="start" x="640.8561" y="-638.3" font-family="Arial Bold" font-size="18.00" fill="#000000">public.beans</text>
<text text-anchor="start" x="741.8901" y="-638.3" font-family="Arial" font-size="14.00" fill="#000000"> </text>
<text text-anchor="start" x="745.7807" y="-638.3" font-family="Arial" font-size="14.00" fill="#666666">[BASE TABLE]</text>
<polygon fill="none" stroke="#000000" points="595,-595.5 595,-625.5 885,-625.5 885,-595.5 595,-595.5"/>
<text text-anchor="start" x="602" y="-606.9" font-family="Arial" font-size="14.00" fill="#000000">id </text>
<text text-anchor="start" x="616.7798" y="-606.9" font-family="Arial" font-size="14.00" fill="#666666">[text]</text>
<polygon fill="none" stroke="#000000" points="595,-565.5 595,-595.5 885,-595.5 885,-565.5 595,-565.5"/>
<text text-anchor="start" x="602" y="-576.9" font-family="Arial" font-size="14.00" fill="#000000">name </text>
<text text-anchor="start" x="640.899" y="-576.9" font-family="Arial" font-size="14.00" fill="#666666">[text]</text>
<polygon fill="none" stroke="#000000" points="595,-535.5 595,-565.5 885,-565.5 885,-535.5 595,-535.5"/>
<text text-anchor="start" x="602" y="-546.9" font-family="Arial" font-size="14.00" fill="#000000">description </text>
<text text-anchor="start" x="673.568" y="-546.9" font-family="Arial" font-size="14.00" fill="#666666">[text]</text>
<polygon fill="none" stroke="#000000" points="595,-505.5 595,-535.5 885,-535.5 885,-505.5 595,-505.5"/>
<text text-anchor="start" x="602" y="-516.9" font-family="Arial" font-size="14.00" fill="#000000">origin_id </text>
<text text-anchor="start" x="658.784" y="-516.9" font-family="Arial" font-size="14.00" fill="#666666">[text]</text>
<polygon fill="none" stroke="#000000" points="595,-475.5 595,-505.5 885,-505.5 885,-475.5 595,-475.5"/>
<text text-anchor="start" x="602" y="-486.9" font-family="Arial" font-size="14.00" fill="#000000">roast_level_id </text>
<text text-anchor="start" x="692.2398" y="-486.9" font-family="Arial" font-size="14.00" fill="#666666">[text]</text>
<polygon fill="none" stroke="#000000" points="595,-445.5 595,-475.5 885,-475.5 885,-445.5 595,-445.5"/>
<text text-anchor="start" x="602" y="-456.9" font-family="Arial" font-size="14.00" fill="#000000">processing_method_id </text>
<text text-anchor="start" x="746.7068" y="-456.9" font-family="Arial" font-size="14.00" fill="#666666">[text]</text>
<polygon fill="none" stroke="#000000" points="595,-415.5 595,-445.5 885,-445.5 885,-415.5 595,-415.5"/>
<text text-anchor="start" x="602" y="-426.9" font-family="Arial" font-size="14.00" fill="#000000">created_at </text>
<text text-anchor="start" x="672.028" y="-426.9" font-family="Arial" font-size="14.00" fill="#666666">[timestamp(3) without time zone]</text>
<polygon fill="none" stroke="#000000" points="595,-385.5 595,-415.5 885,-415.5 885,-385.5 595,-385.5"/>
<text text-anchor="start" x="601.9117" y="-396.9" font-family="Arial" font-size="14.00" fill="#000000">updated_at </text>
<text text-anchor="start" x="675.8443" y="-396.9" font-family="Arial" font-size="14.00" fill="#666666">[timestamp(3) without time zone]</text>
<polygon fill="none" stroke="#000000" points="595,-355.5 595,-385.5 885,-385.5 885,-355.5 595,-355.5"/>
<text text-anchor="start" x="602" y="-366.9" font-family="Arial" font-size="14.00" fill="#000000">package_purchase_id </text>
<text text-anchor="start" x="742.8316" y="-366.9" font-family="Arial" font-size="14.00" fill="#666666">[text]</text>
</g>
<!-- public.beans&#45;&gt;public.processing_methods -->
<g id="edge1" class="edge">
<title>public.beans:processing_method_id&#45;&gt;public.processing_methods:id</title>
<path fill="none" stroke="#000000" d="M585.0193,-459.6401C531.9116,-449.8708 553.7936,-359.2858 595,-313 686.9354,-209.7318 812.0646,-380.2682 904,-277 932.5183,-244.9662 946.8889,-180.5 904,-180.5"/>
<polygon fill="#000000" stroke="#000000" points="585.0369,-459.6416 594.6137,-464.9834 590.0185,-460.0708 595,-460.5 595,-460.5 595,-460.5 590.0185,-460.0708 595.3863,-456.0166 585.0369,-459.6416 585.0369,-459.6416"/>
<text text-anchor="start" x="7.419" y="-470.5" font-family="Arial" font-size="10.00" fill="#000000">FOREIGN KEY (processing_method_id) REFERENCES processing_methods(id) ON UPDATE CASCADE ON DELETE SET NULL</text>
</g>
</g>
</svg>
