<?xml version="1.0" encoding="UTF-8" standalone="no"?>
<!DOCTYPE svg PUBLIC "-//W3C//DTD SVG 1.1//EN"
 "http://www.w3.org/Graphics/SVG/1.1/DTD/svg11.dtd">
<!-- Generated by graphviz version 2.40.1 (20161225.0304)
 -->
<!-- Title: public.flavor_profile_trees Pages: 1 -->
<svg width="908pt" height="622pt"
 viewBox="0.00 0.00 908.00 622.00" xmlns="http://www.w3.org/2000/svg" xmlns:xlink="http://www.w3.org/1999/xlink">
<g id="graph0" class="graph" transform="scale(1 1) rotate(0) translate(4 618)">
<title>public.flavor_profile_trees</title>
<polygon fill="#ffffff" stroke="transparent" points="-4,4 -4,-618 904,-618 904,4 -4,4"/>
<!-- public.flavor_profile_trees -->
<g id="node1" class="node">
<title>public.flavor_profile_trees</title>
<polygon fill="#efefef" stroke="transparent" points="46,-532.5 46,-567.5 392,-567.5 392,-532.5 46,-532.5"/>
<polygon fill="none" stroke="#000000" points="46,-532.5 46,-567.5 392,-567.5 392,-532.5 46,-532.5"/>
<text text-anchor="start" x="52.7006" y="-545.3" font-family="Arial Bold" font-size="18.00" fill="#000000">public.flavor_profile_trees</text>
<text text-anchor="start" x="257.7314" y="-545.3" font-family="Arial" font-size="14.00" fill="#000000">    </text>
<text text-anchor="start" x="291.9362" y="-545.3" font-family="Arial" font-size="14.00" fill="#666666">[BASE TABLE]</text>
<polygon fill="none" stroke="#000000" points="46,-502.5 46,-532.5 392,-532.5 392,-502.5 46,-502.5"/>
<text text-anchor="start" x="53" y="-513.9" font-family="Arial" font-size="14.00" fill="#000000">id </text>
<text text-anchor="start" x="67.7798" y="-513.9" font-family="Arial" font-size="14.00" fill="#666666">[text]</text>
<polygon fill="none" stroke="#000000" points="46,-472.5 46,-502.5 392,-502.5 392,-472.5 46,-472.5"/>
<text text-anchor="start" x="53" y="-483.9" font-family="Arial" font-size="14.00" fill="#000000">parent_id </text>
<text text-anchor="start" x="115.244" y="-483.9" font-family="Arial" font-size="14.00" fill="#666666">[text]</text>
<polygon fill="none" stroke="#000000" points="46,-442.5 46,-472.5 392,-472.5 392,-442.5 46,-442.5"/>
<text text-anchor="start" x="53" y="-453.9" font-family="Arial" font-size="14.00" fill="#000000">child_id </text>
<text text-anchor="start" x="104.3408" y="-453.9" font-family="Arial" font-size="14.00" fill="#666666">[text]</text>
<polygon fill="none" stroke="#000000" points="46,-412.5 46,-442.5 392,-442.5 392,-412.5 46,-412.5"/>
<text text-anchor="start" x="53" y="-423.9" font-family="Arial" font-size="14.00" fill="#000000">created_at </text>
<text text-anchor="start" x="123.028" y="-423.9" font-family="Arial" font-size="14.00" fill="#666666">[timestamp(3) without time zone]</text>
<polygon fill="none" stroke="#000000" points="46,-382.5 46,-412.5 392,-412.5 392,-382.5 46,-382.5"/>
<text text-anchor="start" x="53" y="-393.9" font-family="Arial" font-size="14.00" fill="#000000">updated_at </text>
<text text-anchor="start" x="126.9326" y="-393.9" font-family="Arial" font-size="14.00" fill="#666666">[timestamp(3) without time zone]</text>
<polygon fill="none" stroke="#000000" stroke-width="3" points="44.5,-381.5 44.5,-569.5 393.5,-569.5 393.5,-381.5 44.5,-381.5"/>
</g>
<!-- public.flavor_profiles -->
<g id="node2" class="node">
<title>public.flavor_profiles</title>
<polygon fill="#efefef" stroke="transparent" points="59,-222.5 59,-257.5 379,-257.5 379,-222.5 59,-222.5"/>
<polygon fill="none" stroke="#000000" points="59,-222.5 59,-257.5 379,-257.5 379,-222.5 59,-222.5"/>
<text text-anchor="start" x="73.2071" y="-235.3" font-family="Arial Bold" font-size="18.00" fill="#000000">public.flavor_profiles</text>
<text text-anchor="start" x="237.2249" y="-235.3" font-family="Arial" font-size="14.00" fill="#000000">    </text>
<text text-anchor="start" x="271.4297" y="-235.3" font-family="Arial" font-size="14.00" fill="#666666">[BASE TABLE]</text>
<polygon fill="none" stroke="#000000" points="59,-192.5 59,-222.5 379,-222.5 379,-192.5 59,-192.5"/>
<text text-anchor="start" x="66" y="-203.9" font-family="Arial" font-size="14.00" fill="#000000">id    </text>
<text text-anchor="start" x="111.094" y="-203.9" font-family="Arial" font-size="14.00" fill="#666666">[text]</text>
<polygon fill="none" stroke="#000000" points="59,-162.5 59,-192.5 379,-192.5 379,-162.5 59,-162.5"/>
<text text-anchor="start" x="66" y="-173.9" font-family="Arial" font-size="14.00" fill="#000000">value    </text>
<text text-anchor="start" x="133.6592" y="-173.9" font-family="Arial" font-size="14.00" fill="#666666">[text]</text>
<polygon fill="none" stroke="#000000" points="59,-132.5 59,-162.5 379,-162.5 379,-132.5 59,-132.5"/>
<text text-anchor="start" x="66" y="-143.9" font-family="Arial" font-size="14.00" fill="#000000">label    </text>
<text text-anchor="start" x="129.7658" y="-143.9" font-family="Arial" font-size="14.00" fill="#666666">[text]</text>
<polygon fill="none" stroke="#000000" points="59,-102.5 59,-132.5 379,-132.5 379,-102.5 59,-102.5"/>
<text text-anchor="start" x="66" y="-113.9" font-family="Arial" font-size="14.00" fill="#000000">description    </text>
<text text-anchor="start" x="167.8822" y="-113.9" font-family="Arial" font-size="14.00" fill="#666666">[text]</text>
<polygon fill="none" stroke="#000000" points="59,-72.5 59,-102.5 379,-102.5 379,-72.5 59,-72.5"/>
<text text-anchor="start" x="66" y="-83.9" font-family="Arial" font-size="14.00" fill="#000000">created_at    </text>
<text text-anchor="start" x="166.3422" y="-83.9" font-family="Arial" font-size="14.00" fill="#666666">[timestamp(3) without time zone]</text>
<polygon fill="none" stroke="#000000" points="59,-42.5 59,-72.5 379,-72.5 379,-42.5 59,-42.5"/>
<text text-anchor="start" x="65.7546" y="-53.9" font-family="Arial" font-size="14.00" fill="#000000">updated_at    </text>
<text text-anchor="start" x="170.0014" y="-53.9" font-family="Arial" font-size="14.00" fill="#666666">[timestamp(3) without time zone]</text>
</g>
<!-- public.flavor_profile_trees&#45;&gt;public.flavor_profiles -->
<g id="edge1" class="edge">
<title>public.flavor_profile_trees:parent_id&#45;&gt;public.flavor_profiles:id</title>
<path fill="none" stroke="#000000" d="M401.8644,-484.9069C452.6585,-456.6795 437.7611,-207.5 379,-207.5"/>
<polygon fill="#000000" stroke="#000000" points="401.6714,-484.9576 390.8559,-483.1479 396.8357,-486.2288 392,-487.5 392,-487.5 392,-487.5 396.8357,-486.2288 393.1441,-491.8521 401.6714,-484.9576 401.6714,-484.9576"/>
<text text-anchor="start" x="398.7745" y="-497.5" font-family="Arial" font-size="10.00" fill="#000000">FOREIGN KEY (parent_id) REFERENCES flavor_profiles(id) ON UPDATE CASCADE ON DELETE RESTRICT</text>
</g>
<!-- public.flavor_profile_trees&#45;&gt;public.flavor_profiles -->
<g id="edge2" class="edge">
<title>public.flavor_profile_trees:child_id&#45;&gt;public.flavor_profiles:id</title>
<path fill="none" stroke="#000000" d="M402.0675,-456.7828C502.3528,-442.1191 486.7843,-207.5 379,-207.5"/>
<polygon fill="#000000" stroke="#000000" points="401.9747,-456.7894 391.6802,-453.0114 396.9874,-457.1447 392,-457.5 392,-457.5 392,-457.5 396.9874,-457.1447 392.3198,-461.9886 401.9747,-456.7894 401.9747,-456.7894"/>
<text text-anchor="start" x="398.6685" y="-467.5" font-family="Arial" font-size="10.00" fill="#000000">FOREIGN KEY (child_id) REFERENCES flavor_profiles(id) ON UPDATE CASCADE ON DELETE RESTRICT</text>
</g>
</g>
</svg>
