<?xml version="1.0" encoding="UTF-8" standalone="no"?>
<!DOCTYPE svg PUBLIC "-//W3C//DTD SVG 1.1//EN"
 "http://www.w3.org/Graphics/SVG/1.1/DTD/svg11.dtd">
<!-- Generated by graphviz version 2.40.1 (20161225.0304)
 -->
<!-- Title: public.roast_levels Pages: 1 -->
<svg width="863pt" height="682pt"
 viewBox="0.00 0.00 863.00 682.00" xmlns="http://www.w3.org/2000/svg" xmlns:xlink="http://www.w3.org/1999/xlink">
<g id="graph0" class="graph" transform="scale(1 1) rotate(0) translate(4 678)">
<title>public.roast_levels</title>
<polygon fill="#ffffff" stroke="transparent" points="-4,4 -4,-678 859,-678 859,4 -4,4"/>
<!-- public.roast_levels -->
<g id="node1" class="node">
<title>public.roast_levels</title>
<polygon fill="#efefef" stroke="transparent" points="46,-195.5 46,-230.5 336,-230.5 336,-195.5 46,-195.5"/>
<polygon fill="none" stroke="#000000" points="46,-195.5 46,-230.5 336,-230.5 336,-195.5 46,-195.5"/>
<text text-anchor="start" x="68.3616" y="-208.3" font-family="Arial Bold" font-size="18.00" fill="#000000">public.roast_levels</text>
<text text-anchor="start" x="216.3846" y="-208.3" font-family="Arial" font-size="14.00" fill="#000000"> </text>
<text text-anchor="start" x="220.2752" y="-208.3" font-family="Arial" font-size="14.00" fill="#666666">[BASE TABLE]</text>
<polygon fill="none" stroke="#000000" points="46,-165.5 46,-195.5 336,-195.5 336,-165.5 46,-165.5"/>
<text text-anchor="start" x="53" y="-176.9" font-family="Arial" font-size="14.00" fill="#000000">id </text>
<text text-anchor="start" x="67.7798" y="-176.9" font-family="Arial" font-size="14.00" fill="#666666">[text]</text>
<polygon fill="none" stroke="#000000" points="46,-135.5 46,-165.5 336,-165.5 336,-135.5 46,-135.5"/>
<text text-anchor="start" x="53" y="-146.9" font-family="Arial" font-size="14.00" fill="#000000">name </text>
<text text-anchor="start" x="91.899" y="-146.9" font-family="Arial" font-size="14.00" fill="#666666">[text]</text>
<polygon fill="none" stroke="#000000" points="46,-105.5 46,-135.5 336,-135.5 336,-105.5 46,-105.5"/>
<text text-anchor="start" x="53" y="-116.9" font-family="Arial" font-size="14.00" fill="#000000">description </text>
<text text-anchor="start" x="124.568" y="-116.9" font-family="Arial" font-size="14.00" fill="#666666">[text]</text>
<polygon fill="none" stroke="#000000" points="46,-75.5 46,-105.5 336,-105.5 336,-75.5 46,-75.5"/>
<text text-anchor="start" x="53" y="-86.9" font-family="Arial" font-size="14.00" fill="#000000">created_at </text>
<text text-anchor="start" x="123.028" y="-86.9" font-family="Arial" font-size="14.00" fill="#666666">[timestamp(3) without time zone]</text>
<polygon fill="none" stroke="#000000" points="46,-45.5 46,-75.5 336,-75.5 336,-45.5 46,-45.5"/>
<text text-anchor="start" x="52.9117" y="-56.9" font-family="Arial" font-size="14.00" fill="#000000">updated_at </text>
<text text-anchor="start" x="126.8443" y="-56.9" font-family="Arial" font-size="14.00" fill="#666666">[timestamp(3) without time zone]</text>
<polygon fill="none" stroke="#000000" stroke-width="3" points="44.5,-44.5 44.5,-232.5 337.5,-232.5 337.5,-44.5 44.5,-44.5"/>
</g>
<!-- public.beans -->
<g id="node2" class="node">
<title>public.beans</title>
<polygon fill="#efefef" stroke="transparent" points="46,-595.5 46,-630.5 336,-630.5 336,-595.5 46,-595.5"/>
<polygon fill="none" stroke="#000000" points="46,-595.5 46,-630.5 336,-630.5 336,-595.5 46,-595.5"/>
<text text-anchor="start" x="91.8561" y="-608.3" font-family="Arial Bold" font-size="18.00" fill="#000000">public.beans</text>
<text text-anchor="start" x="192.8901" y="-608.3" font-family="Arial" font-size="14.00" fill="#000000"> </text>
<text text-anchor="start" x="196.7807" y="-608.3" font-family="Arial" font-size="14.00" fill="#666666">[BASE TABLE]</text>
<polygon fill="none" stroke="#000000" points="46,-565.5 46,-595.5 336,-595.5 336,-565.5 46,-565.5"/>
<text text-anchor="start" x="53" y="-576.9" font-family="Arial" font-size="14.00" fill="#000000">id </text>
<text text-anchor="start" x="67.7798" y="-576.9" font-family="Arial" font-size="14.00" fill="#666666">[text]</text>
<polygon fill="none" stroke="#000000" points="46,-535.5 46,-565.5 336,-565.5 336,-535.5 46,-535.5"/>
<text text-anchor="start" x="53" y="-546.9" font-family="Arial" font-size="14.00" fill="#000000">name </text>
<text text-anchor="start" x="91.899" y="-546.9" font-family="Arial" font-size="14.00" fill="#666666">[text]</text>
<polygon fill="none" stroke="#000000" points="46,-505.5 46,-535.5 336,-535.5 336,-505.5 46,-505.5"/>
<text text-anchor="start" x="53" y="-516.9" font-family="Arial" font-size="14.00" fill="#000000">description </text>
<text text-anchor="start" x="124.568" y="-516.9" font-family="Arial" font-size="14.00" fill="#666666">[text]</text>
<polygon fill="none" stroke="#000000" points="46,-475.5 46,-505.5 336,-505.5 336,-475.5 46,-475.5"/>
<text text-anchor="start" x="53" y="-486.9" font-family="Arial" font-size="14.00" fill="#000000">origin_id </text>
<text text-anchor="start" x="109.784" y="-486.9" font-family="Arial" font-size="14.00" fill="#666666">[text]</text>
<polygon fill="none" stroke="#000000" points="46,-445.5 46,-475.5 336,-475.5 336,-445.5 46,-445.5"/>
<text text-anchor="start" x="53" y="-456.9" font-family="Arial" font-size="14.00" fill="#000000">roast_level_id </text>
<text text-anchor="start" x="143.2398" y="-456.9" font-family="Arial" font-size="14.00" fill="#666666">[text]</text>
<polygon fill="none" stroke="#000000" points="46,-415.5 46,-445.5 336,-445.5 336,-415.5 46,-415.5"/>
<text text-anchor="start" x="53" y="-426.9" font-family="Arial" font-size="14.00" fill="#000000">processing_method_id </text>
<text text-anchor="start" x="197.7068" y="-426.9" font-family="Arial" font-size="14.00" fill="#666666">[text]</text>
<polygon fill="none" stroke="#000000" points="46,-385.5 46,-415.5 336,-415.5 336,-385.5 46,-385.5"/>
<text text-anchor="start" x="53" y="-396.9" font-family="Arial" font-size="14.00" fill="#000000">created_at </text>
<text text-anchor="start" x="123.028" y="-396.9" font-family="Arial" font-size="14.00" fill="#666666">[timestamp(3) without time zone]</text>
<polygon fill="none" stroke="#000000" points="46,-355.5 46,-385.5 336,-385.5 336,-355.5 46,-355.5"/>
<text text-anchor="start" x="52.9117" y="-366.9" font-family="Arial" font-size="14.00" fill="#000000">updated_at </text>
<text text-anchor="start" x="126.8443" y="-366.9" font-family="Arial" font-size="14.00" fill="#666666">[timestamp(3) without time zone]</text>
</g>
<!-- public.beans&#45;&gt;public.roast_levels -->
<g id="edge1" class="edge">
<title>public.beans:roast_level_id&#45;&gt;public.roast_levels:id</title>
<path fill="none" stroke="#000000" d="M345.9741,-457.9069C398.0226,-429.6795 394.6979,-180.5 336,-180.5"/>
<polygon fill="#000000" stroke="#000000" points="345.6783,-457.9837 334.8677,-456.1448 340.8391,-459.2419 336,-460.5 336,-460.5 336,-460.5 340.8391,-459.2419 337.1323,-464.8552 345.6783,-457.9837 345.6783,-457.9837"/>
<text text-anchor="start" x="343.219" y="-470.5" font-family="Arial" font-size="10.00" fill="#000000">FOREIGN KEY (roast_level_id) REFERENCES roast_levels(id) ON UPDATE CASCADE ON DELETE RESTRICT</text>
</g>
</g>
</svg>
