<?xml version="1.0" encoding="UTF-8" standalone="no"?>
<!DOCTYPE svg PUBLIC "-//W3C//DTD SVG 1.1//EN"
 "http://www.w3.org/Graphics/SVG/1.1/DTD/svg11.dtd">
<!-- Generated by graphviz version 2.40.1 (20161225.0304)
 -->
<!-- Title: public.cofee_shop_locations Pages: 1 -->
<svg width="918pt" height="712pt"
 viewBox="0.00 0.00 917.50 712.00" xmlns="http://www.w3.org/2000/svg" xmlns:xlink="http://www.w3.org/1999/xlink">
<g id="graph0" class="graph" transform="scale(1 1) rotate(0) translate(4 708)">
<title>public.cofee_shop_locations</title>
<polygon fill="#ffffff" stroke="transparent" points="-4,4 -4,-708 913.5,-708 913.5,4 -4,4"/>
<!-- public.cofee_shop_locations -->
<g id="node1" class="node">
<title>public.cofee_shop_locations</title>
<polygon fill="#efefef" stroke="transparent" points="46.5,-622.5 46.5,-657.5 383.5,-657.5 383.5,-622.5 46.5,-622.5"/>
<polygon fill="none" stroke="#000000" points="46.5,-622.5 46.5,-657.5 383.5,-657.5 383.5,-622.5 46.5,-622.5"/>
<text text-anchor="start" x="53.3349" y="-635.3" font-family="Arial Bold" font-size="18.00" fill="#000000">public.cofee_shop_locations</text>
<text text-anchor="start" x="279.4113" y="-635.3" font-family="Arial" font-size="14.00" fill="#000000"> </text>
<text text-anchor="start" x="283.3019" y="-635.3" font-family="Arial" font-size="14.00" fill="#666666">[BASE TABLE]</text>
<polygon fill="none" stroke="#000000" points="46.5,-592.5 46.5,-622.5 383.5,-622.5 383.5,-592.5 46.5,-592.5"/>
<text text-anchor="start" x="53.5" y="-603.9" font-family="Arial" font-size="14.00" fill="#000000">id </text>
<text text-anchor="start" x="68.2798" y="-603.9" font-family="Arial" font-size="14.00" fill="#666666">[text]</text>
<polygon fill="none" stroke="#000000" points="46.5,-562.5 46.5,-592.5 383.5,-592.5 383.5,-562.5 46.5,-562.5"/>
<text text-anchor="start" x="53.5" y="-573.9" font-family="Arial" font-size="14.00" fill="#000000">cofee_shop_id </text>
<text text-anchor="start" x="148.4312" y="-573.9" font-family="Arial" font-size="14.00" fill="#666666">[text]</text>
<polygon fill="none" stroke="#000000" points="46.5,-532.5 46.5,-562.5 383.5,-562.5 383.5,-532.5 46.5,-532.5"/>
<text text-anchor="start" x="53.5" y="-543.9" font-family="Arial" font-size="14.00" fill="#000000">longitude </text>
<text text-anchor="start" x="114.19" y="-543.9" font-family="Arial" font-size="14.00" fill="#666666">[double precision]</text>
<polygon fill="none" stroke="#000000" points="46.5,-502.5 46.5,-532.5 383.5,-532.5 383.5,-502.5 46.5,-502.5"/>
<text text-anchor="start" x="53.5" y="-513.9" font-family="Arial" font-size="14.00" fill="#000000">latitude </text>
<text text-anchor="start" x="102.5154" y="-513.9" font-family="Arial" font-size="14.00" fill="#666666">[double precision]</text>
<polygon fill="none" stroke="#000000" points="46.5,-472.5 46.5,-502.5 383.5,-502.5 383.5,-472.5 46.5,-472.5"/>
<text text-anchor="start" x="53.5" y="-483.9" font-family="Arial" font-size="14.00" fill="#000000">postal_code </text>
<text text-anchor="start" x="132.866" y="-483.9" font-family="Arial" font-size="14.00" fill="#666666">[text]</text>
<polygon fill="none" stroke="#000000" points="46.5,-442.5 46.5,-472.5 383.5,-472.5 383.5,-442.5 46.5,-442.5"/>
<text text-anchor="start" x="53.5" y="-453.9" font-family="Arial" font-size="14.00" fill="#000000">prefecture </text>
<text text-anchor="start" x="120.406" y="-453.9" font-family="Arial" font-size="14.00" fill="#666666">[text]</text>
<polygon fill="none" stroke="#000000" points="46.5,-412.5 46.5,-442.5 383.5,-442.5 383.5,-412.5 46.5,-412.5"/>
<text text-anchor="start" x="53.5" y="-423.9" font-family="Arial" font-size="14.00" fill="#000000">city </text>
<text text-anchor="start" x="78.3878" y="-423.9" font-family="Arial" font-size="14.00" fill="#666666">[text]</text>
<polygon fill="none" stroke="#000000" points="46.5,-382.5 46.5,-412.5 383.5,-412.5 383.5,-382.5 46.5,-382.5"/>
<text text-anchor="start" x="53.5" y="-393.9" font-family="Arial" font-size="14.00" fill="#000000">address </text>
<text text-anchor="start" x="107.1816" y="-393.9" font-family="Arial" font-size="14.00" fill="#666666">[text]</text>
<polygon fill="none" stroke="#000000" points="46.5,-352.5 46.5,-382.5 383.5,-382.5 383.5,-352.5 46.5,-352.5"/>
<text text-anchor="start" x="53.5" y="-363.9" font-family="Arial" font-size="14.00" fill="#000000">created_at </text>
<text text-anchor="start" x="123.528" y="-363.9" font-family="Arial" font-size="14.00" fill="#666666">[timestamp(3) without time zone]</text>
<polygon fill="none" stroke="#000000" points="46.5,-322.5 46.5,-352.5 383.5,-352.5 383.5,-322.5 46.5,-322.5"/>
<text text-anchor="start" x="53.5" y="-333.9" font-family="Arial" font-size="14.00" fill="#000000">updated_at </text>
<text text-anchor="start" x="127.4326" y="-333.9" font-family="Arial" font-size="14.00" fill="#666666">[timestamp(3) without time zone]</text>
<polygon fill="none" stroke="#000000" stroke-width="3" points="44.5,-321.5 44.5,-659.5 384.5,-659.5 384.5,-321.5 44.5,-321.5"/>
</g>
<!-- public.cofee_shops -->
<g id="node2" class="node">
<title>public.cofee_shops</title>
<polygon fill="#efefef" stroke="transparent" points="70.5,-162.5 70.5,-197.5 360.5,-197.5 360.5,-162.5 70.5,-162.5"/>
<polygon fill="none" stroke="#000000" points="70.5,-162.5 70.5,-197.5 360.5,-197.5 360.5,-162.5 70.5,-162.5"/>
<text text-anchor="start" x="89.8457" y="-175.3" font-family="Arial Bold" font-size="18.00" fill="#000000">public.cofee_shops</text>
<text text-anchor="start" x="243.9005" y="-175.3" font-family="Arial" font-size="14.00" fill="#000000"> </text>
<text text-anchor="start" x="247.7911" y="-175.3" font-family="Arial" font-size="14.00" fill="#666666">[BASE TABLE]</text>
<polygon fill="none" stroke="#000000" points="70.5,-132.5 70.5,-162.5 360.5,-162.5 360.5,-132.5 70.5,-132.5"/>
<text text-anchor="start" x="77.5" y="-143.9" font-family="Arial" font-size="14.00" fill="#000000">id </text>
<text text-anchor="start" x="92.2798" y="-143.9" font-family="Arial" font-size="14.00" fill="#666666">[text]</text>
<polygon fill="none" stroke="#000000" points="70.5,-102.5 70.5,-132.5 360.5,-132.5 360.5,-102.5 70.5,-102.5"/>
<text text-anchor="start" x="77.5" y="-113.9" font-family="Arial" font-size="14.00" fill="#000000">name </text>
<text text-anchor="start" x="116.399" y="-113.9" font-family="Arial" font-size="14.00" fill="#666666">[text]</text>
<polygon fill="none" stroke="#000000" points="70.5,-72.5 70.5,-102.5 360.5,-102.5 360.5,-72.5 70.5,-72.5"/>
<text text-anchor="start" x="77.5" y="-83.9" font-family="Arial" font-size="14.00" fill="#000000">created_at </text>
<text text-anchor="start" x="147.528" y="-83.9" font-family="Arial" font-size="14.00" fill="#666666">[timestamp(3) without time zone]</text>
<polygon fill="none" stroke="#000000" points="70.5,-42.5 70.5,-72.5 360.5,-72.5 360.5,-42.5 70.5,-42.5"/>
<text text-anchor="start" x="77.4117" y="-53.9" font-family="Arial" font-size="14.00" fill="#000000">updated_at </text>
<text text-anchor="start" x="151.3443" y="-53.9" font-family="Arial" font-size="14.00" fill="#666666">[timestamp(3) without time zone]</text>
</g>
<!-- public.cofee_shop_locations&#45;&gt;public.cofee_shops -->
<g id="edge1" class="edge">
<title>public.cofee_shop_locations:cofee_shop_id&#45;&gt;public.cofee_shops:id</title>
<path fill="none" stroke="#000000" d="M393.3308,-575.475C447.8603,-551.622 425.596,-324.2153 383.5,-277 290.3135,-172.4812 163.6865,-345.5188 70.5,-241 42.8455,-209.9824 28.9444,-147.5 70.5,-147.5"/>
<polygon fill="#000000" stroke="#000000" points="393.2944,-575.4825 382.5921,-573.0925 388.3972,-576.4912 383.5,-577.5 383.5,-577.5 383.5,-577.5 388.3972,-576.4912 384.4079,-581.9075 393.2944,-575.4825 393.2944,-575.4825"/>
<text text-anchor="start" x="390.368" y="-587.5" font-family="Arial" font-size="10.00" fill="#000000">FOREIGN KEY (cofee_shop_id) REFERENCES cofee_shops(id) ON UPDATE CASCADE ON DELETE RESTRICT</text>
</g>
</g>
</svg>
