<?xml version="1.0" encoding="UTF-8" standalone="no"?>
<!DOCTYPE svg PUBLIC "-//W3C//DTD SVG 1.1//EN"
 "http://www.w3.org/Graphics/SVG/1.1/DTD/svg11.dtd">
<!-- Generated by graphviz version 2.40.1 (20161225.0304)
 -->
<!-- Title: public.cofee_shops Pages: 1 -->
<svg width="915pt" height="712pt"
 viewBox="0.00 0.00 914.50 712.00" xmlns="http://www.w3.org/2000/svg" xmlns:xlink="http://www.w3.org/1999/xlink">
<g id="graph0" class="graph" transform="scale(1 1) rotate(0) translate(4 708)">
<title>public.cofee_shops</title>
<polygon fill="#ffffff" stroke="transparent" points="-4,4 -4,-708 910.5,-708 910.5,4 -4,4"/>
<!-- public.cofee_shops -->
<g id="node1" class="node">
<title>public.cofee_shops</title>
<polygon fill="#efefef" stroke="transparent" points="67.5,-165.5 67.5,-200.5 357.5,-200.5 357.5,-165.5 67.5,-165.5"/>
<polygon fill="none" stroke="#000000" points="67.5,-165.5 67.5,-200.5 357.5,-200.5 357.5,-165.5 67.5,-165.5"/>
<text text-anchor="start" x="86.8457" y="-178.3" font-family="Arial Bold" font-size="18.00" fill="#000000">public.cofee_shops</text>
<text text-anchor="start" x="240.9005" y="-178.3" font-family="Arial" font-size="14.00" fill="#000000"> </text>
<text text-anchor="start" x="244.7911" y="-178.3" font-family="Arial" font-size="14.00" fill="#666666">[BASE TABLE]</text>
<polygon fill="none" stroke="#000000" points="67.5,-135.5 67.5,-165.5 357.5,-165.5 357.5,-135.5 67.5,-135.5"/>
<text text-anchor="start" x="74.5" y="-146.9" font-family="Arial" font-size="14.00" fill="#000000">id </text>
<text text-anchor="start" x="89.2798" y="-146.9" font-family="Arial" font-size="14.00" fill="#666666">[text]</text>
<polygon fill="none" stroke="#000000" points="67.5,-105.5 67.5,-135.5 357.5,-135.5 357.5,-105.5 67.5,-105.5"/>
<text text-anchor="start" x="74.5" y="-116.9" font-family="Arial" font-size="14.00" fill="#000000">name </text>
<text text-anchor="start" x="113.399" y="-116.9" font-family="Arial" font-size="14.00" fill="#666666">[text]</text>
<polygon fill="none" stroke="#000000" points="67.5,-75.5 67.5,-105.5 357.5,-105.5 357.5,-75.5 67.5,-75.5"/>
<text text-anchor="start" x="74.5" y="-86.9" font-family="Arial" font-size="14.00" fill="#000000">created_at </text>
<text text-anchor="start" x="144.528" y="-86.9" font-family="Arial" font-size="14.00" fill="#666666">[timestamp(3) without time zone]</text>
<polygon fill="none" stroke="#000000" points="67.5,-45.5 67.5,-75.5 357.5,-75.5 357.5,-45.5 67.5,-45.5"/>
<text text-anchor="start" x="74.4117" y="-56.9" font-family="Arial" font-size="14.00" fill="#000000">updated_at </text>
<text text-anchor="start" x="148.3443" y="-56.9" font-family="Arial" font-size="14.00" fill="#666666">[timestamp(3) without time zone]</text>
<polygon fill="none" stroke="#000000" stroke-width="3" points="66,-44.5 66,-202.5 359,-202.5 359,-44.5 66,-44.5"/>
</g>
<!-- public.cofee_shop_locations -->
<g id="node2" class="node">
<title>public.cofee_shop_locations</title>
<polygon fill="#efefef" stroke="transparent" points="43.5,-625.5 43.5,-660.5 380.5,-660.5 380.5,-625.5 43.5,-625.5"/>
<polygon fill="none" stroke="#000000" points="43.5,-625.5 43.5,-660.5 380.5,-660.5 380.5,-625.5 43.5,-625.5"/>
<text text-anchor="start" x="50.3349" y="-638.3" font-family="Arial Bold" font-size="18.00" fill="#000000">public.cofee_shop_locations</text>
<text text-anchor="start" x="276.4113" y="-638.3" font-family="Arial" font-size="14.00" fill="#000000"> </text>
<text text-anchor="start" x="280.3019" y="-638.3" font-family="Arial" font-size="14.00" fill="#666666">[BASE TABLE]</text>
<polygon fill="none" stroke="#000000" points="43.5,-595.5 43.5,-625.5 380.5,-625.5 380.5,-595.5 43.5,-595.5"/>
<text text-anchor="start" x="50.5" y="-606.9" font-family="Arial" font-size="14.00" fill="#000000">id </text>
<text text-anchor="start" x="65.2798" y="-606.9" font-family="Arial" font-size="14.00" fill="#666666">[text]</text>
<polygon fill="none" stroke="#000000" points="43.5,-565.5 43.5,-595.5 380.5,-595.5 380.5,-565.5 43.5,-565.5"/>
<text text-anchor="start" x="50.5" y="-576.9" font-family="Arial" font-size="14.00" fill="#000000">cofee_shop_id </text>
<text text-anchor="start" x="145.4312" y="-576.9" font-family="Arial" font-size="14.00" fill="#666666">[text]</text>
<polygon fill="none" stroke="#000000" points="43.5,-535.5 43.5,-565.5 380.5,-565.5 380.5,-535.5 43.5,-535.5"/>
<text text-anchor="start" x="50.5" y="-546.9" font-family="Arial" font-size="14.00" fill="#000000">longitude </text>
<text text-anchor="start" x="111.19" y="-546.9" font-family="Arial" font-size="14.00" fill="#666666">[double precision]</text>
<polygon fill="none" stroke="#000000" points="43.5,-505.5 43.5,-535.5 380.5,-535.5 380.5,-505.5 43.5,-505.5"/>
<text text-anchor="start" x="50.5" y="-516.9" font-family="Arial" font-size="14.00" fill="#000000">latitude </text>
<text text-anchor="start" x="99.5154" y="-516.9" font-family="Arial" font-size="14.00" fill="#666666">[double precision]</text>
<polygon fill="none" stroke="#000000" points="43.5,-475.5 43.5,-505.5 380.5,-505.5 380.5,-475.5 43.5,-475.5"/>
<text text-anchor="start" x="50.5" y="-486.9" font-family="Arial" font-size="14.00" fill="#000000">postal_code </text>
<text text-anchor="start" x="129.866" y="-486.9" font-family="Arial" font-size="14.00" fill="#666666">[text]</text>
<polygon fill="none" stroke="#000000" points="43.5,-445.5 43.5,-475.5 380.5,-475.5 380.5,-445.5 43.5,-445.5"/>
<text text-anchor="start" x="50.5" y="-456.9" font-family="Arial" font-size="14.00" fill="#000000">prefecture </text>
<text text-anchor="start" x="117.406" y="-456.9" font-family="Arial" font-size="14.00" fill="#666666">[text]</text>
<polygon fill="none" stroke="#000000" points="43.5,-415.5 43.5,-445.5 380.5,-445.5 380.5,-415.5 43.5,-415.5"/>
<text text-anchor="start" x="50.5" y="-426.9" font-family="Arial" font-size="14.00" fill="#000000">city </text>
<text text-anchor="start" x="75.3878" y="-426.9" font-family="Arial" font-size="14.00" fill="#666666">[text]</text>
<polygon fill="none" stroke="#000000" points="43.5,-385.5 43.5,-415.5 380.5,-415.5 380.5,-385.5 43.5,-385.5"/>
<text text-anchor="start" x="50.5" y="-396.9" font-family="Arial" font-size="14.00" fill="#000000">address </text>
<text text-anchor="start" x="104.1816" y="-396.9" font-family="Arial" font-size="14.00" fill="#666666">[text]</text>
<polygon fill="none" stroke="#000000" points="43.5,-355.5 43.5,-385.5 380.5,-385.5 380.5,-355.5 43.5,-355.5"/>
<text text-anchor="start" x="50.5" y="-366.9" font-family="Arial" font-size="14.00" fill="#000000">created_at </text>
<text text-anchor="start" x="120.528" y="-366.9" font-family="Arial" font-size="14.00" fill="#666666">[timestamp(3) without time zone]</text>
<polygon fill="none" stroke="#000000" points="43.5,-325.5 43.5,-355.5 380.5,-355.5 380.5,-325.5 43.5,-325.5"/>
<text text-anchor="start" x="50.5" y="-336.9" font-family="Arial" font-size="14.00" fill="#000000">updated_at </text>
<text text-anchor="start" x="124.4326" y="-336.9" font-family="Arial" font-size="14.00" fill="#666666">[timestamp(3) without time zone]</text>
</g>
<!-- public.cofee_shop_locations&#45;&gt;public.cofee_shops -->
<g id="edge1" class="edge">
<title>public.cofee_shop_locations:cofee_shop_id&#45;&gt;public.cofee_shops:id</title>
<path fill="none" stroke="#000000" d="M390.5656,-578.3466C444.1268,-553.9528 422.0898,-329.6475 380.5,-283 287.3135,-178.4812 160.6865,-351.5188 67.5,-247 38.9581,-214.9872 24.6111,-150.5 67.5,-150.5"/>
<polygon fill="#000000" stroke="#000000" points="390.2787,-578.4079 379.5586,-576.0996 385.3894,-579.454 380.5,-580.5 380.5,-580.5 380.5,-580.5 385.3894,-579.454 381.4414,-584.9004 390.2787,-578.4079 390.2787,-578.4079"/>
<text text-anchor="start" x="387.368" y="-590.5" font-family="Arial" font-size="10.00" fill="#000000">FOREIGN KEY (cofee_shop_id) REFERENCES cofee_shops(id) ON UPDATE CASCADE ON DELETE RESTRICT</text>
</g>
</g>
</svg>
