<?xml version="1.0" encoding="UTF-8" standalone="no"?>
<!DOCTYPE svg PUBLIC "-//W3C//DTD SVG 1.1//EN"
 "http://www.w3.org/Graphics/SVG/1.1/DTD/svg11.dtd">
<!-- Generated by graphviz version 2.40.1 (20161225.0304)
 -->
<!-- Title: public.beans_packs Pages: 1 -->
<svg width="1239pt" height="682pt"
 viewBox="0.00 0.00 1239.00 682.00" xmlns="http://www.w3.org/2000/svg" xmlns:xlink="http://www.w3.org/1999/xlink">
<g id="graph0" class="graph" transform="scale(1 1) rotate(0) translate(4 678)">
<title>public.beans_packs</title>
<polygon fill="#ffffff" stroke="transparent" points="-4,4 -4,-678 1235,-678 1235,4 -4,4"/>
<!-- public.beans_packs -->
<g id="node1" class="node">
<title>public.beans_packs</title>
<polygon fill="#efefef" stroke="transparent" points="467,-592.5 467,-627.5 766,-627.5 766,-592.5 467,-592.5"/>
<polygon fill="none" stroke="#000000" points="467,-592.5 467,-627.5 766,-627.5 766,-592.5 467,-592.5"/>
<text text-anchor="start" x="473.6897" y="-605.3" font-family="Arial Bold" font-size="18.00" fill="#000000">public.beans_packs</text>
<text text-anchor="start" x="631.7423" y="-605.3" font-family="Arial" font-size="14.00" fill="#000000">    </text>
<text text-anchor="start" x="665.9471" y="-605.3" font-family="Arial" font-size="14.00" fill="#666666">[BASE TABLE]</text>
<polygon fill="none" stroke="#000000" points="467,-562.5 467,-592.5 766,-592.5 766,-562.5 467,-562.5"/>
<text text-anchor="start" x="474" y="-573.9" font-family="Arial" font-size="14.00" fill="#000000">id </text>
<text text-anchor="start" x="488.7798" y="-573.9" font-family="Arial" font-size="14.00" fill="#666666">[text]</text>
<polygon fill="none" stroke="#000000" points="467,-532.5 467,-562.5 766,-562.5 766,-532.5 467,-532.5"/>
<text text-anchor="start" x="474" y="-543.9" font-family="Arial" font-size="14.00" fill="#000000">bean_id </text>
<text text-anchor="start" x="527.6928" y="-543.9" font-family="Arial" font-size="14.00" fill="#666666">[text]</text>
<polygon fill="none" stroke="#000000" points="467,-502.5 467,-532.5 766,-532.5 766,-502.5 467,-502.5"/>
<text text-anchor="start" x="474" y="-513.9" font-family="Arial" font-size="14.00" fill="#000000">pack_id </text>
<text text-anchor="start" x="526.1276" y="-513.9" font-family="Arial" font-size="14.00" fill="#666666">[text]</text>
<polygon fill="none" stroke="#000000" points="467,-472.5 467,-502.5 766,-502.5 766,-472.5 467,-472.5"/>
<text text-anchor="start" x="474" y="-483.9" font-family="Arial" font-size="14.00" fill="#000000">created_at </text>
<text text-anchor="start" x="544.028" y="-483.9" font-family="Arial" font-size="14.00" fill="#666666">[timestamp(3) without time zone]</text>
<polygon fill="none" stroke="#000000" points="467,-442.5 467,-472.5 766,-472.5 766,-442.5 467,-442.5"/>
<text text-anchor="start" x="474" y="-453.9" font-family="Arial" font-size="14.00" fill="#000000">updated_at </text>
<text text-anchor="start" x="547.9326" y="-453.9" font-family="Arial" font-size="14.00" fill="#666666">[timestamp(3) without time zone]</text>
<polygon fill="none" stroke="#000000" stroke-width="3" points="465,-441.5 465,-629.5 767,-629.5 767,-441.5 465,-441.5"/>
</g>
<!-- public.beans -->
<g id="node2" class="node">
<title>public.beans</title>
<polygon fill="#efefef" stroke="transparent" points="245,-282.5 245,-317.5 565,-317.5 565,-282.5 245,-282.5"/>
<polygon fill="none" stroke="#000000" points="245,-282.5 245,-317.5 565,-317.5 565,-282.5 245,-282.5"/>
<text text-anchor="start" x="290.699" y="-295.3" font-family="Arial Bold" font-size="18.00" fill="#000000">public.beans</text>
<text text-anchor="start" x="391.733" y="-295.3" font-family="Arial" font-size="14.00" fill="#000000">    </text>
<text text-anchor="start" x="425.9378" y="-295.3" font-family="Arial" font-size="14.00" fill="#666666">[BASE TABLE]</text>
<polygon fill="none" stroke="#000000" points="245,-252.5 245,-282.5 565,-282.5 565,-252.5 245,-252.5"/>
<text text-anchor="start" x="252" y="-263.9" font-family="Arial" font-size="14.00" fill="#000000">id    </text>
<text text-anchor="start" x="297.094" y="-263.9" font-family="Arial" font-size="14.00" fill="#666666">[text]</text>
<polygon fill="none" stroke="#000000" points="245,-222.5 245,-252.5 565,-252.5 565,-222.5 245,-222.5"/>
<text text-anchor="start" x="252" y="-233.9" font-family="Arial" font-size="14.00" fill="#000000">name    </text>
<text text-anchor="start" x="321.2132" y="-233.9" font-family="Arial" font-size="14.00" fill="#666666">[text]</text>
<polygon fill="none" stroke="#000000" points="245,-192.5 245,-222.5 565,-222.5 565,-192.5 245,-192.5"/>
<text text-anchor="start" x="252" y="-203.9" font-family="Arial" font-size="14.00" fill="#000000">description    </text>
<text text-anchor="start" x="353.8822" y="-203.9" font-family="Arial" font-size="14.00" fill="#666666">[text]</text>
<polygon fill="none" stroke="#000000" points="245,-162.5 245,-192.5 565,-192.5 565,-162.5 245,-162.5"/>
<text text-anchor="start" x="252" y="-173.9" font-family="Arial" font-size="14.00" fill="#000000">origin_id    </text>
<text text-anchor="start" x="339.0982" y="-173.9" font-family="Arial" font-size="14.00" fill="#666666">[text]</text>
<polygon fill="none" stroke="#000000" points="245,-132.5 245,-162.5 565,-162.5 565,-132.5 245,-132.5"/>
<text text-anchor="start" x="252" y="-143.9" font-family="Arial" font-size="14.00" fill="#000000">roast_level_id    </text>
<text text-anchor="start" x="372.554" y="-143.9" font-family="Arial" font-size="14.00" fill="#666666">[text]</text>
<polygon fill="none" stroke="#000000" points="245,-102.5 245,-132.5 565,-132.5 565,-102.5 245,-102.5"/>
<text text-anchor="start" x="252" y="-113.9" font-family="Arial" font-size="14.00" fill="#000000">processing_method_id    </text>
<text text-anchor="start" x="427.021" y="-113.9" font-family="Arial" font-size="14.00" fill="#666666">[text]</text>
<polygon fill="none" stroke="#000000" points="245,-72.5 245,-102.5 565,-102.5 565,-72.5 245,-72.5"/>
<text text-anchor="start" x="252" y="-83.9" font-family="Arial" font-size="14.00" fill="#000000">created_at    </text>
<text text-anchor="start" x="352.3422" y="-83.9" font-family="Arial" font-size="14.00" fill="#666666">[timestamp(3) without time zone]</text>
<polygon fill="none" stroke="#000000" points="245,-42.5 245,-72.5 565,-72.5 565,-42.5 245,-42.5"/>
<text text-anchor="start" x="251.7546" y="-53.9" font-family="Arial" font-size="14.00" fill="#000000">updated_at    </text>
<text text-anchor="start" x="356.0014" y="-53.9" font-family="Arial" font-size="14.00" fill="#666666">[timestamp(3) without time zone]</text>
</g>
<!-- public.beans_packs&#45;&gt;public.beans -->
<g id="edge1" class="edge">
<title>public.beans_packs:bean_id&#45;&gt;public.beans:id</title>
<path fill="none" stroke="#000000" d="M456.8688,-546.6641C403.2687,-537.1602 430.8094,-448.8497 467,-397 493.5581,-358.9506 538.4419,-399.0494 565,-361 588.7846,-326.9242 606.5556,-267.5 565,-267.5"/>
<polygon fill="#000000" stroke="#000000" points="457.0339,-546.6777 466.6299,-551.9848 462.0169,-547.0888 467,-547.5 467,-547.5 467,-547.5 462.0169,-547.0888 467.3701,-543.0152 457.0339,-546.6777 457.0339,-546.6777"/>
<text text-anchor="start" x="7.324" y="-557.5" font-family="Arial" font-size="10.00" fill="#000000">FOREIGN KEY (bean_id) REFERENCES beans(id) ON UPDATE CASCADE ON DELETE RESTRICT</text>
</g>
<!-- public.packs -->
<g id="node3" class="node">
<title>public.packs</title>
<polygon fill="#efefef" stroke="transparent" points="669,-237.5 669,-272.5 989,-272.5 989,-237.5 669,-237.5"/>
<polygon fill="none" stroke="#000000" points="669,-237.5 669,-272.5 989,-272.5 989,-237.5 669,-237.5"/>
<text text-anchor="start" x="715.7052" y="-250.3" font-family="Arial Bold" font-size="18.00" fill="#000000">public.packs</text>
<text text-anchor="start" x="814.7268" y="-250.3" font-family="Arial" font-size="14.00" fill="#000000">    </text>
<text text-anchor="start" x="848.9316" y="-250.3" font-family="Arial" font-size="14.00" fill="#666666">[BASE TABLE]</text>
<polygon fill="none" stroke="#000000" points="669,-207.5 669,-237.5 989,-237.5 989,-207.5 669,-207.5"/>
<text text-anchor="start" x="676" y="-218.9" font-family="Arial" font-size="14.00" fill="#000000">id    </text>
<text text-anchor="start" x="721.094" y="-218.9" font-family="Arial" font-size="14.00" fill="#666666">[text]</text>
<polygon fill="none" stroke="#000000" points="669,-177.5 669,-207.5 989,-207.5 989,-177.5 669,-177.5"/>
<text text-anchor="start" x="676" y="-188.9" font-family="Arial" font-size="14.00" fill="#000000">name    </text>
<text text-anchor="start" x="745.2132" y="-188.9" font-family="Arial" font-size="14.00" fill="#666666">[text]</text>
<polygon fill="none" stroke="#000000" points="669,-147.5 669,-177.5 989,-177.5 989,-147.5 669,-147.5"/>
<text text-anchor="start" x="676" y="-158.9" font-family="Arial" font-size="14.00" fill="#000000">description    </text>
<text text-anchor="start" x="777.8822" y="-158.9" font-family="Arial" font-size="14.00" fill="#666666">[text]</text>
<polygon fill="none" stroke="#000000" points="669,-117.5 669,-147.5 989,-147.5 989,-117.5 669,-117.5"/>
<text text-anchor="start" x="676" y="-128.9" font-family="Arial" font-size="14.00" fill="#000000">created_at    </text>
<text text-anchor="start" x="776.3422" y="-128.9" font-family="Arial" font-size="14.00" fill="#666666">[timestamp(3) without time zone]</text>
<polygon fill="none" stroke="#000000" points="669,-87.5 669,-117.5 989,-117.5 989,-87.5 669,-87.5"/>
<text text-anchor="start" x="675.7546" y="-98.9" font-family="Arial" font-size="14.00" fill="#000000">updated_at    </text>
<text text-anchor="start" x="780.0014" y="-98.9" font-family="Arial" font-size="14.00" fill="#666666">[timestamp(3) without time zone]</text>
</g>
<!-- public.beans_packs&#45;&gt;public.packs -->
<g id="edge2" class="edge">
<title>public.beans_packs:pack_id&#45;&gt;public.packs:id</title>
<path fill="none" stroke="#000000" d="M776.077,-516.4655C815.2557,-507.4926 787.0958,-442.0999 766,-397 742.2029,-346.125 692.7971,-366.875 669,-316 651.3931,-278.3588 627.4444,-222.5 669,-222.5"/>
<polygon fill="#000000" stroke="#000000" points="775.9477,-516.4787 765.5404,-513.0235 770.9739,-516.9893 766,-517.5 766,-517.5 766,-517.5 770.9739,-516.9893 766.4596,-521.9765 775.9477,-516.4787 775.9477,-516.4787"/>
<text text-anchor="start" x="773.442" y="-527.5" font-family="Arial" font-size="10.00" fill="#000000">FOREIGN KEY (pack_id) REFERENCES packs(id) ON UPDATE CASCADE ON DELETE RESTRICT</text>
</g>
</g>
</svg>
