<?xml version="1.0" encoding="UTF-8" standalone="no"?>
<!DOCTYPE svg PUBLIC "-//W3C//DTD SVG 1.1//EN"
 "http://www.w3.org/Graphics/SVG/1.1/DTD/svg11.dtd">
<!-- Generated by graphviz version 2.40.1 (20161225.0304)
 -->
<!-- Title: public.flavor_profiles Pages: 1 -->
<svg width="1504pt" height="622pt"
 viewBox="0.00 0.00 1504.00 622.00" xmlns="http://www.w3.org/2000/svg" xmlns:xlink="http://www.w3.org/1999/xlink">
<g id="graph0" class="graph" transform="scale(1 1) rotate(0) translate(4 618)">
<title>public.flavor_profiles</title>
<polygon fill="#ffffff" stroke="transparent" points="-4,4 -4,-618 1500,-618 1500,4 -4,4"/>
<!-- public.flavor_profiles -->
<g id="node1" class="node">
<title>public.flavor_profiles</title>
<polygon fill="#efefef" stroke="transparent" points="528,-225.5 528,-260.5 833,-260.5 833,-225.5 528,-225.5"/>
<polygon fill="none" stroke="#000000" points="528,-225.5 528,-260.5 833,-260.5 833,-225.5 528,-225.5"/>
<text text-anchor="start" x="534.7071" y="-238.3" font-family="Arial Bold" font-size="18.00" fill="#000000">public.flavor_profiles</text>
<text text-anchor="start" x="698.7249" y="-238.3" font-family="Arial" font-size="14.00" fill="#000000">    </text>
<text text-anchor="start" x="732.9297" y="-238.3" font-family="Arial" font-size="14.00" fill="#666666">[BASE TABLE]</text>
<polygon fill="none" stroke="#000000" points="528,-195.5 528,-225.5 833,-225.5 833,-195.5 528,-195.5"/>
<text text-anchor="start" x="535" y="-206.9" font-family="Arial" font-size="14.00" fill="#000000">id </text>
<text text-anchor="start" x="549.7798" y="-206.9" font-family="Arial" font-size="14.00" fill="#666666">[text]</text>
<polygon fill="none" stroke="#000000" points="528,-165.5 528,-195.5 833,-195.5 833,-165.5 528,-165.5"/>
<text text-anchor="start" x="535" y="-176.9" font-family="Arial" font-size="14.00" fill="#000000">value </text>
<text text-anchor="start" x="572.345" y="-176.9" font-family="Arial" font-size="14.00" fill="#666666">[text]</text>
<polygon fill="none" stroke="#000000" points="528,-135.5 528,-165.5 833,-165.5 833,-135.5 528,-135.5"/>
<text text-anchor="start" x="535" y="-146.9" font-family="Arial" font-size="14.00" fill="#000000">label </text>
<text text-anchor="start" x="568.4516" y="-146.9" font-family="Arial" font-size="14.00" fill="#666666">[text]</text>
<polygon fill="none" stroke="#000000" points="528,-105.5 528,-135.5 833,-135.5 833,-105.5 528,-105.5"/>
<text text-anchor="start" x="535" y="-116.9" font-family="Arial" font-size="14.00" fill="#000000">description </text>
<text text-anchor="start" x="606.568" y="-116.9" font-family="Arial" font-size="14.00" fill="#666666">[text]</text>
<polygon fill="none" stroke="#000000" points="528,-75.5 528,-105.5 833,-105.5 833,-75.5 528,-75.5"/>
<text text-anchor="start" x="535" y="-86.9" font-family="Arial" font-size="14.00" fill="#000000">created_at </text>
<text text-anchor="start" x="605.028" y="-86.9" font-family="Arial" font-size="14.00" fill="#666666">[timestamp(3) without time zone]</text>
<polygon fill="none" stroke="#000000" points="528,-45.5 528,-75.5 833,-75.5 833,-45.5 528,-45.5"/>
<text text-anchor="start" x="535" y="-56.9" font-family="Arial" font-size="14.00" fill="#000000">updated_at </text>
<text text-anchor="start" x="608.9326" y="-56.9" font-family="Arial" font-size="14.00" fill="#666666">[timestamp(3) without time zone]</text>
<polygon fill="none" stroke="#000000" stroke-width="3" points="526,-44.5 526,-262.5 834,-262.5 834,-44.5 526,-44.5"/>
</g>
<!-- public.flavor_profile_trees -->
<g id="node2" class="node">
<title>public.flavor_profile_trees</title>
<polygon fill="#efefef" stroke="transparent" points="508,-535.5 508,-570.5 854,-570.5 854,-535.5 508,-535.5"/>
<polygon fill="none" stroke="#000000" points="508,-535.5 508,-570.5 854,-570.5 854,-535.5 508,-535.5"/>
<text text-anchor="start" x="514.7006" y="-548.3" font-family="Arial Bold" font-size="18.00" fill="#000000">public.flavor_profile_trees</text>
<text text-anchor="start" x="719.7314" y="-548.3" font-family="Arial" font-size="14.00" fill="#000000">    </text>
<text text-anchor="start" x="753.9362" y="-548.3" font-family="Arial" font-size="14.00" fill="#666666">[BASE TABLE]</text>
<polygon fill="none" stroke="#000000" points="508,-505.5 508,-535.5 854,-535.5 854,-505.5 508,-505.5"/>
<text text-anchor="start" x="515" y="-516.9" font-family="Arial" font-size="14.00" fill="#000000">id    </text>
<text text-anchor="start" x="560.094" y="-516.9" font-family="Arial" font-size="14.00" fill="#666666">[text]</text>
<polygon fill="none" stroke="#000000" points="508,-475.5 508,-505.5 854,-505.5 854,-475.5 508,-475.5"/>
<text text-anchor="start" x="515" y="-486.9" font-family="Arial" font-size="14.00" fill="#000000">parent_id    </text>
<text text-anchor="start" x="607.5582" y="-486.9" font-family="Arial" font-size="14.00" fill="#666666">[text]</text>
<polygon fill="none" stroke="#000000" points="508,-445.5 508,-475.5 854,-475.5 854,-445.5 508,-445.5"/>
<text text-anchor="start" x="515" y="-456.9" font-family="Arial" font-size="14.00" fill="#000000">child_id    </text>
<text text-anchor="start" x="596.655" y="-456.9" font-family="Arial" font-size="14.00" fill="#666666">[text]</text>
<polygon fill="none" stroke="#000000" points="508,-415.5 508,-445.5 854,-445.5 854,-415.5 508,-415.5"/>
<text text-anchor="start" x="515" y="-426.9" font-family="Arial" font-size="14.00" fill="#000000">created_at    </text>
<text text-anchor="start" x="615.3422" y="-426.9" font-family="Arial" font-size="14.00" fill="#666666">[timestamp(3) without time zone]</text>
<polygon fill="none" stroke="#000000" points="508,-385.5 508,-415.5 854,-415.5 854,-385.5 508,-385.5"/>
<text text-anchor="start" x="515" y="-396.9" font-family="Arial" font-size="14.00" fill="#000000">updated_at    </text>
<text text-anchor="start" x="619.2468" y="-396.9" font-family="Arial" font-size="14.00" fill="#666666">[timestamp(3) without time zone]</text>
</g>
<!-- public.flavor_profile_trees&#45;&gt;public.flavor_profiles -->
<g id="edge1" class="edge">
<title>public.flavor_profile_trees:child_id&#45;&gt;public.flavor_profiles:id</title>
<path fill="none" stroke="#000000" d="M497.9987,-459.3755C458.3092,-449.644 475.6146,-379.1708 508,-343 556.4703,-288.8642 784.5297,-361.1358 833,-307 861.6089,-275.0471 875.8889,-210.5 833,-210.5"/>
<polygon fill="#000000" stroke="#000000" points="498.0626,-459.3826 507.4971,-464.9718 503.0313,-459.9413 508,-460.5 508,-460.5 508,-460.5 503.0313,-459.9413 508.5029,-456.0282 498.0626,-459.3826 498.0626,-459.3826"/>
<text text-anchor="start" x="14.6685" y="-470.5" font-family="Arial" font-size="10.00" fill="#000000">FOREIGN KEY (child_id) REFERENCES flavor_profiles(id) ON UPDATE CASCADE ON DELETE RESTRICT</text>
</g>
<!-- public.flavor_profile_trees&#45;&gt;public.flavor_profiles -->
<g id="edge2" class="edge">
<title>public.flavor_profile_trees:parent_id&#45;&gt;public.flavor_profiles:id</title>
<path fill="none" stroke="#000000" d="M498.0181,-489.6391C444.8973,-479.858 466.6628,-389.169 508,-343 556.4703,-288.8642 784.5297,-361.1358 833,-307 861.6089,-275.0471 875.8889,-210.5 833,-210.5"/>
<polygon fill="#000000" stroke="#000000" points="498.037,-489.6406 507.6133,-494.9834 503.0185,-490.0703 508,-490.5 508,-490.5 508,-490.5 503.0185,-490.0703 508.3867,-486.0166 498.037,-489.6406 498.037,-489.6406"/>
<text text-anchor="start" x="6.7745" y="-500.5" font-family="Arial" font-size="10.00" fill="#000000">FOREIGN KEY (parent_id) REFERENCES flavor_profiles(id) ON UPDATE CASCADE ON DELETE RESTRICT</text>
</g>
<!-- public.bean_flavor_profiles -->
<g id="node3" class="node">
<title>public.bean_flavor_profiles</title>
<polygon fill="#efefef" stroke="transparent" points="959,-535.5 959,-570.5 1314,-570.5 1314,-535.5 959,-535.5"/>
<polygon fill="none" stroke="#000000" points="959,-535.5 959,-570.5 1314,-570.5 1314,-535.5 959,-535.5"/>
<text text-anchor="start" x="965.6916" y="-548.3" font-family="Arial Bold" font-size="18.00" fill="#000000">public.bean_flavor_profiles</text>
<text text-anchor="start" x="1179.7404" y="-548.3" font-family="Arial" font-size="14.00" fill="#000000">    </text>
<text text-anchor="start" x="1213.9452" y="-548.3" font-family="Arial" font-size="14.00" fill="#666666">[BASE TABLE]</text>
<polygon fill="none" stroke="#000000" points="959,-505.5 959,-535.5 1314,-535.5 1314,-505.5 959,-505.5"/>
<text text-anchor="start" x="966" y="-516.9" font-family="Arial" font-size="14.00" fill="#000000">id    </text>
<text text-anchor="start" x="1011.094" y="-516.9" font-family="Arial" font-size="14.00" fill="#666666">[text]</text>
<polygon fill="none" stroke="#000000" points="959,-475.5 959,-505.5 1314,-505.5 1314,-475.5 959,-475.5"/>
<text text-anchor="start" x="966" y="-486.9" font-family="Arial" font-size="14.00" fill="#000000">bean_id    </text>
<text text-anchor="start" x="1050.007" y="-486.9" font-family="Arial" font-size="14.00" fill="#666666">[text]</text>
<polygon fill="none" stroke="#000000" points="959,-445.5 959,-475.5 1314,-475.5 1314,-445.5 959,-445.5"/>
<text text-anchor="start" x="966" y="-456.9" font-family="Arial" font-size="14.00" fill="#000000">flavor_profile_id    </text>
<text text-anchor="start" x="1098.9944" y="-456.9" font-family="Arial" font-size="14.00" fill="#666666">[text]</text>
<polygon fill="none" stroke="#000000" points="959,-415.5 959,-445.5 1314,-445.5 1314,-415.5 959,-415.5"/>
<text text-anchor="start" x="966" y="-426.9" font-family="Arial" font-size="14.00" fill="#000000">created_at    </text>
<text text-anchor="start" x="1066.3422" y="-426.9" font-family="Arial" font-size="14.00" fill="#666666">[timestamp(3) without time zone]</text>
<polygon fill="none" stroke="#000000" points="959,-385.5 959,-415.5 1314,-415.5 1314,-385.5 959,-385.5"/>
<text text-anchor="start" x="966" y="-396.9" font-family="Arial" font-size="14.00" fill="#000000">updated_at    </text>
<text text-anchor="start" x="1070.2468" y="-396.9" font-family="Arial" font-size="14.00" fill="#666666">[timestamp(3) without time zone]</text>
</g>
<!-- public.bean_flavor_profiles&#45;&gt;public.flavor_profiles -->
<g id="edge3" class="edge">
<title>public.bean_flavor_profiles:flavor_profile_id&#45;&gt;public.flavor_profiles:id</title>
<path fill="none" stroke="#000000" d="M948.9711,-459.696C905.3359,-452.0211 929.9693,-390.938 906,-343 875.9313,-282.8634 900.235,-210.5 833,-210.5"/>
<polygon fill="#000000" stroke="#000000" points="949.032,-459.7008 958.6404,-464.9856 954.016,-460.1004 959,-460.5 959,-460.5 959,-460.5 954.016,-460.1004 959.3596,-456.0144 949.032,-459.7008 949.032,-459.7008"/>
<text text-anchor="start" x="966.333" y="-470.5" font-family="Arial" font-size="10.00" fill="#000000">FOREIGN KEY (flavor_profile_id) REFERENCES flavor_profiles(id) ON UPDATE CASCADE ON DELETE RESTRICT</text>
</g>
</g>
</svg>
