<?xml version="1.0" encoding="UTF-8" standalone="no"?>
<!DOCTYPE svg PUBLIC "-//W3C//DTD SVG 1.1//EN"
 "http://www.w3.org/Graphics/SVG/1.1/DTD/svg11.dtd">
<!-- Generated by graphviz version 2.40.1 (20161225.0304)
 -->
<!-- Title: public.processing_methods Pages: 1 -->
<svg width="960pt" height="682pt"
 viewBox="0.00 0.00 959.50 682.00" xmlns="http://www.w3.org/2000/svg" xmlns:xlink="http://www.w3.org/1999/xlink">
<g id="graph0" class="graph" transform="scale(1 1) rotate(0) translate(4 678)">
<title>public.processing_methods</title>
<polygon fill="#ffffff" stroke="transparent" points="-4,4 -4,-678 955.5,-678 955.5,4 -4,4"/>
<!-- public.processing_methods -->
<g id="node1" class="node">
<title>public.processing_methods</title>
<polygon fill="#efefef" stroke="transparent" points="577,-195.5 577,-230.5 906,-230.5 906,-195.5 577,-195.5"/>
<polygon fill="none" stroke="#000000" points="577,-195.5 577,-230.5 906,-230.5 906,-195.5 577,-195.5"/>
<text text-anchor="start" x="583.8471" y="-208.3" font-family="Arial Bold" font-size="18.00" fill="#000000">public.processing_methods</text>
<text text-anchor="start" x="801.8991" y="-208.3" font-family="Arial" font-size="14.00" fill="#000000"> </text>
<text text-anchor="start" x="805.7897" y="-208.3" font-family="Arial" font-size="14.00" fill="#666666">[BASE TABLE]</text>
<polygon fill="none" stroke="#000000" points="577,-165.5 577,-195.5 906,-195.5 906,-165.5 577,-165.5"/>
<text text-anchor="start" x="584" y="-176.9" font-family="Arial" font-size="14.00" fill="#000000">id </text>
<text text-anchor="start" x="598.7798" y="-176.9" font-family="Arial" font-size="14.00" fill="#666666">[text]</text>
<polygon fill="none" stroke="#000000" points="577,-135.5 577,-165.5 906,-165.5 906,-135.5 577,-135.5"/>
<text text-anchor="start" x="584" y="-146.9" font-family="Arial" font-size="14.00" fill="#000000">name </text>
<text text-anchor="start" x="622.899" y="-146.9" font-family="Arial" font-size="14.00" fill="#666666">[text]</text>
<polygon fill="none" stroke="#000000" points="577,-105.5 577,-135.5 906,-135.5 906,-105.5 577,-105.5"/>
<text text-anchor="start" x="584" y="-116.9" font-family="Arial" font-size="14.00" fill="#000000">description </text>
<text text-anchor="start" x="655.568" y="-116.9" font-family="Arial" font-size="14.00" fill="#666666">[text]</text>
<polygon fill="none" stroke="#000000" points="577,-75.5 577,-105.5 906,-105.5 906,-75.5 577,-75.5"/>
<text text-anchor="start" x="584" y="-86.9" font-family="Arial" font-size="14.00" fill="#000000">created_at </text>
<text text-anchor="start" x="654.028" y="-86.9" font-family="Arial" font-size="14.00" fill="#666666">[timestamp(3) without time zone]</text>
<polygon fill="none" stroke="#000000" points="577,-45.5 577,-75.5 906,-75.5 906,-45.5 577,-45.5"/>
<text text-anchor="start" x="584" y="-56.9" font-family="Arial" font-size="14.00" fill="#000000">updated_at </text>
<text text-anchor="start" x="657.9326" y="-56.9" font-family="Arial" font-size="14.00" fill="#666666">[timestamp(3) without time zone]</text>
<polygon fill="none" stroke="#000000" stroke-width="3" points="575,-44.5 575,-232.5 907,-232.5 907,-44.5 575,-44.5"/>
</g>
<!-- public.beans -->
<g id="node2" class="node">
<title>public.beans</title>
<polygon fill="#efefef" stroke="transparent" points="597,-595.5 597,-630.5 887,-630.5 887,-595.5 597,-595.5"/>
<polygon fill="none" stroke="#000000" points="597,-595.5 597,-630.5 887,-630.5 887,-595.5 597,-595.5"/>
<text text-anchor="start" x="642.8561" y="-608.3" font-family="Arial Bold" font-size="18.00" fill="#000000">public.beans</text>
<text text-anchor="start" x="743.8901" y="-608.3" font-family="Arial" font-size="14.00" fill="#000000"> </text>
<text text-anchor="start" x="747.7807" y="-608.3" font-family="Arial" font-size="14.00" fill="#666666">[BASE TABLE]</text>
<polygon fill="none" stroke="#000000" points="597,-565.5 597,-595.5 887,-595.5 887,-565.5 597,-565.5"/>
<text text-anchor="start" x="604" y="-576.9" font-family="Arial" font-size="14.00" fill="#000000">id </text>
<text text-anchor="start" x="618.7798" y="-576.9" font-family="Arial" font-size="14.00" fill="#666666">[text]</text>
<polygon fill="none" stroke="#000000" points="597,-535.5 597,-565.5 887,-565.5 887,-535.5 597,-535.5"/>
<text text-anchor="start" x="604" y="-546.9" font-family="Arial" font-size="14.00" fill="#000000">name </text>
<text text-anchor="start" x="642.899" y="-546.9" font-family="Arial" font-size="14.00" fill="#666666">[text]</text>
<polygon fill="none" stroke="#000000" points="597,-505.5 597,-535.5 887,-535.5 887,-505.5 597,-505.5"/>
<text text-anchor="start" x="604" y="-516.9" font-family="Arial" font-size="14.00" fill="#000000">description </text>
<text text-anchor="start" x="675.568" y="-516.9" font-family="Arial" font-size="14.00" fill="#666666">[text]</text>
<polygon fill="none" stroke="#000000" points="597,-475.5 597,-505.5 887,-505.5 887,-475.5 597,-475.5"/>
<text text-anchor="start" x="604" y="-486.9" font-family="Arial" font-size="14.00" fill="#000000">origin_id </text>
<text text-anchor="start" x="660.784" y="-486.9" font-family="Arial" font-size="14.00" fill="#666666">[text]</text>
<polygon fill="none" stroke="#000000" points="597,-445.5 597,-475.5 887,-475.5 887,-445.5 597,-445.5"/>
<text text-anchor="start" x="604" y="-456.9" font-family="Arial" font-size="14.00" fill="#000000">roast_level_id </text>
<text text-anchor="start" x="694.2398" y="-456.9" font-family="Arial" font-size="14.00" fill="#666666">[text]</text>
<polygon fill="none" stroke="#000000" points="597,-415.5 597,-445.5 887,-445.5 887,-415.5 597,-415.5"/>
<text text-anchor="start" x="604" y="-426.9" font-family="Arial" font-size="14.00" fill="#000000">processing_method_id </text>
<text text-anchor="start" x="748.7068" y="-426.9" font-family="Arial" font-size="14.00" fill="#666666">[text]</text>
<polygon fill="none" stroke="#000000" points="597,-385.5 597,-415.5 887,-415.5 887,-385.5 597,-385.5"/>
<text text-anchor="start" x="604" y="-396.9" font-family="Arial" font-size="14.00" fill="#000000">created_at </text>
<text text-anchor="start" x="674.028" y="-396.9" font-family="Arial" font-size="14.00" fill="#666666">[timestamp(3) without time zone]</text>
<polygon fill="none" stroke="#000000" points="597,-355.5 597,-385.5 887,-385.5 887,-355.5 597,-355.5"/>
<text text-anchor="start" x="603.9117" y="-366.9" font-family="Arial" font-size="14.00" fill="#000000">updated_at </text>
<text text-anchor="start" x="677.8443" y="-366.9" font-family="Arial" font-size="14.00" fill="#666666">[timestamp(3) without time zone]</text>
</g>
<!-- public.beans&#45;&gt;public.processing_methods -->
<g id="edge1" class="edge">
<title>public.beans:processing_method_id&#45;&gt;public.processing_methods:id</title>
<path fill="none" stroke="#000000" d="M587.0002,-429.3768C547.3236,-419.6569 564.7172,-349.2623 597,-313 688.9354,-209.7318 814.0646,-380.2682 906,-277 934.5183,-244.9662 948.8889,-180.5 906,-180.5"/>
<polygon fill="#000000" stroke="#000000" points="587.0625,-429.3837 596.4977,-434.9719 592.0312,-429.9419 597,-430.5 597,-430.5 597,-430.5 592.0312,-429.9419 597.5023,-426.0281 587.0625,-429.3837 587.0625,-429.3837"/>
<text text-anchor="start" x="7.314" y="-440.5" font-family="Arial" font-size="10.00" fill="#000000">FOREIGN KEY (processing_method_id) REFERENCES processing_methods(id) ON UPDATE CASCADE ON DELETE RESTRICT</text>
</g>
</g>
</svg>
