<?xml version="1.0" encoding="UTF-8" standalone="no"?>
<!DOCTYPE svg PUBLIC "-//W3C//DTD SVG 1.1//EN"
 "http://www.w3.org/Graphics/SVG/1.1/DTD/svg11.dtd">
<!-- Generated by graphviz version 2.40.1 (20161225.0304)
 -->
<!-- Title: cbd Pages: 1 -->
<svg width="1841pt" height="1043pt"
 viewBox="0.00 0.00 1841.00 1043.00" xmlns="http://www.w3.org/2000/svg" xmlns:xlink="http://www.w3.org/1999/xlink">
<g id="graph0" class="graph" transform="scale(1 1) rotate(0) translate(4 1039)">
<title>cbd</title>
<polygon fill="#ffffff" stroke="transparent" points="-4,4 -4,-1039 1837,-1039 1837,4 -4,4"/>
<!-- public.beans -->
<g id="node1" class="node">
<title>public.beans</title>
<polygon fill="#efefef" stroke="transparent" points="757,-649.5 757,-684.5 1047,-684.5 1047,-649.5 757,-649.5"/>
<polygon fill="none" stroke="#000000" points="757,-649.5 757,-684.5 1047,-684.5 1047,-649.5 757,-649.5"/>
<text text-anchor="start" x="802.8561" y="-662.3" font-family="Arial Bold" font-size="18.00" fill="#000000">public.beans</text>
<text text-anchor="start" x="903.8901" y="-662.3" font-family="Arial" font-size="14.00" fill="#000000"> </text>
<text text-anchor="start" x="907.7807" y="-662.3" font-family="Arial" font-size="14.00" fill="#666666">[BASE TABLE]</text>
<polygon fill="none" stroke="#000000" points="757,-619.5 757,-649.5 1047,-649.5 1047,-619.5 757,-619.5"/>
<text text-anchor="start" x="764" y="-630.9" font-family="Arial" font-size="14.00" fill="#000000">id </text>
<text text-anchor="start" x="778.7798" y="-630.9" font-family="Arial" font-size="14.00" fill="#666666">[text]</text>
<polygon fill="none" stroke="#000000" points="757,-589.5 757,-619.5 1047,-619.5 1047,-589.5 757,-589.5"/>
<text text-anchor="start" x="764" y="-600.9" font-family="Arial" font-size="14.00" fill="#000000">name </text>
<text text-anchor="start" x="802.899" y="-600.9" font-family="Arial" font-size="14.00" fill="#666666">[text]</text>
<polygon fill="none" stroke="#000000" points="757,-559.5 757,-589.5 1047,-589.5 1047,-559.5 757,-559.5"/>
<text text-anchor="start" x="764" y="-570.9" font-family="Arial" font-size="14.00" fill="#000000">description </text>
<text text-anchor="start" x="835.568" y="-570.9" font-family="Arial" font-size="14.00" fill="#666666">[text]</text>
<polygon fill="none" stroke="#000000" points="757,-529.5 757,-559.5 1047,-559.5 1047,-529.5 757,-529.5"/>
<text text-anchor="start" x="764" y="-540.9" font-family="Arial" font-size="14.00" fill="#000000">origin_id </text>
<text text-anchor="start" x="820.784" y="-540.9" font-family="Arial" font-size="14.00" fill="#666666">[text]</text>
<polygon fill="none" stroke="#000000" points="757,-499.5 757,-529.5 1047,-529.5 1047,-499.5 757,-499.5"/>
<text text-anchor="start" x="764" y="-510.9" font-family="Arial" font-size="14.00" fill="#000000">roast_level_id </text>
<text text-anchor="start" x="854.2398" y="-510.9" font-family="Arial" font-size="14.00" fill="#666666">[text]</text>
<polygon fill="none" stroke="#000000" points="757,-469.5 757,-499.5 1047,-499.5 1047,-469.5 757,-469.5"/>
<text text-anchor="start" x="764" y="-480.9" font-family="Arial" font-size="14.00" fill="#000000">processing_method_id </text>
<text text-anchor="start" x="908.7068" y="-480.9" font-family="Arial" font-size="14.00" fill="#666666">[text]</text>
<polygon fill="none" stroke="#000000" points="757,-439.5 757,-469.5 1047,-469.5 1047,-439.5 757,-439.5"/>
<text text-anchor="start" x="764" y="-450.9" font-family="Arial" font-size="14.00" fill="#000000">created_at </text>
<text text-anchor="start" x="834.028" y="-450.9" font-family="Arial" font-size="14.00" fill="#666666">[timestamp(3) without time zone]</text>
<polygon fill="none" stroke="#000000" points="757,-409.5 757,-439.5 1047,-439.5 1047,-409.5 757,-409.5"/>
<text text-anchor="start" x="763.9117" y="-420.9" font-family="Arial" font-size="14.00" fill="#000000">updated_at </text>
<text text-anchor="start" x="837.8443" y="-420.9" font-family="Arial" font-size="14.00" fill="#666666">[timestamp(3) without time zone]</text>
</g>
<!-- public.origins -->
<g id="node2" class="node">
<title>public.origins</title>
<polygon fill="#efefef" stroke="transparent" points="363,-252.5 363,-287.5 653,-287.5 653,-252.5 363,-252.5"/>
<polygon fill="none" stroke="#000000" points="363,-252.5 363,-287.5 653,-287.5 653,-252.5 363,-252.5"/>
<text text-anchor="start" x="406.8689" y="-265.3" font-family="Arial Bold" font-size="18.00" fill="#000000">public.origins</text>
<text text-anchor="start" x="511.8773" y="-265.3" font-family="Arial" font-size="14.00" fill="#000000"> </text>
<text text-anchor="start" x="515.7679" y="-265.3" font-family="Arial" font-size="14.00" fill="#666666">[BASE TABLE]</text>
<polygon fill="none" stroke="#000000" points="363,-222.5 363,-252.5 653,-252.5 653,-222.5 363,-222.5"/>
<text text-anchor="start" x="370" y="-233.9" font-family="Arial" font-size="14.00" fill="#000000">id </text>
<text text-anchor="start" x="384.7798" y="-233.9" font-family="Arial" font-size="14.00" fill="#666666">[text]</text>
<polygon fill="none" stroke="#000000" points="363,-192.5 363,-222.5 653,-222.5 653,-192.5 363,-192.5"/>
<text text-anchor="start" x="370" y="-203.9" font-family="Arial" font-size="14.00" fill="#000000">name </text>
<text text-anchor="start" x="408.899" y="-203.9" font-family="Arial" font-size="14.00" fill="#666666">[text]</text>
<polygon fill="none" stroke="#000000" points="363,-162.5 363,-192.5 653,-192.5 653,-162.5 363,-162.5"/>
<text text-anchor="start" x="370" y="-173.9" font-family="Arial" font-size="14.00" fill="#000000">description </text>
<text text-anchor="start" x="441.568" y="-173.9" font-family="Arial" font-size="14.00" fill="#666666">[text]</text>
<polygon fill="none" stroke="#000000" points="363,-132.5 363,-162.5 653,-162.5 653,-132.5 363,-132.5"/>
<text text-anchor="start" x="370" y="-143.9" font-family="Arial" font-size="14.00" fill="#000000">longitude </text>
<text text-anchor="start" x="430.69" y="-143.9" font-family="Arial" font-size="14.00" fill="#666666">[double precision]</text>
<polygon fill="none" stroke="#000000" points="363,-102.5 363,-132.5 653,-132.5 653,-102.5 363,-102.5"/>
<text text-anchor="start" x="370" y="-113.9" font-family="Arial" font-size="14.00" fill="#000000">latitude </text>
<text text-anchor="start" x="419.0154" y="-113.9" font-family="Arial" font-size="14.00" fill="#666666">[double precision]</text>
<polygon fill="none" stroke="#000000" points="363,-72.5 363,-102.5 653,-102.5 653,-72.5 363,-72.5"/>
<text text-anchor="start" x="370" y="-83.9" font-family="Arial" font-size="14.00" fill="#000000">created_at </text>
<text text-anchor="start" x="440.028" y="-83.9" font-family="Arial" font-size="14.00" fill="#666666">[timestamp(3) without time zone]</text>
<polygon fill="none" stroke="#000000" points="363,-42.5 363,-72.5 653,-72.5 653,-42.5 363,-42.5"/>
<text text-anchor="start" x="369.9117" y="-53.9" font-family="Arial" font-size="14.00" fill="#000000">updated_at </text>
<text text-anchor="start" x="443.8443" y="-53.9" font-family="Arial" font-size="14.00" fill="#666666">[timestamp(3) without time zone]</text>
</g>
<!-- public.beans&#45;&gt;public.origins -->
<g id="edge1" class="edge">
<title>public.beans:origin_id&#45;&gt;public.origins:id</title>
<path fill="none" stroke="#000000" d="M746.7448,-543.9067C679.7567,-535.5763 730.6943,-441.1882 705,-367 684.7021,-308.3932 715.0223,-237.5 653,-237.5"/>
<polygon fill="#000000" stroke="#000000" points="747.0167,-543.9224 756.7401,-548.9925 752.0083,-544.2112 757,-544.5 757,-544.5 757,-544.5 752.0083,-544.2112 757.2599,-540.0075 747.0167,-543.9224 747.0167,-543.9224"/>
<text text-anchor="start" x="528.616" y="-528.5" font-family="Arial" font-size="10.00" fill="#000000">FOREIGN KEY (origin_id) REFERENCES origins(id) ON UPDATE CASCADE ON DELETE RESTRICT</text>
</g>
<!-- public.roast_levels -->
<g id="node3" class="node">
<title>public.roast_levels</title>
<polygon fill="#efefef" stroke="transparent" points="757,-222.5 757,-257.5 1047,-257.5 1047,-222.5 757,-222.5"/>
<polygon fill="none" stroke="#000000" points="757,-222.5 757,-257.5 1047,-257.5 1047,-222.5 757,-222.5"/>
<text text-anchor="start" x="779.3616" y="-235.3" font-family="Arial Bold" font-size="18.00" fill="#000000">public.roast_levels</text>
<text text-anchor="start" x="927.3846" y="-235.3" font-family="Arial" font-size="14.00" fill="#000000"> </text>
<text text-anchor="start" x="931.2752" y="-235.3" font-family="Arial" font-size="14.00" fill="#666666">[BASE TABLE]</text>
<polygon fill="none" stroke="#000000" points="757,-192.5 757,-222.5 1047,-222.5 1047,-192.5 757,-192.5"/>
<text text-anchor="start" x="764" y="-203.9" font-family="Arial" font-size="14.00" fill="#000000">id </text>
<text text-anchor="start" x="778.7798" y="-203.9" font-family="Arial" font-size="14.00" fill="#666666">[text]</text>
<polygon fill="none" stroke="#000000" points="757,-162.5 757,-192.5 1047,-192.5 1047,-162.5 757,-162.5"/>
<text text-anchor="start" x="764" y="-173.9" font-family="Arial" font-size="14.00" fill="#000000">name </text>
<text text-anchor="start" x="802.899" y="-173.9" font-family="Arial" font-size="14.00" fill="#666666">[text]</text>
<polygon fill="none" stroke="#000000" points="757,-132.5 757,-162.5 1047,-162.5 1047,-132.5 757,-132.5"/>
<text text-anchor="start" x="764" y="-143.9" font-family="Arial" font-size="14.00" fill="#000000">description </text>
<text text-anchor="start" x="835.568" y="-143.9" font-family="Arial" font-size="14.00" fill="#666666">[text]</text>
<polygon fill="none" stroke="#000000" points="757,-102.5 757,-132.5 1047,-132.5 1047,-102.5 757,-102.5"/>
<text text-anchor="start" x="764" y="-113.9" font-family="Arial" font-size="14.00" fill="#000000">created_at </text>
<text text-anchor="start" x="834.028" y="-113.9" font-family="Arial" font-size="14.00" fill="#666666">[timestamp(3) without time zone]</text>
<polygon fill="none" stroke="#000000" points="757,-72.5 757,-102.5 1047,-102.5 1047,-72.5 757,-72.5"/>
<text text-anchor="start" x="763.9117" y="-83.9" font-family="Arial" font-size="14.00" fill="#000000">updated_at </text>
<text text-anchor="start" x="837.8443" y="-83.9" font-family="Arial" font-size="14.00" fill="#666666">[timestamp(3) without time zone]</text>
</g>
<!-- public.beans&#45;&gt;public.roast_levels -->
<g id="edge2" class="edge">
<title>public.beans:roast_level_id&#45;&gt;public.roast_levels:id</title>
<path fill="none" stroke="#000000" d="M1056.8654,-512.2054C1115.0463,-484.112 1111.7578,-207.5 1047,-207.5"/>
<polygon fill="#000000" stroke="#000000" points="1056.74,-512.2345 1045.9805,-510.117 1051.87,-513.3672 1047,-514.5 1047,-514.5 1047,-514.5 1051.87,-513.3672 1048.0195,-518.883 1056.74,-512.2345 1056.74,-512.2345"/>
<text text-anchor="start" x="1054.219" y="-524.5" font-family="Arial" font-size="10.00" fill="#000000">FOREIGN KEY (roast_level_id) REFERENCES roast_levels(id) ON UPDATE CASCADE ON DELETE RESTRICT</text>
</g>
<!-- public.processing_methods -->
<g id="node4" class="node">
<title>public.processing_methods</title>
<polygon fill="#efefef" stroke="transparent" points="1152,-222.5 1152,-257.5 1481,-257.5 1481,-222.5 1152,-222.5"/>
<polygon fill="none" stroke="#000000" points="1152,-222.5 1152,-257.5 1481,-257.5 1481,-222.5 1152,-222.5"/>
<text text-anchor="start" x="1158.8471" y="-235.3" font-family="Arial Bold" font-size="18.00" fill="#000000">public.processing_methods</text>
<text text-anchor="start" x="1376.8991" y="-235.3" font-family="Arial" font-size="14.00" fill="#000000"> </text>
<text text-anchor="start" x="1380.7897" y="-235.3" font-family="Arial" font-size="14.00" fill="#666666">[BASE TABLE]</text>
<polygon fill="none" stroke="#000000" points="1152,-192.5 1152,-222.5 1481,-222.5 1481,-192.5 1152,-192.5"/>
<text text-anchor="start" x="1159" y="-203.9" font-family="Arial" font-size="14.00" fill="#000000">id </text>
<text text-anchor="start" x="1173.7798" y="-203.9" font-family="Arial" font-size="14.00" fill="#666666">[text]</text>
<polygon fill="none" stroke="#000000" points="1152,-162.5 1152,-192.5 1481,-192.5 1481,-162.5 1152,-162.5"/>
<text text-anchor="start" x="1159" y="-173.9" font-family="Arial" font-size="14.00" fill="#000000">name </text>
<text text-anchor="start" x="1197.899" y="-173.9" font-family="Arial" font-size="14.00" fill="#666666">[text]</text>
<polygon fill="none" stroke="#000000" points="1152,-132.5 1152,-162.5 1481,-162.5 1481,-132.5 1152,-132.5"/>
<text text-anchor="start" x="1159" y="-143.9" font-family="Arial" font-size="14.00" fill="#000000">description </text>
<text text-anchor="start" x="1230.568" y="-143.9" font-family="Arial" font-size="14.00" fill="#666666">[text]</text>
<polygon fill="none" stroke="#000000" points="1152,-102.5 1152,-132.5 1481,-132.5 1481,-102.5 1152,-102.5"/>
<text text-anchor="start" x="1159" y="-113.9" font-family="Arial" font-size="14.00" fill="#000000">created_at </text>
<text text-anchor="start" x="1229.028" y="-113.9" font-family="Arial" font-size="14.00" fill="#666666">[timestamp(3) without time zone]</text>
<polygon fill="none" stroke="#000000" points="1152,-72.5 1152,-102.5 1481,-102.5 1481,-72.5 1152,-72.5"/>
<text text-anchor="start" x="1159" y="-83.9" font-family="Arial" font-size="14.00" fill="#000000">updated_at </text>
<text text-anchor="start" x="1232.9326" y="-83.9" font-family="Arial" font-size="14.00" fill="#666666">[timestamp(3) without time zone]</text>
</g>
<!-- public.beans&#45;&gt;public.processing_methods -->
<g id="edge3" class="edge">
<title>public.beans:processing_method_id&#45;&gt;public.processing_methods:id</title>
<path fill="none" stroke="#000000" d="M1057.0006,-482.1053C1110.1903,-455.0316 1089.7705,-207.5 1152,-207.5"/>
<polygon fill="#000000" stroke="#000000" points="1056.7251,-482.1712 1045.952,-480.1237 1051.8625,-483.3356 1047,-484.5 1047,-484.5 1047,-484.5 1051.8625,-483.3356 1048.048,-488.8763 1056.7251,-482.1712 1056.7251,-482.1712"/>
<text text-anchor="start" x="1054.314" y="-494.5" font-family="Arial" font-size="10.00" fill="#000000">FOREIGN KEY (processing_method_id) REFERENCES processing_methods(id) ON UPDATE CASCADE ON DELETE RESTRICT</text>
</g>
<!-- public.flavor_profiles -->
<g id="node5" class="node">
<title>public.flavor_profiles</title>
<polygon fill="#efefef" stroke="transparent" points="363,-619.5 363,-654.5 653,-654.5 653,-619.5 363,-619.5"/>
<polygon fill="none" stroke="#000000" points="363,-619.5 363,-654.5 653,-654.5 653,-619.5 363,-619.5"/>
<text text-anchor="start" x="377.3642" y="-632.3" font-family="Arial Bold" font-size="18.00" fill="#000000">public.flavor_profiles</text>
<text text-anchor="start" x="541.382" y="-632.3" font-family="Arial" font-size="14.00" fill="#000000"> </text>
<text text-anchor="start" x="545.2726" y="-632.3" font-family="Arial" font-size="14.00" fill="#666666">[BASE TABLE]</text>
<polygon fill="none" stroke="#000000" points="363,-589.5 363,-619.5 653,-619.5 653,-589.5 363,-589.5"/>
<text text-anchor="start" x="370" y="-600.9" font-family="Arial" font-size="14.00" fill="#000000">id </text>
<text text-anchor="start" x="384.7798" y="-600.9" font-family="Arial" font-size="14.00" fill="#666666">[text]</text>
<polygon fill="none" stroke="#000000" points="363,-559.5 363,-589.5 653,-589.5 653,-559.5 363,-559.5"/>
<text text-anchor="start" x="370" y="-570.9" font-family="Arial" font-size="14.00" fill="#000000">value </text>
<text text-anchor="start" x="407.345" y="-570.9" font-family="Arial" font-size="14.00" fill="#666666">[text]</text>
<polygon fill="none" stroke="#000000" points="363,-529.5 363,-559.5 653,-559.5 653,-529.5 363,-529.5"/>
<text text-anchor="start" x="370" y="-540.9" font-family="Arial" font-size="14.00" fill="#000000">label </text>
<text text-anchor="start" x="403.4516" y="-540.9" font-family="Arial" font-size="14.00" fill="#666666">[text]</text>
<polygon fill="none" stroke="#000000" points="363,-499.5 363,-529.5 653,-529.5 653,-499.5 363,-499.5"/>
<text text-anchor="start" x="370" y="-510.9" font-family="Arial" font-size="14.00" fill="#000000">description </text>
<text text-anchor="start" x="441.568" y="-510.9" font-family="Arial" font-size="14.00" fill="#666666">[text]</text>
<polygon fill="none" stroke="#000000" points="363,-469.5 363,-499.5 653,-499.5 653,-469.5 363,-469.5"/>
<text text-anchor="start" x="370" y="-480.9" font-family="Arial" font-size="14.00" fill="#000000">created_at </text>
<text text-anchor="start" x="440.028" y="-480.9" font-family="Arial" font-size="14.00" fill="#666666">[timestamp(3) without time zone]</text>
<polygon fill="none" stroke="#000000" points="363,-439.5 363,-469.5 653,-469.5 653,-439.5 363,-439.5"/>
<text text-anchor="start" x="369.9117" y="-450.9" font-family="Arial" font-size="14.00" fill="#000000">updated_at </text>
<text text-anchor="start" x="443.8443" y="-450.9" font-family="Arial" font-size="14.00" fill="#666666">[timestamp(3) without time zone]</text>
</g>
<!-- public.bean_flavor_profiles -->
<g id="node6" class="node">
<title>public.bean_flavor_profiles</title>
<polygon fill="#efefef" stroke="transparent" points="537,-956.5 537,-991.5 862,-991.5 862,-956.5 537,-956.5"/>
<polygon fill="none" stroke="#000000" points="537,-956.5 537,-991.5 862,-991.5 862,-956.5 537,-956.5"/>
<text text-anchor="start" x="543.8487" y="-969.3" font-family="Arial Bold" font-size="18.00" fill="#000000">public.bean_flavor_profiles</text>
<text text-anchor="start" x="757.8975" y="-969.3" font-family="Arial" font-size="14.00" fill="#000000"> </text>
<text text-anchor="start" x="761.7881" y="-969.3" font-family="Arial" font-size="14.00" fill="#666666">[BASE TABLE]</text>
<polygon fill="none" stroke="#000000" points="537,-926.5 537,-956.5 862,-956.5 862,-926.5 537,-926.5"/>
<text text-anchor="start" x="544" y="-937.9" font-family="Arial" font-size="14.00" fill="#000000">id </text>
<text text-anchor="start" x="558.7798" y="-937.9" font-family="Arial" font-size="14.00" fill="#666666">[text]</text>
<polygon fill="none" stroke="#000000" points="537,-896.5 537,-926.5 862,-926.5 862,-896.5 537,-896.5"/>
<text text-anchor="start" x="544" y="-907.9" font-family="Arial" font-size="14.00" fill="#000000">bean_id </text>
<text text-anchor="start" x="597.6928" y="-907.9" font-family="Arial" font-size="14.00" fill="#666666">[text]</text>
<polygon fill="none" stroke="#000000" points="537,-866.5 537,-896.5 862,-896.5 862,-866.5 537,-866.5"/>
<text text-anchor="start" x="544" y="-877.9" font-family="Arial" font-size="14.00" fill="#000000">flavor_profile_id </text>
<text text-anchor="start" x="646.6802" y="-877.9" font-family="Arial" font-size="14.00" fill="#666666">[text]</text>
<polygon fill="none" stroke="#000000" points="537,-836.5 537,-866.5 862,-866.5 862,-836.5 537,-836.5"/>
<text text-anchor="start" x="544" y="-847.9" font-family="Arial" font-size="14.00" fill="#000000">created_at </text>
<text text-anchor="start" x="614.028" y="-847.9" font-family="Arial" font-size="14.00" fill="#666666">[timestamp(3) without time zone]</text>
<polygon fill="none" stroke="#000000" points="537,-806.5 537,-836.5 862,-836.5 862,-806.5 537,-806.5"/>
<text text-anchor="start" x="544" y="-817.9" font-family="Arial" font-size="14.00" fill="#000000">updated_at </text>
<text text-anchor="start" x="617.9326" y="-817.9" font-family="Arial" font-size="14.00" fill="#666666">[timestamp(3) without time zone]</text>
</g>
<!-- public.bean_flavor_profiles&#45;&gt;public.beans -->
<g id="edge4" class="edge">
<title>public.bean_flavor_profiles:bean_id&#45;&gt;public.beans:id</title>
<path fill="none" stroke="#000000" d="M872.2591,-910.6183C924.4116,-900.9649 897.9452,-814.3233 862,-764 833.3256,-723.8558 785.6744,-768.1442 757,-728 732.8463,-694.1849 715.4444,-634.5 757,-634.5"/>
<polygon fill="#000000" stroke="#000000" points="871.9633,-910.6437 861.6147,-907.0165 866.9816,-911.0718 862,-911.5 862,-911.5 862,-911.5 866.9816,-911.0718 862.3853,-915.9835 871.9633,-910.6437 871.9633,-910.6437"/>
<text text-anchor="start" x="869.324" y="-921.5" font-family="Arial" font-size="10.00" fill="#000000">FOREIGN KEY (bean_id) REFERENCES beans(id) ON UPDATE CASCADE ON DELETE RESTRICT</text>
</g>
<!-- public.bean_flavor_profiles&#45;&gt;public.flavor_profiles -->
<g id="edge5" class="edge">
<title>public.bean_flavor_profiles:flavor_profile_id&#45;&gt;public.flavor_profiles:id</title>
<path fill="none" stroke="#000000" d="M526.6327,-880.345C488.6341,-870.9094 512.6948,-805.7927 537,-764 566.8201,-712.7245 623.1799,-749.2755 653,-698 673.8912,-662.0776 694.5556,-604.5 653,-604.5"/>
<polygon fill="#000000" stroke="#000000" points="527.0615,-880.3927 536.5017,-885.9723 532.0307,-880.9463 537,-881.5 537,-881.5 537,-881.5 532.0307,-880.9463 537.4983,-877.0277 527.0615,-880.3927 527.0615,-880.3927"/>
<text text-anchor="start" x="7.333" y="-891.5" font-family="Arial" font-size="10.00" fill="#000000">FOREIGN KEY (flavor_profile_id) REFERENCES flavor_profiles(id) ON UPDATE CASCADE ON DELETE RESTRICT</text>
</g>
<!-- public.tastings -->
<g id="node7" class="node">
<title>public.tastings</title>
<polygon fill="#efefef" stroke="transparent" points="1151,-649.5 1151,-684.5 1455,-684.5 1455,-649.5 1151,-649.5"/>
<polygon fill="none" stroke="#000000" points="1151,-649.5 1151,-684.5 1455,-684.5 1455,-649.5 1151,-649.5"/>
<text text-anchor="start" x="1197.3599" y="-662.3" font-family="Arial Bold" font-size="18.00" fill="#000000">public.tastings</text>
<text text-anchor="start" x="1311.3863" y="-662.3" font-family="Arial" font-size="14.00" fill="#000000"> </text>
<text text-anchor="start" x="1315.2769" y="-662.3" font-family="Arial" font-size="14.00" fill="#666666">[BASE TABLE]</text>
<polygon fill="none" stroke="#000000" points="1151,-619.5 1151,-649.5 1455,-649.5 1455,-619.5 1151,-619.5"/>
<text text-anchor="start" x="1158" y="-630.9" font-family="Arial" font-size="14.00" fill="#000000">id </text>
<text text-anchor="start" x="1172.7798" y="-630.9" font-family="Arial" font-size="14.00" fill="#666666">[text]</text>
<polygon fill="none" stroke="#000000" points="1151,-589.5 1151,-619.5 1455,-619.5 1455,-589.5 1151,-589.5"/>
<text text-anchor="start" x="1158" y="-600.9" font-family="Arial" font-size="14.00" fill="#000000">name </text>
<text text-anchor="start" x="1196.899" y="-600.9" font-family="Arial" font-size="14.00" fill="#666666">[text]</text>
<polygon fill="none" stroke="#000000" points="1151,-559.5 1151,-589.5 1455,-589.5 1455,-559.5 1151,-559.5"/>
<text text-anchor="start" x="1158" y="-570.9" font-family="Arial" font-size="14.00" fill="#000000">description </text>
<text text-anchor="start" x="1229.568" y="-570.9" font-family="Arial" font-size="14.00" fill="#666666">[text]</text>
<polygon fill="none" stroke="#000000" points="1151,-529.5 1151,-559.5 1455,-559.5 1455,-529.5 1151,-529.5"/>
<text text-anchor="start" x="1158" y="-540.9" font-family="Arial" font-size="14.00" fill="#000000">acidity </text>
<text text-anchor="start" x="1201.5596" y="-540.9" font-family="Arial" font-size="14.00" fill="#666666">[integer]</text>
<polygon fill="none" stroke="#000000" points="1151,-499.5 1151,-529.5 1455,-529.5 1455,-499.5 1151,-499.5"/>
<text text-anchor="start" x="1158" y="-510.9" font-family="Arial" font-size="14.00" fill="#000000">richness </text>
<text text-anchor="start" x="1214.0056" y="-510.9" font-family="Arial" font-size="14.00" fill="#666666">[integer]</text>
<polygon fill="none" stroke="#000000" points="1151,-469.5 1151,-499.5 1455,-499.5 1455,-469.5 1151,-469.5"/>
<text text-anchor="start" x="1157.9117" y="-480.9" font-family="Arial" font-size="14.00" fill="#000000">conducted_at </text>
<text text-anchor="start" x="1245.8443" y="-480.9" font-family="Arial" font-size="14.00" fill="#666666">[timestamp(3) without time zone]</text>
<polygon fill="none" stroke="#000000" points="1151,-439.5 1151,-469.5 1455,-469.5 1455,-439.5 1151,-439.5"/>
<text text-anchor="start" x="1158" y="-450.9" font-family="Arial" font-size="14.00" fill="#000000">created_at </text>
<text text-anchor="start" x="1228.028" y="-450.9" font-family="Arial" font-size="14.00" fill="#666666">[timestamp(3) without time zone]</text>
<polygon fill="none" stroke="#000000" points="1151,-409.5 1151,-439.5 1455,-439.5 1455,-409.5 1151,-409.5"/>
<text text-anchor="start" x="1158" y="-420.9" font-family="Arial" font-size="14.00" fill="#000000">updated_at </text>
<text text-anchor="start" x="1231.9326" y="-420.9" font-family="Arial" font-size="14.00" fill="#666666">[timestamp(3) without time zone]</text>
</g>
<!-- public.bean_tastings -->
<g id="node8" class="node">
<title>public.bean_tastings</title>
<polygon fill="#efefef" stroke="transparent" points="1062,-941.5 1062,-976.5 1352,-976.5 1352,-941.5 1062,-941.5"/>
<polygon fill="none" stroke="#000000" points="1062,-941.5 1062,-976.5 1352,-976.5 1352,-941.5 1062,-941.5"/>
<text text-anchor="start" x="1076.3444" y="-954.3" font-family="Arial Bold" font-size="18.00" fill="#000000">public.bean_tastings</text>
<text text-anchor="start" x="1240.4018" y="-954.3" font-family="Arial" font-size="14.00" fill="#000000"> </text>
<text text-anchor="start" x="1244.2924" y="-954.3" font-family="Arial" font-size="14.00" fill="#666666">[BASE TABLE]</text>
<polygon fill="none" stroke="#000000" points="1062,-911.5 1062,-941.5 1352,-941.5 1352,-911.5 1062,-911.5"/>
<text text-anchor="start" x="1069" y="-922.9" font-family="Arial" font-size="14.00" fill="#000000">tasting_id </text>
<text text-anchor="start" x="1132.798" y="-922.9" font-family="Arial" font-size="14.00" fill="#666666">[text]</text>
<polygon fill="none" stroke="#000000" points="1062,-881.5 1062,-911.5 1352,-911.5 1352,-881.5 1062,-881.5"/>
<text text-anchor="start" x="1069" y="-892.9" font-family="Arial" font-size="14.00" fill="#000000">bean_id </text>
<text text-anchor="start" x="1122.6928" y="-892.9" font-family="Arial" font-size="14.00" fill="#666666">[text]</text>
<polygon fill="none" stroke="#000000" points="1062,-851.5 1062,-881.5 1352,-881.5 1352,-851.5 1062,-851.5"/>
<text text-anchor="start" x="1069" y="-862.9" font-family="Arial" font-size="14.00" fill="#000000">created_at </text>
<text text-anchor="start" x="1139.028" y="-862.9" font-family="Arial" font-size="14.00" fill="#666666">[timestamp(3) without time zone]</text>
<polygon fill="none" stroke="#000000" points="1062,-821.5 1062,-851.5 1352,-851.5 1352,-821.5 1062,-821.5"/>
<text text-anchor="start" x="1068.9117" y="-832.9" font-family="Arial" font-size="14.00" fill="#000000">updated_at </text>
<text text-anchor="start" x="1142.8443" y="-832.9" font-family="Arial" font-size="14.00" fill="#666666">[timestamp(3) without time zone]</text>
</g>
<!-- public.bean_tastings&#45;&gt;public.beans -->
<g id="edge6" class="edge">
<title>public.bean_tastings:bean_id&#45;&gt;public.beans:id</title>
<path fill="none" stroke="#000000" d="M1052.0262,-895.7484C958.6797,-880.3809 1159.9903,-634.5 1047,-634.5"/>
<polygon fill="#000000" stroke="#000000" points="1052.0283,-895.7485 1061.6618,-900.9873 1057.0141,-896.1242 1062,-896.5 1062,-896.5 1062,-896.5 1057.0141,-896.1242 1062.3382,-892.0127 1052.0283,-895.7485 1052.0283,-895.7485"/>
<text text-anchor="start" x="1069.324" y="-880.5" font-family="Arial" font-size="10.00" fill="#000000">FOREIGN KEY (bean_id) REFERENCES beans(id) ON UPDATE CASCADE ON DELETE RESTRICT</text>
</g>
<!-- public.bean_tastings&#45;&gt;public.tastings -->
<g id="edge7" class="edge">
<title>public.bean_tastings:tasting_id&#45;&gt;public.tastings:id</title>
<path fill="none" stroke="#000000" d="M1362.2787,-925.6038C1414.6413,-915.7936 1389.973,-827.8112 1352,-779 1295.4086,-706.2564 1207.5914,-800.7436 1151,-728 1125.4837,-695.2009 1109.4444,-634.5 1151,-634.5"/>
<polygon fill="#000000" stroke="#000000" points="1361.9622,-925.6313 1351.6091,-922.017 1356.9811,-926.0656 1352,-926.5 1352,-926.5 1352,-926.5 1356.9811,-926.0656 1352.3909,-930.983 1361.9622,-925.6313 1361.9622,-925.6313"/>
<text text-anchor="start" x="1359.106" y="-936.5" font-family="Arial" font-size="10.00" fill="#000000">FOREIGN KEY (tasting_id) REFERENCES tastings(id) ON UPDATE CASCADE ON DELETE RESTRICT</text>
</g>
</g>
</svg>
